<svg width="24" height="29" viewBox="0 0 24 29" fill="none" xmlns="http://www.w3.org/2000/svg">
<g id="Group 1626">
<g id="Vector">
<path d="M12 28.9404C13.6369 28.9404 15.0465 27.9516 15.665 26.5404H8.33502C8.95353 27.9516 10.3632 28.9404 12 28.9404Z" fill="#919191"/>
<path d="M20.2667 14.8531V13.1004C20.2667 9.37659 17.7914 6.22039 14.4 5.18951V4.03378C14.4 2.71043 13.3234 1.63379 12 1.63379C10.6767 1.63379 9.60003 2.71043 9.60003 4.03378V5.18951C6.20858 6.22039 3.73338 9.37654 3.73338 13.1004V14.8531C3.73338 18.1241 2.48656 21.2257 0.222622 23.5867C0.000755664 23.818 -0.0615909 24.1594 0.0641688 24.4543C0.189928 24.7491 0.479528 24.9404 0.80006 24.9404H23.2C23.5205 24.9404 23.8101 24.7491 23.9358 24.4543C24.0616 24.1594 23.9992 23.818 23.7774 23.5867C21.5135 21.2257 20.2667 18.124 20.2667 14.8531ZM12.8 4.87261C12.5367 4.84722 12.2699 4.83378 12 4.83378C11.7302 4.83378 11.4633 4.84722 11.2 4.87261V4.03378C11.2 3.59266 11.5589 3.23378 12 3.23378C12.4411 3.23378 12.8 3.59266 12.8 4.03378V4.87261Z" fill="#919191"/>
<path d="M22.4 13.1004C22.4 13.5422 22.7582 13.9004 23.2 13.9004C23.6418 13.9004 24 13.5422 24 13.1004C24 9.8951 22.7518 6.88161 20.4853 4.61511C20.1729 4.30274 19.6663 4.30269 19.3539 4.61511C19.0415 4.92754 19.0415 5.43404 19.3539 5.74647C21.3182 7.71078 22.4 10.3225 22.4 13.1004Z" fill="#919191"/>
<path d="M0.80006 13.9004C1.24187 13.9004 1.60006 13.5422 1.60006 13.1004C1.60006 10.3225 2.68187 7.71084 4.64613 5.74652C4.95855 5.4341 4.95855 4.92759 4.64613 4.61517C4.33376 4.30274 3.8272 4.30274 3.51477 4.61517C1.24827 6.88167 6.22538e-05 9.8951 6.22538e-05 13.1004C6.22538e-05 13.5422 0.358248 13.9004 0.80006 13.9004Z" fill="#919191"/>
</g>
<circle id="Ellipse 36" cx="18" cy="5.63379" r="4.5" fill="#D200FF" stroke="white"/>
</g>
</svg>
