<svg width="26" height="24" viewBox="0 0 26 24" fill="none" xmlns="http://www.w3.org/2000/svg">
<path id="Vector" d="M19.0938 0.787109C17.6829 0.787109 16.3894 1.2351 15.2493 2.11867C14.1562 2.96575 13.4284 4.04466 13 4.82921C12.5716 4.04461 11.8438 2.96575 10.7507 2.11867C9.61061 1.2351 8.31711 0.787109 6.90625 0.787109C2.96908 0.787109 0 4.01408 0 8.29335C0 12.9165 3.70414 16.0795 9.31171 20.8679C10.264 21.6811 11.3433 22.6029 12.4652 23.5859C12.613 23.7157 12.803 23.7871 13 23.7871C13.197 23.7871 13.387 23.7157 13.5348 23.586C14.6568 22.6028 15.7361 21.6811 16.6889 20.8674C22.2959 16.0795 26 12.9165 26 8.29335C26 4.01408 23.0309 0.787109 19.0938 0.787109Z" fill="#D200FF"/>
</svg>
