<svg width="30" height="30" viewBox="0 0 30 30" fill="none" xmlns="http://www.w3.org/2000/svg">
<g id="Button" clip-path="url(#clip0_453_51569)">
<path id="Vector" d="M30 15C30 23.2844 23.2844 30 15 30C6.71562 30 0 23.2844 0 15C0 6.71562 6.71562 0 15 0C23.2844 0 30 6.71562 30 15Z" fill="white"/>
<g id="Group">
<path id="Vector_2" d="M15 3.28125C14.5145 3.28125 14.1211 3.6747 14.1211 4.16016C14.1211 4.64561 14.5145 5.03906 15 5.03906C20.4925 5.03906 24.9609 9.50752 24.9609 15C24.9609 20.4925 20.4925 24.9609 15 24.9609C9.50752 24.9609 5.03906 20.4925 5.03906 15C5.03906 14.5145 4.64561 14.1211 4.16016 14.1211C3.6747 14.1211 3.28125 14.5145 3.28125 15C3.28125 21.4618 8.53821 26.7188 15 26.7188C21.4618 26.7188 26.7188 21.4618 26.7188 15C26.7188 8.53821 21.4618 3.28125 15 3.28125Z" fill="#3131FF"/>
<path id="Vector_3" d="M10.2585 6.11048C10.3706 6.11048 10.4844 6.08897 10.5945 6.04342L11.7826 5.55133C12.231 5.36547 12.4441 4.85141 12.2582 4.4028C12.0726 3.95442 11.5583 3.74156 11.1099 3.92718L9.92179 4.41928C9.47341 4.60513 9.26032 5.1192 9.44594 5.56781C9.58625 5.90632 9.91355 6.11048 10.2585 6.11048Z" fill="#3131FF"/>
<path id="Vector_4" d="M6.88092 8.66868C7.10591 8.66868 7.33067 8.58285 7.50233 8.41119L8.41168 7.50184C8.755 7.15852 8.755 6.60211 8.41168 6.25879C8.06858 5.91569 7.51194 5.91569 7.16885 6.25879L6.25927 7.16836C5.91618 7.51146 5.91618 8.06787 6.25927 8.41119C6.43093 8.58285 6.65593 8.66868 6.88092 8.66868Z" fill="#3131FF"/>
<path id="Vector_5" d="M4.40229 12.2579C4.51215 12.3034 4.62614 12.3252 4.73829 12.3252C5.08298 12.3252 5.41029 12.1208 5.55059 11.7823L6.04269 10.5941C6.22831 10.1458 6.01545 9.63145 5.56707 9.44583C5.11846 9.25998 4.60439 9.47307 4.41854 9.92145L3.92644 11.1096C3.74082 11.5582 3.95368 12.0722 4.40229 12.2579Z" fill="#3131FF"/>
<path id="Vector_6" d="M15.0006 10.4465C14.5152 10.4465 14.1217 10.84 14.1217 11.3254V14.121H11.3262C10.8407 14.121 10.4473 14.5145 10.4473 14.9999C10.4473 15.4854 10.8407 15.8788 11.3262 15.8788H14.1217V18.6744C14.1217 19.1598 14.5152 19.5533 15.0006 19.5533C15.4861 19.5533 15.8795 19.1598 15.8795 18.6744V15.8788H18.6751C19.1606 15.8788 19.554 15.4854 19.554 14.9999C19.554 14.5145 19.1606 14.121 18.6751 14.121H15.8795V11.3254C15.8795 10.84 15.4861 10.4465 15.0006 10.4465Z" fill="#3131FF"/>
</g>
</g>
<defs>
<clipPath id="clip0_453_51569">
<rect width="30" height="30" fill="white"/>
</clipPath>
</defs>
</svg>
