<svg width="146" height="146" viewBox="0 0 146 146" fill="none" xmlns="http://www.w3.org/2000/svg">
<g id="Capa 1">
<g id="Group">
<g id="Group_2">
<path id="Vector" d="M103.443 7.78223L103.822 8.66335L104.412 8.24377C104.075 8.07593 103.738 7.95006 103.443 7.78223Z" fill="#B0508C"/>
<path id="Vector_2" d="M102.012 7.15283L103.822 8.70528L103.443 7.82416C102.98 7.61437 102.475 7.36262 102.012 7.15283Z" fill="#958EC4"/>
<path id="Vector_3" d="M122.096 26.6213L121.633 19.95C119.654 18.1458 117.591 16.4675 115.401 14.873L115.317 15.2087L122.096 26.6213Z" fill="#65A198"/>
<path id="Vector_4" d="M115.401 14.8311C111.991 12.3555 108.327 10.1318 104.412 8.24365L103.822 8.66323L115.275 15.2087L115.359 14.873L115.401 14.8311Z" fill="#E4DB8A"/>
<path id="Vector_5" d="M115.317 15.2085L104.243 27.5861L122.095 26.6211L115.317 15.2085Z" fill="#958EC4"/>
<path id="Vector_6" d="M103.864 8.66309L104.243 27.5862L115.317 15.2085L103.864 8.66309Z" fill="#B3C0DB"/>
<path id="Vector_7" d="M123.485 21.7119C122.853 21.1245 122.264 20.4951 121.632 19.9077L122.095 26.579L123.527 21.67L123.485 21.7119Z" fill="#B0508C"/>
<path id="Vector_8" d="M121.885 31.9499L126.601 24.9429C126.096 24.3555 125.548 23.7681 125.001 23.2227L122.096 26.6213L121.885 31.9499Z" fill="#B0508C"/>
<path id="Vector_9" d="M125.001 23.2224C124.496 22.7189 124.032 22.2154 123.527 21.7119L122.096 26.621L125.001 23.2224Z" fill="#E4DB8A"/>
<path id="Vector_10" d="M86.5597 23.6423L104.244 27.5864L79.9072 11.3066L86.5597 23.6423Z" fill="#958EC4"/>
<path id="Vector_11" d="M86.5594 23.6423L79.9069 11.3066L68.2861 19.6563L86.5594 23.6423Z" fill="#A8D59E"/>
<path id="Vector_12" d="M84.3282 1.90796C83.6124 1.78209 82.8966 1.69817 82.1388 1.61426L79.9072 11.3066L84.3282 1.90796Z" fill="#958EC4"/>
<path id="Vector_13" d="M78.0968 6.43958L79.9073 11.3067L82.1388 1.6144C80.7072 1.44657 79.2757 1.27874 77.8441 1.19482L76.4126 1.86615L78.0968 6.43958Z" fill="#A8D59E"/>
<path id="Vector_14" d="M77.8858 1.19472C77.1701 1.15276 76.4122 1.11081 75.6543 1.06885L76.4122 1.86605L77.8437 1.19472H77.8858Z" fill="#B0508C"/>
<path id="Vector_15" d="M122.095 26.6211L104.243 27.5861L121.885 31.9498L122.095 26.6211Z" fill="#65A198"/>
<path id="Vector_16" d="M103.822 8.70508L101.886 7.06872C97.6331 5.22256 93.1279 3.75403 88.3701 2.70508L89.3385 11.2226L103.822 8.70508Z" fill="#B3C0DB"/>
<path id="Vector_17" d="M89.3382 11.2224L88.3698 2.70492C88.033 2.621 87.6962 2.53709 87.3172 2.45317C86.3067 2.24338 85.2962 2.07555 84.2857 1.90771L79.8647 11.3063L89.2961 11.2224H89.3382Z" fill="#5B3594"/>
<path id="Vector_18" d="M104.243 27.5862L103.822 8.70508L89.3384 11.2226L104.243 27.5862Z" fill="#558F6B"/>
<path id="Vector_19" d="M79.9072 11.3066L104.244 27.5863L89.3386 11.2227L79.9072 11.3066Z" fill="#B0508C"/>
<path id="Vector_20" d="M75.6545 1.06885C75.6545 1.06885 75.2335 1.06885 75.0229 1.06885L76.4124 1.90801L75.6545 1.11081V1.06885Z" fill="#958EC4"/>
<path id="Vector_21" d="M78.0965 6.43941L72.2861 0.984863C65.5495 0.984863 58.9391 2.03381 52.6655 3.83801L76.665 6.35549L78.0965 6.43941Z" fill="#B0508C"/>
<path id="Vector_22" d="M78.0965 6.43941L76.4124 1.86598L75.0229 1.02682C74.0966 1.02682 73.2124 0.984863 72.2861 0.984863L78.0965 6.43941Z" fill="#B3C0DB"/>
<path id="Vector_23" d="M79.9071 11.3063L60.3286 9.12451L68.2863 19.656L79.9071 11.3063Z" fill="#958EC4"/>
<path id="Vector_24" d="M78.0967 6.43929L76.6651 6.35537L52.6657 3.83789C51.2762 4.21551 49.9289 4.67705 48.5815 5.13859L60.3286 9.1246L78.0967 6.43929Z" fill="#958EC4"/>
<path id="Vector_25" d="M78.0966 6.43945L60.3286 9.12477L79.9071 11.3066L78.0966 6.43945Z" fill="#B0508C"/>
<path id="Vector_26" d="M68.2863 19.656L60.3286 9.12451L50.2656 15.5441L68.2863 19.656Z" fill="#B0508C"/>
<path id="Vector_27" d="M47.0234 59.4326L53.718 74.1179L69.9703 62.2438L47.0234 59.4326Z" fill="#B0508C"/>
<path id="Vector_28" d="M47.0236 59.4326L37.4238 60.4816L53.7182 74.1179L47.0236 59.4326Z" fill="#958EC4"/>
<path id="Vector_29" d="M69.9706 62.2436L37.3818 40.5933L47.0237 59.4324L69.9706 62.2436Z" fill="#958EC4"/>
<path id="Vector_30" d="M37.3818 40.5933L37.4239 60.4814L47.0237 59.4324L37.3818 40.5933Z" fill="white"/>
<path id="Vector_31" d="M28.1187 46.6772L37.4237 60.4814L37.3816 40.5933L28.1187 46.6772Z" fill="#B0508C"/>
<path id="Vector_32" d="M24.2451 37.1948L16.3716 36.6074L28.1187 46.6774L24.2451 37.1948Z" fill="#B0508C"/>
<path id="Vector_33" d="M69.9705 62.2437L53.7183 74.1178L65.2127 80.6213L69.9705 62.2437Z" fill="#E4DB8A"/>
<path id="Vector_34" d="M53.7183 74.1177L54.1393 92.9988L65.2127 80.6212L53.7183 74.1177Z" fill="#B3C0DB"/>
<path id="Vector_35" d="M37.3817 40.5934L24.2451 37.1948L28.1187 46.6773L37.3817 40.5934Z" fill="#E4DB8A"/>
<path id="Vector_36" d="M24.2452 37.1948L17.2559 26.915C16.7928 27.4605 16.3717 28.0059 15.9507 28.5514L16.3717 36.6493L24.2452 37.2367V37.1948Z" fill="#E4DB8A"/>
<path id="Vector_37" d="M28.1186 46.6772L13.4663 53.5584L37.4237 60.4814L28.1186 46.6772Z" fill="#958EC4"/>
<path id="Vector_38" d="M69.0443 34.0059L37.3818 40.5933L59.6971 49.1527L69.0443 34.0059Z" fill="#5B3594"/>
<path id="Vector_39" d="M75.7385 51.3765L69.0439 34.0059L59.6968 49.1527L75.7385 51.3765Z" fill="#558F6B"/>
<path id="Vector_40" d="M59.6971 49.1527L37.3818 40.5933L69.9706 62.2436L59.6971 49.1527Z" fill="#B0508C"/>
<path id="Vector_41" d="M92.8329 81.6283L105.127 92.3695L95.6117 71.2227L69.9702 62.2437L92.8329 81.6283Z" fill="#B0508C"/>
<path id="Vector_42" d="M69.044 34.0059L86.5594 23.6423L68.2861 19.6562L69.044 34.0059Z" fill="#B0508C"/>
<path id="Vector_43" d="M69.9702 62.2437L75.7385 51.3766L59.6968 49.1528L69.9702 62.2437Z" fill="#B3C0DB"/>
<path id="Vector_44" d="M50.2654 15.5444L44.834 22.6773L69.044 34.006L50.2654 15.5444Z" fill="#958EC4"/>
<path id="Vector_45" d="M44.8342 22.6772L19.4453 24.4395C18.6874 25.2367 17.9716 26.0758 17.2559 26.915L24.2452 37.1947L44.7921 22.6772H44.8342Z" fill="#B3C0DB"/>
<path id="Vector_46" d="M44.8341 22.6772L24.2451 37.1947L41.0868 31.6143L44.8341 22.6772Z" fill="#958EC4"/>
<path id="Vector_47" d="M41.087 31.6143L37.3818 40.5933L69.0443 34.0059L41.087 31.6143Z" fill="#65A198"/>
<path id="Vector_48" d="M75.7385 51.3764L86.5593 23.6421L69.0439 34.0057L75.7385 51.3764Z" fill="#65A198"/>
<path id="Vector_49" d="M41.0868 31.6143L24.2451 37.1947L37.3817 40.5933L41.0868 31.6143Z" fill="#A8D59E"/>
<path id="Vector_50" d="M37.2133 16.5513L21.1716 22.6352C20.5821 23.2226 19.9927 23.81 19.4453 24.4394L44.8342 22.6771L37.2133 16.5513Z" fill="#B0508C"/>
<path id="Vector_51" d="M37.2134 16.5514L44.8343 22.6773L50.2236 15.5444L37.2134 16.5514Z" fill="#E4DB8A"/>
<path id="Vector_52" d="M50.2656 15.5444L69.0442 34.006L68.2863 19.6563L50.2656 15.5444Z" fill="#E4DB8A"/>
<path id="Vector_53" d="M39.3183 9.2085C32.6238 12.691 26.4765 17.2644 21.1714 22.677L37.2131 16.5931L39.3183 9.2085Z" fill="#E4DB8A"/>
<path id="Vector_54" d="M60.3287 9.12469L48.5815 5.13867C45.3816 6.27154 42.308 7.6142 39.3186 9.2086L37.2134 16.5932L60.3708 9.16664L60.3287 9.12469Z" fill="#B3C0DB"/>
<path id="Vector_55" d="M60.3287 9.12451L37.2134 16.5511L50.2236 15.5441L60.3287 9.12451Z" fill="#A8D59E"/>
<path id="Vector_56" d="M69.0442 34.0059L44.8342 22.6772L41.0869 31.6143L69.0442 34.0059Z" fill="#E4DB8A"/>
<path id="Vector_57" d="M29.8027 76.7612L36.4131 89.0969L54.139 92.999L29.8027 76.7612Z" fill="#958EC4"/>
<path id="Vector_58" d="M29.8029 76.7612L18.1821 85.1109L36.4133 89.0969L29.8029 76.7612Z" fill="#B0508C"/>
<path id="Vector_59" d="M32.6658 64.2577L29.8027 76.7612L37.4236 60.4814L32.6658 64.2577Z" fill="#958EC4"/>
<path id="Vector_60" d="M26.3081 67.2788L29.8028 76.7613L32.6659 64.2578L26.3081 67.2788Z" fill="#A8D59E"/>
<path id="Vector_61" d="M13.4663 53.5581L17.382 61.9078L26.3081 67.2784L13.4663 53.5581Z" fill="#958EC4"/>
<path id="Vector_62" d="M32.6659 64.2574L13.4663 53.5581L26.3081 67.2784L32.6659 64.2574Z" fill="#B0508C"/>
<path id="Vector_63" d="M37.4237 60.4812L13.4663 53.5581L32.6659 64.2574L37.4237 60.4812Z" fill="#A8D59E"/>
<path id="Vector_64" d="M13.4664 53.5581L2.39295 56.8308C2.26663 57.3763 2.14032 57.9217 2.01401 58.4672C2.01401 58.677 1.9298 58.8868 1.8877 59.0546L17.34 61.9078L13.4243 53.5581H13.4664Z" fill="#A8D59E"/>
<path id="Vector_65" d="M16.3715 36.6074L13.4663 53.5585L28.1186 46.6774L16.3715 36.6074Z" fill="#A8D59E"/>
<path id="Vector_66" d="M53.7182 74.1178L37.4238 60.4814L39.2343 76.6773L53.7182 74.1178Z" fill="#B3C0DB"/>
<path id="Vector_67" d="M37.4236 60.4814L29.8027 76.7612L39.2341 76.6773L37.4236 60.4814Z" fill="#5B3594"/>
<path id="Vector_68" d="M39.2344 76.6771L54.1393 92.9988L53.7183 74.1177L39.2344 76.6771Z" fill="#558F6B"/>
<path id="Vector_69" d="M39.2341 76.6772L29.8027 76.7612L54.139 92.9989L39.2341 76.6772Z" fill="#B0508C"/>
<path id="Vector_70" d="M65.2124 80.6213L92.8328 81.6283L69.9702 62.2437L65.2124 80.6213Z" fill="#B3C0DB"/>
<path id="Vector_71" d="M93.2539 100.509L92.8328 81.6281L65.2124 80.6211L93.2539 100.509Z" fill="#558F6B"/>
<path id="Vector_72" d="M27.9923 71.8519L17.382 61.9078L1.92976 59.0547C1.84555 59.4323 1.80345 59.8099 1.71924 60.1876L26.5608 71.768L27.9923 71.8519Z" fill="#B0508C"/>
<path id="Vector_73" d="M26.3084 67.2783L17.3823 61.9077L27.9926 71.8518L26.3084 67.2783Z" fill="#B3C0DB"/>
<path id="Vector_74" d="M10.0562 74.5791L18.1823 85.1106L29.8031 76.7609L10.0562 74.5791Z" fill="#A8D59E"/>
<path id="Vector_75" d="M27.9926 71.8519L26.561 71.768L1.7195 60.2295C1.55108 61.1945 1.38266 62.1596 1.25635 63.0826L10.0983 74.5791L27.9926 71.8519Z" fill="#E4DB8A"/>
<path id="Vector_76" d="M18.182 85.1108L2.09814 87.7962C2.6034 90.1039 3.19286 92.3696 3.86653 94.5934L16.0768 99.3346L18.182 85.1108Z" fill="#958EC4"/>
<path id="Vector_77" d="M27.9926 71.8521L10.0562 74.5793L29.8031 76.7611L27.9926 71.8521Z" fill="#B0508C"/>
<path id="Vector_78" d="M116.832 84.0197L122.516 64.9707L111.78 68.4532L116.832 84.0197Z" fill="#B0508C"/>
<path id="Vector_79" d="M111.78 68.4532L122.517 64.9707L110.77 58.3413L111.78 68.4532Z" fill="#E4DB8A"/>
<path id="Vector_80" d="M116.833 84.0197L122.011 85.9917L122.517 64.9707L116.833 84.0197Z" fill="#E4DB8A"/>
<path id="Vector_81" d="M93.2541 100.51L101.675 109.195L92.833 81.6284L93.2541 100.51Z" fill="#B3C0DB"/>
<path id="Vector_82" d="M95.6118 71.2228L105.127 92.3697L116.832 84.0201L111.78 68.4536L95.6118 71.2228Z" fill="#958EC4"/>
<path id="Vector_83" d="M111.78 68.4532L110.769 58.3413L95.6118 71.2224L111.78 68.4532Z" fill="#B3C0DB"/>
<path id="Vector_84" d="M92.833 81.6284L101.675 109.195L105.127 92.3697L92.833 81.6284Z" fill="#E4DB8A"/>
<path id="Vector_85" d="M101.675 109.195L116.832 84.02L105.127 92.3697L101.675 109.195Z" fill="#B3C0DB"/>
<path id="Vector_86" d="M134.853 49.8238L139.822 46.1315C139.232 44.705 138.643 43.3203 137.969 41.9357L121.885 31.9497L134.895 49.8238H134.853Z" fill="white"/>
<path id="Vector_87" d="M117.633 41.2224L108.496 39.7119L110.77 58.3413L117.633 41.2224Z" fill="#5B3594"/>
<path id="Vector_88" d="M121.885 31.9497L108.496 39.7119L117.633 41.2224L121.885 31.9497Z" fill="#558F6B"/>
<path id="Vector_89" d="M110.77 58.3415L134.853 49.8241L117.633 41.2227L110.77 58.3415Z" fill="#B3C0DB"/>
<path id="Vector_90" d="M134.853 49.8238L121.885 31.9497L117.632 41.2224L134.853 49.8238Z" fill="#A8D59E"/>
<path id="Vector_91" d="M128.706 57.4186L134.853 49.8242L110.77 58.3417L128.706 57.4186Z" fill="#958EC4"/>
<path id="Vector_92" d="M122.517 64.9709L128.706 57.4185L110.77 58.3415L122.517 64.9709Z" fill="#A8D59E"/>
<path id="Vector_93" d="M93.9699 43.4883L75.7388 51.3764L95.612 71.2225L93.9699 43.4883Z" fill="#A8D59E"/>
<path id="Vector_94" d="M110.77 58.3414L108.496 39.712L86.5596 23.6421L93.9699 43.4882L110.77 58.3414Z" fill="#A8D59E"/>
<path id="Vector_95" d="M93.9699 43.4882L86.5596 23.6421L75.7388 51.3764L93.9699 43.4882Z" fill="#958EC4"/>
<path id="Vector_96" d="M110.769 58.3414L93.9697 43.4883L95.6118 71.2225L110.769 58.3414Z" fill="white"/>
<path id="Vector_97" d="M95.6117 71.2226L75.7385 51.3765L69.9702 62.2436L95.6117 71.2226Z" fill="white"/>
<path id="Vector_98" d="M108.496 39.712L104.243 27.5861L86.5596 23.6421L108.496 39.712Z" fill="#5B3594"/>
<path id="Vector_99" d="M121.885 31.9501L104.243 27.5864L108.496 39.7123L121.885 31.9501Z" fill="#A8D59E"/>
<path id="Vector_100" d="M16.3718 36.6074L4.03525 50.7473C3.40368 52.7193 2.85633 54.7333 2.35107 56.8312L13.4245 53.5585L16.3297 36.6074H16.3718Z" fill="#E4DB8A"/>
<path id="Vector_101" d="M15.9507 28.5513C13.9297 31.1107 12.1192 33.796 10.4351 36.6072H16.3718L15.9507 28.5513Z" fill="#65A198"/>
<path id="Vector_102" d="M10.4349 36.6074C7.82443 41.013 5.67711 45.7543 4.07715 50.7892L16.4137 36.6494H10.477L10.4349 36.6074Z" fill="#5B3594"/>
<path id="Vector_103" d="M54.1392 92.9987L93.2541 100.509L65.2126 80.6211L54.1392 92.9987Z" fill="#B0508C"/>
<path id="Vector_104" d="M137.969 41.9359C137.969 41.9359 137.927 41.852 137.885 41.768C134.938 35.6422 131.106 29.9778 126.601 24.9429L121.885 31.9499L137.969 41.9359Z" fill="#B3C0DB"/>
<path id="Vector_105" d="M141.927 52.006C141.295 49.992 140.621 48.0619 139.821 46.1318L134.853 49.8241L141.927 52.0479V52.006Z" fill="#558F6B"/>
<path id="Vector_106" d="M101.675 109.195L110.811 116.16L116.832 84.02L101.675 109.195Z" fill="#B0508C"/>
<path id="Vector_107" d="M122.011 85.9916L140.327 98.5791C140.916 97.0686 141.421 95.5161 141.927 93.9637L135.106 75.1245L122.053 85.9916H122.011Z" fill="#A8D59E"/>
<path id="Vector_108" d="M135.064 75.1665L144.706 79.9078C145.127 75.712 145.127 71.5162 144.832 67.4043L122.517 64.9707L135.106 75.1245L135.064 75.1665Z" fill="#A8D59E"/>
<path id="Vector_109" d="M122.011 85.9917L135.064 75.1665L122.516 64.9707L122.011 85.9917Z" fill="#958EC4"/>
<path id="Vector_110" d="M144.705 79.9078L135.063 75.1665L141.884 94.0057C142.516 91.9078 143.105 89.7679 143.526 87.5441C144.032 84.9847 144.411 82.4672 144.663 79.9497L144.705 79.9078Z" fill="white"/>
<path id="Vector_111" d="M133.253 112.467C134.937 109.95 136.453 107.306 137.8 104.537L110.812 116.159L133.253 112.467Z" fill="#E4DB8A"/>
<path id="Vector_112" d="M110.812 116.16L122.011 85.992L116.832 84.02L110.812 116.16Z" fill="#958EC4"/>
<path id="Vector_113" d="M110.812 116.16L137.8 104.537C138.727 102.607 139.611 100.635 140.369 98.5791L122.053 85.9917L110.812 116.16Z" fill="#B3C0DB"/>
<path id="Vector_114" d="M128.706 57.4186L122.517 65.013L144.832 67.4466C144.706 65.9361 144.537 64.3837 144.327 62.8732L134.853 49.8242L128.664 57.4186H128.706Z" fill="#5B3594"/>
<path id="Vector_115" d="M144.327 62.8731C143.779 59.1808 142.979 55.5305 141.927 52.006L134.853 49.7822L144.327 62.8312V62.8731Z" fill="#A8D59E"/>
<path id="Vector_116" d="M67.6128 144.817C72.6653 145.194 77.6336 145.027 82.5177 144.355L66.5181 142.383L67.6128 144.775V144.817Z" fill="#B0508C"/>
<path id="Vector_117" d="M10.0562 74.5795L1.25636 63.083C0.372165 69.2928 0.33006 75.4187 1.04583 81.3767L18.1823 85.069L10.0983 74.5795H10.0562Z" fill="#958EC4"/>
<path id="Vector_118" d="M18.1819 85.1108L16.0767 99.3346L36.4131 89.0969L18.1819 85.1108Z" fill="#65A198"/>
<path id="Vector_119" d="M1.04541 81.3765C1.21383 82.7611 1.38224 84.1037 1.63487 85.4464L18.1819 85.0688L1.04541 81.3765Z" fill="#E4DB8A"/>
<path id="Vector_120" d="M3.8667 94.5513C4.24564 95.6841 4.62458 96.817 5.04562 97.9499L16.077 99.3345L3.8667 94.5932V94.5513Z" fill="#B0508C"/>
<path id="Vector_121" d="M1.63525 85.4465C1.76157 86.2017 1.92998 86.9989 2.0984 87.7542L18.1823 85.0688L1.63525 85.4465Z" fill="#B0508C"/>
<path id="Vector_122" d="M5.00342 97.9497C5.59288 99.5861 6.26655 101.18 6.98232 102.775L16.0348 99.3343L5.00342 97.9497Z" fill="#E4DB8A"/>
<path id="Vector_123" d="M7.02441 102.775C8.58227 106.216 10.4349 109.53 12.498 112.677L16.0768 99.2925L7.02441 102.733V102.775Z" fill="#65A198"/>
<path id="Vector_124" d="M57.5073 143.348C57.76 143.39 57.9705 143.474 58.2231 143.516C61.3809 144.146 64.4966 144.565 67.6124 144.775L66.5177 142.383L57.5494 143.348H57.5073Z" fill="#958EC4"/>
<path id="Vector_125" d="M66.5179 142.384L82.5175 144.356C84.0333 144.146 85.549 143.894 87.0648 143.6L56.876 123.544L66.56 142.426L66.5179 142.384Z" fill="#958EC4"/>
<path id="Vector_126" d="M56.8341 123.544V143.223C57.0867 143.265 57.2972 143.307 57.5078 143.391L66.476 142.426L56.792 123.544H56.8341Z" fill="white"/>
<path id="Vector_127" d="M47.5708 129.67L56.7074 143.181C56.7074 143.181 56.8338 143.181 56.8759 143.181V123.502L47.5708 129.628V129.67Z" fill="#B0508C"/>
<path id="Vector_128" d="M47.5709 129.67L56.8338 123.544L43.6973 120.146L47.5709 129.67Z" fill="#E4DB8A"/>
<path id="Vector_129" d="M36.1187 135.041C42.3922 138.733 49.2973 141.503 56.7498 143.181L47.6131 129.67L36.1608 135.041H36.1187Z" fill="#958EC4"/>
<path id="Vector_130" d="M43.6973 120.146L34.5186 134.076C35.0238 134.411 35.5712 134.705 36.0764 134.999L47.5288 129.628L43.6552 120.146H43.6973Z" fill="#B3C0DB"/>
<path id="Vector_131" d="M56.834 123.544L79.1493 132.104L88.4964 116.957L56.834 123.544Z" fill="#5B3594"/>
<path id="Vector_132" d="M79.1489 132.104L95.1907 134.328L88.4961 116.957L79.1489 132.104Z" fill="#558F6B"/>
<path id="Vector_133" d="M113.001 121.111L131.19 115.362C131.906 114.397 132.58 113.432 133.211 112.425L110.77 116.118L112.959 121.069L113.001 121.111Z" fill="#558F6B"/>
<path id="Vector_134" d="M56.834 123.544L87.0228 143.6C87.3596 143.516 87.6544 143.433 87.9912 143.391L79.1493 132.104L56.834 123.544Z" fill="#B0508C"/>
<path id="Vector_135" d="M79.149 132.104L87.9909 143.39C88.8751 143.18 89.8014 142.971 90.6856 142.761L95.1487 134.327L79.1069 132.104H79.149Z" fill="#B3C0DB"/>
<path id="Vector_136" d="M96.5383 140.999C97.2119 140.747 97.8856 140.495 98.5593 140.244L95.1909 134.328L96.5383 140.999Z" fill="#958EC4"/>
<path id="Vector_137" d="M90.728 142.761C92.7069 142.258 94.6437 141.67 96.5384 140.999L95.1911 134.328L90.728 142.761Z" fill="#A8D59E"/>
<path id="Vector_138" d="M64.2861 105.628L88.4961 116.957L93.2539 100.509L64.2861 105.628Z" fill="#958EC4"/>
<path id="Vector_139" d="M54.1392 92.999L64.2863 105.628L93.2541 100.51L54.1392 92.999Z" fill="white"/>
<path id="Vector_140" d="M36.1606 102.733L43.6973 120.146L45.2973 101.768L36.1606 102.733Z" fill="#5B3594"/>
<path id="Vector_141" d="M36.1606 102.733L45.2973 101.768L54.1392 92.999L36.1606 102.733Z" fill="#558F6B"/>
<path id="Vector_142" d="M45.2972 101.768L43.6973 120.146L64.2863 105.628L45.2972 101.768Z" fill="#B3C0DB"/>
<path id="Vector_143" d="M45.2974 101.768L64.2864 105.628L54.1393 92.999L45.2974 101.768Z" fill="#A8D59E"/>
<path id="Vector_144" d="M64.2863 105.628L43.6973 120.146L60.539 114.607L64.2863 105.628Z" fill="#958EC4"/>
<path id="Vector_145" d="M60.5392 114.607L56.834 123.544L88.4964 116.957L60.5392 114.607Z" fill="#65A198"/>
<path id="Vector_146" d="M43.6973 120.146L56.8338 123.544L60.539 114.607L43.6973 120.146Z" fill="#A8D59E"/>
<path id="Vector_147" d="M60.5391 114.607L88.4963 116.957L64.2863 105.628L60.5391 114.607Z" fill="#E4DB8A"/>
<path id="Vector_148" d="M15.4033 116.705C19.8664 122.495 25.1715 127.656 31.2767 131.894L23.361 110.076L15.4033 116.663V116.705Z" fill="#A8D59E"/>
<path id="Vector_149" d="M16.0767 99.3345L23.3607 110.118L43.6971 120.146L36.1604 102.733L16.0767 99.3345Z" fill="#A8D59E"/>
<path id="Vector_150" d="M16.0769 99.3345L12.498 112.719C13.4243 114.104 14.3927 115.446 15.4032 116.747L23.361 110.16L16.0769 99.3764V99.3345Z" fill="#958EC4"/>
<path id="Vector_151" d="M23.3608 110.118L31.2765 131.936C32.3291 132.691 33.4238 133.404 34.5185 134.118L43.6972 120.188L23.3608 110.16V110.118Z" fill="white"/>
<path id="Vector_152" d="M113.001 121.111L110.811 116.16L101.675 109.195L113.001 121.111Z" fill="#B3C0DB"/>
<path id="Vector_153" d="M95.1907 134.328L113.001 121.111L88.4961 116.957L95.1907 134.328Z" fill="#B0508C"/>
<path id="Vector_154" d="M88.4961 116.957L113.001 121.111L101.675 109.195L88.4961 116.957Z" fill="#A8D59E"/>
<path id="Vector_155" d="M95.1909 134.327L128.201 119.222C129.253 117.964 130.222 116.705 131.19 115.404L113.001 121.153L95.1909 134.369V134.327Z" fill="#E4DB8A"/>
<path id="Vector_156" d="M110.517 134.411C117.169 130.342 123.148 125.265 128.201 119.223L95.1909 134.328L110.517 134.411Z" fill="#65A198"/>
<path id="Vector_157" d="M98.5593 140.244C102.728 138.649 106.728 136.677 110.517 134.37L95.1909 134.286L98.5593 140.202V140.244Z" fill="#5B3594"/>
<path id="Vector_158" d="M36.4131 89.0967L16.0767 99.3344L36.1604 102.733L36.4131 89.0967Z" fill="#5B3594"/>
<path id="Vector_159" d="M36.4133 89.0967L36.1606 102.733L54.1392 92.9988L36.4133 89.0967Z" fill="#A8D59E"/>
<path id="Vector_160" d="M88.4961 116.957L101.675 109.195L93.2539 100.509L88.4961 116.957Z" fill="#5B3594"/>
<g id="Group_3" style="mix-blend-mode:overlay" opacity="0.4">
<path id="Vector_161" d="M48.2026 5.30633L49.1289 5.642L49.2552 4.92871C48.9184 5.05459 48.5816 5.18046 48.2447 5.30633H48.2026Z" fill="#B0508C"/>
<path id="Vector_162" d="M46.729 5.8521L49.1289 5.64231L48.2027 5.30664C47.6974 5.47447 47.2343 5.68426 46.729 5.8521Z" fill="#958EC4"/>
<path id="Vector_163" d="M74.7281 5.47444L69.6756 1.06885C67.023 1.19472 64.3284 1.44647 61.6758 1.86605L61.8442 2.20171L74.7281 5.5164V5.47444Z" fill="#65A198"/>
<path id="Vector_164" d="M61.6761 1.86618C57.4657 2.49555 53.2973 3.50254 49.2132 4.92911L49.0869 5.6424L61.8445 2.15988L61.6761 1.82422V1.86618Z" fill="#E4DB8A"/>
<path id="Vector_165" d="M61.8442 2.15967L62.8126 18.6911L74.7282 5.47435L61.8442 2.15967Z" fill="#958EC4"/>
<path id="Vector_166" d="M49.1289 5.64219L62.8128 18.6911L61.8444 2.15967L49.1289 5.64219Z" fill="#B3C0DB"/>
<path id="Vector_167" d="M72.2441 0.984863C71.4021 0.984863 70.5179 0.984863 69.6758 1.02682L74.7283 5.43242L72.2441 0.984863Z" fill="#B0508C"/>
<path id="Vector_168" d="M78.349 9.37651L76.707 1.11077C75.907 1.06881 75.1491 1.02686 74.3491 1.02686L74.7281 5.47441L78.349 9.37651Z" fill="#B0508C"/>
<path id="Vector_169" d="M74.3913 0.984863C73.6756 0.984863 73.0019 0.984863 72.2861 0.984863L74.7703 5.43242L74.3913 0.984863Z" fill="#E4DB8A"/>
<path id="Vector_170" d="M47.529 28.4252L62.8129 18.6909L34.0557 24.3553L47.529 28.4252Z" fill="#958EC4"/>
<path id="Vector_171" d="M47.5288 28.4254L34.0554 24.3555L31.7817 38.4534L47.5288 28.4254Z" fill="#A8D59E"/>
<path id="Vector_172" d="M30.5189 14.6211C29.9294 15.0407 29.3399 15.5022 28.7505 15.9218L34.0556 24.3554L30.5189 14.6211Z" fill="#958EC4"/>
<path id="Vector_173" d="M29.3399 22.1736L34.0977 24.3554L28.7925 15.9219C27.6557 16.803 26.5189 17.6841 25.4663 18.6491L24.9189 20.1596L29.3399 22.2156V22.1736Z" fill="#A8D59E"/>
<path id="Vector_174" d="M25.4238 18.6494C24.8765 19.1529 24.287 19.6144 23.7817 20.1179H24.9186L25.4659 18.6494H25.4238Z" fill="#B0508C"/>
<path id="Vector_175" d="M74.728 5.47461L62.8125 18.6914L78.349 9.37671L74.728 5.47461Z" fill="#65A198"/>
<path id="Vector_176" d="M49.1287 5.68408L46.6025 5.89387C42.2657 7.57219 38.0132 9.71205 33.9712 12.3135L40.6658 17.6841L49.0866 5.68408H49.1287Z" fill="#B3C0DB"/>
<path id="Vector_177" d="M40.6657 17.6421L33.9711 12.2715C33.6764 12.4813 33.3816 12.6491 33.0448 12.8169C32.1606 13.4044 31.3606 13.9918 30.5186 14.5792L34.0553 24.3134L40.6657 17.6002V17.6421Z" fill="#5B3594"/>
<path id="Vector_178" d="M62.8129 18.6911L49.129 5.68408L40.666 17.6421L62.8129 18.6911Z" fill="#558F6B"/>
<path id="Vector_179" d="M34.0557 24.3554L62.8129 18.691L40.666 17.6421L34.0557 24.3554Z" fill="#B0508C"/>
<path id="Vector_180" d="M23.782 20.1177C23.782 20.1177 23.4873 20.4114 23.3188 20.5373L24.8767 20.1596H23.7399L23.782 20.1177Z" fill="#958EC4"/>
<path id="Vector_181" d="M29.3399 22.1738L21.3822 22.4256C16.6665 27.2088 12.6666 32.5375 9.50879 38.2857L28.2873 23.1389L29.3399 22.1738Z" fill="#B0508C"/>
<path id="Vector_182" d="M29.3396 22.1736L24.9186 20.1177L23.3607 20.4953C22.6871 21.1247 22.0134 21.754 21.3818 22.3834L29.3396 22.1317V22.1736Z" fill="#B3C0DB"/>
<path id="Vector_183" d="M34.0552 24.3555L18.645 36.6072L31.7816 38.4534L34.0552 24.3555Z" fill="#958EC4"/>
<path id="Vector_184" d="M29.3398 22.1738L28.2872 23.1389L9.50869 38.2857C8.83502 39.5445 8.16135 40.8032 7.52979 42.0619L18.6453 36.6074L29.2977 22.1738H29.3398Z" fill="#958EC4"/>
<path id="Vector_185" d="M29.3395 22.1738L18.645 36.6074L34.0552 24.3556L29.3395 22.1738Z" fill="#B0508C"/>
<path id="Vector_186" d="M31.7816 38.4536L18.645 36.6074L16.0767 48.2718L31.7816 38.4536Z" fill="#B0508C"/>
<path id="Vector_187" d="M44.9604 81.5441L60.0759 87.2085L63.1495 67.3623L44.9604 81.5441Z" fill="#B0508C"/>
<path id="Vector_188" d="M44.9605 81.5444L38.8975 89.0549L60.0759 87.2088L44.9605 81.5444Z" fill="#958EC4"/>
<path id="Vector_189" d="M63.1496 67.3623L24.7505 75.0406L44.9606 81.5441L63.1496 67.3623Z" fill="#958EC4"/>
<path id="Vector_190" d="M24.7505 75.041L38.8975 89.055L44.9606 81.5445L24.7505 75.041Z" fill="white"/>
<path id="Vector_191" d="M22.519 85.8662L38.8976 89.055L24.7506 75.041L22.519 85.8662Z" fill="#B0508C"/>
<path id="Vector_192" d="M13.0877 81.8799L7.10889 87.0407L22.5191 85.8659L13.0877 81.8799Z" fill="#B0508C"/>
<path id="Vector_193" d="M63.1493 67.3623L60.0757 87.2085L72.8333 83.7679L63.1493 67.3623Z" fill="#E4DB8A"/>
<path id="Vector_194" d="M60.0757 87.2086L73.7596 100.3L72.8333 83.7681L60.0757 87.2086Z" fill="#B3C0DB"/>
<path id="Vector_195" d="M24.7503 75.041L13.0874 81.8802L22.5188 85.8662L24.7503 75.041Z" fill="#E4DB8A"/>
<path id="Vector_196" d="M13.0873 81.88L0.834961 79.5723C0.877065 80.2436 0.961274 80.9569 1.04548 81.6282L7.1085 87.0408L13.0873 81.9219V81.88Z" fill="#E4DB8A"/>
<path id="Vector_197" d="M22.519 85.8662L17.0454 101.055L38.8976 89.055L22.519 85.8662Z" fill="#958EC4"/>
<path id="Vector_198" d="M42.4764 48.062L24.7505 75.041L46.6026 65.3487L42.4764 48.062Z" fill="#5B3594"/>
<path id="Vector_199" d="M59.5283 55.6145L42.4761 48.062L46.6023 65.3487L59.5283 55.6145Z" fill="#558F6B"/>
<path id="Vector_200" d="M46.6026 65.3486L24.7505 75.0409L63.1496 67.3626L46.6026 65.3486Z" fill="#B0508C"/>
<path id="Vector_201" d="M93.0856 64.9709L109.422 63.88L87.6541 55.6562L63.1494 67.3625L93.0856 64.9709Z" fill="#B0508C"/>
<path id="Vector_202" d="M42.4762 48.0617L47.5288 28.4253L31.7817 38.4533L42.4762 48.0617Z" fill="#B0508C"/>
<path id="Vector_203" d="M63.1495 67.3625L59.5286 55.6143L46.6025 65.3485L63.1495 67.3625Z" fill="#B3C0DB"/>
<path id="Vector_204" d="M16.0767 48.2718L17.2977 57.1249L42.4761 48.062L16.0767 48.2718Z" fill="#958EC4"/>
<path id="Vector_205" d="M17.2978 57.125L0.624512 76.2578C0.666616 77.3487 0.750825 78.4397 0.835033 79.5306L13.0874 81.8383L17.3399 57.083L17.2978 57.125Z" fill="#B3C0DB"/>
<path id="Vector_206" d="M17.2978 57.1245L13.0874 81.8798L21.0451 66.1035L17.2978 57.1245Z" fill="#958EC4"/>
<path id="Vector_207" d="M21.0454 66.104L24.7506 75.041L42.4765 48.062L21.0454 66.104Z" fill="#65A198"/>
<path id="Vector_208" d="M59.5283 55.6141L47.5286 28.4253L42.4761 48.0617L59.5283 55.6141Z" fill="#65A198"/>
<path id="Vector_209" d="M21.0451 66.1035L13.0874 81.8797L24.7503 75.0406L21.0451 66.1035Z" fill="#A8D59E"/>
<path id="Vector_210" d="M7.57195 58.1735L0.540527 73.7819C0.540527 74.621 0.540527 75.4182 0.582632 76.2574L17.298 57.1245L7.57195 58.1735Z" fill="#B0508C"/>
<path id="Vector_211" d="M7.57178 58.1736L17.2979 57.1246L16.0769 48.2715L7.57178 58.1736Z" fill="#E4DB8A"/>
<path id="Vector_212" d="M16.0767 48.2718L42.4761 48.062L31.7816 38.4536L16.0767 48.2718Z" fill="#E4DB8A"/>
<path id="Vector_213" d="M3.86673 51.4604C1.5931 58.6772 0.456283 66.2297 0.540492 73.7821L7.57191 58.1737L3.86673 51.4604Z" fill="#E4DB8A"/>
<path id="Vector_214" d="M18.6453 36.6074L7.52978 42.062C6.05612 45.1249 4.8351 48.2718 3.8667 51.4606L7.57188 58.1739L18.6453 36.6074Z" fill="#B3C0DB"/>
<path id="Vector_215" d="M18.6452 36.6074L7.57178 58.1739L16.0769 48.2718L18.6452 36.6074Z" fill="#A8D59E"/>
<path id="Vector_216" d="M42.4762 48.062L17.2979 57.1249L21.0451 66.104L42.4762 48.062Z" fill="#E4DB8A"/>
<path id="Vector_217" d="M45.0444 105.922L58.4757 109.992L73.7596 100.299L45.0444 105.922Z" fill="#958EC4"/>
<path id="Vector_218" d="M45.0447 105.922L42.729 120.062L58.476 109.992L45.0447 105.922Z" fill="#B0508C"/>
<path id="Vector_219" d="M38.2236 95.0966L45.0445 105.922L38.8973 89.0547L38.2236 95.0966Z" fill="#958EC4"/>
<path id="Vector_220" d="M35.8657 101.726L45.0445 105.922L38.2236 95.0967L35.8657 101.726Z" fill="#A8D59E"/>
<path id="Vector_221" d="M17.0454 101.055L25.761 104.202L35.866 101.726L17.0454 101.055Z" fill="#958EC4"/>
<path id="Vector_222" d="M38.2239 95.0967L17.0454 101.055L35.866 101.726L38.2239 95.0967Z" fill="#B0508C"/>
<path id="Vector_223" d="M38.8976 89.0547L17.0454 101.055L38.2239 95.0966L38.8976 89.0547Z" fill="#A8D59E"/>
<path id="Vector_224" d="M17.0455 101.055L11.5298 111.167C11.8245 111.628 12.1192 112.132 12.414 112.593C12.5403 112.761 12.6666 112.929 12.7508 113.097L25.7189 104.202L17.0033 101.055H17.0455Z" fill="#A8D59E"/>
<path id="Vector_225" d="M7.10889 87.041L17.0455 101.055L22.5191 85.8662L7.10889 87.041Z" fill="#A8D59E"/>
<path id="Vector_226" d="M60.118 87.2505L38.8975 89.0547L51.6551 99.2505L60.118 87.2505Z" fill="#B3C0DB"/>
<path id="Vector_227" d="M38.8975 89.0547L45.0447 105.922L51.6551 99.2505L38.8975 89.0547Z" fill="#5B3594"/>
<path id="Vector_228" d="M51.6553 99.2505L73.76 100.299L60.1182 87.2505L51.6553 99.2505Z" fill="#558F6B"/>
<path id="Vector_229" d="M51.6548 99.2505L45.0444 105.922L73.7596 100.299L51.6548 99.2505Z" fill="#B0508C"/>
<path id="Vector_230" d="M72.8334 83.7679L93.0856 64.9707L63.1494 67.3623L72.8334 83.7679Z" fill="#B3C0DB"/>
<path id="Vector_231" d="M106.77 78.0197L93.0857 64.9707L72.8335 83.7679L106.77 78.0197Z" fill="#558F6B"/>
<path id="Vector_232" d="M40.2867 103.782L25.7186 104.202L12.7505 113.097C12.961 113.433 13.1715 113.726 13.4242 114.062L39.192 104.747L40.2446 103.782H40.2867Z" fill="#B0508C"/>
<path id="Vector_233" d="M35.8658 101.726L25.7607 104.202L40.2867 103.782L35.8658 101.726Z" fill="#B3C0DB"/>
<path id="Vector_234" d="M29.5503 118.299L42.7289 120.062L45.0447 105.922L29.5503 118.299Z" fill="#A8D59E"/>
<path id="Vector_235" d="M40.2868 103.782L39.2342 104.747L13.4663 114.062C14.0137 114.859 14.6031 115.656 15.1926 116.412L29.5923 118.3L40.3289 103.74L40.2868 103.782Z" fill="#E4DB8A"/>
<path id="Vector_236" d="M42.7288 120.062L33.2554 133.321C35.2343 134.58 37.2553 135.796 39.3184 136.845L51.3181 131.6L42.6867 120.062H42.7288Z" fill="#958EC4"/>
<path id="Vector_237" d="M40.2869 103.782L29.5503 118.3L45.0447 105.922L40.2869 103.782Z" fill="#B0508C"/>
<path id="Vector_238" d="M111.738 49.7821L102.265 32.2856L97.1279 42.3136L111.738 49.7821Z" fill="#B0508C"/>
<path id="Vector_239" d="M97.1279 42.3136L102.265 32.2856L89.2544 35.894L97.1279 42.3136Z" fill="#E4DB8A"/>
<path id="Vector_240" d="M111.738 49.7821L116.833 47.5164L102.265 32.2856L111.738 49.7821Z" fill="#E4DB8A"/>
<path id="Vector_241" d="M106.769 78.0197L118.895 78.2714L93.0854 64.9707L106.769 78.0197Z" fill="#B3C0DB"/>
<path id="Vector_242" d="M87.6543 55.6561L109.422 63.8799L111.738 49.782L97.1278 42.3135L87.6543 55.6561Z" fill="#958EC4"/>
<path id="Vector_243" d="M97.1278 42.3136L89.2543 35.894L87.6543 55.6563L97.1278 42.3136Z" fill="#B3C0DB"/>
<path id="Vector_244" d="M93.0854 64.9708L118.895 78.2715L109.422 63.8799L93.0854 64.9708Z" fill="#E4DB8A"/>
<path id="Vector_245" d="M118.896 78.2717L111.738 49.7822L109.422 63.8801L118.896 78.2717Z" fill="#B3C0DB"/>
<path id="Vector_246" d="M100.243 12.8589L101.127 6.775C99.6959 6.18759 98.2644 5.60018 96.8328 5.09668L78.3911 9.3764L100.243 12.8589Z" fill="white"/>
<path id="Vector_247" d="M81.9282 18.9429L74.4336 24.3135L89.2543 35.8939L81.9282 18.9429Z" fill="#5B3594"/>
<path id="Vector_248" d="M78.3493 9.37646L74.4336 24.3135L81.9282 18.9429L78.3493 9.37646Z" fill="#558F6B"/>
<path id="Vector_249" d="M89.2544 35.8939L100.244 12.8589L81.9282 18.9428L89.2544 35.8939Z" fill="#B3C0DB"/>
<path id="Vector_250" d="M100.243 12.859L78.3491 9.37646L81.928 18.9429L100.243 12.859Z" fill="#A8D59E"/>
<path id="Vector_251" d="M101.254 22.5932L100.244 12.8589L89.2544 35.8939L101.254 22.5932Z" fill="#958EC4"/>
<path id="Vector_252" d="M102.265 32.2856L101.254 22.5933L89.2544 35.894L102.265 32.2856Z" fill="#A8D59E"/>
<path id="Vector_253" d="M66.8124 37.1948L59.5283 55.6144L87.654 55.6564L66.8124 37.1948Z" fill="#A8D59E"/>
<path id="Vector_254" d="M89.2542 35.8939L74.4335 24.3135L47.5288 28.4254L66.8126 37.1946L89.2542 35.8939Z" fill="#A8D59E"/>
<path id="Vector_255" d="M66.8126 37.1945L47.5288 28.4253L59.5285 55.6141L66.8126 37.1945Z" fill="#958EC4"/>
<path id="Vector_256" d="M89.2541 35.894L66.8125 37.1947L87.6541 55.6563L89.2541 35.894Z" fill="white"/>
<path id="Vector_257" d="M87.654 55.6562L59.5283 55.6143L63.1493 67.3625L87.654 55.6562Z" fill="white"/>
<path id="Vector_258" d="M74.4335 24.3133L62.8127 18.6909L47.5288 28.4252L74.4335 24.3133Z" fill="#5B3594"/>
<path id="Vector_259" d="M78.349 9.37646L62.8125 18.6911L74.4333 24.3135L78.349 9.37646Z" fill="#A8D59E"/>
<path id="Vector_260" d="M7.10889 87.041L8.45623 105.712C9.42462 107.558 10.4351 109.405 11.5719 111.167L17.0876 101.055L7.15099 87.041H7.10889Z" fill="#E4DB8A"/>
<path id="Vector_261" d="M1.04552 81.6284C1.42446 84.8592 2.05603 88.048 2.85601 91.1949L7.06644 87.041L1.00342 81.6284H1.04552Z" fill="#65A198"/>
<path id="Vector_262" d="M2.89844 91.1949C4.20367 96.1459 6.01416 101.013 8.45621 105.712L7.10887 87.041L2.89844 91.1949Z" fill="#5B3594"/>
<path id="Vector_263" d="M73.7598 100.3L106.77 78.02L72.8335 83.7683L73.7598 100.3Z" fill="#B0508C"/>
<path id="Vector_264" d="M96.8328 5.09685C96.8328 5.09685 96.7486 5.09685 96.6644 5.0549C90.2224 2.83112 83.5278 1.48846 76.749 1.11084L78.3911 9.37657L96.8328 5.09685Z" fill="#B3C0DB"/>
<path id="Vector_265" d="M106.77 9.46022C104.917 8.49518 103.023 7.57211 101.128 6.7749L100.244 12.8588L106.812 9.46022H106.77Z" fill="#558F6B"/>
<path id="Vector_266" d="M118.896 78.2717L130.306 76.7193L111.738 49.7822L118.896 78.2717Z" fill="#B0508C"/>
<path id="Vector_267" d="M116.833 47.5165L138.727 43.5305C138.053 42.062 137.337 40.5935 136.579 39.1669L118.39 30.6494L116.833 47.5165Z" fill="#A8D59E"/>
<path id="Vector_268" d="M118.39 30.6491L128.58 27.2086C125.885 23.9359 122.938 20.9568 119.822 18.3135L102.307 32.3275L118.433 30.6491H118.39Z" fill="#A8D59E"/>
<path id="Vector_269" d="M116.833 47.5165L118.391 30.6494L102.265 32.2858L116.833 47.5165Z" fill="#958EC4"/>
<path id="Vector_270" d="M128.537 27.2085L118.348 30.6491L136.537 39.1665C135.485 37.2365 134.39 35.3064 133.127 33.4183C131.695 31.2365 130.137 29.1805 128.537 27.2085Z" fill="white"/>
<path id="Vector_271" d="M143.526 58.2995C142.895 55.3204 142.137 52.3834 141.126 49.4883L130.306 76.719L143.526 58.2995Z" fill="#E4DB8A"/>
<path id="Vector_272" d="M130.306 76.7189L116.832 47.5161L111.738 49.7818L130.306 76.7189Z" fill="#958EC4"/>
<path id="Vector_273" d="M130.306 76.719L141.127 49.4883C140.411 47.4743 139.611 45.4603 138.727 43.4883L116.833 47.4743L130.306 76.719Z" fill="#B3C0DB"/>
<path id="Vector_274" d="M101.254 22.5932L102.265 32.3274L119.78 18.3134C118.601 17.3064 117.422 16.3414 116.201 15.4183L100.244 12.8589L101.254 22.5932Z" fill="#5B3594"/>
<path id="Vector_275" d="M116.201 15.4185C113.211 13.1528 110.054 11.1807 106.769 9.46045L100.201 12.8591L116.159 15.4185H116.201Z" fill="#A8D59E"/>
<path id="Vector_276" d="M120.074 127.446C123.906 124.132 127.316 120.523 130.306 116.621L117.59 126.523L120.074 127.446Z" fill="#B0508C"/>
<path id="Vector_277" d="M29.5501 118.3L15.1504 116.412C18.9398 121.405 23.2344 125.768 27.9922 129.503L42.7287 120.062L29.5501 118.342V118.3Z" fill="#958EC4"/>
<path id="Vector_278" d="M42.729 120.062L51.3604 131.6L58.476 109.992L42.729 120.062Z" fill="#65A198"/>
<path id="Vector_279" d="M27.9922 129.503C29.0869 130.342 30.1816 131.181 31.3184 131.978L42.7708 120.062L28.0343 129.503H27.9922Z" fill="#E4DB8A"/>
<path id="Vector_280" d="M39.3604 136.845C40.413 137.39 41.5077 137.894 42.6024 138.397L51.4022 131.6L39.4025 136.845H39.3604Z" fill="#B0508C"/>
<path id="Vector_281" d="M31.3188 131.936C31.9504 132.398 32.6241 132.817 33.2978 133.279L42.7712 120.02L31.3188 131.936Z" fill="#B0508C"/>
<path id="Vector_282" d="M42.5605 138.397C44.1605 139.111 45.7605 139.782 47.4025 140.411L51.3604 131.6L42.5605 138.397Z" fill="#E4DB8A"/>
<path id="Vector_283" d="M47.4025 140.411C50.9392 141.754 54.6023 142.803 58.3075 143.558L51.3182 131.6L47.3604 140.411H47.4025Z" fill="#65A198"/>
<path id="Vector_284" d="M111.906 133.53C111.906 133.53 112.327 133.279 112.538 133.153C115.232 131.391 117.717 129.46 120.074 127.447L117.59 126.523L111.906 133.53Z" fill="#958EC4"/>
<path id="Vector_285" d="M117.59 126.524L130.306 116.621C131.232 115.405 132.116 114.188 132.959 112.887L97.3804 119.978L117.59 126.482V126.524Z" fill="#958EC4"/>
<path id="Vector_286" d="M97.3804 119.978L111.401 133.824C111.401 133.824 111.78 133.614 111.948 133.489L117.633 126.482L97.4225 119.978H97.3804Z" fill="white"/>
<path id="Vector_287" d="M95.1489 130.845L111.233 133.95C111.233 133.95 111.317 133.908 111.401 133.866L97.3805 120.02L95.191 130.845H95.1489Z" fill="#B0508C"/>
<path id="Vector_288" d="M95.1487 130.845L97.3802 119.978L85.7173 126.859L95.1487 130.845Z" fill="#E4DB8A"/>
<path id="Vector_289" d="M90.854 142.719C97.8854 140.915 104.748 138.02 111.232 133.95L95.1486 130.845L90.854 142.719Z" fill="#958EC4"/>
<path id="Vector_290" d="M85.7173 126.859L89.1277 143.181C89.7172 143.055 90.3067 142.887 90.8961 142.719L95.1908 130.845L85.7173 126.859Z" fill="#B3C0DB"/>
<path id="Vector_291" d="M97.3804 119.978L119.233 110.286L115.106 92.999L97.3804 119.978Z" fill="#5B3594"/>
<path id="Vector_292" d="M119.233 110.286L132.159 100.593L115.106 92.999L119.233 110.286Z" fill="#558F6B"/>
<path id="Vector_293" d="M135.358 78.6909L144.158 61.8238C143.99 60.649 143.779 59.4741 143.526 58.2993L130.306 76.7189L135.4 78.6909H135.358Z" fill="#558F6B"/>
<path id="Vector_294" d="M97.3804 119.978L132.959 112.887C133.127 112.593 133.295 112.342 133.506 112.048L119.233 110.286L97.3804 119.978Z" fill="#B0508C"/>
<path id="Vector_295" d="M119.232 110.286L133.506 112.048C134.011 111.251 134.516 110.495 134.979 109.698L132.158 100.593L119.232 110.328V110.286Z" fill="#B3C0DB"/>
<path id="Vector_296" d="M137.842 104.369C138.137 103.74 138.432 103.069 138.727 102.439L132.116 100.593L137.8 104.369H137.842Z" fill="#958EC4"/>
<path id="Vector_297" d="M134.98 109.698C136.032 107.978 136.959 106.174 137.843 104.369L132.159 100.593L134.98 109.698Z" fill="#A8D59E"/>
<path id="Vector_298" d="M89.9277 102.104L115.106 92.999L106.769 78.02L89.9277 102.104Z" fill="#958EC4"/>
<path id="Vector_299" d="M73.7598 100.3L89.9278 102.104L106.77 78.02L73.7598 100.3Z" fill="white"/>
<path id="Vector_300" d="M67.9917 119.81L85.7176 126.859L73.76 112.719L67.9917 119.81Z" fill="#5B3594"/>
<path id="Vector_301" d="M67.9917 119.81L73.76 112.719V100.299L67.9917 119.81Z" fill="#558F6B"/>
<path id="Vector_302" d="M73.7598 112.719L85.7174 126.859L89.9278 102.104L73.7598 112.719Z" fill="#B3C0DB"/>
<path id="Vector_303" d="M73.7598 112.719L89.9278 102.104L73.7598 100.299V112.719Z" fill="#A8D59E"/>
<path id="Vector_304" d="M89.9277 102.104L85.7173 126.859L93.6329 111.041L89.9277 102.104Z" fill="#958EC4"/>
<path id="Vector_305" d="M93.6328 111.041L97.3801 119.978L115.106 92.999L93.6328 111.041Z" fill="#65A198"/>
<path id="Vector_306" d="M85.7173 126.859L97.3802 119.978L93.6329 111.041L85.7173 126.859Z" fill="#A8D59E"/>
<path id="Vector_307" d="M93.6329 111.041L115.106 92.999L89.9277 102.104L93.6329 111.041Z" fill="#E4DB8A"/>
<path id="Vector_308" d="M63.2339 144.355C70.4758 145.32 77.9283 145.195 85.2545 143.936L64.1602 134.076L63.2339 144.355Z" fill="#A8D59E"/>
<path id="Vector_309" d="M51.3604 131.6L64.1601 134.076L85.7175 126.859L67.9916 119.81L51.3604 131.6Z" fill="#A8D59E"/>
<path id="Vector_310" d="M51.3604 131.6L58.3497 143.558C59.9917 143.894 61.6338 144.146 63.2759 144.355L64.2022 134.076L51.4025 131.558L51.3604 131.6Z" fill="#958EC4"/>
<path id="Vector_311" d="M64.1602 134.076L85.2544 143.936C86.5176 143.726 87.8228 143.474 89.0859 143.181L85.6755 126.859L64.1602 134.076Z" fill="white"/>
<path id="Vector_312" d="M135.358 78.6913L130.306 76.7192L118.896 78.2717L135.358 78.6913Z" fill="#B3C0DB"/>
<path id="Vector_313" d="M132.159 100.594L135.359 78.6914L115.106 92.9991L132.159 100.594Z" fill="#B0508C"/>
<path id="Vector_314" d="M115.106 92.9988L135.359 78.6911L118.896 78.2715L115.106 92.9988Z" fill="#A8D59E"/>
<path id="Vector_315" d="M132.158 100.593L144.79 66.6494C144.663 65.055 144.453 63.4186 144.158 61.8242L135.358 78.6914L132.116 100.593H132.158Z" fill="#E4DB8A"/>
<path id="Vector_316" d="M143.022 89.8522C144.832 82.2998 145.464 74.4536 144.79 66.6494L132.159 100.593L143.022 89.8522Z" fill="#65A198"/>
<path id="Vector_317" d="M138.727 102.397C140.537 98.3275 141.969 94.1317 143.022 89.8101L132.159 100.551L138.769 102.397H138.727Z" fill="#5B3594"/>
<path id="Vector_318" d="M58.476 109.992L51.3604 131.6L67.9916 119.81L58.476 109.992Z" fill="#5B3594"/>
<path id="Vector_319" d="M58.4761 109.992L67.9917 119.81L73.7599 100.299L58.4761 109.992Z" fill="#A8D59E"/>
<path id="Vector_320" d="M115.106 92.999L118.896 78.2718L106.77 78.02L115.106 92.999Z" fill="#5B3594"/>
</g>
</g>
<g id="Vector_321" style="mix-blend-mode:soft-light">
<path d="M75.1915 24.4395C48.2869 23.1388 25.4242 43.8241 24.119 70.5933C22.8138 97.4045 43.5291 120.188 70.4338 121.488C97.3384 122.789 120.201 102.104 121.506 75.3346C122.812 48.5234 102.054 25.7402 75.1915 24.4395Z" fill="white"/>
</g>
<g id="Group_4">
<path id="Vector_322" style="mix-blend-mode:soft-light" opacity="0.7" d="M117.59 82.1738C112.496 106.845 88.3279 122.705 63.5706 117.628C38.8132 112.551 22.8978 88.4675 27.9924 63.7962C33.087 39.1249 57.2549 23.2647 82.0123 28.3417C106.77 33.4186 122.685 57.5025 117.59 82.1738Z" fill="url(#paint0_linear_947_3653)"/>
</g>
<g id="Group_5">
<path id="Vector_323" style="mix-blend-mode:overlay" opacity="0.8" d="M82.8121 24.4395L78.5175 64.3416L117.085 50.5374L82.0121 71.1807L117.969 93.4604L78.8122 78.1877L84.8752 120.901L71.3176 80.0758L42.6867 112.258L65.2125 75.3765L23.1924 73.9919L65.0441 67.6982L41.0867 34.929L70.9808 62.7891L82.8121 24.4395Z" fill="url(#paint1_linear_947_3653)"/>
</g>
<g id="Group_6">
<path id="Vector_324" style="mix-blend-mode:overlay" opacity="0.8" d="M57.0022 5.34863L76.1596 59.8102L117.717 18.1458L84.9594 66.5654L145.463 73.3626L85.1279 77.6423L119.485 129.419L76.5386 84.6913L59.3179 144.188L65.7178 82.3836L10.2243 106.509L60.7073 72.5235L9.25586 44.6633L65.3809 62.4535L57.0022 5.34863Z" fill="url(#paint2_linear_947_3653)"/>
</g>
<g id="Group_7">
<path id="Vector_325" style="mix-blend-mode:overlay" opacity="0.8" d="M29.8452 36.2713L72.0337 68.2434L75.781 14.4951L74.9389 68.2853L121.464 36.7748L76.7494 70.593L132.496 86.2014L76.0757 73.4042L100.623 125.642L73.4232 74.6629L49.8026 125.39L70.8127 73.3622L18.3086 85.572L70.1811 70.5091L29.8452 36.2713Z" fill="url(#paint3_linear_947_3653)"/>
</g>
</g>
</g>
<defs>
<linearGradient id="paint0_linear_947_3653" x1="28.3359" y1="61.7291" x2="117.88" y2="80.2393" gradientUnits="userSpaceOnUse">
<stop stop-color="white"/>
<stop offset="1" stop-color="white"/>
</linearGradient>
<linearGradient id="paint1_linear_947_3653" x1="26.2559" y1="58.6888" x2="120.995" y2="78.2729" gradientUnits="userSpaceOnUse">
<stop stop-color="white"/>
<stop offset="1" stop-color="white"/>
</linearGradient>
<linearGradient id="paint2_linear_947_3653" x1="3.9493" y1="86.2883" x2="139.115" y2="52.9726" gradientUnits="userSpaceOnUse">
<stop stop-color="white"/>
<stop offset="1" stop-color="white"/>
</linearGradient>
<linearGradient id="paint3_linear_947_3653" x1="35.4873" y1="114.577" x2="106.87" y2="25.7078" gradientUnits="userSpaceOnUse">
<stop stop-color="white"/>
<stop offset="1" stop-color="white"/>
</linearGradient>
</defs>
</svg>
