<svg width="142" height="146" viewBox="0 0 142 146" fill="none" xmlns="http://www.w3.org/2000/svg">
<g id="diamonds">
<g id="Group">
<g id="Group_2">
<path id="Vector" fill-rule="evenodd" clip-rule="evenodd" d="M130.556 143.404L141.88 129.995L126.364 79.7073L62.6119 17.2648L14.7976 0.919434L0.118286 15.59L1.37539 57.9173L19.8293 123.709L22.3468 127.481L87.3547 145.081C87.3547 145.081 130.555 143.824 130.555 143.404H130.556Z" fill="url(#paint0_linear_947_5)"/>
<path id="Vector_2" fill-rule="evenodd" clip-rule="evenodd" d="M34.0929 105.269L27.3818 113.651L44.9977 129.574L63.45 131.252L34.0929 105.269Z" fill="url(#paint1_linear_947_5)"/>
<path id="Vector_3" fill-rule="evenodd" clip-rule="evenodd" d="M39.5453 129.156L25.2866 117.841L26.9611 114.488L45.4151 129.574L39.5453 129.156Z" fill="url(#paint2_linear_947_5)"/>
<path id="Vector_4" fill-rule="evenodd" clip-rule="evenodd" d="M29.0596 127.898L39.1246 128.738L26.123 118.261L24.4453 120.355L29.0596 127.898Z" fill="url(#paint3_linear_947_5)"/>
<path id="Vector_5" fill-rule="evenodd" clip-rule="evenodd" d="M22.3485 126.223L21.9278 122.033L28.2182 126.643L22.3485 126.223Z" fill="url(#paint4_linear_947_5)"/>
<path id="Vector_6" fill-rule="evenodd" clip-rule="evenodd" d="M27.3818 113.651L29.0596 110.718L19.4103 97.7258L17.3151 99.4039V107.786L27.3818 113.651Z" fill="url(#paint5_linear_947_5)"/>
<path id="Vector_7" fill-rule="evenodd" clip-rule="evenodd" d="M33.2515 105.269L22.7675 93.1168L20.6707 96.0493L29.4786 110.718L33.2515 105.269Z" fill="url(#paint6_linear_947_5)"/>
<path id="Vector_8" fill-rule="evenodd" clip-rule="evenodd" d="M22.7675 91.8591L26.9612 89.3453L36.1881 101.916L34.931 105.269L22.7675 91.8591Z" fill="#A4C2D1"/>
<path id="Vector_9" fill-rule="evenodd" clip-rule="evenodd" d="M40.804 97.3087L37.4452 101.916L17.3151 81.382L21.9278 75.9341L35.7674 81.8023L40.804 97.3087Z" fill="url(#paint7_linear_947_5)"/>
<path id="Vector_10" fill-rule="evenodd" clip-rule="evenodd" d="M36.1881 105.687L41.2198 98.1461L63.031 107.364L70.1611 120.355L71.4199 130.834H65.9675L36.1881 105.687Z" fill="url(#paint8_linear_947_5)"/>
<path id="Vector_11" fill-rule="evenodd" clip-rule="evenodd" d="M78.131 132.51L86.9373 144.66L111.263 143.825L125.104 123.709L123.005 122.033L113.359 131.252L92.3897 110.718L87.3563 113.651L65.5468 106.945L71.0008 114.488L78.131 132.51Z" fill="url(#paint9_linear_947_5)"/>
<path id="Vector_12" fill-rule="evenodd" clip-rule="evenodd" d="M73.096 131.252L72.2546 114.909L84.8404 121.195L78.131 131.673C78.131 131.673 72.6786 131.254 73.096 131.254V131.252Z" fill="url(#paint10_linear_947_5)"/>
<path id="Vector_13" fill-rule="evenodd" clip-rule="evenodd" d="M84.0007 126.223L87.3563 120.775L94.069 123.709L104.971 124.128L101.617 128.738L104.971 132.929L98.6817 137.119L91.1309 127.898L84.0007 126.223Z" fill="url(#paint11_linear_947_5)"/>
<path id="Vector_14" fill-rule="evenodd" clip-rule="evenodd" d="M91.9706 136.28L91.1309 129.995L86.0975 129.574L91.9706 136.28Z" fill="url(#paint12_linear_947_5)"/>
<path id="Vector_15" fill-rule="evenodd" clip-rule="evenodd" d="M86.9373 135.863L81.0642 133.347L83.1627 129.156L86.9373 135.863Z" fill="url(#paint13_linear_947_5)"/>
<path id="Vector_16" fill-rule="evenodd" clip-rule="evenodd" d="M106.65 131.671L110.842 131.252L106.231 126.223L102.875 128.316L106.65 131.671Z" fill="#A4C2D1"/>
<path id="Vector_17" fill-rule="evenodd" clip-rule="evenodd" d="M97.842 138.375L105.391 134.188L110.842 138.794L103.294 141.728L97.842 138.375Z" fill="url(#paint14_linear_947_5)"/>
<path id="Vector_18" fill-rule="evenodd" clip-rule="evenodd" d="M73.515 107.364L75.6118 97.3087L79.3913 97.7258L92.3896 109.881L87.3563 112.393L73.515 107.364Z" fill="url(#paint15_linear_947_5)"/>
<path id="Vector_19" fill-rule="evenodd" clip-rule="evenodd" d="M52.9642 99.8225L46.2548 98.5648L40.804 93.1185L37.8675 84.7349C37.8675 84.7349 52.9642 100.241 52.9642 99.8225Z" fill="url(#paint16_linear_947_5)"/>
<path id="Vector_20" fill-rule="evenodd" clip-rule="evenodd" d="M116.715 127.06L113.359 129.156L99.5214 115.748L116.715 127.06Z" fill="url(#paint17_linear_947_5)"/>
<path id="Vector_21" fill-rule="evenodd" clip-rule="evenodd" d="M138.107 134.461L125.944 124.967L112.248 144.282C121.847 143.947 130.556 143.592 130.556 143.402L138.107 134.459V134.461Z" fill="url(#paint18_linear_947_5)"/>
<path id="Vector_22" fill-rule="evenodd" clip-rule="evenodd" d="M29.0596 70.0676L24.4453 60.0108L28.2182 56.2393L31.1547 64.6197L29.0596 70.0676Z" fill="url(#paint19_linear_947_5)"/>
<path id="Vector_23" fill-rule="evenodd" clip-rule="evenodd" d="M32.8342 62.9448L39.9643 61.6871L55.0627 76.3544L36.6071 51.21H30.7357L20.25 37.38L17.7358 39.4735L26.123 54.5611L32.8342 62.9448Z" fill="url(#paint20_linear_947_5)"/>
<path id="Vector_24" fill-rule="evenodd" clip-rule="evenodd" d="M21.0897 63.3619L16.8961 42.8263L21.0897 49.9506V63.3619Z" fill="#A4C2D1"/>
<path id="Vector_25" fill-rule="evenodd" clip-rule="evenodd" d="M13.9596 59.5904V51.6287L10.6057 48.2759L16.8961 49.532L18.9913 63.3619L13.9596 59.5904Z" fill="url(#paint21_linear_947_5)"/>
<path id="Vector_26" fill-rule="evenodd" clip-rule="evenodd" d="M26.5421 75.5171L24.4452 65.0367L11.0246 60.0107L6.41034 60.8498L8.92455 68.3911H13.5389L16.8961 73.4187L26.5421 75.5171Z" fill="url(#paint22_linear_947_5)"/>
<path id="Vector_27" fill-rule="evenodd" clip-rule="evenodd" d="M16.0563 79.2869L13.1182 70.9049L6.41034 71.322L10.6056 82.6398L16.0563 79.2869Z" fill="url(#paint23_linear_947_5)"/>
<path id="Vector_28" fill-rule="evenodd" clip-rule="evenodd" d="M16.8961 31.9321L8.92459 21.0363L4.29229 11.4194L0.119934 15.59L1.11678 49.1132H3.89289L5.57067 32.7695L9.34527 31.9321H16.8961Z" fill="url(#paint24_linear_947_5)"/>
<path id="Vector_29" fill-rule="evenodd" clip-rule="evenodd" d="M13.5389 40.7329V35.285L6.83105 34.4492L5.9897 49.9507L1.23627 53.189L1.3754 57.9173L2.23475 60.9773L8.08979 55.8205L8.50883 46.5995L13.5389 40.7329Z" fill="url(#paint25_linear_947_5)"/>
<path id="Vector_30" fill-rule="evenodd" clip-rule="evenodd" d="M18.1548 29.8371L24.0279 23.9705L40.8041 42.4093L37.0262 49.1133L18.1548 29.8371Z" fill="url(#paint26_linear_947_5)"/>
<path id="Vector_31" fill-rule="evenodd" clip-rule="evenodd" d="M38.7056 50.7897L78.9706 95.212L84.4198 93.5356L38.7056 50.7897Z" fill="url(#paint27_linear_947_5)"/>
<path id="Vector_32" fill-rule="evenodd" clip-rule="evenodd" d="M91.7807 98.9131L88.0782 96.0378L80.2638 96.4467L85.6081 101.376L87.2532 100.966L91.7807 98.9131Z" fill="url(#paint28_linear_947_5)"/>
<path id="Vector_33" fill-rule="evenodd" clip-rule="evenodd" d="M97.9468 102.816L88.2828 101.995L89.1045 105.897L91.7807 106.721L94.0396 108.775L98.1514 108.159L97.7422 105.077L97.9468 102.816Z" fill="url(#paint29_linear_947_5)"/>
<path id="Vector_34" fill-rule="evenodd" clip-rule="evenodd" d="M43.8682 46.9348L47.5675 44.4668L82.1134 81.0386L43.8682 46.9348Z" fill="url(#paint30_linear_947_5)"/>
<path id="Vector_35" fill-rule="evenodd" clip-rule="evenodd" d="M139.181 133.19L129.816 125.006L131.466 113.911L133.609 103.193L141.882 129.995L139.181 133.19Z" fill="url(#paint31_linear_947_5)"/>
<path id="Vector_36" fill-rule="evenodd" clip-rule="evenodd" d="M126.939 122.95L128.996 112.678L122.415 117.609L126.939 122.95Z" fill="#A4C2D1"/>
<path id="Vector_37" fill-rule="evenodd" clip-rule="evenodd" d="M119.539 113.911L123.65 96.2407L126.528 99.1176V107.748L127.351 110.625L121.184 115.965L119.539 113.911Z" fill="#A4C2D1"/>
<path id="Vector_38" fill-rule="evenodd" clip-rule="evenodd" d="M119.128 97.4739L117.894 112.678L114.602 108.566L119.128 97.4739Z" fill="url(#paint32_linear_947_5)"/>
<path id="Vector_39" fill-rule="evenodd" clip-rule="evenodd" d="M117.481 95.4181L112.957 107.336L108.842 102.816L117.481 95.4181Z" fill="url(#paint33_linear_947_5)"/>
<path id="Vector_40" fill-rule="evenodd" clip-rule="evenodd" d="M115.836 93.7776L104.733 101.582L97.7422 97.4739L115.836 93.7776Z" fill="url(#paint34_linear_947_5)"/>
<path id="Vector_41" fill-rule="evenodd" clip-rule="evenodd" d="M115.013 90.9007V87.6133L95.2738 90.4885L96.0971 95.0075L115.013 90.9007Z" fill="url(#paint35_linear_947_5)"/>
<path id="Vector_42" fill-rule="evenodd" clip-rule="evenodd" d="M106.377 85.5575L94.4505 89.2554L91.5729 85.5575H106.377Z" fill="url(#paint36_linear_947_5)"/>
<path id="Vector_43" fill-rule="evenodd" clip-rule="evenodd" d="M108.023 81.0385L89.1045 85.5558L65.663 60.4899L82.5243 67.4768L90.7495 73.2289C90.7495 73.2289 109.254 81.4474 108.023 81.0369V81.0385Z" fill="url(#paint37_linear_947_5)"/>
<path id="Vector_44" fill-rule="evenodd" clip-rule="evenodd" d="M103.088 72.8218L91.162 67.4785L79.6467 62.5475L61.1404 57.6131L49.6234 43.232L56.2069 41.5916L71.8356 42.8247L90.7495 51.0432L101.852 60.4916L103.088 72.8218Z" fill="url(#paint38_linear_947_5)"/>
<path id="Vector_45" fill-rule="evenodd" clip-rule="evenodd" d="M46.7475 42.0021L31.9421 26.795L39.3456 25.5635V21.0462L44.2791 18.9919L45.5133 28.0298L48.8017 39.1268L46.7475 42.0021Z" fill="url(#paint39_linear_947_5)"/>
<path id="Vector_46" fill-rule="evenodd" clip-rule="evenodd" d="M48.3925 14.4697L36.0539 20.634L33.5855 21.8656L34.8197 17.7571L38.5223 12.826L48.3925 14.4697Z" fill="url(#paint40_linear_947_5)"/>
<path id="Vector_47" fill-rule="evenodd" clip-rule="evenodd" d="M33.5855 14.8785L29.4721 20.2218L27.0053 17.7571L33.5855 14.8785Z" fill="url(#paint41_linear_947_5)"/>
<path id="Vector_48" fill-rule="evenodd" clip-rule="evenodd" d="M35.2305 9.12968L31.5312 8.71753L24.5402 11.1839L25.7728 14.0591L35.2305 9.12968Z" fill="url(#paint42_linear_947_5)"/>
<path id="Vector_49" fill-rule="evenodd" clip-rule="evenodd" d="M24.1293 15.7045L15.0808 2.14282L4.38556 11.5928L9.32232 19.8113L16.7242 14.8786L13.0249 23.5109L15.0808 25.1529L24.1293 15.7045Z" fill="url(#paint43_linear_947_5)"/>
<path id="Vector_50" fill-rule="evenodd" clip-rule="evenodd" d="M20.8376 120.077L24.9494 114.732L20.0159 111.034L16.7242 109.389L16.171 110.655L19.2924 121.788L20.8376 120.077Z" fill="url(#paint44_linear_947_5)"/>
<path id="Vector_51" fill-rule="evenodd" clip-rule="evenodd" d="M13.3588 100.629L17.9584 95.418L19.6051 89.2554L15.4933 85.5575L11.5927 94.3288L13.3588 100.629Z" fill="url(#paint45_linear_947_5)"/>
<path id="Vector_52" fill-rule="evenodd" clip-rule="evenodd" d="M73.8964 141.438L75.5349 140.208L43.4557 130.345L26.2507 128.537L73.8964 141.438Z" fill="url(#paint46_linear_947_5)"/>
</g>
</g>
</g>
<defs>
<linearGradient id="paint0_linear_947_5" x1="36.9116" y1="113.386" x2="89.0265" y2="51.2252" gradientUnits="userSpaceOnUse">
<stop stop-color="white"/>
<stop offset="0.43" stop-color="#AEB8E6"/>
<stop offset="0.62" stop-color="white"/>
<stop offset="0.69" stop-color="#D5E3EA"/>
<stop offset="1" stop-color="white"/>
</linearGradient>
<linearGradient id="paint1_linear_947_5" x1="27.3818" y1="118.26" x2="63.45" y2="118.26" gradientUnits="userSpaceOnUse">
<stop stop-color="#E6F0F0"/>
<stop offset="1" stop-color="#B0C7D1"/>
</linearGradient>
<linearGradient id="paint2_linear_947_5" x1="25.2866" y1="122.031" x2="45.4151" y2="122.031" gradientUnits="userSpaceOnUse">
<stop stop-color="#F5FDFF"/>
<stop offset="1" stop-color="#BDD1D9"/>
</linearGradient>
<linearGradient id="paint3_linear_947_5" x1="24.4453" y1="123.5" x2="39.1246" y2="123.5" gradientUnits="userSpaceOnUse">
<stop stop-color="white"/>
<stop offset="1" stop-color="#63818A"/>
</linearGradient>
<linearGradient id="paint4_linear_947_5" x1="21.9278" y1="124.337" x2="28.2182" y2="124.337" gradientUnits="userSpaceOnUse">
<stop stop-color="#F5FDFF"/>
<stop offset="1" stop-color="#BDD1D9"/>
</linearGradient>
<linearGradient id="paint5_linear_947_5" x1="17.3151" y1="105.688" x2="29.0596" y2="105.688" gradientUnits="userSpaceOnUse">
<stop stop-color="white"/>
<stop offset="1" stop-color="#63818A"/>
</linearGradient>
<linearGradient id="paint6_linear_947_5" x1="20.6707" y1="101.918" x2="33.2515" y2="101.918" gradientUnits="userSpaceOnUse">
<stop stop-color="#F5FDFF"/>
<stop offset="1" stop-color="#BDD1D9"/>
</linearGradient>
<linearGradient id="paint7_linear_947_5" x1="17.3151" y1="88.925" x2="40.804" y2="88.925" gradientUnits="userSpaceOnUse">
<stop stop-color="white"/>
<stop offset="1" stop-color="#63818A"/>
</linearGradient>
<linearGradient id="paint8_linear_947_5" x1="36.1881" y1="114.49" x2="71.4199" y2="114.49" gradientUnits="userSpaceOnUse">
<stop stop-color="white"/>
<stop offset="1" stop-color="#63818A"/>
</linearGradient>
<linearGradient id="paint9_linear_947_5" x1="65.5468" y1="125.803" x2="125.104" y2="125.803" gradientUnits="userSpaceOnUse">
<stop stop-color="white"/>
<stop offset="1" stop-color="#63818A"/>
</linearGradient>
<linearGradient id="paint10_linear_947_5" x1="72.2546" y1="123.289" x2="84.8404" y2="123.289" gradientUnits="userSpaceOnUse">
<stop stop-color="white"/>
<stop offset="1" stop-color="#63818A"/>
</linearGradient>
<linearGradient id="paint11_linear_947_5" x1="84.0007" y1="128.946" x2="104.971" y2="128.946" gradientUnits="userSpaceOnUse">
<stop stop-color="#F5FDFF"/>
<stop offset="1" stop-color="#BDD1D9"/>
</linearGradient>
<linearGradient id="paint12_linear_947_5" x1="86.0975" y1="132.927" x2="91.9706" y2="132.927" gradientUnits="userSpaceOnUse">
<stop stop-color="white"/>
<stop offset="1" stop-color="#63818A"/>
</linearGradient>
<linearGradient id="paint13_linear_947_5" x1="81.0642" y1="132.51" x2="86.9373" y2="132.51" gradientUnits="userSpaceOnUse">
<stop stop-color="white"/>
<stop offset="1" stop-color="#63818A"/>
</linearGradient>
<linearGradient id="paint14_linear_947_5" x1="97.842" y1="137.958" x2="110.842" y2="137.958" gradientUnits="userSpaceOnUse">
<stop stop-color="#F5FDFF"/>
<stop offset="1" stop-color="#BDD1D9"/>
</linearGradient>
<linearGradient id="paint15_linear_947_5" x1="73.515" y1="104.85" x2="92.3896" y2="104.85" gradientUnits="userSpaceOnUse">
<stop stop-color="#F5FDFF"/>
<stop offset="1" stop-color="#BDD1D9"/>
</linearGradient>
<linearGradient id="paint16_linear_947_5" x1="37.8675" y1="92.2828" x2="52.9642" y2="92.2828" gradientUnits="userSpaceOnUse">
<stop stop-color="#F5FDFF"/>
<stop offset="1" stop-color="#BDD1D9"/>
</linearGradient>
<linearGradient id="paint17_linear_947_5" x1="99.5214" y1="122.452" x2="116.715" y2="122.452" gradientUnits="userSpaceOnUse">
<stop stop-color="#F5FDFF"/>
<stop offset="1" stop-color="#BDD1D9"/>
</linearGradient>
<linearGradient id="paint18_linear_947_5" x1="112.248" y1="134.626" x2="138.107" y2="134.626" gradientUnits="userSpaceOnUse">
<stop stop-color="white"/>
<stop offset="1" stop-color="#63818A"/>
</linearGradient>
<linearGradient id="paint19_linear_947_5" x1="-21.1184" y1="63.1526" x2="31.1547" y2="63.1526" gradientUnits="userSpaceOnUse">
<stop stop-color="white"/>
<stop offset="1" stop-color="#63818A"/>
</linearGradient>
<linearGradient id="paint20_linear_947_5" x1="14.7943" y1="35.7265" x2="47.9738" y2="71.3376" gradientUnits="userSpaceOnUse">
<stop stop-color="#A4C2D1"/>
<stop offset="1" stop-color="white"/>
</linearGradient>
<linearGradient id="paint21_linear_947_5" x1="10.6057" y1="55.8189" x2="18.9913" y2="55.8189" gradientUnits="userSpaceOnUse">
<stop stop-color="white"/>
<stop offset="1" stop-color="#63818A"/>
</linearGradient>
<linearGradient id="paint22_linear_947_5" x1="6.41034" y1="67.7631" x2="26.5421" y2="67.7631" gradientUnits="userSpaceOnUse">
<stop stop-color="#F5FDFF"/>
<stop offset="1" stop-color="#BDD1D9"/>
</linearGradient>
<linearGradient id="paint23_linear_947_5" x1="6.41034" y1="76.7715" x2="16.0563" y2="76.7715" gradientUnits="userSpaceOnUse">
<stop stop-color="white"/>
<stop offset="1" stop-color="#63818A"/>
</linearGradient>
<linearGradient id="paint24_linear_947_5" x1="0.119934" y1="30.2671" x2="16.8961" y2="30.2671" gradientUnits="userSpaceOnUse">
<stop stop-color="#F5FDFF"/>
<stop offset="1" stop-color="#BDD1D9"/>
</linearGradient>
<linearGradient id="paint25_linear_947_5" x1="1.23627" y1="47.7133" x2="13.5389" y2="47.7133" gradientUnits="userSpaceOnUse">
<stop stop-color="#F5FDFF"/>
<stop offset="1" stop-color="#BDD1D9"/>
</linearGradient>
<linearGradient id="paint26_linear_947_5" x1="18.1548" y1="36.5411" x2="40.8041" y2="36.5411" gradientUnits="userSpaceOnUse">
<stop stop-color="white"/>
<stop offset="1" stop-color="#63818A"/>
</linearGradient>
<linearGradient id="paint27_linear_947_5" x1="38.7056" y1="73.0016" x2="84.4198" y2="73.0016" gradientUnits="userSpaceOnUse">
<stop stop-color="#F5FDFF"/>
<stop offset="1" stop-color="#BDD1D9"/>
</linearGradient>
<linearGradient id="paint28_linear_947_5" x1="80.2638" y1="98.707" x2="91.7807" y2="98.707" gradientUnits="userSpaceOnUse">
<stop stop-color="#F5FDFF"/>
<stop offset="1" stop-color="#BDD1D9"/>
</linearGradient>
<linearGradient id="paint29_linear_947_5" x1="88.2828" y1="105.385" x2="98.1514" y2="105.385" gradientUnits="userSpaceOnUse">
<stop stop-color="#F5FDFF"/>
<stop offset="1" stop-color="#BDD1D9"/>
</linearGradient>
<linearGradient id="paint30_linear_947_5" x1="43.8682" y1="62.7535" x2="82.1134" y2="62.7535" gradientUnits="userSpaceOnUse">
<stop stop-color="white"/>
<stop offset="1" stop-color="#63818A"/>
</linearGradient>
<linearGradient id="paint31_linear_947_5" x1="127.851" y1="110.241" x2="143.795" y2="126.199" gradientUnits="userSpaceOnUse">
<stop stop-color="white"/>
<stop offset="1" stop-color="#63818A"/>
</linearGradient>
<linearGradient id="paint32_linear_947_5" x1="109.081" y1="114.174" x2="124.511" y2="99.262" gradientUnits="userSpaceOnUse">
<stop stop-color="#F5FDFF"/>
<stop offset="1" stop-color="#BDD1D9"/>
</linearGradient>
<linearGradient id="paint33_linear_947_5" x1="105.301" y1="110.48" x2="120.947" y2="95.3579" gradientUnits="userSpaceOnUse">
<stop stop-color="#F5FDFF"/>
<stop offset="1" stop-color="#BDD1D9"/>
</linearGradient>
<linearGradient id="paint34_linear_947_5" x1="98.6637" y1="103.466" x2="114.162" y2="88.4871" gradientUnits="userSpaceOnUse">
<stop stop-color="#F5FDFF"/>
<stop offset="1" stop-color="#BDD1D9"/>
</linearGradient>
<linearGradient id="paint35_linear_947_5" x1="95.2771" y1="100.213" x2="111.029" y2="84.9901" gradientUnits="userSpaceOnUse">
<stop stop-color="#F5FDFF"/>
<stop offset="1" stop-color="#BDD1D9"/>
</linearGradient>
<linearGradient id="paint36_linear_947_5" x1="89.8378" y1="94.3729" x2="105.377" y2="79.3543" gradientUnits="userSpaceOnUse">
<stop stop-color="#8DD7F7"/>
<stop offset="0.16" stop-color="#A8E0F8"/>
<stop offset="0.41" stop-color="#CDEDFB"/>
<stop offset="0.64" stop-color="#E8F7FD"/>
<stop offset="0.84" stop-color="#F9FCFE"/>
<stop offset="1" stop-color="white"/>
</linearGradient>
<linearGradient id="paint37_linear_947_5" x1="76.6758" y1="80.6117" x2="92.073" y2="65.7289" gradientUnits="userSpaceOnUse">
<stop stop-color="#F5FDFF"/>
<stop offset="1" stop-color="#BDD1D9"/>
</linearGradient>
<linearGradient id="paint38_linear_947_5" x1="65.5681" y1="68.0788" x2="85.2068" y2="49.7498" gradientUnits="userSpaceOnUse">
<stop stop-color="#F5FDFF"/>
<stop offset="1" stop-color="#BDD1D9"/>
</linearGradient>
<linearGradient id="paint39_linear_947_5" x1="31.9421" y1="30.4962" x2="48.8017" y2="30.4962" gradientUnits="userSpaceOnUse">
<stop stop-color="#F5FDFF"/>
<stop offset="1" stop-color="#BDD1D9"/>
</linearGradient>
<linearGradient id="paint40_linear_947_5" x1="33.5855" y1="17.3466" x2="48.3925" y2="17.3466" gradientUnits="userSpaceOnUse">
<stop stop-color="#F5FDFF"/>
<stop offset="1" stop-color="#BDD1D9"/>
</linearGradient>
<linearGradient id="paint41_linear_947_5" x1="27.0053" y1="17.5493" x2="33.5855" y2="17.5493" gradientUnits="userSpaceOnUse">
<stop stop-color="#F5FDFF"/>
<stop offset="1" stop-color="#BDD1D9"/>
</linearGradient>
<linearGradient id="paint42_linear_947_5" x1="24.5402" y1="11.3883" x2="35.2305" y2="11.3883" gradientUnits="userSpaceOnUse">
<stop stop-color="#F5FDFF"/>
<stop offset="1" stop-color="#BDD1D9"/>
</linearGradient>
<linearGradient id="paint43_linear_947_5" x1="4.38556" y1="13.6487" x2="24.1293" y2="13.6487" gradientUnits="userSpaceOnUse">
<stop stop-color="white"/>
<stop offset="1" stop-color="#63818A"/>
</linearGradient>
<linearGradient id="paint44_linear_947_5" x1="16.171" y1="115.589" x2="24.9494" y2="115.589" gradientUnits="userSpaceOnUse">
<stop stop-color="white"/>
<stop offset="1" stop-color="#63818A"/>
</linearGradient>
<linearGradient id="paint45_linear_947_5" x1="11.5927" y1="93.0923" x2="19.6051" y2="93.0923" gradientUnits="userSpaceOnUse">
<stop stop-color="white"/>
<stop offset="1" stop-color="#63818A"/>
</linearGradient>
<linearGradient id="paint46_linear_947_5" x1="26.2507" y1="134.988" x2="75.5349" y2="134.988" gradientUnits="userSpaceOnUse">
<stop stop-color="#F5FDFF"/>
<stop offset="1" stop-color="#BDD1D9"/>
</linearGradient>
</defs>
</svg>
