<svg width="154" height="142" viewBox="0 0 154 142" fill="none" xmlns="http://www.w3.org/2000/svg">
<g id="Layer 1">
<g id="Group">
<g id="Group_2">
<path id="Vector" opacity="0.57" d="M40.9551 11.9843L55.3684 49.4822L106.135 91.2811L141.493 101.737L149.54 84.8889L135.506 52.8327L100.218 21.2519L62.6579 2.93066L40.9551 11.9843Z" fill="url(#paint0_linear_947_33820)"/>
<path id="Vector_2" d="M153.232 130.181L128.334 141.754L92.1708 129.587L36.8368 80.2553L20.5301 57.0389L3.0874 24.6976L11.0159 0.103027L63.3678 0.910966L99.839 20.5391L133.47 51.0031L149.54 84.889L153.232 130.181Z" fill="url(#paint1_linear_947_33820)"/>
<g id="Group_3">
<path id="Vector_3" d="M20.5537 124.098L31.4406 130.062L46.3273 125.262L25.5948 107.321L20.5537 124.098Z" fill="white"/>
<path id="Vector_4" d="M17.2168 134.648L25.5477 126.355L19.7492 126.664L17.2168 134.648Z" fill="url(#paint2_linear_947_33820)"/>
<path id="Vector_5" d="M34.3283 80.6592L26.2578 105.254L49.1677 124.359L64.5514 119.393L34.3283 80.6592Z" fill="url(#paint3_linear_947_33820)"/>
<path id="Vector_6" d="M73.4027 116.541L35.2748 77.665L34.3281 80.6592L64.5511 119.393L73.4027 116.541Z" fill="url(#paint4_linear_947_33820)"/>
<path id="Vector_7" d="M25.5952 107.321L48.7891 127.353L51.6528 126.427L26.2579 105.254L25.5952 107.321Z" fill="#A1C0CE"/>
<path id="Vector_8" d="M19.7964 126.047L25.3582 132.059L33.3577 129.445L20.6011 123.504L19.7964 126.047Z" fill="url(#paint5_linear_947_33820)"/>
</g>
<g id="Group_4">
<path id="Vector_9" d="M16.4831 120.605L20.5302 124.359L26.3523 105.206L15.2051 93.23L16.4831 120.605Z" fill="#E5E9EB"/>
<path id="Vector_10" d="M17.1459 134.981L19.4653 127.567L16.6489 124.098L17.1459 134.981Z" fill="url(#paint6_linear_947_33820)"/>
<path id="Vector_11" d="M13.0991 63.5264L15.0635 90.426L27.0391 103.115L33.9736 82.3941L13.0991 63.5264Z" fill="url(#paint7_linear_947_33820)"/>
<path id="Vector_12" d="M35.2751 77.6651L12.7676 58.5122L12.8859 63.4549L33.9734 82.3939L35.2751 77.6651Z" fill="url(#paint8_linear_947_33820)"/>
<path id="Vector_13" d="M15.2055 93.2298L25.5954 107.321L27.0391 103.115L15.0635 90.4258L15.2055 93.2298Z" fill="#7F99A9"/>
<path id="Vector_14" d="M16.6491 124.098L19.4655 127.567L20.7672 123.575L16.4834 120.604L16.6491 124.098Z" fill="#7AA3B7"/>
</g>
<g id="Group_5">
<path id="Vector_15" d="M13.7615 112.525L16.2465 116.089L14.9922 91.8988L8.15234 73.4351L13.7615 112.525Z" fill="#C7D5DD"/>
<path id="Vector_16" d="M17.1456 134.981L16.7906 120.913L14.4712 117.515L17.1456 134.981Z" fill="url(#paint9_linear_947_33820)"/>
<path id="Vector_17" d="M1.62012 27.9292L7.58426 69.4192L15.3708 88.9285L13.075 64.0013L1.62012 27.9292Z" fill="url(#paint10_linear_947_33820)"/>
<path id="Vector_18" d="M13.6667 57.2526L0.768066 22.0835L1.62009 27.9292L13.075 64.0012L13.6667 57.2526Z" fill="url(#paint11_linear_947_33820)"/>
<path id="Vector_19" d="M8.15199 73.4349L15.2048 93.2294L15.3232 88.0015L7.58398 69.4189L8.15199 73.4349Z" fill="#829AA7"/>
<path id="Vector_20" d="M14.4712 117.515L16.767 123.408L16.7906 120.913L16.2463 116.089L13.7612 112.525L14.4712 117.515Z" fill="#80A5B5"/>
</g>
<g id="Group_6">
<path id="Vector_21" d="M37.4053 135.338L33.4292 132.724L57.6881 131.821L77.2136 138.094L37.4053 135.338Z" fill="#EAEEF0"/>
<path id="Vector_22" d="M17.146 134.981L28.5299 132.557L32.3167 134.981H17.146Z" fill="url(#paint12_linear_947_33820)"/>
<path id="Vector_23" d="M123.601 141.326L81.3077 138.379L60.5752 131.06L85.7808 131.321L123.601 141.326Z" fill="url(#paint13_linear_947_33820)"/>
<path id="Vector_24" d="M92.3839 129.943L128.334 141.754L123.601 141.326L76.8818 131.345L92.3839 129.943Z" fill="url(#paint14_linear_947_33820)"/>
<path id="Vector_25" d="M77.2134 138.094L57.688 131.82L60.5754 131.06L81.3079 138.379L77.2134 138.094Z" fill="#90AFC1"/>
<path id="Vector_26" d="M32.3165 134.981L28.5298 132.557L33.4289 132.723L37.405 135.337L32.3165 134.981Z" fill="#86B4CB"/>
</g>
<g id="Group_7">
<path id="Vector_27" d="M31.8428 133.888L29.9258 130.751L48.4099 124.597L58.4211 132.201L31.8428 133.888Z" fill="#C0C9D4"/>
<path id="Vector_28" d="M17.8794 134.767L24.7429 131.654L28.4586 134.102L17.8794 134.767Z" fill="url(#paint15_linear_947_33820)"/>
<path id="Vector_29" d="M93.0465 131.179L61.1668 132.011L48.4102 124.597L60.5751 120.676L93.0465 131.179Z" fill="url(#paint16_linear_947_33820)"/>
<path id="Vector_30" opacity="0.92" d="M73.4028 116.541L93.3543 129.967L89.3782 130.228L60.5752 120.676L73.4028 116.541Z" fill="url(#paint17_linear_947_33820)"/>
<path id="Vector_31" d="M58.4214 132.201L48.4102 124.597L61.1668 132.011L58.4214 132.201Z" fill="#728896"/>
<path id="Vector_32" d="M28.4588 134.102L24.9561 131.797L36.0323 128.731L42.2095 133.341L28.4588 134.102Z" fill="#6D8EA3"/>
</g>
<path id="Vector_33" d="M40.9312 11.1054L55.3445 48.5795L106.087 90.3784L141.138 101.476L149.54 84.8892L135.458 51.9301L100.17 20.3729L62.6103 2.05176L40.9312 11.1054Z" fill="url(#paint18_linear_947_33820)"/>
<path id="Vector_34" style="mix-blend-mode:multiply" d="M59.4863 35.6763L100.999 22.4166L106.371 82.0139L133.423 52.7618L100.999 22.4166L94.5375 18.5194L63.4861 2.47949L59.4863 35.6763Z" fill="url(#paint19_linear_947_33820)"/>
<g id="Group_8">
<path id="Vector_35" d="M104.289 89.6419L82.491 84.8893L54.9424 49.3638L104.289 89.6419Z" fill="#EAEFF5"/>
<path id="Vector_36" d="M82.491 84.8893L65.9003 81.2773L54.9424 49.3638L82.491 84.8893Z" fill="url(#paint20_linear_947_33820)"/>
<path id="Vector_37" d="M40.6946 11.5332L38.7065 15.3827L11.0869 1.55273L40.6946 11.5332Z" fill="url(#paint21_linear_947_33820)"/>
<path id="Vector_38" d="M21.6661 65.0234L14.2583 57.8233L16.1043 32.4683L16.341 32.3257L21.6661 65.0234Z" fill="url(#paint22_linear_947_33820)"/>
<path id="Vector_39" d="M51.4396 40.9993L36.8843 41.7359L46.7535 27.7158L51.4396 40.9993Z" fill="url(#paint23_linear_947_33820)"/>
<path id="Vector_40" d="M79.6744 121.27L25.7131 72.5802L19.252 59.5581L27.4881 37.0547L35.5587 41.1657L36.884 41.736L35.3457 64.0969L47.6053 46.4886L51.4394 40.9993L54.0191 48.3183L28.0088 71.9149L65.9 81.2774L79.6744 121.27Z" fill="url(#paint24_linear_947_33820)"/>
<path id="Vector_41" d="M91.7448 103.733L90.7272 124.787L75.6748 116.019L91.7448 103.733Z" fill="url(#paint25_linear_947_33820)"/>
<path id="Vector_42" d="M127.79 141.849L152.262 129.706L132.831 110.696L141.328 103.115L142.345 105.682L152.428 128.351L153.232 130.181L127.79 141.849Z" fill="url(#paint26_linear_947_33820)"/>
<path id="Vector_43" d="M108.477 118.395L107.294 131.964L106.56 132.581L93.354 129.968L108.477 118.395Z" fill="#8CA6B8"/>
<path id="Vector_44" d="M143.529 101.618L143.458 101.832L132.831 110.696L128.169 139.639L105.993 93.7529L105.898 91.1152L143.529 101.618Z" fill="url(#paint27_linear_947_33820)"/>
<path id="Vector_45" d="M51.4396 40.999L47.6055 46.4883L36.8843 41.7357L51.4396 40.999Z" fill="url(#paint28_linear_947_33820)"/>
<path id="Vector_46" d="M51.6051 48.2469L35.3457 64.0967L36.8841 41.7358L47.6053 46.4884L51.6051 48.2469Z" fill="url(#paint29_linear_947_33820)"/>
<path id="Vector_47" d="M125.399 140.613L107.318 132.961L107.294 131.963L114.394 126.046L125.021 139.71V139.734L125.399 140.613Z" fill="url(#paint30_linear_947_33820)"/>
<path id="Vector_48" d="M95.5554 101.737L91.745 103.733L75.675 116.019L65.9004 81.2773L82.4911 84.8893L95.5554 101.737Z" fill="url(#paint31_linear_947_33820)"/>
<path id="Vector_49" d="M104.288 89.6417L95.555 101.737L82.4907 84.8892L104.288 89.6417Z" fill="#D1D8E0"/>
<path id="Vector_50" d="M141.493 101.737L114.394 126.047L108.478 118.395L110.584 103.947L141.493 101.737Z" fill="#8CA6B8"/>
<path id="Vector_51" d="M46.7534 27.7158L36.8842 41.7359L35.5588 41.1656L27.4883 37.0546L31.0857 30.0921L46.7534 27.7158Z" fill="url(#paint32_linear_947_33820)"/>
<path id="Vector_52" d="M19.6308 27.9297L16.838 31.6604L1.83301 22.9395L19.6308 27.9297Z" fill="#AEBCC5"/>
<path id="Vector_53" d="M31.0856 30.0921L27.4881 37.0546L17.7136 32.112L16.8379 31.6605L19.6306 27.9297L31.0856 30.0921Z" fill="url(#paint33_linear_947_33820)"/>
<path id="Vector_54" d="M31.0858 30.0922L19.6309 27.9298L28.6954 15.9058L31.0858 30.0922Z" fill="#AEBCC5"/>
</g>
<g id="Group_9" opacity="0.4">
<path id="Vector_55" d="M53.5218 50.1953L51.4391 40.999L29.2393 70.7977L53.5218 50.1953Z" fill="url(#paint34_linear_947_33820)"/>
<path id="Vector_56" d="M53.6402 52.2866L53.4036 52.5005L53.3799 52.5955L53.6402 52.2866Z" fill="url(#paint35_linear_947_33820)"/>
<path id="Vector_57" d="M21.3345 16.9274L40.9309 11.3906L44.6467 19.9928L21.3345 16.9274Z" fill="url(#paint36_linear_947_33820)"/>
<path id="Vector_58" d="M40.9548 11.9849L38.446 27.9773L30.8725 32.92L29.6892 33.7754L20.2223 40.6904L23.0387 46.7737L0.791504 22.0841L40.9548 11.9849Z" fill="url(#paint37_linear_947_33820)"/>
<path id="Vector_59" d="M49.4277 42.9241L42.4932 34.6309L49.4277 42.9241Z" fill="url(#paint38_linear_947_33820)"/>
<path id="Vector_60" d="M22.873 46.7971L20.0566 40.7138L29.5235 33.7988L22.873 46.7971Z" fill="url(#paint39_linear_947_33820)"/>
<path id="Vector_61" d="M14.1636 57.776L1.83301 23.106L29.5236 33.7993L15.844 37.6964L14.1636 57.776Z" fill="url(#paint40_linear_947_33820)"/>
<path id="Vector_62" d="M29.5236 33.7992L28.5532 16.3335L38.1621 29.4269L42.4932 34.6309L29.5236 33.7992Z" fill="url(#paint41_linear_947_33820)"/>
</g>
<g id="Group_10" opacity="0.55">
<g id="Clip path group">
<mask id="mask0_947_33820" style="mask-type:luminance" maskUnits="userSpaceOnUse" x="40" y="1" width="110" height="101">
<g id="clippath-1">
<path id="Vector_63" d="M40.9312 11.3904L55.3445 48.8883L106.111 90.6872L141.469 101.143L149.54 84.889L133.47 51.0032L100.194 20.6817L63.77 1.6001L40.9312 11.3904Z" fill="white"/>
</g>
</mask>
<g mask="url(#mask0_947_33820)">
<g id="Group_11">
<path id="Vector_64" d="M149.54 1.6001H40.9312V101.143H149.54V1.6001Z" fill="#B7C2D3"/>
<path id="Vector_65" d="M150.723 102.331H50.8949V106.109C47.8892 101.119 45.3804 95.9863 43.3451 90.7822C39.2743 80.3503 37.1679 69.6332 37.0023 59.2013C36.6946 38.3612 44.1971 18.7569 59.6044 5.33083C63.4622 1.98026 67.6276 -0.84752 72.0061 -3.12876V0.411913H131.221V-5.67139C136.286 -3.88917 141.28 -1.60793 146.132 1.14856C148.569 2.52681 150.96 4.02387 153.303 5.61599H150.7V102.331H150.723Z" fill="#B7C2D3"/>
<path id="Vector_66" d="M150.723 102.331H51.4156V105.848C48.4335 100.905 45.9484 95.8199 43.9367 90.6396C39.9133 80.3028 37.8069 69.657 37.6649 59.3201C37.3572 38.6464 44.8124 19.1846 60.0778 5.85361C67.7223 -0.800005 76.5975 -5.31495 86.1117 -7.73877V0.411903H131.15V-5.05356C136.168 -3.27135 141.138 -1.01387 145.942 1.71886C148.356 3.07335 150.723 4.57041 153.043 6.16252H150.723V102.355V102.331Z" fill="#B8C3D4"/>
<path id="Vector_67" d="M150.723 102.331H51.9362V105.563C48.9778 100.668 46.4928 95.6062 44.5047 90.4734C40.5049 80.2079 38.4222 69.6572 38.2802 59.3916C37.9726 38.8842 45.3567 19.5887 60.5274 6.35279C68.1009 -0.253292 76.9051 -4.72072 86.3484 -7.14453V0.388307H131.032V-4.45932C136.026 -2.70087 140.949 -0.467158 145.706 2.24181C148.096 3.5963 150.439 5.0696 152.759 6.63795H150.723V102.307V102.331Z" fill="#B9C4D4"/>
<path id="Vector_68" d="M150.723 102.331H52.4571V105.301C49.5224 100.43 47.061 95.4399 45.0966 90.3309C41.1442 80.1603 39.0614 69.6809 38.9194 59.5104C38.6118 39.1693 45.9486 20.0165 60.9773 6.89934C68.5035 0.340778 77.2367 -4.07912 86.5852 -6.47917V0.412067H115.933V-7.64355C125.944 -6.0752 135.979 -2.53453 145.469 2.81212C147.836 4.14284 150.179 5.61614 152.451 7.18449H150.7V102.331H150.723Z" fill="#BAC5D5"/>
<path id="Vector_69" d="M150.723 102.331H52.9777V105.04C50.0667 100.216 47.629 95.2498 45.6646 90.212C41.7358 80.1128 39.6768 69.7284 39.5348 59.6292C39.2271 39.4545 46.4929 20.4442 61.4269 7.44589C68.8821 0.934853 77.5443 -3.46128 86.8455 -5.83757V0.435833H115.956V-7.00195C125.896 -5.4336 135.837 -1.94046 145.256 3.38243C149.966 6.04388 154.51 9.15681 158.865 12.7212H150.747V102.331H150.723Z" fill="#BBC5D5"/>
<path id="Vector_70" d="M150.723 102.331H53.4981V104.755C50.6107 99.9786 48.1967 95.0359 46.256 90.0457C42.3509 80.0415 40.3155 69.7284 40.1735 59.7243C39.8658 39.6921 47.0843 20.8719 61.8763 7.96867C69.2842 1.50517 77.8754 -2.84344 87.0819 -5.19597V0.435836H115.956V-6.36035C125.801 -4.81576 135.694 -1.34638 145.019 3.92898C149.682 6.56666 154.202 9.65584 158.51 13.1965H150.723V102.331Z" fill="#BCC6D6"/>
<path id="Vector_71" d="M150.723 102.331H54.0188V104.494C51.155 99.741 48.7646 94.8696 46.8239 89.9031C42.9662 79.9702 40.9308 69.7522 40.7888 59.8193C40.4811 39.9535 47.6523 21.2759 62.326 8.49146C69.6628 2.09924 78.183 -2.2256 87.3185 -4.57813V0.412076H115.956V-5.71875C125.73 -4.17416 135.529 -0.752305 144.783 4.49929C149.398 7.11321 153.894 10.1786 158.178 13.6955H150.723V102.355V102.331Z" fill="#BDC7D7"/>
<path id="Vector_72" d="M150.723 102.331H54.5397V104.208C51.6996 99.5034 49.3329 94.6557 47.4158 89.7368C43.5818 79.899 41.5937 69.7522 41.428 59.9144C41.1204 40.2149 48.2205 21.7036 62.7759 9.01425C70.0654 2.66956 78.5146 -1.60777 87.5554 -3.93653V0.435844H115.956V-5.07715C125.636 -3.55632 135.363 -0.134466 144.522 5.04585C149.114 7.636 153.563 10.6777 157.8 14.1708H150.7V102.331H150.723Z" fill="#BEC8D7"/>
<path id="Vector_73" d="M150.723 102.331H55.0604V103.947C52.244 99.2893 49.9009 94.4655 47.9839 89.5941C44.1735 79.8275 42.2091 69.7758 42.0434 60.0093C41.7594 40.4762 48.7886 22.1075 63.2256 9.51313C77.6626 -3.05744 96.762 -7.47734 115.98 -4.43569C125.589 -2.91486 135.221 0.45947 144.309 5.61602C148.854 8.18241 153.279 11.2003 157.468 14.6697H150.7V102.355L150.723 102.331Z" fill="#BFC9D8"/>
<path id="Vector_74" d="M150.723 102.331H55.5808V103.685C52.7881 99.0516 50.445 94.2991 48.5753 89.4514C44.8122 79.7799 42.8479 69.7995 42.6822 60.128C42.3982 40.7613 49.3563 22.5589 63.675 10.0596C77.9937 -2.41592 96.9274 -6.81206 115.98 -3.79417C125.517 -2.29711 135.055 1.05346 144.073 6.16248C148.593 8.70511 152.948 11.6992 157.137 15.1211H150.699V102.331H150.723Z" fill="#C0CAD9"/>
<path id="Vector_75" d="M150.723 102.331H56.1017V103.4C53.3326 98.8138 51.0132 94.085 49.1435 89.2849C45.4041 79.6847 43.4634 69.7993 43.3214 60.1991C43.0374 40.9987 49.9482 22.9389 64.1485 10.5584C78.3489 -1.82202 97.117 -6.17063 116.003 -3.17651C125.447 -1.67944 134.913 1.6236 143.86 6.70886C148.333 9.25149 152.664 12.1981 156.806 15.5962H150.723V102.331Z" fill="#C1CBD9"/>
<path id="Vector_76" d="M150.723 102.331H56.646V103.139C53.9006 98.6003 51.6049 93.8952 49.7588 89.1426C46.0431 79.6137 44.1261 69.8234 43.984 60.3182C43.7 41.2841 50.5635 23.3669 64.6219 11.1053C78.6802 -1.15638 97.3063 -5.48123 116.051 -2.51087C125.423 -1.03757 134.819 2.26548 143.67 7.27945C148.096 9.79831 152.404 12.7211 156.498 16.0955H150.747V102.331H150.723Z" fill="#C2CBDA"/>
<path id="Vector_77" d="M150.723 102.331H57.1667V102.878C54.4449 98.3626 52.1729 93.7289 50.3268 89C46.6584 79.5662 44.7414 69.8471 44.5994 60.4133C44.3154 41.5455 51.1078 23.7946 65.0715 11.628C79.0115 -0.538555 97.4719 -4.81588 116.051 -1.86928C125.328 -0.395977 134.653 2.85954 143.434 7.82599C147.836 10.3211 152.096 13.2202 156.167 16.5707H150.747V102.331H150.723Z" fill="#C3CCDA"/>
<path id="Vector_78" d="M150.723 102.331H57.6875V102.593C54.9895 98.1251 52.7411 93.5151 50.9187 88.8338C47.274 79.4712 45.3806 69.8473 45.2386 60.5084C44.9546 41.807 51.6997 24.1987 65.5214 12.1509C79.343 0.103157 97.6378 -4.1504 116.051 -1.22756C125.257 0.221972 134.488 3.45373 143.197 8.39641C147.552 10.8677 151.788 13.7431 155.812 17.0699H150.747V102.355L150.723 102.331Z" fill="#C4CDDB"/>
<path id="Vector_79" d="M150.723 102.331H62.5393V108.866C60.9773 106.727 59.5336 104.541 58.2082 102.331C55.5338 97.9108 53.3091 93.3246 51.4867 88.6908C47.8656 79.4233 45.9959 69.8706 45.8539 60.6031C45.5699 42.068 52.2441 24.6261 65.9711 12.6733C79.6744 0.720607 97.8271 -3.46166 116.051 -0.586352C125.163 0.863184 134.322 4.07118 142.96 8.94257C147.268 11.3901 151.457 14.2655 155.457 17.521H150.723V102.331Z" fill="#C5CEDC"/>
<path id="Vector_80" d="M150.723 102.331H63.0124V108.533C61.474 106.418 60.054 104.256 58.7286 102.069C56.0779 97.6733 53.8531 93.1584 52.0781 88.5484C48.5044 79.3521 46.6346 69.8945 46.4926 60.6983C46.2086 42.3295 52.8354 25.0302 66.4204 13.1962C80.0054 1.36232 97.9925 -2.79618 116.074 0.0553629C125.115 1.48114 134.18 4.66536 142.747 9.51299C147.031 11.9368 151.173 14.7884 155.149 18.0201H150.747V102.331H150.723Z" fill="#C6CFDC"/>
<path id="Vector_81" d="M150.723 102.331H63.5093V108.2C61.9946 106.109 60.5746 103.97 59.2492 101.784C56.6221 97.4357 54.4211 92.9445 52.6461 88.4058C49.096 79.3046 47.2499 69.9183 47.1079 60.8171C46.8239 42.6147 53.4034 25.4579 66.8464 13.719C80.313 1.98015 98.1344 -2.13083 116.051 0.69695C125.02 2.09896 133.99 5.25943 142.487 10.0595C146.723 12.4596 150.841 15.2874 154.77 18.4954H150.723V102.331Z" fill="#C7D0DD"/>
<path id="Vector_82" d="M150.723 102.331H63.9829V107.868C62.4682 105.777 61.0718 103.662 59.7701 101.499C57.1667 97.1983 54.9894 92.7309 53.238 88.2397C49.7116 79.2098 47.8892 69.9185 47.7472 60.8886C47.4632 42.8288 53.9717 25.8621 67.32 14.2182C80.6683 2.57443 98.324 -1.48903 116.074 1.29123C124.95 2.69324 133.872 5.80618 142.274 10.5825C146.487 12.9588 150.558 15.7628 154.439 18.9471H150.723V102.307V102.331Z" fill="#C8D1DE"/>
<path id="Vector_83" d="M150.723 102.331H64.4563V107.559C62.9652 105.491 61.5689 103.4 60.2908 101.262C57.7111 96.9844 55.5574 92.5882 53.806 88.1208C50.3269 79.186 48.5046 69.966 48.3626 61.0311C48.1022 43.1376 54.5397 26.3135 67.746 14.7885C80.976 3.26351 98.4661 -0.776181 116.074 1.98031C124.879 3.35856 133.707 6.4715 142.037 11.1766C146.203 13.5291 150.25 16.3093 154.084 19.4698H150.7V102.355L150.723 102.331Z" fill="#C9D1DE"/>
<path id="Vector_84" d="M150.723 102.331H64.9533V107.226C63.4623 105.182 62.0895 103.091 60.8115 100.976C58.2555 96.7466 56.1254 92.3742 54.3977 87.9543C50.9423 79.0907 49.1436 69.9658 49.0252 61.1022C48.7649 43.3751 55.1314 26.7173 68.243 15.2874C81.3547 3.8574 98.6791 -0.134766 116.122 2.59797C124.831 3.97621 133.588 7.04163 141.848 11.7229C145.966 14.0517 149.99 16.8082 153.8 19.9211H150.771V102.307L150.723 102.331Z" fill="#CAD2DF"/>
<path id="Vector_85" d="M150.723 102.331H65.4266V106.894C63.9592 104.874 62.5865 102.806 61.3321 100.715C58.7997 96.533 56.6934 92.2081 54.9657 87.812C51.5339 79.0435 49.7589 69.9898 49.6405 61.2213C49.3802 43.6605 55.6993 27.1453 68.669 15.8342C81.6386 4.52305 98.821 0.554643 116.098 3.26361C124.737 4.6181 133.399 7.65975 141.588 12.2935C145.682 14.5985 149.635 17.3312 153.421 20.4204H150.723V102.331Z" fill="#CBD3DF"/>
<path id="Vector_86" d="M150.723 102.331H65.9238V106.561C64.4801 104.565 63.1074 102.521 61.853 100.43C59.3443 96.2714 57.2379 91.9941 55.5575 87.6455C52.1731 78.9482 50.3981 69.9896 50.2798 61.2924C50.0194 43.898 56.2912 27.5253 69.1425 16.333C81.9938 5.11694 99.0105 1.19606 116.122 3.88127C124.689 5.23575 133.257 8.22987 141.351 12.8161C145.398 15.1211 149.327 17.8063 153.066 20.8717H150.7V102.307L150.723 102.331Z" fill="#CCD4E0"/>
<path id="Vector_87" d="M150.723 102.331H66.3971V106.228C64.9534 104.232 63.6044 102.212 62.3737 100.168C59.8886 96.0573 57.8059 91.8038 56.1255 87.5027C52.7648 78.9005 51.0134 70.0132 50.8951 61.411C50.6347 44.1829 56.8355 27.9766 69.5685 16.8794C82.3015 5.78209 99.1525 1.88498 116.122 4.54642C124.595 5.87715 133.091 8.87127 141.114 13.41C145.138 15.6912 149.019 18.3527 152.735 21.3943H150.723V102.354V102.331Z" fill="#CDD5E1"/>
<path id="Vector_88" d="M150.723 102.331H66.8941V105.919C65.4741 103.947 64.1487 101.951 62.918 99.9072C60.4566 95.82 58.3976 91.6377 56.7409 87.3604C53.4274 78.8295 51.6761 70.0373 51.5577 61.5064C51.2974 44.4446 57.4509 28.3809 70.0655 17.3787C82.6801 6.37647 99.3655 2.52688 116.169 5.16457C124.571 6.49529 132.997 9.44189 140.925 13.9331C144.901 16.1905 148.759 18.8282 152.427 21.8461H150.747V102.307L150.723 102.331Z" fill="#CED6E1"/>
<path id="Vector_89" d="M150.723 102.331H67.3671V105.587C65.9471 103.638 64.6454 101.642 63.4147 99.6221C60.977 95.5824 58.9416 91.4239 57.2849 87.1941C53.9952 78.7345 52.2675 70.0373 52.1491 61.6014C51.8888 44.706 57.9713 28.8086 70.4675 17.9015C82.9638 6.99429 99.4835 3.19223 116.122 5.80615C124.429 7.11311 132.783 10.0359 140.641 14.5034C144.57 16.7371 148.404 19.351 152.025 22.3214H150.676V102.307L150.723 102.331Z" fill="#CFD7E2"/>
<path id="Vector_90" d="M150.723 102.331H67.8407V105.254C66.4443 103.329 65.1426 101.357 63.9356 99.3608C61.5216 95.3686 59.5098 91.2339 57.8768 87.0516C54.6107 78.6871 52.9304 70.0611 52.7883 61.6966C52.528 44.9675 58.5632 29.2127 70.9411 18.4244C83.3191 7.63601 99.6731 3.85771 116.145 6.44787C124.382 7.75482 132.642 10.6301 140.428 15.05C144.333 17.26 148.096 19.8501 151.717 22.7967H150.723V102.307V102.331Z" fill="#D0D7E2"/>
<path id="Vector_91" d="M150.723 102.331H72.7869V110.529C47.5103 81.3244 46.8949 40.3096 71.3905 18.9468C83.6501 8.27724 99.8622 4.5227 116.169 7.08909C124.31 8.37229 132.499 11.2476 140.215 15.62C144.073 17.8062 147.812 20.3726 151.386 23.2954H150.723V102.331Z" fill="#D1D8E3"/>
<path id="Vector_92" d="M150.723 102.331H73.2131V110.149C48.1968 81.2295 47.5815 40.6424 71.8404 19.4935C83.958 8.91899 100.028 5.21197 116.169 7.7546C124.24 9.0378 132.334 11.8656 139.978 16.1904C143.789 18.3529 147.504 20.8955 151.031 23.7946H150.7V102.331H150.723Z" fill="#D2D9E4"/>
<path id="Vector_93" d="M150.723 102.331H73.6627V109.769C48.9068 81.1344 48.2914 40.9514 72.3137 20.0162C84.3129 9.53681 100.217 5.87732 116.193 8.39619C124.192 9.65562 132.192 12.4596 139.765 16.7607C143.552 18.8994 147.22 21.4183 150.723 24.2936C152.475 25.7193 154.179 27.2639 155.835 28.856H150.747V102.355L150.723 102.331Z" fill="#D3DAE4"/>
<path id="Vector_94" d="M150.723 102.331H74.1124V109.389C49.5932 81.0395 49.0015 41.2604 72.7634 20.5391C84.6444 10.1785 100.383 6.5428 116.193 9.0379C124.098 10.2973 132.026 13.0776 139.529 17.3074C143.268 19.4223 146.913 21.9174 150.368 24.7452C152.096 26.171 153.8 27.668 155.433 29.2839H150.723V102.331Z" fill="#D4DBE5"/>
<path id="Vector_95" d="M150.723 102.331H74.5386V109.008C50.2797 80.9444 49.6881 41.5693 73.2133 21.0619C84.9759 10.7963 100.549 7.20815 116.217 9.67949C124.05 10.9152 131.908 13.6717 139.316 17.8539C143.032 19.9451 146.629 22.4164 150.037 25.2204C151.741 26.6224 153.421 28.1195 155.054 29.7116H150.747V102.331H150.723Z" fill="#D5DCE6"/>
<path id="Vector_96" d="M150.723 102.331H74.9882V108.628C50.9659 80.8732 50.3743 41.9021 73.6628 21.5848C85.3071 11.4381 100.714 7.87363 116.216 10.3212C123.956 11.5331 131.742 14.2658 139.079 18.4244C142.747 20.4917 146.297 22.9393 149.706 25.7196C151.41 27.1216 153.066 28.5949 154.652 30.1632H150.723V102.355V102.331Z" fill="#D6DDE6"/>
<path id="Vector_97" d="M150.723 102.331H75.4144V108.248C51.6525 80.7783 51.0608 42.2111 74.1127 22.1314C97.1645 2.05178 135.103 8.01627 158.865 35.5099H150.723V102.355V102.331Z" fill="#D7DDE7"/>
<path id="Vector_98" d="M150.723 102.331H75.8637V107.844C52.3622 80.6592 51.7705 42.4959 74.562 22.6302C97.3535 2.74063 134.913 8.68135 158.415 35.8661H150.699V102.331H150.723Z" fill="#D8DEE7"/>
<path id="Vector_99" d="M150.723 102.331H76.3132V107.464C53.0484 80.564 52.4804 42.8285 75.0352 23.1528C97.5901 3.47713 134.748 9.34657 157.989 36.2462H150.723V102.331Z" fill="#D9DFE8"/>
<path id="Vector_100" d="M150.723 102.331H76.7394V107.084C53.7349 80.4693 53.1669 43.1377 75.4851 23.6759C97.8033 4.21413 134.535 10.0123 157.563 36.6267H150.747V102.331H150.723Z" fill="#DAE0E9"/>
<path id="Vector_101" d="M150.723 102.331H77.1892V106.703C54.4213 80.3741 53.877 43.4465 75.9348 24.1986C98.0163 4.95063 134.345 10.6775 157.113 37.0068H150.723V102.331Z" fill="#DCE1E9"/>
<path id="Vector_102" d="M150.723 102.331H77.6152V106.323C55.1076 80.3026 54.5396 43.7553 76.3845 24.7212C98.2056 5.68715 134.156 11.3665 156.664 37.3868H150.723V102.331Z" fill="#DDE2EA"/>
<path id="Vector_103" d="M150.723 102.331H78.0649V105.943C55.7941 80.2076 55.2497 44.088 76.8342 25.2678C98.4187 6.44758 133.967 12.0556 156.238 37.7908H150.723V102.355V102.331Z" fill="#DEE3EB"/>
<path id="Vector_104" d="M150.723 102.331H78.4911V105.563C56.4806 80.1129 55.9362 44.3973 77.2841 25.7909C98.6319 7.18457 133.778 12.7213 155.788 38.1714H150.723V102.331Z" fill="#DFE4EB"/>
<path id="Vector_105" d="M150.723 102.331H78.9407V105.159C57.1906 79.9938 56.6462 44.6821 77.7574 26.2896C98.8685 7.89715 133.612 13.3626 155.362 38.5275H150.723V102.307V102.331Z" fill="#E0E4EC"/>
<path id="Vector_106" d="M150.723 102.331H79.39V104.778C57.8765 79.8986 57.3558 45.0147 78.2066 26.8123C99.0575 8.63367 133.422 14.0516 154.912 38.9076H150.723V102.307V102.331Z" fill="#E1E5EC"/>
<path id="Vector_107" d="M150.723 102.331H79.8162V104.398C58.563 79.8276 58.0424 45.3239 78.6565 27.3354C99.2706 9.37066 133.209 14.7173 154.486 39.2881H150.747V102.307L150.723 102.331Z" fill="#E2E6ED"/>
<path id="Vector_108" d="M150.723 102.331H80.2659V104.018C59.2495 79.7326 58.7524 45.6329 79.1062 27.882C99.4837 10.1311 133.02 15.4065 154.037 39.6921H150.723V102.331Z" fill="#E3E7EE"/>
<path id="Vector_109" d="M150.723 102.331H80.6919V103.638C59.9358 79.6374 59.4151 45.9416 79.5559 28.4046C99.6967 10.8439 132.831 16.0717 153.587 40.0722H150.723V102.331Z" fill="#E4E8EE"/>
<path id="Vector_110" d="M150.723 102.331H81.1417V103.258C60.6222 79.5422 60.1252 46.2741 80.0056 28.9272C99.8861 11.5803 132.642 16.7606 153.137 40.476H150.7V102.355L150.723 102.331Z" fill="#E5E9EF"/>
<path id="Vector_111" d="M150.723 102.331H81.5674V102.878C61.3082 79.4475 60.8112 46.5834 80.455 29.4504C100.099 12.3173 132.452 17.4263 152.711 40.8565H150.723V102.331Z" fill="#E6EAF0"/>
<path id="Vector_112" d="M150.723 102.331H82.0175V102.497C62.0187 79.3761 61.5217 46.8922 80.9288 29.973C100.336 13.0538 132.287 18.0916 152.285 41.2366H150.723V102.331Z" fill="#E7EAF0"/>
<path id="Vector_113" d="M150.723 102.331H90.3716V109.816C87.5789 107.535 84.9281 104.945 82.4667 102.093C62.7046 79.2571 62.2313 47.201 81.3781 30.4956C100.525 13.7903 132.073 18.7568 151.835 41.6167H150.723V102.331Z" fill="#E8EBF1"/>
<path id="Vector_114" d="M150.723 102.331H90.7031V109.341C87.9577 107.083 85.3307 104.541 82.8929 101.713C63.3912 79.1619 62.9178 47.5097 81.8279 31.0183C100.738 14.5268 131.884 19.4458 151.386 41.9967H150.723V102.331Z" fill="#E9ECF1"/>
<path id="Vector_115" d="M150.723 102.331H91.058V108.866C88.3362 106.632 85.7565 104.113 83.3425 101.333C64.0773 79.0672 63.604 47.819 82.2774 31.5414C100.951 15.2638 131.695 20.1115 150.96 42.3773H150.723V102.331Z" fill="#EAEDF2"/>
<path id="Vector_116" d="M150.723 102.331H91.3895V108.39C88.7151 106.181 86.159 103.709 83.7687 100.953C64.7639 78.972 64.2905 48.1278 82.7273 32.0641C101.164 16.0003 131.505 20.7767 150.51 42.7574C152.877 45.5138 154.983 48.3892 156.758 51.3595H150.7V102.331H150.723Z" fill="#EBEEF3"/>
<path id="Vector_117" d="M150.723 102.331H91.7208V107.891C89.0701 105.729 86.5613 103.281 84.2183 100.572C65.4739 78.8768 65.0005 48.4603 83.2006 32.5867C101.377 16.7368 131.34 21.4419 150.084 43.1374C152.427 45.8464 154.486 48.6979 156.261 51.6445H150.723V102.331Z" fill="#ECEFF3"/>
<path id="Vector_118" d="M150.652 102.331H92.0759V107.416C89.4725 105.277 86.9874 102.854 84.668 100.192C66.1603 78.8055 65.7106 48.7692 83.6503 33.1333C101.59 17.4973 131.15 22.1548 149.658 43.5414C151.978 46.2266 154.013 49.0306 155.741 51.9297H150.723V102.355H150.652V102.331Z" fill="#EDF0F4"/>
<path id="Vector_119" d="M150.203 102.331H92.4074V106.941C89.8277 104.826 87.3663 102.45 85.0942 99.8123C66.8468 78.7108 66.3971 49.0785 84.1002 33.6564C101.803 18.2343 130.938 22.8205 149.209 43.922C151.481 46.5596 153.492 49.3399 155.22 52.1915H150.747V102.331H150.226H150.203Z" fill="#EEF0F4"/>
<path id="Vector_120" d="M149.729 102.331H92.7386V106.466C90.2062 104.375 87.7684 102.022 85.5201 99.432C67.5093 78.6157 67.0833 49.4111 84.526 34.179C101.992 18.947 130.724 23.4857 148.735 44.302C153.232 49.5061 156.64 55.233 158.936 61.1499H150.7V102.355H149.729V102.331Z" fill="#EFF1F5"/>
<path id="Vector_121" d="M149.28 102.331H93.0701V105.966C90.5614 103.899 88.171 101.594 85.9699 99.0277C68.2195 78.4965 67.7699 49.6959 84.9996 34.6778C102.206 19.6596 130.559 24.1508 148.309 44.6582C152.759 49.791 156.096 55.4465 158.368 61.2685H150.7V95.5108H158.865C156.759 100.644 153.563 105.254 149.256 109.008V102.307L149.28 102.331Z" fill="#F0F2F6"/>
<path id="Vector_122" d="M148.83 102.331H93.4247V105.492C90.9633 103.472 88.5966 101.19 86.4192 98.6478C68.9055 78.4018 68.4795 50.0052 85.4489 35.2009C102.418 20.3966 130.369 24.8165 147.883 45.0387C152.261 50.1002 155.575 55.6608 157.8 61.4114H150.723V95.1785H158.32C156.237 100.24 153.09 104.779 148.853 108.486V102.307L148.83 102.331Z" fill="#F1F3F6"/>
<path id="Vector_123" d="M148.38 102.331H101.377V110.244C96.0993 107.25 91.1528 103.258 86.8454 98.2676C69.592 78.3306 69.166 50.3141 85.8987 35.7475C102.631 21.157 130.18 25.5057 147.433 45.4427C151.741 50.4329 155.007 55.9222 157.208 61.5777H150.723V94.8458H157.729C155.693 99.836 152.569 104.327 148.404 107.963V102.307L148.38 102.331Z" fill="#F2F4F7"/>
<path id="Vector_124" d="M147.93 102.331H101.614V109.697C96.4306 106.751 91.5315 102.806 87.295 97.8872C70.302 78.2353 69.876 50.6466 86.372 36.2701C102.868 21.8935 130.014 26.1708 147.007 45.8465C151.268 50.7654 154.463 56.1596 156.64 61.7439H150.723V94.5367H157.137C155.125 99.4556 152.049 103.875 147.93 107.464V102.355V102.331Z" fill="#F3F5F8"/>
<path id="Vector_125" d="M147.481 102.331H101.85V109.127C96.7381 106.228 91.91 102.331 87.7209 97.4835C70.9645 78.1167 70.5621 50.932 86.7978 36.7693C103.034 22.6066 129.801 26.8364 146.534 46.2031C150.723 51.0508 153.894 56.3737 156.024 61.8629H150.699V94.1804H156.521C154.533 99.028 151.528 103.377 147.457 106.917V102.331H147.481Z" fill="#F4F6F8"/>
<path id="Vector_126" d="M147.031 102.331H102.087V108.581C97.0462 105.729 92.3127 101.88 88.171 97.127C71.6749 78.0454 71.2726 51.2647 87.2716 37.3158C103.271 23.367 129.612 27.5255 146.132 46.6071C154.392 56.136 158.605 67.6135 158.77 78.4256C158.936 89.2378 155.031 99.432 147.031 106.418V102.355V102.331Z" fill="#F5F6F9"/>
<path id="Vector_127" d="M146.558 102.331H102.3V108.034C97.3298 105.23 92.6673 101.452 88.5966 96.7467C72.3372 77.9502 71.9349 51.5972 87.6972 37.8385C103.46 24.1035 129.399 28.1907 145.658 46.9872C153.776 56.3735 157.942 67.6609 158.107 78.3304C158.273 89 154.439 99.0279 146.558 105.895V102.355V102.331Z" fill="#F6F7F9"/>
<path id="Vector_128" d="M146.108 102.331H102.537V107.464C97.6379 104.707 93.0465 100.976 89.0467 96.3426C73.0477 77.8313 72.6453 51.8822 88.171 38.3611C103.697 24.84 129.234 28.856 145.233 47.3672C153.232 56.611 157.327 67.732 157.492 78.2352C157.658 88.7384 153.871 98.6 146.108 105.372V102.355V102.331Z" fill="#F7F8FA"/>
<path id="Vector_129" d="M145.659 102.331H102.75V106.917C97.9455 104.184 93.425 100.525 89.4726 95.9862C73.7339 77.7838 73.3316 52.2149 88.5969 38.9077C103.862 25.6005 129.021 29.5689 144.759 47.7712C152.64 56.8724 156.664 67.8271 156.83 78.1402C156.995 88.4533 153.256 98.1961 145.635 104.85V102.355L145.659 102.331Z" fill="#F8F9FB"/>
<path id="Vector_130" d="M145.209 102.331H102.986V106.347C98.253 103.662 93.8036 100.05 89.9222 95.5824C74.4201 77.6651 74.0415 52.5002 89.0701 39.4069C104.099 26.3135 128.855 30.2106 144.357 48.1279C152.096 57.0865 156.072 67.8511 156.238 78.0216C156.403 88.1921 152.735 97.7448 145.209 104.303V102.331Z" fill="#F9FAFB"/>
<path id="Vector_131" d="M144.759 102.331H103.223V105.8C98.5606 103.163 94.1822 99.6219 90.3718 95.202C75.1301 77.57 74.7514 52.8328 89.5434 39.9295C104.335 27.0263 128.689 30.8759 143.931 48.5079C151.552 57.324 155.457 67.9222 155.622 77.9264C155.764 87.9306 152.167 97.3407 144.783 103.78V102.331H144.759Z" fill="#FAFBFC"/>
<path id="Vector_132" d="M144.309 102.331H117.731V110.291C108.051 108.771 98.3241 103.495 90.8215 94.8217C75.8165 77.4748 75.4615 53.1416 89.9932 40.4522C104.549 27.7628 128.5 31.5411 143.481 48.888C158.486 66.2349 158.841 90.5681 144.309 103.258V102.331Z" fill="#FBFCFD"/>
<path id="Vector_133" d="M143.836 102.331H117.708V109.65C108.193 108.153 98.6082 102.949 91.2477 94.4418C76.5031 77.3801 76.148 53.4508 90.443 40.9753C104.738 28.4998 128.287 32.2306 143.055 49.2686C157.8 66.3303 158.155 90.2596 143.86 102.735V102.331H143.836Z" fill="#FCFCFD"/>
<path id="Vector_134" d="M143.386 102.212C136.357 108.343 127.056 110.482 117.708 109.008C108.359 107.535 98.9394 102.426 91.6972 94.0377C77.1892 77.2849 76.8342 53.7596 90.8926 41.498C104.951 29.2363 128.097 32.8958 142.605 49.6486C157.113 66.4015 157.468 89.9267 143.41 102.188L143.386 102.212Z" fill="#FDFDFE"/>
<path id="Vector_135" d="M142.936 101.689C136.026 107.701 126.89 109.816 117.684 108.367C108.477 106.917 99.2468 101.903 92.123 93.6574C77.8753 77.1897 77.5203 54.0684 91.3419 42.0206C105.164 29.9728 127.908 33.561 142.155 50.0287C156.403 66.4964 156.758 89.6177 142.936 101.665V101.689Z" fill="#FEFEFE"/>
<path id="Vector_136" d="M142.487 101.167C135.695 107.084 126.725 109.151 117.684 107.725C108.643 106.3 99.5549 101.381 92.5731 93.2775C78.5858 77.095 78.2308 54.3776 91.8157 42.5437C105.401 30.7098 127.743 34.2267 141.73 50.4092C155.717 66.5918 156.072 89.3091 142.487 101.143V101.167Z" fill="white"/>
<path id="Vector_137" d="M142.037 100.644C135.363 106.466 126.559 108.486 117.684 107.108C108.808 105.706 99.8858 100.858 93.0223 92.9211C79.2717 77.0237 78.9403 54.7104 92.265 43.0903C105.59 31.4702 127.553 34.9396 141.303 50.8132C155.054 66.7106 155.385 89.024 142.061 100.644H142.037Z" fill="white"/>
<path id="Vector_138" d="M129.588 86.2436C122.914 92.0655 111.956 90.3308 105.069 82.3703C98.2055 74.4335 98.0161 63.2649 104.69 57.4668C111.364 51.6449 122.322 53.3795 129.21 61.3401C136.073 69.2769 136.262 80.4455 129.588 86.2436Z" fill="white"/>
</g>
</g>
</g>
</g>
<path id="Vector_139" d="M0.768066 22.0836L8.57825 2.00391L40.955 11.9843L0.768066 22.0836Z" fill="url(#paint42_linear_947_33820)"/>
<path id="Vector_140" d="M128.334 141.754L91.2949 131.298L74.3729 117.516L33.4049 77.5464L13.3825 59.5579L0.83883 22.1313L0.791504 22.1551L14.4712 57.9896L34.8486 76.2157L75.6746 116.019L92.1469 129.492L128.168 139.639L151.528 129.896L152.262 129.706L128.334 141.754Z" fill="#F5F5F5"/>
<path id="Vector_141" style="mix-blend-mode:screen" d="M68.0777 48.6742C68.48 56.2545 62.2319 62.7418 54.1377 63.1695C46.0435 63.5973 39.18 57.7991 38.7777 50.2188C38.3753 42.6384 44.6235 36.1511 52.7177 35.7234C60.8118 35.2957 67.6753 41.0938 68.0777 48.6742Z" fill="url(#paint43_radial_947_33820)"/>
<path id="Vector_142" style="mix-blend-mode:screen" d="M58.5635 13.3625C58.8712 19.4695 50.5403 24.8875 39.9611 25.434C29.3582 25.9806 20.5303 21.4656 20.2226 15.3586C19.9149 9.2515 28.2458 3.83356 38.825 3.28701C49.428 2.74047 58.2558 7.25542 58.5872 13.3625H58.5635Z" fill="url(#paint44_radial_947_33820)"/>
<path id="Vector_143" style="mix-blend-mode:screen" d="M43.8662 70.7977C44.2686 78.3781 38.0204 84.8653 29.9263 85.2931C21.8321 85.7208 14.9686 79.8989 14.5662 72.3423C14.1639 64.7619 20.412 58.2747 28.5062 57.8469C36.6004 57.4192 43.4639 63.2173 43.8662 70.7977Z" fill="url(#paint45_radial_947_33820)"/>
<path id="Vector_144" opacity="0.4" d="M116.856 115.757L141.328 103.115L128.358 139.663L116.856 115.757Z" fill="#D7A68F"/>
<path id="Vector_145" style="mix-blend-mode:multiply" opacity="0.4" d="M141.328 103.115L144.783 109.389L136.902 116.232L141.328 103.115Z" fill="url(#paint46_linear_947_33820)"/>
<path id="Vector_146" style="mix-blend-mode:multiply" opacity="0.4" d="M16.3413 32.3257L24.1751 46.0844L21.5008 64.4056L16.3413 32.3257Z" fill="url(#paint47_linear_947_33820)"/>
<path id="Vector_147" style="mix-blend-mode:multiply" opacity="0.4" d="M15.2051 93.23L23.0626 98.7192L21.8556 109.199L15.2051 93.23Z" fill="url(#paint48_linear_947_33820)"/>
<path id="Vector_148" opacity="0.48" d="M141.493 101.737L149.54 84.8892L153.161 128.732L141.493 101.737Z" fill="url(#paint49_linear_947_33820)"/>
<path id="Vector_149" d="M75.4619 117.349C77.876 115.139 80.3137 113.001 82.7514 110.814C85.1891 108.652 87.6505 106.513 90.1119 104.375C95.0347 100.097 100.005 95.8675 104.999 91.6852L105.661 91.1387L106.016 91.9228L110.229 101.238L114.371 110.577C115.744 113.69 117.093 116.826 118.442 119.963C119.743 123.1 121.116 126.236 122.37 129.397C120.808 126.355 119.341 123.29 117.826 120.224C116.335 117.159 114.868 114.094 113.424 111.004L109.093 101.737L104.833 92.4456L105.851 92.6833C100.857 96.8655 95.8394 101.048 90.7746 105.159C88.2422 107.226 85.7098 109.27 83.1538 111.313C80.5977 113.333 78.0653 115.377 75.4619 117.373V117.349Z" fill="url(#paint50_linear_947_33820)"/>
<path id="Vector_150" d="M75.438 116.518C77.852 114.308 80.2898 112.169 82.7275 109.983C85.1652 107.82 87.6266 105.682 90.088 103.543C95.0108 99.2657 99.9809 95.036 104.975 90.8537L105.637 90.3071L105.992 91.0913L110.205 100.406L114.347 109.745C115.72 112.858 117.069 115.995 118.418 119.132C119.719 122.268 121.092 125.405 122.346 128.565C120.784 125.524 119.317 122.458 117.802 119.393C116.311 116.328 114.844 113.262 113.4 110.173L109.069 100.905L104.809 91.6141L105.827 91.8517C100.833 96.034 95.8154 100.216 90.7507 104.327C88.2183 106.395 85.6859 108.438 83.1298 110.482C80.5738 112.502 78.0414 114.545 75.438 116.541V116.518Z" fill="white"/>
<path id="Vector_151" d="M26.5889 71.8192C28.7899 69.8707 31.0146 67.9696 33.2394 66.0448C35.4641 64.1438 37.7125 62.2428 39.9608 60.3655C44.4576 56.5872 48.9781 52.8564 53.5222 49.1494L54.1138 48.6504L54.4452 49.3395L58.2793 57.5377L62.0424 65.7597C63.2967 68.5162 64.5037 71.2489 65.7344 74.0292C66.9178 76.8094 68.1485 79.5422 69.3082 82.3462C67.9118 79.6847 66.5628 76.9758 65.1901 74.2668C63.8411 71.5578 62.5157 68.8726 61.1903 66.1399L57.2616 57.9892L53.4038 49.8148L54.3268 50.0049C49.7591 53.6881 45.1913 57.3714 40.5762 61.0071C38.2805 62.8368 35.9611 64.6428 33.6417 66.425C31.2986 68.2073 29.0029 70.0132 26.6362 71.7717L26.5889 71.8192Z" fill="white"/>
<path id="Vector_152" opacity="0.55" d="M43.5347 15.644L49.0491 32.8008L54.5163 49.9814L54.4453 49.8626L106.395 90.3546L106.3 90.3071L142.203 101.167L142.109 101.214L147.15 92.2556L142.251 101.286L142.227 101.357L142.156 101.333L106.134 90.8536L106.087 90.8298L105.282 91.6853L55.3683 49.4824L54.0429 50.124L48.7651 32.8959L43.5347 15.644Z" fill="url(#paint51_linear_947_33820)"/>
<path id="Vector_153" style="mix-blend-mode:screen" d="M121.021 59.4151C121.518 68.849 113.732 76.9283 103.673 77.4511C93.5908 77.9739 85.0469 70.75 84.5499 61.3161C84.0529 51.8823 91.8394 43.8029 101.898 43.2801C111.98 42.7573 120.524 49.9812 121.021 59.4151Z" fill="url(#paint52_radial_947_33820)"/>
<path id="Vector_154" style="mix-blend-mode:screen" d="M131.529 69.8471C131.955 78.2117 125.068 85.3643 116.146 85.8396C107.223 86.3148 99.6259 79.8988 99.1999 71.5343C98.7739 63.1698 105.661 56.0171 114.584 55.5419C123.506 55.0666 131.103 61.4826 131.529 69.8471Z" fill="url(#paint53_radial_947_33820)"/>
<path id="Vector_155" style="mix-blend-mode:screen" d="M150.558 100.929C150.984 109.294 145.422 116.375 138.109 116.755C130.796 117.135 124.548 110.672 124.098 102.307C123.672 93.9428 129.234 86.8615 136.547 86.4813C143.86 86.1011 150.132 92.5646 150.558 100.929Z" fill="url(#paint54_radial_947_33820)"/>
<path id="Vector_156" opacity="0.74" d="M17.146 134.981L27.6069 72.2236L34.8017 79.4238L17.146 134.981Z" fill="white"/>
<path id="Vector_157" opacity="0.6" d="M91.295 131.298L105.921 92.5405L73.3315 115.187L91.295 131.298Z" fill="white"/>
<path id="Vector_158" d="M8.3891 2.52701L9.24112 0.198242L50.6824 0.317057L7.0874 5.83005L8.3891 2.52701Z" fill="url(#paint55_linear_947_33820)"/>
<path id="Vector_159" style="mix-blend-mode:multiply" d="M52.0549 6.44756L63.3915 1.24349L46.3984 0.720703L52.0549 6.44756Z" fill="url(#paint56_linear_947_33820)"/>
<path id="Vector_160" style="mix-blend-mode:multiply" opacity="0.59" d="M149.54 84.8892L59.4863 35.6763L133.47 51.0033L149.54 84.8892Z" fill="url(#paint57_linear_947_33820)"/>
<path id="Vector_161" opacity="0.47" d="M42.7539 14.1943L54.8242 47.2722L106.892 88.0018L60.244 36.1037L62.6344 2.36035L53.0728 26.1945L42.7539 14.1943Z" fill="white"/>
<path id="Vector_162" style="mix-blend-mode:screen" opacity="0.45" d="M107.057 28.0957L132.571 51.9536L142.961 73.7917L113.14 74.6947L129.967 55.2804L113.424 48.8882L111.152 35.8661L77.0947 54.8527L99.4129 21.4658L107.057 28.0957Z" fill="url(#paint58_linear_947_33820)"/>
<path id="Vector_163" opacity="0.81" d="M40.6947 11.5332L38.8486 33.0862L53.83 49.934L64.9772 81.0397L104.194 92.232L132.074 110.173L142.227 101.88L104.88 91.1627L53.83 49.934L40.6947 11.5332Z" fill="#A1ADBF"/>
<path id="Vector_164" opacity="0.7" d="M96.4544 119.226L105.33 94.1328L113.424 111.004L106.821 104.897L92.147 129.492L96.4544 119.226Z" fill="url(#paint59_linear_947_33820)"/>
<path id="Vector_165" style="mix-blend-mode:multiply" d="M142.156 101.333L129.518 109.436L147.055 116.28L142.203 101.167L142.156 101.333Z" fill="url(#paint60_linear_947_33820)"/>
<path id="Vector_166" d="M17.217 134.648L19.9387 126.165L19.063 132.866L27.5832 131.179L17.146 134.981L17.217 134.648Z" fill="white"/>
<path id="Vector_167" style="mix-blend-mode:screen" d="M127.932 91.5187C128.524 102.949 119.104 112.739 106.915 113.381C94.7031 114.022 84.3368 105.254 83.7452 93.8237C83.1535 82.3937 92.573 72.6034 104.762 71.9618C116.974 71.3202 127.34 80.0887 127.932 91.5187Z" fill="url(#paint61_radial_947_33820)"/>
<path id="Vector_168" style="mix-blend-mode:screen" d="M72.8823 48.8172C73.3793 58.5124 65.4034 66.7819 55.0845 67.3285C44.742 67.875 35.9614 60.461 35.4644 50.7657C34.9674 41.0705 42.9432 32.801 53.2621 32.2545C63.6047 31.7079 72.3853 39.1219 72.8823 48.8172Z" fill="url(#paint62_radial_947_33820)"/>
<path id="Vector_169" style="mix-blend-mode:screen" d="M70.4208 35.1058C70.6575 39.7158 66.8707 43.6366 61.9716 43.898C57.0725 44.1594 52.8834 40.6187 52.6467 36.0325C52.4101 31.4225 56.1968 27.5016 61.0959 27.2402C65.9951 26.9788 70.1841 30.4958 70.4208 35.1058Z" fill="url(#paint63_radial_947_33820)"/>
<path id="Vector_170" d="M29.2397 70.7974L52.8123 51.2168L64.1016 78.5917L29.2397 70.7974Z" fill="url(#paint64_linear_947_33820)"/>
<path id="Vector_171" style="mix-blend-mode:screen" d="M73.5211 78.4966C79.8639 96.7228 80.7159 113 75.4144 114.854C70.113 116.707 60.6698 103.448 54.327 85.2215C47.9841 66.9954 47.1321 50.7178 52.4336 48.8643C57.735 47.0108 67.1783 60.2705 73.5211 78.4966Z" fill="url(#paint65_radial_947_33820)"/>
</g>
<g id="Vector_172" style="mix-blend-mode:color">
<path d="M17.2876 134.268L0.933594 21.9413L9.33545 0.0556641L63.3914 1.07747L100.123 20.4918L133.352 50.7657L149.398 84.5803L153.09 129.825L128.24 141.374L17.2876 134.268Z" fill="#FFFFDC"/>
</g>
</g>
</g>
<defs>
<linearGradient id="paint0_linear_947_33820" x1="125.281" y1="97.9042" x2="55.4147" y2="-10.6516" gradientUnits="userSpaceOnUse">
<stop stop-color="white"/>
<stop offset="0.2" stop-color="#F1F4F7"/>
<stop offset="0.57" stop-color="#DEE4EC"/>
<stop offset="0.83" stop-color="#D8DFE9"/>
</linearGradient>
<linearGradient id="paint1_linear_947_33820" x1="5.65895" y1="74.2731" x2="149.956" y2="66.8167" gradientUnits="userSpaceOnUse">
<stop stop-color="white"/>
<stop offset="0.19" stop-color="#E3E8EE"/>
<stop offset="0.46" stop-color="#C4CFDA"/>
<stop offset="0.68" stop-color="#B0BFCF"/>
<stop offset="0.83" stop-color="#AABACB"/>
</linearGradient>
<linearGradient id="paint2_linear_947_33820" x1="17.0126" y1="130.718" x2="25.7579" y2="130.266" gradientUnits="userSpaceOnUse">
<stop stop-color="white"/>
<stop offset="0.13" stop-color="#EEF2F6"/>
<stop offset="0.42" stop-color="#CFDAE6"/>
<stop offset="0.66" stop-color="#BBCCDC"/>
<stop offset="0.83" stop-color="#B5C7D9"/>
</linearGradient>
<linearGradient id="paint3_linear_947_33820" x1="26.1436" y1="103.33" x2="63.6302" y2="101.393" gradientUnits="userSpaceOnUse">
<stop stop-color="white"/>
<stop offset="0.13" stop-color="#EEF2F6"/>
<stop offset="0.42" stop-color="#CFDAE6"/>
<stop offset="0.66" stop-color="#BBCCDC"/>
<stop offset="0.83" stop-color="#B5C7D9"/>
</linearGradient>
<linearGradient id="paint4_linear_947_33820" x1="35.2954" y1="99.2843" x2="72.4039" y2="97.3667" gradientUnits="userSpaceOnUse">
<stop stop-color="#B5C7D9"/>
<stop offset="0.05" stop-color="#A8BACC"/>
<stop offset="0.2" stop-color="#8497A8"/>
<stop offset="0.35" stop-color="#687C8C"/>
<stop offset="0.5" stop-color="#546878"/>
<stop offset="0.65" stop-color="#485C6C"/>
<stop offset="0.81" stop-color="#445969"/>
</linearGradient>
<linearGradient id="paint5_linear_947_33820" x1="19.9017" y1="127.926" x2="33.256" y2="127.236" gradientUnits="userSpaceOnUse">
<stop stop-color="#B5C7D9"/>
<stop offset="0.14" stop-color="#96ACBC"/>
<stop offset="0.31" stop-color="#7A94A1"/>
<stop offset="0.48" stop-color="#66838F"/>
<stop offset="0.64" stop-color="#5A7983"/>
<stop offset="0.81" stop-color="#567680"/>
</linearGradient>
<linearGradient id="paint6_linear_947_33820" x1="16.2477" y1="129.772" x2="19.7395" y2="129.177" gradientUnits="userSpaceOnUse">
<stop stop-color="white"/>
<stop offset="0.19" stop-color="#E3E8EE"/>
<stop offset="0.46" stop-color="#C4CFDA"/>
<stop offset="0.68" stop-color="#B0BFCF"/>
<stop offset="0.83" stop-color="#AABACB"/>
</linearGradient>
<linearGradient id="paint7_linear_947_33820" x1="14.0183" y1="84.3634" x2="33.71" y2="81.011" gradientUnits="userSpaceOnUse">
<stop stop-color="white"/>
<stop offset="0.19" stop-color="#E3E8EE"/>
<stop offset="0.46" stop-color="#C4CFDA"/>
<stop offset="0.68" stop-color="#B0BFCF"/>
<stop offset="0.83" stop-color="#AABACB"/>
</linearGradient>
<linearGradient id="paint8_linear_947_33820" x1="14.3198" y1="71.9841" x2="33.7408" y2="68.6777" gradientUnits="userSpaceOnUse">
<stop stop-color="#AABACB"/>
<stop offset="0.11" stop-color="#95A8B9"/>
<stop offset="0.28" stop-color="#7990A1"/>
<stop offset="0.46" stop-color="#657E90"/>
<stop offset="0.63" stop-color="#597486"/>
<stop offset="0.81" stop-color="#557183"/>
</linearGradient>
<linearGradient id="paint9_linear_947_33820" x1="15.002" y1="125.571" x2="17.7443" y2="124.938" gradientUnits="userSpaceOnUse">
<stop stop-color="white"/>
<stop offset="0.18" stop-color="#E5EAEE"/>
<stop offset="0.45" stop-color="#C6D1D9"/>
<stop offset="0.67" stop-color="#B2C1CD"/>
<stop offset="0.83" stop-color="#ACBCC9"/>
</linearGradient>
<linearGradient id="paint10_linear_947_33820" x1="4.99846" y1="58.1195" x2="18.0548" y2="55.103" gradientUnits="userSpaceOnUse">
<stop offset="0.17" stop-color="#ACBCC9"/>
<stop offset="0.33" stop-color="#B2C1CD"/>
<stop offset="0.55" stop-color="#C6D1D9"/>
<stop offset="0.82" stop-color="#E5EAEE"/>
<stop offset="1" stop-color="white"/>
</linearGradient>
<linearGradient id="paint11_linear_947_33820" x1="4.972" y1="42.3301" x2="9.97515" y2="41.1742" gradientUnits="userSpaceOnUse">
<stop stop-color="#ACBCC9"/>
<stop offset="0.1" stop-color="#99ABB8"/>
<stop offset="0.27" stop-color="#7D92A0"/>
<stop offset="0.45" stop-color="#69808E"/>
<stop offset="0.63" stop-color="#5D7584"/>
<stop offset="0.81" stop-color="#597281"/>
</linearGradient>
<linearGradient id="paint12_linear_947_33820" x1="30.5726" y1="-49.2582" x2="30.785" y2="-53.5511" gradientUnits="userSpaceOnUse">
<stop stop-color="white"/>
<stop offset="0.13" stop-color="#EEF2F6"/>
<stop offset="0.42" stop-color="#CFDAE6"/>
<stop offset="0.66" stop-color="#BBCCDC"/>
<stop offset="0.83" stop-color="#B5C7D9"/>
</linearGradient>
<linearGradient id="paint13_linear_947_33820" x1="98.1762" y1="-56.382" x2="98.5585" y2="-64.1125" gradientUnits="userSpaceOnUse">
<stop stop-color="white"/>
<stop offset="0.13" stop-color="#EEF2F6"/>
<stop offset="0.42" stop-color="#CFDAE6"/>
<stop offset="0.66" stop-color="#BBCCDC"/>
<stop offset="0.83" stop-color="#B5C7D9"/>
</linearGradient>
<linearGradient id="paint14_linear_947_33820" x1="108.714" y1="-56.9608" x2="109.012" y2="-62.9806" gradientUnits="userSpaceOnUse">
<stop stop-color="#B5C7D9"/>
<stop offset="0.05" stop-color="#A8BACC"/>
<stop offset="0.2" stop-color="#8497A8"/>
<stop offset="0.35" stop-color="#687C8C"/>
<stop offset="0.5" stop-color="#546878"/>
<stop offset="0.65" stop-color="#485C6C"/>
<stop offset="0.81" stop-color="#445969"/>
</linearGradient>
<linearGradient id="paint15_linear_947_33820" x1="19.9546" y1="119.523" x2="20.1115" y2="115.985" gradientUnits="userSpaceOnUse">
<stop stop-color="white"/>
<stop offset="0.02" stop-color="#FAFBFC"/>
<stop offset="0.28" stop-color="#CFD5DD"/>
<stop offset="0.5" stop-color="#B0BAC6"/>
<stop offset="0.7" stop-color="#9CA9B8"/>
<stop offset="0.83" stop-color="#96A4B4"/>
</linearGradient>
<linearGradient id="paint16_linear_947_33820" x1="67.198" y1="116.17" x2="67.7002" y2="104.852" gradientUnits="userSpaceOnUse">
<stop stop-color="#B5C7D9"/>
<stop offset="0.18" stop-color="#ABBCCD"/>
<stop offset="0.56" stop-color="#9BAABA"/>
<stop offset="0.83" stop-color="#96A4B4"/>
</linearGradient>
<linearGradient id="paint17_linear_947_33820" x1="73.432" y1="112.887" x2="73.9952" y2="100.192" gradientUnits="userSpaceOnUse">
<stop stop-color="#96A4B4"/>
<stop offset="0.06" stop-color="#8C9BAB"/>
<stop offset="0.24" stop-color="#708294"/>
<stop offset="0.43" stop-color="#5C7184"/>
<stop offset="0.62" stop-color="#50667A"/>
<stop offset="0.81" stop-color="#4C6377"/>
</linearGradient>
<linearGradient id="paint18_linear_947_33820" x1="125.414" y1="97.2788" x2="55.3431" y2="-11.5511" gradientUnits="userSpaceOnUse">
<stop stop-color="white"/>
<stop offset="0.2" stop-color="#F1F4F7"/>
<stop offset="0.57" stop-color="#DEE4EC"/>
<stop offset="0.83" stop-color="#D8DFE9"/>
</linearGradient>
<linearGradient id="paint19_linear_947_33820" x1="101.65" y1="22.1829" x2="85.0347" y2="50.1344" gradientUnits="userSpaceOnUse">
<stop offset="0.17" stop-color="#D8DFE9"/>
<stop offset="0.43" stop-color="#DEE4EC"/>
<stop offset="0.8" stop-color="#F1F4F7"/>
<stop offset="1" stop-color="white"/>
</linearGradient>
<linearGradient id="paint20_linear_947_33820" x1="55.8748" y1="67.8028" x2="81.5197" y2="66.4776" gradientUnits="userSpaceOnUse">
<stop stop-color="white"/>
<stop offset="0.19" stop-color="#E3E9ED"/>
<stop offset="0.46" stop-color="#C4D1D9"/>
<stop offset="0.68" stop-color="#B0C2CD"/>
<stop offset="0.83" stop-color="#AABDC9"/>
</linearGradient>
<linearGradient id="paint21_linear_947_33820" x1="11.4903" y1="9.17614" x2="40.4916" y2="7.67753" gradientUnits="userSpaceOnUse">
<stop stop-color="white"/>
<stop offset="0.19" stop-color="#E3E9ED"/>
<stop offset="0.46" stop-color="#C4D1D9"/>
<stop offset="0.68" stop-color="#B0C2CD"/>
<stop offset="0.83" stop-color="#AABDC9"/>
</linearGradient>
<linearGradient id="paint22_linear_947_33820" x1="47.8612" y1="27.8403" x2="9.71591" y2="55.1365" gradientUnits="userSpaceOnUse">
<stop stop-color="white"/>
<stop offset="0.19" stop-color="#FDFDFD"/>
<stop offset="0.26" stop-color="#F6F7F8"/>
<stop offset="0.31" stop-color="#EAEEF0"/>
<stop offset="0.36" stop-color="#D9E0E4"/>
<stop offset="0.39" stop-color="#C3CED5"/>
<stop offset="0.42" stop-color="#A8B7C2"/>
<stop offset="0.45" stop-color="#889CAB"/>
<stop offset="0.47" stop-color="#637E91"/>
<stop offset="0.48" stop-color="#5A778B"/>
<stop offset="0.83" stop-color="#B5C7D9"/>
</linearGradient>
<linearGradient id="paint23_linear_947_33820" x1="36.5487" y1="35.0209" x2="51.0848" y2="34.2697" gradientUnits="userSpaceOnUse">
<stop stop-color="#D5DFE9"/>
<stop offset="0.11" stop-color="#C8D4DF"/>
<stop offset="0.35" stop-color="#B4C4D1"/>
<stop offset="0.58" stop-color="#A8BAC8"/>
<stop offset="0.81" stop-color="#A4B7C6"/>
</linearGradient>
<linearGradient id="paint24_linear_947_33820" x1="20.3632" y1="80.9077" x2="77.4204" y2="77.9593" gradientUnits="userSpaceOnUse">
<stop stop-color="#D5DFE9"/>
<stop offset="0.11" stop-color="#C8D4DF"/>
<stop offset="0.35" stop-color="#B4C4D1"/>
<stop offset="0.58" stop-color="#A8BAC8"/>
<stop offset="0.81" stop-color="#A4B7C6"/>
</linearGradient>
<linearGradient id="paint25_linear_947_33820" x1="75.6179" y1="115.078" x2="92.2812" y2="114.217" gradientUnits="userSpaceOnUse">
<stop stop-color="#D5DFE9"/>
<stop offset="0.11" stop-color="#C8D4DF"/>
<stop offset="0.35" stop-color="#B4C4D1"/>
<stop offset="0.58" stop-color="#A8BAC8"/>
<stop offset="0.81" stop-color="#A4B7C6"/>
</linearGradient>
<linearGradient id="paint26_linear_947_33820" x1="151.638" y1="109.904" x2="106.412" y2="164.68" gradientUnits="userSpaceOnUse">
<stop stop-color="white"/>
<stop offset="0.19" stop-color="#E3E8EE"/>
<stop offset="0.46" stop-color="#C4CFDA"/>
<stop offset="0.68" stop-color="#B0BFCF"/>
<stop offset="0.83" stop-color="#AABACB"/>
</linearGradient>
<linearGradient id="paint27_linear_947_33820" x1="107.132" y1="115.887" x2="144.146" y2="113.974" gradientUnits="userSpaceOnUse">
<stop stop-color="white"/>
<stop offset="0.19" stop-color="#E3E9ED"/>
<stop offset="0.46" stop-color="#C4D1D9"/>
<stop offset="0.68" stop-color="#B0C2CD"/>
<stop offset="0.83" stop-color="#AABDC9"/>
</linearGradient>
<linearGradient id="paint28_linear_947_33820" x1="37.0331" y1="44.3943" x2="51.5692" y2="43.6432" gradientUnits="userSpaceOnUse">
<stop stop-color="#D5DFE9"/>
<stop offset="0.81" stop-color="#D5DEE9"/>
</linearGradient>
<linearGradient id="paint29_linear_947_33820" x1="57.3974" y1="28.9378" x2="9.41707" y2="87.058" gradientUnits="userSpaceOnUse">
<stop stop-color="white"/>
<stop offset="0.19" stop-color="#E3E8EE"/>
<stop offset="0.46" stop-color="#C4CFDA"/>
<stop offset="0.68" stop-color="#B0BFCF"/>
<stop offset="0.83" stop-color="#AABACB"/>
</linearGradient>
<linearGradient id="paint30_linear_947_33820" x1="145.006" y1="101.279" x2="97.0261" y2="159.399" gradientUnits="userSpaceOnUse">
<stop stop-color="white"/>
<stop offset="0.19" stop-color="#E3E8EE"/>
<stop offset="0.46" stop-color="#C4CFDA"/>
<stop offset="0.68" stop-color="#B0BFCF"/>
<stop offset="0.83" stop-color="#AABACB"/>
</linearGradient>
<linearGradient id="paint31_linear_947_33820" x1="101.014" y1="66.7363" x2="55.4294" y2="121.934" gradientUnits="userSpaceOnUse">
<stop stop-color="white"/>
<stop offset="0.23" stop-color="#E3E8EE"/>
<stop offset="0.55" stop-color="#C4CFDA"/>
<stop offset="0.82" stop-color="#B0BFCF"/>
<stop offset="1" stop-color="#AABACB"/>
</linearGradient>
<linearGradient id="paint32_linear_947_33820" x1="27.4017" y1="35.4974" x2="47.114" y2="34.4787" gradientUnits="userSpaceOnUse">
<stop stop-color="white"/>
<stop offset="0.19" stop-color="#E3E9ED"/>
<stop offset="0.46" stop-color="#C4D1D9"/>
<stop offset="0.68" stop-color="#B0C2CD"/>
<stop offset="0.83" stop-color="#AABDC9"/>
</linearGradient>
<linearGradient id="paint33_linear_947_33820" x1="37.5554" y1="22.4047" x2="6.46752" y2="44.6737" gradientUnits="userSpaceOnUse">
<stop stop-color="white"/>
<stop offset="0.19" stop-color="#FDFDFD"/>
<stop offset="0.26" stop-color="#F6F7F8"/>
<stop offset="0.31" stop-color="#EAEEF0"/>
<stop offset="0.36" stop-color="#D9E0E4"/>
<stop offset="0.39" stop-color="#C3CED5"/>
<stop offset="0.42" stop-color="#A8B7C2"/>
<stop offset="0.45" stop-color="#889CAB"/>
<stop offset="0.47" stop-color="#637E91"/>
<stop offset="0.48" stop-color="#5A778B"/>
<stop offset="0.83" stop-color="#B5C7D9"/>
</linearGradient>
<linearGradient id="paint34_linear_947_33820" x1="51.3612" y1="40.957" x2="34.5396" y2="73.5285" gradientUnits="userSpaceOnUse">
<stop offset="0.15" stop-color="#8D724E"/>
<stop offset="0.71" stop-color="white"/>
<stop offset="1" stop-color="white"/>
</linearGradient>
<linearGradient id="paint35_linear_947_33820" x1="53.5614" y1="52.2479" x2="53.3762" y2="52.6065" gradientUnits="userSpaceOnUse">
<stop offset="0.15" stop-color="#8D724E"/>
<stop offset="0.71" stop-color="white"/>
<stop offset="1" stop-color="white"/>
</linearGradient>
<linearGradient id="paint36_linear_947_33820" x1="37.4706" y1="9.62644" x2="31.0971" y2="21.9673" gradientUnits="userSpaceOnUse">
<stop offset="0.15" stop-color="#8D724E"/>
<stop offset="0.71" stop-color="white"/>
<stop offset="1" stop-color="white"/>
</linearGradient>
<linearGradient id="paint37_linear_947_33820" x1="29.3511" y1="5.99435" x2="11.3855" y2="40.7809" gradientUnits="userSpaceOnUse">
<stop offset="0.15" stop-color="#8D724E"/>
<stop offset="0.71" stop-color="white"/>
<stop offset="1" stop-color="white"/>
</linearGradient>
<linearGradient id="paint38_linear_947_33820" x1="46.8878" y1="36.9099" x2="44.9703" y2="40.6227" gradientUnits="userSpaceOnUse">
<stop offset="0.15" stop-color="#8D724E"/>
<stop offset="0.71" stop-color="white"/>
<stop offset="1" stop-color="white"/>
</linearGradient>
<linearGradient id="paint39_linear_947_33820" x1="27.1538" y1="32.5701" x2="20.4535" y2="45.5439" gradientUnits="userSpaceOnUse">
<stop offset="0.15" stop-color="#8D724E"/>
<stop offset="0.71" stop-color="white"/>
<stop offset="1" stop-color="white"/>
</linearGradient>
<linearGradient id="paint40_linear_947_33820" x1="16.3993" y1="27.0163" x2="3.3909" y2="52.2044" gradientUnits="userSpaceOnUse">
<stop offset="0.15" stop-color="#8D724E"/>
<stop offset="0.71" stop-color="white"/>
<stop offset="1" stop-color="white"/>
</linearGradient>
<linearGradient id="paint41_linear_947_33820" x1="37.7425" y1="21.0971" x2="30.8352" y2="34.4717" gradientUnits="userSpaceOnUse">
<stop offset="0.15" stop-color="#8D724E"/>
<stop offset="0.71" stop-color="white"/>
<stop offset="1" stop-color="white"/>
</linearGradient>
<linearGradient id="paint42_linear_947_33820" x1="0.251751" y1="12.2835" x2="40.8583" y2="10.1852" gradientUnits="userSpaceOnUse">
<stop stop-color="#D5DFE9"/>
<stop offset="0.11" stop-color="#C8D4DF"/>
<stop offset="0.35" stop-color="#B4C4D1"/>
<stop offset="0.58" stop-color="#A8BAC8"/>
<stop offset="0.81" stop-color="#A4B7C6"/>
</linearGradient>
<radialGradient id="paint43_radial_947_33820" cx="0" cy="0" r="1" gradientUnits="userSpaceOnUse" gradientTransform="translate(53.4329 49.4409) rotate(-2.98199) scale(14.1768 14.2338)">
<stop offset="0.19" stop-color="white"/>
<stop offset="0.27" stop-color="#D9D9D9"/>
<stop offset="0.43" stop-color="#989898"/>
<stop offset="0.57" stop-color="#616161"/>
<stop offset="0.71" stop-color="#373737"/>
<stop offset="0.83" stop-color="#191919"/>
<stop offset="0.93" stop-color="#060606"/>
<stop offset="1"/>
</radialGradient>
<radialGradient id="paint44_radial_947_33820" cx="0" cy="0" r="1" gradientUnits="userSpaceOnUse" gradientTransform="translate(39.4735 14.3415) rotate(-2.98199) scale(18.5716 11.5294)">
<stop offset="0.05" stop-color="white"/>
<stop offset="0.55"/>
</radialGradient>
<radialGradient id="paint45_radial_947_33820" cx="0" cy="0" r="1" gradientUnits="userSpaceOnUse" gradientTransform="translate(29.2186 71.5707) rotate(-2.98199) scale(14.1768 14.2338)">
<stop offset="0.19" stop-color="white"/>
<stop offset="0.27" stop-color="#D9D9D9"/>
<stop offset="0.43" stop-color="#989898"/>
<stop offset="0.57" stop-color="#616161"/>
<stop offset="0.71" stop-color="#373737"/>
<stop offset="0.83" stop-color="#191919"/>
<stop offset="0.93" stop-color="#060606"/>
<stop offset="1"/>
</radialGradient>
<linearGradient id="paint46_linear_947_33820" x1="136.584" y1="109.808" x2="144.786" y2="109.384" gradientUnits="userSpaceOnUse">
<stop offset="0.19" stop-color="white"/>
<stop offset="0.27" stop-color="#FAFDFC"/>
<stop offset="0.35" stop-color="#EEF8F6"/>
<stop offset="0.43" stop-color="#DAF0EB"/>
<stop offset="0.51" stop-color="#BEE4DC"/>
<stop offset="0.58" stop-color="#9AD6C8"/>
<stop offset="0.66" stop-color="#6DC4B0"/>
<stop offset="0.74" stop-color="#39AF94"/>
<stop offset="0.78" stop-color="#20A586"/>
</linearGradient>
<linearGradient id="paint47_linear_947_33820" x1="20.0925" y1="35.759" x2="21.6167" y2="65.0187" gradientUnits="userSpaceOnUse">
<stop offset="0.19" stop-color="white"/>
<stop offset="0.27" stop-color="#FAFDFC"/>
<stop offset="0.35" stop-color="#EEF8F6"/>
<stop offset="0.43" stop-color="#DAF0EB"/>
<stop offset="0.51" stop-color="#BEE4DC"/>
<stop offset="0.58" stop-color="#9AD6C8"/>
<stop offset="0.66" stop-color="#6DC4B0"/>
<stop offset="0.74" stop-color="#39AF94"/>
<stop offset="0.78" stop-color="#20A586"/>
</linearGradient>
<linearGradient id="paint48_linear_947_33820" x1="13.8979" y1="98.4743" x2="24.7162" y2="104.849" gradientUnits="userSpaceOnUse">
<stop offset="0.19" stop-color="white"/>
<stop offset="0.27" stop-color="#FAFDFC"/>
<stop offset="0.35" stop-color="#EEF8F6"/>
<stop offset="0.43" stop-color="#DAF0EB"/>
<stop offset="0.51" stop-color="#BEE4DC"/>
<stop offset="0.58" stop-color="#9AD6C8"/>
<stop offset="0.66" stop-color="#6DC4B0"/>
<stop offset="0.74" stop-color="#39AF94"/>
<stop offset="0.78" stop-color="#20A586"/>
</linearGradient>
<linearGradient id="paint49_linear_947_33820" x1="144.852" y1="89.5799" x2="151.662" y2="128.599" gradientUnits="userSpaceOnUse">
<stop stop-color="#B5C7D9"/>
<stop offset="0.05" stop-color="#A8BACC"/>
<stop offset="0.2" stop-color="#8497A8"/>
<stop offset="0.35" stop-color="#687C8C"/>
<stop offset="0.5" stop-color="#546878"/>
<stop offset="0.65" stop-color="#485C6C"/>
<stop offset="0.81" stop-color="#445969"/>
</linearGradient>
<linearGradient id="paint50_linear_947_33820" x1="75.2121" y1="112.267" x2="121.373" y2="109.882" gradientUnits="userSpaceOnUse">
<stop stop-color="#B5C7D9"/>
<stop offset="0.05" stop-color="#A8BACC"/>
<stop offset="0.2" stop-color="#8497A8"/>
<stop offset="0.35" stop-color="#687C8C"/>
<stop offset="0.5" stop-color="#546878"/>
<stop offset="0.65" stop-color="#485C6C"/>
<stop offset="0.81" stop-color="#445969"/>
</linearGradient>
<linearGradient id="paint51_linear_947_33820" x1="45.8512" y1="60.9483" x2="145.264" y2="55.8113" gradientUnits="userSpaceOnUse">
<stop stop-color="#B5C7D9"/>
<stop offset="0.12" stop-color="#8FA1B1"/>
<stop offset="0.26" stop-color="#6E7E8D"/>
<stop offset="0.4" stop-color="#536371"/>
<stop offset="0.53" stop-color="#41505D"/>
<stop offset="0.67" stop-color="#354451"/>
<stop offset="0.81" stop-color="#32414D"/>
</linearGradient>
<radialGradient id="paint52_radial_947_33820" cx="0" cy="0" r="1" gradientUnits="userSpaceOnUse" gradientTransform="translate(102.77 60.3626) rotate(-2.98199) scale(17.6559 17.7269)">
<stop offset="0.19" stop-color="white"/>
<stop offset="0.27" stop-color="#D9D9D9"/>
<stop offset="0.43" stop-color="#989898"/>
<stop offset="0.57" stop-color="#616161"/>
<stop offset="0.71" stop-color="#373737"/>
<stop offset="0.83" stop-color="#191919"/>
<stop offset="0.93" stop-color="#060606"/>
<stop offset="1"/>
</radialGradient>
<radialGradient id="paint53_radial_947_33820" cx="0" cy="0" r="1" gradientUnits="userSpaceOnUse" gradientTransform="translate(115.367 70.6997) rotate(-2.98199) scale(15.6442 15.7071)">
<stop offset="0.19" stop-color="white"/>
<stop offset="0.27" stop-color="#D9D9D9"/>
<stop offset="0.43" stop-color="#989898"/>
<stop offset="0.57" stop-color="#616161"/>
<stop offset="0.71" stop-color="#373737"/>
<stop offset="0.83" stop-color="#191919"/>
<stop offset="0.93" stop-color="#060606"/>
<stop offset="1"/>
</radialGradient>
<radialGradient id="paint54_radial_947_33820" cx="0" cy="0" r="1" gradientUnits="userSpaceOnUse" gradientTransform="translate(137.214 95.8752) rotate(-2.98199) scale(11.9549 13.0276)">
<stop offset="0.19" stop-color="white"/>
<stop offset="0.26" stop-color="#F7F7F7"/>
<stop offset="0.37" stop-color="#E3E3E3"/>
<stop offset="0.49" stop-color="#C2C2C2"/>
<stop offset="0.64" stop-color="#949494"/>
<stop offset="0.79" stop-color="#595959"/>
<stop offset="0.96" stop-color="#121212"/>
<stop offset="1"/>
</radialGradient>
<linearGradient id="paint55_linear_947_33820" x1="23.3105" y1="-6.07343" x2="32.9496" y2="9.64467" gradientUnits="userSpaceOnUse">
<stop offset="0.14" stop-color="#546A8B"/>
<stop offset="1" stop-color="white"/>
</linearGradient>
<linearGradient id="paint56_linear_947_33820" x1="51.0103" y1="3.47651" x2="83.8862" y2="1.28199" gradientUnits="userSpaceOnUse">
<stop stop-color="white"/>
<stop offset="0.86" stop-color="#546A8B"/>
</linearGradient>
<linearGradient id="paint57_linear_947_33820" x1="76.4856" y1="62.1604" x2="201.236" y2="53.8493" gradientUnits="userSpaceOnUse">
<stop stop-color="white"/>
<stop offset="0.86" stop-color="#546A8B"/>
</linearGradient>
<linearGradient id="paint58_linear_947_33820" x1="123.545" y1="45.0511" x2="104.818" y2="65.2685" gradientUnits="userSpaceOnUse">
<stop stop-color="white"/>
<stop offset="0.37" stop-color="white"/>
<stop offset="0.85"/>
</linearGradient>
<linearGradient id="paint59_linear_947_33820" x1="102.495" y1="122.934" x2="107.018" y2="79.516" gradientUnits="userSpaceOnUse">
<stop stop-color="#B5C7D9"/>
<stop offset="0.05" stop-color="#A8BACC"/>
<stop offset="0.2" stop-color="#8497A8"/>
<stop offset="0.35" stop-color="#687C8C"/>
<stop offset="0.5" stop-color="#546878"/>
<stop offset="0.65" stop-color="#485C6C"/>
<stop offset="0.81" stop-color="#445969"/>
</linearGradient>
<linearGradient id="paint60_linear_947_33820" x1="138.859" y1="115.305" x2="129.502" y2="75.5205" gradientUnits="userSpaceOnUse">
<stop stop-color="#D4DBE6"/>
<stop offset="0.14" stop-color="#A8B4C0"/>
<stop offset="0.27" stop-color="#8493A0"/>
<stop offset="0.41" stop-color="#687988"/>
<stop offset="0.54" stop-color="#546776"/>
<stop offset="0.67" stop-color="#485C6C"/>
<stop offset="0.81" stop-color="#445969"/>
</linearGradient>
<radialGradient id="paint61_radial_947_33820" cx="0" cy="0" r="1" gradientUnits="userSpaceOnUse" gradientTransform="translate(105.838 92.6826) rotate(-2.98198) scale(21.3954 21.4814)">
<stop offset="0.19" stop-color="white"/>
<stop offset="0.27" stop-color="#D9D9D9"/>
<stop offset="0.43" stop-color="#989898"/>
<stop offset="0.57" stop-color="#616161"/>
<stop offset="0.71" stop-color="#373737"/>
<stop offset="0.83" stop-color="#191919"/>
<stop offset="0.93" stop-color="#060606"/>
<stop offset="1"/>
</radialGradient>
<radialGradient id="paint62_radial_947_33820" cx="0" cy="0" r="1" gradientUnits="userSpaceOnUse" gradientTransform="translate(54.163 49.8078) rotate(-2.98199) scale(18.1293 18.2022)">
<stop offset="0.19" stop-color="white"/>
<stop offset="0.27" stop-color="#D9D9D9"/>
<stop offset="0.43" stop-color="#989898"/>
<stop offset="0.57" stop-color="#616161"/>
<stop offset="0.71" stop-color="#373737"/>
<stop offset="0.83" stop-color="#191919"/>
<stop offset="0.93" stop-color="#060606"/>
<stop offset="1"/>
</radialGradient>
<radialGradient id="paint63_radial_947_33820" cx="0" cy="0" r="1" gradientUnits="userSpaceOnUse" gradientTransform="translate(61.5325 35.5751) rotate(-2.98199) scale(8.61496 8.6496)">
<stop offset="0.19" stop-color="white"/>
<stop offset="0.27" stop-color="#D9D9D9"/>
<stop offset="0.43" stop-color="#989898"/>
<stop offset="0.57" stop-color="#616161"/>
<stop offset="0.71" stop-color="#373737"/>
<stop offset="0.83" stop-color="#191919"/>
<stop offset="0.93" stop-color="#060606"/>
<stop offset="1"/>
</radialGradient>
<linearGradient id="paint64_linear_947_33820" x1="75.5687" y1="55.8783" x2="31.4747" y2="78.9642" gradientUnits="userSpaceOnUse">
<stop offset="0.19" stop-color="#A4B7C6"/>
<stop offset="0.36" stop-color="#A8BAC8"/>
<stop offset="0.53" stop-color="#B4C3D0"/>
<stop offset="0.7" stop-color="#C8D3DC"/>
<stop offset="0.87" stop-color="#E4E9EE"/>
<stop offset="1" stop-color="white"/>
</linearGradient>
<radialGradient id="paint65_radial_947_33820" cx="0" cy="0" r="1" gradientUnits="userSpaceOnUse" gradientTransform="translate(66.1068 84.0283) rotate(-19.3321) scale(9.78621 36.1384)">
<stop offset="0.19" stop-color="white"/>
<stop offset="0.27" stop-color="#D9D9D9"/>
<stop offset="0.43" stop-color="#989898"/>
<stop offset="0.57" stop-color="#616161"/>
<stop offset="0.71" stop-color="#373737"/>
<stop offset="0.83" stop-color="#191919"/>
<stop offset="0.93" stop-color="#060606"/>
<stop offset="1"/>
</radialGradient>
</defs>
</svg>
