<svg width="154" height="142" viewBox="0 0 154 142" fill="none" xmlns="http://www.w3.org/2000/svg">
<g id="Layer 1">
<g id="Group">
<g id="Group_2">
<path id="Vector" opacity="0.57" d="M40.9014 11.9845L55.3361 49.4823L106.178 91.2813L141.589 101.737L149.648 84.889L135.592 52.8329L100.252 21.252L62.6365 2.95459L40.9014 11.9845Z" fill="url(#paint0_linear_947_13779)"/>
<path id="Vector_2" d="M153.346 130.181L128.411 141.754L92.1934 129.587L36.7772 80.2553L20.4462 57.0389L2.97754 24.6976L10.9178 0.103027L63.3475 0.910966L99.8729 20.5391L133.554 51.0032L149.648 84.889L153.346 130.181Z" fill="url(#paint1_linear_947_13779)"/>
<g id="Group_3">
<path id="Vector_3" d="M20.4697 124.098L31.3728 130.062L46.2816 125.262L25.5183 107.321L20.4697 124.098Z" fill="white"/>
<path id="Vector_4" d="M17.1279 134.648L25.4712 126.355L19.6641 126.664L17.1279 134.648Z" fill="url(#paint2_linear_947_13779)"/>
<path id="Vector_5" d="M34.2646 80.6592L26.1821 105.254L49.126 124.359L64.5326 119.393L34.2646 80.6592Z" fill="url(#paint3_linear_947_13779)"/>
<path id="Vector_6" d="M73.3973 116.541L35.2127 77.665L34.2646 80.6592L64.5326 119.393L73.3973 116.541Z" fill="url(#paint4_linear_947_13779)"/>
<path id="Vector_7" d="M25.5186 107.321L48.7469 127.353L51.6149 126.427L26.1822 105.254L25.5186 107.321Z" fill="#A1C0CE"/>
<path id="Vector_8" d="M19.7114 126.047L25.2815 132.059L33.2929 129.445L20.5173 123.504L19.7114 126.047Z" fill="url(#paint5_linear_947_13779)"/>
</g>
<g id="Group_4">
<path id="Vector_9" d="M16.3932 120.605L20.4463 124.359L26.2771 105.206L15.1133 93.23L16.3932 120.605Z" fill="#E5E9EB"/>
<path id="Vector_10" d="M17.0568 134.981L19.3797 127.567L16.5591 124.098L17.0568 134.981Z" fill="url(#paint6_linear_947_13779)"/>
<path id="Vector_11" d="M13.0039 63.5264L14.9712 90.426L26.9646 103.115L33.9094 82.3941L13.0039 63.5264Z" fill="url(#paint7_linear_947_13779)"/>
<path id="Vector_12" d="M35.2129 77.6651L12.6719 58.5122L12.7904 63.4549L33.9092 82.3939L35.2129 77.6651Z" fill="url(#paint8_linear_947_13779)"/>
<path id="Vector_13" d="M15.1134 93.2298L25.5188 107.321L26.9646 103.115L14.9712 90.4258L15.1134 93.2298Z" fill="#7F99A9"/>
<path id="Vector_14" d="M16.559 124.098L19.3796 127.567L20.6832 123.575L16.3931 120.604L16.559 124.098Z" fill="#7AA3B7"/>
</g>
<g id="Group_5">
<path id="Vector_15" d="M13.6673 112.525L16.156 116.089L14.8998 91.8988L8.0498 73.4351L13.6673 112.525Z" fill="#C7D5DD"/>
<path id="Vector_16" d="M17.0568 134.981L16.7013 120.913L14.3784 117.515L17.0568 134.981Z" fill="url(#paint9_linear_947_13779)"/>
<path id="Vector_17" d="M1.5083 27.9292L7.4813 69.4192L15.2794 88.9286L12.9803 64.0013L1.5083 27.9292Z" fill="url(#paint10_linear_947_13779)"/>
<path id="Vector_18" d="M13.5726 57.2526L0.654785 22.0835L1.50807 27.9292L12.98 64.0012L13.5726 57.2526Z" fill="url(#paint11_linear_947_13779)"/>
<path id="Vector_19" d="M8.04981 73.4349L15.1131 93.2294L15.2316 88.0253L7.48096 69.4189L8.04981 73.4349Z" fill="#829AA7"/>
<path id="Vector_20" d="M14.3786 117.515L16.6777 123.408L16.7014 120.913L16.1562 116.089L13.6675 112.525L14.3786 117.515Z" fill="#80A5B5"/>
</g>
<g id="Group_6">
<path id="Vector_21" d="M37.3458 135.338L33.3638 132.724L57.6587 131.821L77.2132 138.094L37.3458 135.338Z" fill="#EAEEF0"/>
<path id="Vector_22" d="M17.0566 134.981L28.4575 132.557L32.2499 134.981H17.0566Z" fill="url(#paint12_linear_947_13779)"/>
<path id="Vector_23" d="M123.67 141.326L81.3136 138.379L60.5503 131.06L85.7933 131.321L123.67 141.326Z" fill="url(#paint13_linear_947_13779)"/>
<path id="Vector_24" d="M92.4064 129.943L128.41 141.754L123.67 141.326L76.8813 131.345L92.4064 129.943Z" fill="url(#paint14_linear_947_13779)"/>
<path id="Vector_25" d="M77.2132 138.094L57.6587 131.82L60.5504 131.06L81.3137 138.379L77.2132 138.094Z" fill="#90AFC1"/>
<path id="Vector_26" d="M32.2499 134.981L28.4575 132.557L33.3639 132.723L37.3459 135.337L32.2499 134.981Z" fill="#86B4CB"/>
</g>
<g id="Group_7">
<path id="Vector_27" d="M31.7759 133.888L29.856 130.751L48.3675 124.597L58.3936 132.201L31.7759 133.888Z" fill="#C0C9D4"/>
<path id="Vector_28" d="M17.7915 134.767L24.6652 131.654L28.3865 134.102L17.7915 134.767Z" fill="url(#paint15_linear_947_13779)"/>
<path id="Vector_29" d="M93.0704 131.179L61.1433 132.011L48.3677 124.597L60.5507 120.676L93.0704 131.179Z" fill="url(#paint16_linear_947_13779)"/>
<path id="Vector_30" opacity="0.92" d="M73.3975 116.541L93.3786 129.967L89.3966 130.228L60.5508 120.676L73.3975 116.541Z" fill="url(#paint17_linear_947_13779)"/>
<path id="Vector_31" d="M58.3938 132.201L48.3677 124.597L61.1433 132.011L58.3938 132.201Z" fill="#728896"/>
<path id="Vector_32" d="M28.3864 134.102L24.8784 131.797L35.9711 128.731L42.1575 133.341L28.3864 134.102Z" fill="#6D8EA3"/>
</g>
<path id="Vector_33" d="M40.8779 11.1054L55.3127 48.5795L106.131 90.3784L141.234 101.476L149.648 84.8892L135.545 51.9301L100.205 20.3729L62.5893 2.05176L40.8779 11.1054Z" fill="url(#paint18_linear_947_13779)"/>
<path id="Vector_34" style="mix-blend-mode:multiply" d="M59.4604 35.6763L101.034 22.4166L106.415 82.0139L133.507 52.7618L101.034 22.4166L94.5637 18.5194L63.4662 2.47949L59.4604 35.6763Z" fill="url(#paint19_linear_947_13779)"/>
<g id="Group_8">
<path id="Vector_35" d="M104.329 89.6419L82.4988 84.8893L54.9092 49.3638L104.329 89.6419Z" fill="#EAEFF5"/>
<path id="Vector_36" d="M82.4988 84.8893L65.8834 81.2773L54.9092 49.3638L82.4988 84.8893Z" fill="url(#paint20_linear_947_13779)"/>
<path id="Vector_37" d="M40.6405 11.5331L38.6495 15.3827L10.9888 1.55273L40.6405 11.5331Z" fill="url(#paint21_linear_947_13779)"/>
<path id="Vector_38" d="M21.5839 65.0234L14.165 57.8233L16.0138 32.4683L16.2509 32.3257L21.5839 65.0234Z" fill="url(#paint22_linear_947_13779)"/>
<path id="Vector_39" d="M51.4012 40.9993L36.8242 41.7359L46.7081 27.7158L51.4012 40.9993Z" fill="url(#paint23_linear_947_13779)"/>
<path id="Vector_40" d="M79.6782 121.27L25.6368 72.5802L19.166 59.5581L27.4144 37.0547L35.497 41.1657L36.8243 41.736L35.2836 64.0969L47.5615 46.4886L51.4013 40.9993L53.9848 48.3183L27.9359 71.9149L65.8834 81.2774L79.6782 121.27Z" fill="url(#paint24_linear_947_13779)"/>
<path id="Vector_41" d="M91.7668 103.733L90.7476 124.787L75.6729 116.019L91.7668 103.733Z" fill="url(#paint25_linear_947_13779)"/>
<path id="Vector_42" d="M127.865 141.825L152.374 129.706L132.914 110.696L141.423 103.115L142.442 105.682L152.539 128.351L153.345 130.181L127.865 141.825Z" fill="url(#paint26_linear_947_13779)"/>
<path id="Vector_43" d="M108.524 118.395L107.339 131.964L106.604 132.581L93.3784 129.968L108.524 118.395Z" fill="#8CA6B8"/>
<path id="Vector_44" d="M143.627 101.618L143.556 101.832L132.914 110.696L128.244 139.639L106.035 93.7529L105.94 91.1152L143.627 101.618Z" fill="url(#paint27_linear_947_13779)"/>
<path id="Vector_45" d="M51.4012 40.999L47.5614 46.4883L36.8242 41.7357L51.4012 40.999Z" fill="url(#paint28_linear_947_13779)"/>
<path id="Vector_46" d="M51.5672 48.2469L35.2837 64.0967L36.8244 41.7358L47.5615 46.4884L51.5672 48.2469Z" fill="url(#paint29_linear_947_13779)"/>
<path id="Vector_47" d="M125.471 140.613L107.363 132.961L107.339 131.963L114.45 126.046L125.092 139.71V139.734L125.471 140.613Z" fill="url(#paint30_linear_947_13779)"/>
<path id="Vector_48" d="M95.5829 101.737L91.7668 103.733L75.6729 116.019L65.8838 81.2773L82.4992 84.8893L95.5829 101.737Z" fill="url(#paint31_linear_947_13779)"/>
<path id="Vector_49" d="M104.329 89.6417L95.5828 101.737L82.499 84.8892L104.329 89.6417Z" fill="#D1D8E0"/>
<path id="Vector_50" d="M141.589 101.737L114.45 126.047L108.524 118.395L110.634 103.947L141.589 101.737Z" fill="#8CA6B8"/>
<path id="Vector_51" d="M46.7083 27.7158L36.8244 41.7359L35.4971 41.1656L27.4146 37.0546L31.0173 30.0921L46.7083 27.7158Z" fill="url(#paint32_linear_947_13779)"/>
<path id="Vector_52" d="M19.5454 27.9297L16.7485 31.6604L1.72119 22.9395L19.5454 27.9297Z" fill="#AEBCC5"/>
<path id="Vector_53" d="M31.0174 30.0921L27.4146 37.0546L17.6255 32.112L16.7485 31.6605L19.5454 27.9297L31.0174 30.0921Z" fill="url(#paint33_linear_947_13779)"/>
<path id="Vector_54" d="M31.0174 30.0922L19.5454 27.9298L28.6234 15.9058L31.0174 30.0922Z" fill="#AEBCC5"/>
</g>
<g id="Group_9" opacity="0.4">
<path id="Vector_55" d="M53.4876 50.1953L51.4018 40.999L29.1689 70.7977L53.4876 50.1953Z" fill="url(#paint34_linear_947_13779)"/>
<path id="Vector_56" d="M53.6059 52.2866L53.3689 52.5005L53.3452 52.5955L53.6059 52.2866Z" fill="url(#paint35_linear_947_13779)"/>
<path id="Vector_57" d="M21.2524 16.9274L40.878 11.3906L44.5993 19.9928L21.2524 16.9274Z" fill="url(#paint36_linear_947_13779)"/>
<path id="Vector_58" d="M40.9017 11.9849L38.3892 27.9773L30.8044 32.92L29.6193 33.7754L20.1384 40.6904L22.959 46.7737L0.678711 22.0841L40.9017 11.9849Z" fill="url(#paint37_linear_947_13779)"/>
<path id="Vector_59" d="M49.3872 42.9241L42.4424 34.6309L49.3872 42.9241Z" fill="url(#paint38_linear_947_13779)"/>
<path id="Vector_60" d="M22.7932 46.7971L19.9727 40.7138L29.4536 33.7988L22.7932 46.7971Z" fill="url(#paint39_linear_947_13779)"/>
<path id="Vector_61" d="M14.0706 57.776L1.72168 23.106L29.4535 33.7993L15.7535 37.6964L14.0706 57.776Z" fill="url(#paint40_linear_947_13779)"/>
<path id="Vector_62" d="M29.4532 33.7992L28.4814 16.3335L38.1046 29.4269L42.4422 34.6309L29.4532 33.7992Z" fill="url(#paint41_linear_947_13779)"/>
</g>
<g id="Group_10" opacity="0.55">
<g id="Clip path group">
<mask id="mask0_947_13779" style="mask-type:luminance" maskUnits="userSpaceOnUse" x="40" y="1" width="110" height="101">
<g id="clippath-1">
<path id="Vector_63" d="M40.8779 11.3904L55.3127 48.8883L106.154 90.6872L141.566 101.143L149.648 84.889L133.554 51.0032L100.229 20.6817L63.7507 1.6001L40.8779 11.3904Z" fill="white"/>
</g>
</mask>
<g mask="url(#mask0_947_13779)">
<g id="Group_11">
<path id="Vector_64" d="M149.648 1.6001H40.8779V101.143H149.648V1.6001Z" fill="#B7C2D3"/>
<path id="Vector_65" d="M150.833 102.331H50.8565V106.109C47.8463 101.119 45.3338 95.9863 43.2954 90.7822C39.2186 80.3503 37.1091 69.6332 36.9432 59.2013C36.6351 38.3613 44.1487 18.7569 59.579 5.33083C63.4425 1.98027 67.6141 -0.847519 71.999 -3.12876V0.411914H131.302V-5.67139C136.375 -3.88917 141.376 -1.60793 146.235 1.14856C148.676 2.52681 151.07 4.02387 153.417 5.61599H150.809V102.331H150.833Z" fill="#B7C2D3"/>
<path id="Vector_66" d="M150.833 102.331H51.3779V105.848C48.3914 100.905 45.9027 95.8199 43.888 90.6396C39.8585 80.3028 37.749 69.657 37.6068 59.3201C37.2987 38.6464 44.7649 19.1846 60.053 5.85361C67.7089 -0.800004 76.5972 -5.31495 86.1256 -7.73877V0.411904H131.231V-5.05356C136.256 -3.27135 141.234 -1.01387 146.045 1.71886C148.463 3.07335 150.833 4.57041 153.156 6.16252H150.833V102.355V102.331Z" fill="#B8C3D4"/>
<path id="Vector_67" d="M150.833 102.331H51.8994V105.563C48.9366 100.668 46.4478 95.6062 44.4568 90.4734C40.4511 80.2079 38.3653 69.6572 38.2231 59.3916C37.915 38.8842 45.3101 19.5887 60.5034 6.35279C68.0881 -0.253292 76.9054 -4.72072 86.3627 -7.14453V0.388307H131.113V-4.45932C136.114 -2.70087 141.044 -0.467158 145.808 2.24181C148.202 3.5963 150.549 5.0696 152.872 6.63795H150.833V102.307V102.331Z" fill="#B9C4D4"/>
<path id="Vector_68" d="M150.833 102.331H52.4211V105.301C49.482 100.43 47.0169 95.4399 45.0496 90.3309C41.0913 80.1603 39.0055 69.6809 38.8633 59.5104C38.5552 39.1693 45.9029 20.0165 60.9539 6.89934C68.4913 0.340777 77.2375 -4.07912 86.5999 -6.47917V0.412066H115.991V-7.64355C126.017 -6.0752 136.067 -2.53453 145.571 2.81212C147.942 4.14284 150.288 5.61614 152.564 7.18449H150.81V102.331H150.833Z" fill="#BAC5D5"/>
<path id="Vector_69" d="M150.833 102.331H52.9421V105.04C50.0267 100.216 47.5853 95.2498 45.618 90.212C41.6834 80.1128 39.6213 69.7284 39.4791 59.6292C39.171 39.4545 46.4476 20.4442 61.4038 7.44589C68.8701 0.934853 77.5452 -3.46128 86.8602 -5.83757V0.435833H116.014V-7.00195C125.969 -5.4336 135.924 -1.94046 145.358 3.38243C150.074 6.04388 154.625 9.15681 158.987 12.7212H150.857V102.331H150.833Z" fill="#BBC5D5"/>
<path id="Vector_70" d="M150.833 102.331H53.4638V104.755C50.5721 99.9786 48.1544 95.0359 46.2108 90.0457C42.2999 80.0415 40.2615 69.7284 40.1193 59.7243C39.8112 39.6921 47.0404 20.8719 61.8544 7.96868C69.2732 1.50517 77.8772 -2.84344 87.0975 -5.19597V0.435837H116.014V-6.36035C125.875 -4.81576 135.782 -1.34638 145.121 3.92898C149.79 6.56666 154.317 9.65584 158.631 13.1965H150.833V102.331Z" fill="#BCC6D6"/>
<path id="Vector_71" d="M150.833 102.331H53.9852V104.494C51.1172 99.741 48.7233 94.8696 46.7797 89.9031C42.9162 79.9703 40.8778 69.7522 40.7356 59.8193C40.4275 39.9535 47.6093 21.2759 62.3048 8.49146C69.6525 2.09924 78.1854 -2.2256 87.3345 -4.57813V0.412077H116.014V-5.71875C125.803 -4.17416 135.616 -0.752305 144.884 4.4993C149.506 7.11321 154.009 10.1786 158.299 13.6955H150.833V102.355V102.331Z" fill="#BDC7D7"/>
<path id="Vector_72" d="M150.833 102.331H54.5064V104.208C51.6622 99.5034 49.2919 94.6557 47.372 89.7368C43.5322 79.899 41.5412 69.7522 41.3753 59.9144C41.0672 40.2149 48.1779 21.7036 62.7549 9.01425C70.0552 2.66956 78.517 -1.60777 87.5713 -3.93653V0.435844H116.014V-5.07715C125.708 -3.55632 135.45 -0.134466 144.623 5.04585C149.221 7.636 153.677 10.6777 157.92 14.1708H150.809V102.331H150.833Z" fill="#BEC8D7"/>
<path id="Vector_73" d="M150.833 102.331H55.028V103.947C52.2074 99.2894 49.8609 94.4655 47.941 89.5941C44.1249 79.8275 42.1576 69.7758 41.9917 60.0093C41.7073 40.4762 48.7469 22.1075 63.2053 9.51313C77.6638 -3.05744 96.7916 -7.47734 116.038 -4.43569C125.661 -2.91486 135.308 0.45947 144.41 5.61602C148.961 8.18241 153.393 11.2003 157.588 14.6697H150.809V102.355L150.833 102.331Z" fill="#BFC9D8"/>
<path id="Vector_74" d="M150.833 102.331H55.5497V103.685C52.7528 99.0516 50.4063 94.2991 48.5338 89.4514C44.7651 79.7799 42.7978 69.7995 42.6319 60.128C42.3475 40.7613 49.316 22.5589 63.6559 10.0596C77.9959 -2.41592 96.9578 -6.81206 116.038 -3.79417C125.59 -2.29711 135.142 1.05346 144.173 6.16248C148.7 8.70511 153.061 11.6992 157.257 15.1211H150.81V102.331H150.833Z" fill="#C0CAD9"/>
<path id="Vector_75" d="M150.833 102.331H56.0709V103.4C53.2977 98.8138 50.9749 94.085 49.1024 89.2849C45.3574 79.6847 43.4138 69.7993 43.2716 60.1991C42.9872 40.9987 49.9083 22.9389 64.1297 10.5584C78.3511 -1.82202 97.1471 -6.17063 116.062 -3.1765C125.519 -1.67944 135 1.6236 143.959 6.70886C148.439 9.25149 152.777 12.1981 156.925 15.5962H150.833V102.331Z" fill="#C1CBD9"/>
<path id="Vector_76" d="M150.833 102.331H56.616V103.139C53.8665 98.6002 51.5674 93.8952 49.7186 89.1426C45.9973 79.6137 44.0774 69.8234 43.9352 60.3182C43.6508 41.2841 50.5245 23.3669 64.6037 11.1053C78.7066 -1.15638 97.3367 -5.48123 116.109 -2.51087C125.495 -1.03757 134.905 2.26548 143.77 7.27945C148.202 9.79831 152.516 12.7211 156.616 16.0955H150.857V102.331H150.833Z" fill="#C2CBDA"/>
<path id="Vector_77" d="M150.833 102.331H57.1375V102.878C54.4117 98.3626 52.1363 93.7288 50.2875 89C46.6136 79.5662 44.6937 69.8471 44.5515 60.4133C44.2671 41.5455 51.0697 23.7946 65.0541 11.628C79.0148 -0.538555 97.5027 -4.81588 116.109 -1.86928C125.4 -0.395977 134.739 2.85954 143.533 7.82598C147.941 10.3211 152.208 13.2202 156.285 16.5707H150.857V102.331H150.833Z" fill="#C3CCDA"/>
<path id="Vector_78" d="M150.833 102.331H57.6592V102.593C54.9571 98.1251 52.7054 93.5151 50.8803 88.8338C47.2301 79.4712 45.3339 69.8473 45.1917 60.5084C44.9073 41.807 51.6625 24.1987 65.5047 12.1509C79.3469 0.103157 97.6688 -4.1504 116.109 -1.22756C125.33 0.221972 134.573 3.45373 143.296 8.39641C147.657 10.8677 151.9 13.7668 155.929 17.0699H150.857V102.355L150.833 102.331Z" fill="#C4CDDB"/>
<path id="Vector_79" d="M150.833 102.331H62.5182V108.866C60.9538 106.727 59.508 104.541 58.1807 102.331C55.5023 97.9108 53.2743 93.3246 51.4492 88.6908C47.8227 79.4233 45.9502 69.8706 45.808 60.6031C45.5236 42.068 52.2077 24.6261 65.9551 12.6733C79.6788 0.720607 97.8585 -3.46166 116.109 -0.586352C125.235 0.863184 134.408 4.07118 143.059 8.94257C147.373 11.3901 151.568 14.2655 155.574 17.521H150.833V102.331Z" fill="#C5CEDC"/>
<path id="Vector_80" d="M150.833 102.331H62.992V108.533C61.4513 106.418 60.0292 104.256 58.7019 102.069C56.0472 97.6733 53.8192 93.1584 52.0415 88.5484C48.4624 79.3521 46.5899 69.8945 46.4477 60.6983C46.1633 42.3295 52.8 25.0302 66.4051 13.1962C80.0103 1.36232 98.0241 -2.79618 116.133 0.0553629C125.187 1.48114 134.265 4.66536 142.845 9.51299C147.135 11.9368 151.283 14.7884 155.265 18.0201H150.857V102.331H150.833Z" fill="#C6CFDC"/>
<path id="Vector_81" d="M150.833 102.331H63.4898V108.2C61.9728 106.109 60.5507 103.97 59.2233 101.784C56.5924 97.4357 54.388 92.9445 52.6104 88.4058C49.055 79.3046 47.2062 69.9183 47.064 60.8171C46.7796 42.6147 53.3688 25.4579 66.8318 13.719C80.2947 1.98015 98.1664 -2.13083 116.109 0.69695C125.092 2.09896 134.075 5.25943 142.585 10.0595C146.827 12.4596 150.952 15.2874 154.886 18.4954H150.833V102.331Z" fill="#C7D0DD"/>
<path id="Vector_82" d="M150.833 102.331H63.9641V107.868C62.4471 105.777 61.0487 103.662 59.745 101.499C57.1378 97.1983 54.9572 92.7309 53.2032 88.2397C49.6715 79.2098 47.8464 69.9185 47.7042 60.8886C47.4198 42.8288 53.938 25.8621 67.3061 14.2182C80.6743 2.57443 98.3562 -1.48903 116.133 1.29123C125.021 2.69324 133.957 5.80618 142.372 10.5825C146.591 12.9588 150.667 15.7628 154.555 18.9471H150.833V102.307V102.331Z" fill="#C8D1DE"/>
<path id="Vector_83" d="M150.833 102.331H64.4377V107.559C62.9445 105.491 61.546 103.4 60.2661 101.262C57.6825 96.9844 55.5256 92.5882 53.7716 88.1208C50.2874 79.186 48.4623 69.966 48.3201 61.0311C48.0594 43.1376 54.5064 26.3135 67.7324 14.7885C80.982 3.26351 98.4981 -0.776181 116.133 1.98031C124.95 3.35856 133.791 6.4715 142.134 11.1766C146.306 13.5291 150.359 16.3093 154.199 19.4698H150.809V102.355L150.833 102.331Z" fill="#C9D1DE"/>
<path id="Vector_84" d="M150.833 102.331H64.9355V107.226C63.4422 105.182 62.0675 103.091 60.7875 100.976C58.2277 96.7466 56.0945 92.3742 54.3642 87.9543C50.9036 79.0907 49.1023 69.9658 48.9838 61.1022C48.723 43.3751 55.099 26.7173 68.2301 15.2874C81.3612 3.8574 98.7114 -0.134766 116.18 2.59797C124.903 3.97622 133.672 7.04163 141.945 11.7229C146.069 14.0517 150.098 16.8082 153.914 19.9211H150.88V102.307L150.833 102.331Z" fill="#CAD2DF"/>
<path id="Vector_85" d="M150.833 102.331H65.4095V106.894C63.94 104.874 62.5652 102.806 61.309 100.715C58.7728 96.533 56.6633 92.2081 54.9331 87.812C51.4962 79.0435 49.7185 69.9898 49.6 61.2213C49.3393 43.6605 55.6678 27.1453 68.6567 15.8342C81.6457 4.52305 98.8536 0.554643 116.156 3.26361C124.808 4.6181 133.483 7.65975 141.684 12.2935C145.784 14.5985 149.743 17.3312 153.535 20.4204H150.833V102.331Z" fill="#CBD3DF"/>
<path id="Vector_86" d="M150.833 102.331H65.9075V106.561C64.4616 104.565 63.0869 102.521 61.8307 100.43C59.3182 96.2714 57.2087 91.9941 55.5258 87.6455C52.1364 78.9482 50.3587 69.9896 50.2402 61.2924C49.9795 43.898 56.2606 27.5253 69.131 16.333C82.0014 5.11694 99.0434 1.19606 116.18 3.88127C124.761 5.23575 133.341 8.22987 141.447 12.8161C145.5 15.1211 149.435 17.8063 153.18 20.8717H150.809V102.307L150.833 102.331Z" fill="#CCD4E0"/>
<path id="Vector_87" d="M150.833 102.331H66.3816V106.228C64.9357 104.232 63.5847 102.212 62.3522 100.168C59.8634 96.0573 57.7776 91.8038 56.0947 87.5027C52.729 78.9005 50.975 70.0132 50.8565 61.411C50.5958 44.1829 56.8058 27.9766 69.5577 16.8794C82.3096 5.78209 99.1857 1.88498 116.18 4.54642C124.666 5.87715 133.175 8.87127 141.21 13.41C145.239 15.6912 149.127 18.3527 152.848 21.3943H150.833V102.355V102.331Z" fill="#CDD5E1"/>
<path id="Vector_88" d="M150.833 102.331H66.8793V105.919C65.4572 103.947 64.1298 101.951 62.8973 99.9072C60.4323 95.82 58.3701 91.6377 56.711 87.3604C53.3926 78.8295 51.6387 70.0373 51.5201 61.5064C51.2594 44.4446 57.422 28.3809 70.0554 17.3787C82.6888 6.37647 99.399 2.52688 116.228 5.16457C124.642 6.49529 133.08 9.44189 141.02 13.9331C145.002 16.1905 148.866 18.8282 152.54 21.8461H150.857V102.307L150.833 102.331Z" fill="#CED6E1"/>
<path id="Vector_89" d="M150.833 102.331H67.3532V105.587C65.931 103.638 64.6274 101.642 63.3949 99.6222C60.9535 95.5825 58.9151 91.424 57.2559 87.1942C53.9613 78.7346 52.231 70.0374 52.1125 61.6016C51.8518 44.7061 57.9433 28.8088 70.4582 17.9016C82.973 7.01819 99.5173 3.19237 116.18 5.80628C124.5 7.11324 132.867 10.0361 140.736 14.5035C144.67 16.7372 148.51 19.3511 152.137 22.3215H150.786V102.307L150.833 102.331Z" fill="#CFD7E2"/>
<path id="Vector_90" d="M150.833 102.331H67.8274V105.254C66.429 103.329 65.1254 101.357 63.9165 99.3608C61.4989 95.3686 59.4842 91.2339 57.8487 87.0516C54.5778 78.6871 52.8949 70.0611 52.7527 61.6966C52.492 44.9675 58.5361 29.2127 70.9325 18.4244C83.3288 7.63601 99.7072 3.85771 116.204 6.44787C124.452 7.75482 132.725 10.6301 140.523 15.05C144.434 17.26 148.202 19.8501 151.829 22.7967H150.833V102.307V102.331Z" fill="#D0D7E2"/>
<path id="Vector_91" d="M150.833 102.331H72.781V110.529C47.4668 81.3244 46.8506 40.3096 71.3826 18.9468C83.6604 8.27724 99.8965 4.5227 116.227 7.0891C124.381 8.37229 132.582 11.2476 140.309 15.62C144.173 17.8062 147.918 20.3726 151.497 23.2954H150.833V102.331Z" fill="#D1D8E3"/>
<path id="Vector_92" d="M150.833 102.331H73.2079V110.149C48.1544 81.2295 47.5382 40.6424 71.8331 19.4935C83.9688 8.91899 100.063 5.21197 116.228 7.7546C124.31 9.0378 132.416 11.8656 140.072 16.1904C143.888 18.3529 147.61 20.8955 151.141 23.7946H150.809V102.331H150.833Z" fill="#D2D9E4"/>
<path id="Vector_93" d="M150.833 102.331H73.6582V109.769C48.8655 81.1344 48.2492 40.9514 72.3071 20.0162C84.3243 9.53681 100.252 5.87732 116.251 8.39619C124.263 9.65562 132.274 12.4596 139.859 16.7607C143.651 18.8994 147.325 21.4183 150.833 24.2936C152.587 25.7193 154.294 27.2639 155.953 28.856H150.857V102.355L150.833 102.331Z" fill="#D3DAE4"/>
<path id="Vector_94" d="M150.833 102.331H74.1086V109.389C49.553 81.0395 48.9604 41.2604 72.7576 20.5391C84.6562 10.1785 100.418 6.5428 116.251 9.0379C124.168 10.2973 132.108 13.0776 139.622 17.3074C143.367 19.4223 147.017 21.9174 150.478 24.7452C152.208 26.171 153.915 27.668 155.55 29.2839H150.833V102.331Z" fill="#D4DBE5"/>
<path id="Vector_95" d="M150.833 102.331H74.535V109.008C50.2401 80.9444 49.6475 41.5693 73.2077 21.0619C84.9878 10.7963 100.584 7.20815 116.275 9.67949C124.12 10.9152 131.99 13.6717 139.408 17.8539C143.13 19.9451 146.733 22.4164 150.146 25.2204C151.852 26.6224 153.535 28.1195 155.171 29.7116H150.857V102.331H150.833Z" fill="#D5DCE6"/>
<path id="Vector_96" d="M150.833 102.331H74.9857V108.628C50.9278 80.8732 50.3353 41.9021 73.6584 21.5848C85.32 11.4381 100.75 7.87363 116.275 10.3212C124.026 11.5331 131.824 14.2658 139.172 18.4244C142.846 20.4917 146.401 22.9393 149.814 25.7196C151.521 27.1216 153.18 28.5949 154.768 30.1632H150.833V102.355V102.331Z" fill="#D6DDE6"/>
<path id="Vector_97" d="M150.833 102.331H75.4121V108.248C51.6149 80.7783 51.0224 42.2111 74.1085 22.1314C97.1946 2.05178 135.19 8.01627 158.987 35.5099H150.833V102.355V102.331Z" fill="#D7DDE7"/>
<path id="Vector_98" d="M150.833 102.331H75.8627V107.844C52.3262 80.6591 51.7336 42.4959 74.559 22.6302C97.3844 2.76437 135 8.68133 158.537 35.8661H150.81V102.331H150.833Z" fill="#D8DEE7"/>
<path id="Vector_99" d="M150.833 102.331H76.3129V107.464C53.0134 80.564 52.4446 42.8285 75.033 23.1528C97.6213 3.47713 134.834 9.34657 158.11 36.2462H150.833V102.331Z" fill="#D9DFE8"/>
<path id="Vector_100" d="M150.833 102.331H76.7393V107.084C53.7006 80.4693 53.1317 43.1377 75.4831 23.6759C97.8344 4.21413 134.621 10.0123 157.683 36.6267H150.857V102.331H150.833Z" fill="#DAE0E9"/>
<path id="Vector_101" d="M150.833 102.331H77.1897V106.703C54.388 80.3978 53.8429 43.4465 75.9335 24.1986C98.0478 4.95063 134.431 10.6775 157.233 37.0068H150.833V102.331Z" fill="#DCE1E9"/>
<path id="Vector_102" d="M150.833 102.331H77.6164V106.323C55.0754 80.3026 54.5066 43.7553 76.3839 24.7212C98.2612 5.68715 134.241 11.3665 156.782 37.3868H150.833V102.331Z" fill="#DDE2EA"/>
<path id="Vector_103" d="M150.833 102.331H78.0668V105.943C55.7629 80.2076 55.2177 44.088 76.8343 25.2678C98.4509 6.44758 134.052 12.0556 156.356 37.7908H150.833V102.355V102.331Z" fill="#DEE3EB"/>
<path id="Vector_104" d="M150.833 102.331H78.4937V105.563C56.4505 80.1129 55.9053 44.3973 77.2849 25.7909C98.6645 7.18457 133.863 12.7213 155.906 38.1714H150.833V102.331Z" fill="#DFE4EB"/>
<path id="Vector_105" d="M150.833 102.331H78.944V105.159C57.1615 79.9938 56.6164 44.6821 77.7589 26.2896C98.9014 7.89715 133.697 13.3626 155.479 38.5275H150.833V102.307V102.331Z" fill="#E0E4EC"/>
<path id="Vector_106" d="M150.833 102.331H79.394V104.778C57.8485 79.8986 57.3271 45.0147 78.2089 26.8123C99.0907 8.63367 133.507 14.0516 155.028 38.9076H150.833V102.307V102.331Z" fill="#E1E5EC"/>
<path id="Vector_107" d="M150.833 102.331H79.8209V104.398C58.5361 79.8276 58.0147 45.3239 78.6595 27.3354C99.3042 9.37066 133.293 14.7173 154.602 39.2881H150.857V102.307L150.833 102.331Z" fill="#E2E6ED"/>
<path id="Vector_108" d="M150.833 102.331H80.2713V104.018C59.2236 79.7326 58.7258 45.6329 79.1099 27.882C99.5177 10.1073 133.104 15.4065 154.152 39.6921H150.833V102.331Z" fill="#E3E7EE"/>
<path id="Vector_109" d="M150.833 102.331H80.698V103.638C59.911 79.6374 59.3895 45.9416 79.5603 28.4046C99.731 10.8438 132.914 16.0717 153.701 40.0722H150.833V102.331Z" fill="#E4E8EE"/>
<path id="Vector_110" d="M150.833 102.331H81.1479V103.258C60.598 79.5422 60.1002 46.2741 80.0102 28.9272C99.9202 11.5803 132.724 16.7606 153.251 40.476H150.809V102.355L150.833 102.331Z" fill="#E5E9EF"/>
<path id="Vector_111" d="M150.833 102.331H81.5748V102.878C61.2856 79.4475 60.7878 46.5834 80.4608 29.4504C100.134 12.3173 132.535 17.4263 152.824 40.8565H150.833V102.331Z" fill="#E6EAF0"/>
<path id="Vector_112" d="M150.833 102.331H82.0251V102.497C61.9966 79.3761 61.4989 46.8922 80.9348 29.973C100.371 13.0538 132.369 18.0916 152.398 41.2366H150.833V102.331Z" fill="#E7EAF0"/>
<path id="Vector_113" d="M150.833 102.331H90.3922V109.816C87.5953 107.535 84.9406 104.945 82.4756 102.093C62.6841 79.2571 62.21 47.201 81.3853 30.4956C100.561 13.7903 132.156 18.7568 151.947 41.6167H150.833V102.331Z" fill="#E8EBF1"/>
<path id="Vector_114" d="M150.833 102.331H90.7238V109.341C87.9743 107.083 85.3433 104.541 82.902 101.713C63.3712 79.1619 62.8972 47.5097 81.8354 31.0183C100.774 14.5268 131.966 19.4458 151.497 41.9967H150.833V102.331Z" fill="#E9ECF1"/>
<path id="Vector_115" d="M150.833 102.331H91.0797V108.866C88.3539 106.632 85.7703 104.113 83.3527 101.333C64.0589 79.0672 63.5849 47.819 82.2861 31.5414C100.987 15.2638 131.777 20.1115 151.07 42.3773H150.833V102.331Z" fill="#EAEDF2"/>
<path id="Vector_116" d="M150.833 102.331H91.4113V108.39C88.7329 106.181 86.173 103.709 83.7791 100.953C64.7461 78.972 64.272 48.1278 82.7362 32.0641C101.2 16.0003 131.587 20.7767 150.62 42.7574C152.99 45.5139 155.1 48.3892 156.877 51.3595H150.809V102.331H150.833Z" fill="#EBEEF3"/>
<path id="Vector_117" d="M150.833 102.331H91.7431V107.891C89.0884 105.729 86.5759 103.281 84.2294 100.572C65.4571 78.8768 64.9831 48.4603 83.2102 32.5867C101.414 16.7368 131.421 21.4419 150.193 43.1374C152.54 45.8464 154.602 48.6979 156.379 51.6445H150.833V102.331Z" fill="#ECEFF3"/>
<path id="Vector_118" d="M150.762 102.331H92.0987V107.416C89.4914 105.277 87.0027 102.854 84.6798 100.192C66.1446 78.8055 65.6942 48.7693 83.6606 33.1333C101.627 17.4973 131.231 22.1548 149.767 43.5414C152.089 46.2266 154.128 49.0306 155.858 51.9297H150.833V102.355H150.762V102.331Z" fill="#EDF0F4"/>
<path id="Vector_119" d="M150.312 102.331H92.4303V106.941C89.8467 104.826 87.3817 102.45 85.1062 99.8123C66.8317 78.7108 66.3813 49.0785 84.1107 33.6564C101.84 18.2343 131.018 22.8205 149.316 43.922C151.591 46.5596 153.606 49.3399 155.336 52.1915H150.857V102.331H150.335H150.312Z" fill="#EEF0F4"/>
<path id="Vector_120" d="M149.838 102.331H92.7625V106.466C90.2263 104.375 87.785 102.022 85.5332 99.432C67.4957 78.6157 67.0691 49.4111 84.5377 34.179C102.03 18.947 130.805 23.4857 148.842 44.302C153.346 49.5061 156.759 55.233 159.058 61.1499H150.81V102.355H149.838V102.331Z" fill="#EFF1F5"/>
<path id="Vector_121" d="M149.387 102.331H93.0941V105.966C90.5816 103.899 88.1877 101.594 85.9833 99.0277C68.2065 78.4966 67.7562 49.6959 85.0115 34.6778C102.267 19.6596 130.639 24.1508 148.415 44.6582C152.872 49.791 156.214 55.4465 158.489 61.2685H150.809V95.5108H158.987C156.877 100.644 153.677 105.254 149.364 109.008V102.307L149.387 102.331Z" fill="#F0F2F6"/>
<path id="Vector_122" d="M148.937 102.331H93.4497V105.492C90.9847 103.472 88.6144 101.19 86.4338 98.6478C68.894 78.4018 68.4674 50.0052 85.462 35.2009C102.457 20.3966 130.449 24.8165 147.989 45.0387C152.374 50.1002 155.692 55.6608 157.92 61.4114H150.833V95.1785H158.442C156.356 100.24 153.203 104.779 148.961 108.486V102.307L148.937 102.331Z" fill="#F1F3F6"/>
<path id="Vector_123" d="M148.487 102.331H101.414V110.244C96.1283 107.25 91.1745 103.258 86.8607 98.2676C69.5816 78.3306 69.155 50.3141 85.9126 35.7475C102.67 21.157 130.26 25.5057 147.539 45.4427C151.853 50.4329 155.124 55.9222 157.328 61.5777H150.833V94.8458H157.849C155.811 99.836 152.682 104.327 148.511 107.963V102.307L148.487 102.331Z" fill="#F2F4F7"/>
<path id="Vector_124" d="M148.037 102.331H101.651V109.697C96.4601 106.751 91.5537 102.806 87.311 97.8872C70.2927 78.2353 69.866 50.6466 86.3866 36.2701C102.907 21.8935 130.094 26.1708 147.112 45.8465C151.379 50.7654 154.578 56.1834 156.759 61.7439H150.833V94.5367H157.257C155.242 99.4556 152.161 103.875 148.037 107.464V102.355V102.331Z" fill="#F3F5F8"/>
<path id="Vector_125" d="M147.586 102.331H101.888V109.127C96.7681 106.228 91.9328 102.331 87.7375 97.4835C70.9562 78.1167 70.5533 50.932 86.8131 36.7693C103.073 22.6066 129.88 26.8364 146.638 46.2031C150.833 51.0508 154.009 56.3737 156.143 61.8629H150.81V94.1804H156.64C154.649 99.0281 151.639 103.377 147.562 106.917V102.331H147.586Z" fill="#F4F6F8"/>
<path id="Vector_126" d="M147.136 102.331H102.125V108.581C97.0762 105.729 92.3357 101.88 88.1878 97.127C71.6672 78.0454 71.2643 51.2646 87.2871 37.3158C103.31 23.367 129.691 27.5255 146.235 46.6071C154.507 56.136 158.726 67.6135 158.892 78.4256C159.058 89.2378 155.147 99.432 147.136 106.418V102.355V102.331Z" fill="#F5F6F9"/>
<path id="Vector_127" d="M146.662 102.331H102.338V108.034C97.3608 105.23 92.6914 101.452 88.6146 96.7467C72.3311 77.9502 71.9281 51.5972 87.7139 37.8385C103.5 24.1035 129.478 28.1907 145.761 46.9872C153.891 56.3735 158.063 67.6609 158.229 78.3304C158.394 89 154.555 99.0279 146.662 105.895V102.355V102.331Z" fill="#F6F7F9"/>
<path id="Vector_128" d="M146.211 102.331H102.575V107.464C97.6689 104.707 93.0706 100.977 89.0649 96.3429C73.0421 77.8316 72.6392 51.8825 88.1879 38.3377C103.737 24.7928 129.312 28.8325 145.334 47.3438C153.346 56.5876 157.446 67.7086 157.612 78.2118C157.778 88.715 153.986 98.5766 146.211 105.349V102.331Z" fill="#F7F8FA"/>
<path id="Vector_129" d="M145.761 102.331H102.789V106.917C97.977 104.184 93.4498 100.525 89.4915 95.9862C73.7294 77.7838 73.3265 52.2149 88.6145 38.9077C103.903 25.6005 129.098 29.5689 144.86 47.7712C152.753 56.8724 156.783 67.8271 156.949 78.1402C157.114 88.4771 153.369 98.1961 145.737 104.85V102.355L145.761 102.331Z" fill="#F8F9FB"/>
<path id="Vector_130" d="M145.311 102.331H103.025V106.347C98.285 103.662 93.829 100.05 89.9418 95.5824C74.4167 77.6652 74.0375 52.5003 89.0885 39.4069C104.139 26.2898 128.932 30.2107 144.457 48.1279C152.208 57.0865 156.19 67.8511 156.356 78.0216C156.498 88.1921 152.848 97.7448 145.311 104.303V102.331Z" fill="#F9FAFB"/>
<path id="Vector_131" d="M144.86 102.331H103.262V105.8C98.5931 103.163 94.2082 99.6219 90.3921 95.202C75.1277 77.57 74.7485 52.8328 89.5625 39.9295C104.376 27.0263 128.766 30.8759 144.031 48.5079C151.663 57.324 155.574 67.9222 155.74 77.9264C155.882 87.9306 152.279 97.3407 144.884 103.78V102.331H144.86Z" fill="#FAFBFC"/>
<path id="Vector_132" d="M144.41 102.331H117.792V110.291C108.098 108.77 98.3562 103.495 90.8425 94.8217C75.8152 77.4748 75.4597 53.1416 90.0129 40.4522C104.59 27.7628 128.577 31.5411 143.58 48.888C158.608 66.2349 158.963 90.5681 144.41 103.258V102.331Z" fill="#FBFCFD"/>
<path id="Vector_133" d="M143.936 102.331H117.768V109.65C108.24 108.153 98.6404 102.949 91.2689 94.4418C76.5023 77.3801 76.1468 53.4508 90.463 40.9753C104.779 28.4998 128.363 32.2306 143.153 49.2686C157.92 66.3303 158.276 90.2596 143.959 102.735V102.331H143.936Z" fill="#FCFCFD"/>
<path id="Vector_134" d="M143.486 102.212C136.446 108.343 127.131 110.482 117.769 109.008C108.406 107.535 98.9726 102.426 91.7196 94.0377C77.1901 77.2849 76.8345 53.7596 90.9138 41.498C104.993 29.2363 128.174 32.8958 142.703 49.6486C157.233 66.4015 157.589 89.9267 143.509 102.188L143.486 102.212Z" fill="#FDFDFE"/>
<path id="Vector_135" d="M143.035 101.689C136.114 107.701 126.965 109.816 117.745 108.367C108.524 106.917 99.2805 101.903 92.146 93.6574C77.8772 77.1897 77.5217 54.0684 91.3638 42.0206C105.206 29.9728 127.984 33.561 142.253 50.0287C156.522 66.4964 156.877 89.6177 143.035 101.665V101.689Z" fill="#FEFEFE"/>
<path id="Vector_136" d="M142.585 101.167C135.782 107.084 126.799 109.151 117.745 107.725C108.69 106.3 99.5885 101.381 92.5963 93.2775C78.5882 77.095 78.2327 54.3776 91.8379 42.5437C105.443 30.7098 127.818 34.2267 141.826 50.4092C155.834 66.5918 156.19 89.3091 142.585 101.143V101.167Z" fill="white"/>
<path id="Vector_137" d="M142.134 100.644C135.45 106.466 126.633 108.486 117.745 107.108C108.856 105.706 99.9205 100.858 93.0468 92.9211C79.2757 77.0237 78.9439 54.7104 92.2883 43.0903C105.633 31.4702 127.629 34.9396 141.4 50.8132C155.171 66.7106 155.503 89.024 142.158 100.644H142.134Z" fill="white"/>
<path id="Vector_138" d="M129.667 86.2436C122.983 92.0655 112.009 90.3308 105.111 82.3703C98.2378 74.4335 98.0482 63.2649 104.732 57.4668C111.416 51.6449 122.391 53.3795 129.288 61.3401C136.162 69.2769 136.351 80.4455 129.667 86.2436Z" fill="white"/>
</g>
</g>
</g>
</g>
<path id="Vector_139" d="M0.654785 22.0836L8.47657 2.00391L40.9014 11.9843L0.654785 22.0836Z" fill="url(#paint42_linear_947_13779)"/>
<path id="Vector_140" d="M128.411 141.754L91.3167 131.298L74.3694 117.516L33.3406 77.5464L13.2884 59.5579L0.726108 22.1313L0.678711 22.1551L14.3787 57.9896L34.7865 76.2157L75.6731 116.019L92.17 129.492L128.245 139.639L151.639 129.896L152.374 129.706L128.411 141.754Z" fill="#F5F5F5"/>
<path id="Vector_141" style="mix-blend-mode:screen" d="M68.0646 48.6742C68.4676 56.2545 62.2101 62.7418 54.1039 63.1695C45.9977 63.5973 39.124 57.7991 38.7211 50.2188C38.3181 42.6384 44.5755 36.1511 52.6818 35.7234C60.788 35.2957 67.6617 41.0938 68.0646 48.6742Z" fill="url(#paint43_radial_947_13779)"/>
<path id="Vector_142" style="mix-blend-mode:screen" d="M58.5358 13.3625C58.8439 19.4695 50.5007 24.8875 39.9057 25.434C29.2871 25.9806 20.4461 21.4656 20.1142 15.3586C19.8061 9.2515 28.1493 3.83356 38.7443 3.28701C49.363 2.74047 58.204 7.25542 58.5358 13.3625Z" fill="url(#paint44_radial_947_13779)"/>
<path id="Vector_143" style="mix-blend-mode:screen" d="M43.8171 70.7977C44.22 78.3781 37.9626 84.8653 29.8563 85.2931C21.7501 85.7208 14.8764 79.8989 14.4735 72.3423C14.0706 64.7619 20.328 58.2747 28.4342 57.8469C36.5404 57.4192 43.4141 63.2173 43.8171 70.7977Z" fill="url(#paint45_radial_947_13779)"/>
<path id="Vector_144" opacity="0.4" d="M116.915 115.757L141.423 103.115L128.434 139.663L116.915 115.757Z" fill="#D7A68F"/>
<path id="Vector_145" style="mix-blend-mode:multiply" opacity="0.4" d="M141.423 103.115L144.884 109.389L136.991 116.232L141.423 103.115Z" fill="url(#paint46_linear_947_13779)"/>
<path id="Vector_146" style="mix-blend-mode:multiply" opacity="0.4" d="M16.251 32.3257L24.0965 46.0844L21.4181 64.4056L16.251 32.3257Z" fill="url(#paint47_linear_947_13779)"/>
<path id="Vector_147" style="mix-blend-mode:multiply" opacity="0.4" d="M15.1133 93.23L22.9825 98.7192L21.7737 109.199L15.1133 93.23Z" fill="url(#paint48_linear_947_13779)"/>
<path id="Vector_148" opacity="0.48" d="M141.589 101.737L149.648 84.8892L153.275 128.732L141.589 101.737Z" fill="url(#paint49_linear_947_13779)"/>
<path id="Vector_149" d="M75.4595 117.349C77.8771 115.139 80.3185 113.001 82.7598 110.814C85.2012 108.652 87.6662 106.513 90.1313 104.375C95.0614 100.097 100.039 95.8675 105.04 91.6852L105.704 91.1387L106.059 91.9228L110.278 101.238L114.426 110.577C115.801 113.69 117.152 116.826 118.503 119.963C119.807 123.1 121.181 126.236 122.438 129.397C120.873 126.355 119.404 123.29 117.887 120.224C116.394 117.159 114.924 114.094 113.478 111.004L109.141 101.737L104.874 92.4456L105.893 92.6833C100.892 96.8655 95.8672 101.048 90.7949 105.159C88.2588 107.226 85.7226 109.27 83.1628 111.313C80.6029 113.333 78.0667 115.377 75.4595 117.373V117.349Z" fill="url(#paint50_linear_947_13779)"/>
<path id="Vector_150" d="M75.436 116.518C77.8537 114.308 80.295 112.169 82.7364 109.983C85.1777 107.82 87.6428 105.682 90.1078 103.543C95.0379 99.2657 100.015 95.0597 105.017 90.8537L105.68 90.3071L106.036 91.0913L110.255 100.406L114.403 109.745C115.777 112.858 117.129 115.995 118.48 119.132C119.783 122.268 121.158 125.405 122.414 128.565C120.85 125.524 119.38 122.458 117.863 119.393C116.37 116.328 114.901 113.262 113.455 110.173L109.117 100.905L104.851 91.6141L105.87 91.8517C100.869 96.034 95.8438 100.216 90.7715 104.327C88.2353 106.395 85.6992 108.438 83.1393 110.482C80.5795 112.502 78.0433 114.545 75.436 116.541V116.518Z" fill="white"/>
<path id="Vector_151" d="M26.5142 71.8192C28.7185 69.8707 30.9465 67.9696 33.1745 66.0448C35.4026 64.1438 37.6543 62.2428 39.906 60.3655C44.4095 56.5872 48.9366 52.8564 53.4875 49.1494L54.08 48.6504L54.4119 49.3395L58.2517 57.5377L62.0203 65.7597C63.2766 68.5162 64.4854 71.2489 65.7179 74.0292C66.903 76.8094 68.1356 79.5422 69.297 82.3462C67.8985 79.6847 66.5475 76.9758 65.1728 74.2668C63.8217 71.5578 62.4944 68.8726 61.1671 66.1399L57.2325 57.9892L53.369 49.8148L54.2934 50.0049C49.7188 53.6881 45.1442 57.3714 40.5223 61.0071C38.2231 62.8368 35.9003 64.6428 33.5775 66.425C31.2309 68.2073 28.9318 70.0132 26.5616 71.7717L26.5142 71.8192Z" fill="white"/>
<path id="Vector_152" opacity="0.55" d="M43.4849 15.644L49.0075 32.8008L54.4828 49.9814L54.4117 49.8626L106.438 90.3546L106.344 90.3071L142.3 101.167L142.205 101.214L147.254 92.2556L142.348 101.286L142.324 101.357L142.253 101.333L106.178 90.8536L106.13 90.8298L105.324 91.6853L55.3361 49.4824L54.0087 50.124L48.7231 32.8959L43.4849 15.644Z" fill="url(#paint51_linear_947_13779)"/>
<path id="Vector_153" style="mix-blend-mode:screen" d="M121.087 59.4151C121.584 68.849 113.786 76.9283 103.713 77.4511C93.6155 77.9739 85.0589 70.75 84.5611 61.3161C84.0634 51.8823 91.8615 43.8029 101.935 43.2801C112.032 42.7573 120.589 49.9812 121.087 59.4151Z" fill="url(#paint52_radial_947_13779)"/>
<path id="Vector_154" style="mix-blend-mode:screen" d="M131.611 69.8471C132.037 78.2117 125.14 85.3643 116.204 85.8396C107.268 86.3148 99.6598 79.8989 99.2331 71.5343C98.8065 63.1698 105.704 56.0171 114.64 55.5419C123.575 55.0666 131.184 61.4826 131.611 69.8471Z" fill="url(#paint53_radial_947_13779)"/>
<path id="Vector_155" style="mix-blend-mode:screen" d="M150.667 100.929C151.094 109.294 145.524 116.375 138.2 116.755C130.876 117.135 124.618 110.672 124.168 102.307C123.741 93.9428 129.311 86.8615 136.635 86.4813C143.959 86.1011 150.241 92.5646 150.667 100.929Z" fill="url(#paint54_radial_947_13779)"/>
<path id="Vector_156" opacity="0.74" d="M17.0566 134.981L27.5331 72.2236L34.7386 79.4238L17.0566 134.981Z" fill="white"/>
<path id="Vector_157" opacity="0.6" d="M91.3163 131.298L105.964 92.5405L73.3262 115.187L91.3163 131.298Z" fill="white"/>
<path id="Vector_158" d="M8.28703 2.52701L9.14032 0.198242L50.6432 0.317057L6.9834 5.83005L8.28703 2.52701Z" fill="url(#paint55_linear_947_13779)"/>
<path id="Vector_159" style="mix-blend-mode:multiply" d="M52.0179 6.44756L63.3713 1.24349L46.353 0.720703L52.0179 6.44756Z" fill="url(#paint56_linear_947_13779)"/>
<path id="Vector_160" style="mix-blend-mode:multiply" opacity="0.59" d="M149.648 84.8892L59.4604 35.6763L133.554 51.0033L149.648 84.8892Z" fill="url(#paint57_linear_947_13779)"/>
<path id="Vector_161" opacity="0.47" d="M42.7026 14.1943L54.7909 47.2722L106.936 88.0018L60.2187 36.1037L62.6126 2.36035L53.0369 26.1945L42.7026 14.1943Z" fill="white"/>
<path id="Vector_162" style="mix-blend-mode:screen" opacity="0.45" d="M107.102 28.0957L132.654 51.9536L143.059 73.7917L113.194 74.6947L130.046 55.2804L113.478 48.8882L111.203 35.8661L77.0952 54.8527L99.4466 21.4658L107.102 28.0957Z" fill="url(#paint58_linear_947_13779)"/>
<path id="Vector_163" opacity="0.81" d="M40.6408 11.5332L38.792 33.0861L53.7956 49.934L64.9594 81.0397L104.234 92.232L132.156 110.173L142.324 101.88L104.922 91.1627L53.7956 49.934L40.6408 11.5332Z" fill="#A1ADBF"/>
<path id="Vector_164" opacity="0.7" d="M96.4838 119.226L105.372 94.1328L113.478 111.004L106.865 104.897L92.1699 129.492L96.4838 119.226Z" fill="url(#paint59_linear_947_13779)"/>
<path id="Vector_165" style="mix-blend-mode:multiply" d="M142.253 101.333L129.596 109.436L147.159 116.28L142.3 101.167L142.253 101.333Z" fill="url(#paint60_linear_947_13779)"/>
<path id="Vector_166" d="M17.1277 134.648L19.8535 126.165L18.9765 132.866L27.5094 131.179L17.0566 134.981L17.1277 134.648Z" fill="white"/>
<path id="Vector_167" style="mix-blend-mode:screen" d="M128.008 91.5187C128.6 102.949 119.167 112.739 106.96 113.381C94.7297 114.022 84.348 105.254 83.7555 93.8237C83.1629 82.3937 92.5965 72.6034 104.803 71.9618C117.034 71.3202 127.415 80.0887 128.008 91.5187Z" fill="url(#paint61_radial_947_13779)"/>
<path id="Vector_168" style="mix-blend-mode:screen" d="M72.8759 48.8172C73.3737 58.5124 65.386 66.7819 55.0517 67.3285C44.6938 67.875 35.9002 60.461 35.4024 50.7657C34.9047 41.0705 42.8924 32.801 53.2266 32.2545C63.5846 31.7079 72.3782 39.1219 72.8759 48.8172Z" fill="url(#paint62_radial_947_13779)"/>
<path id="Vector_169" style="mix-blend-mode:screen" d="M70.4111 35.1058C70.6481 39.7158 66.8558 43.6366 61.9494 43.898C57.043 44.1594 52.8477 40.6187 52.6106 36.0325C52.3736 31.4225 56.166 27.5016 61.0724 27.2402C65.9788 26.9788 70.1741 30.4958 70.4111 35.1058Z" fill="url(#paint63_radial_947_13779)"/>
<path id="Vector_170" d="M29.1689 70.7974L52.7765 51.2168L64.0826 78.5917L29.1689 70.7974Z" fill="url(#paint64_linear_947_13779)"/>
<path id="Vector_171" style="mix-blend-mode:screen" d="M73.5161 78.4966C79.8683 96.7228 80.7216 113 75.4123 114.854C70.1029 116.707 60.6457 103.448 54.2934 85.2215C47.9412 66.9954 47.0879 50.7178 52.3973 48.8643C57.7066 47.0108 67.1638 60.2705 73.5161 78.4966Z" fill="url(#paint65_radial_947_13779)"/>
</g>
<g id="Vector_172" style="mix-blend-mode:color">
<path d="M17.1992 134.268L0.820801 21.9413L9.23515 0.0556641L63.3714 1.07747L100.158 20.4918L133.436 50.7657L149.506 84.5803L153.203 129.825L128.316 141.374L17.1992 134.268Z" fill="#EFD0DA"/>
</g>
</g>
</g>
<defs>
<linearGradient id="paint0_linear_947_13779" x1="125.365" y1="97.8871" x2="55.5425" y2="-10.7631" gradientUnits="userSpaceOnUse">
<stop stop-color="white"/>
<stop offset="0.2" stop-color="#F1F4F7"/>
<stop offset="0.57" stop-color="#DEE4EC"/>
<stop offset="0.83" stop-color="#D8DFE9"/>
</linearGradient>
<linearGradient id="paint1_linear_947_13779" x1="5.56602" y1="74.2559" x2="150.053" y2="66.7786" gradientUnits="userSpaceOnUse">
<stop stop-color="white"/>
<stop offset="0.19" stop-color="#E3E8EE"/>
<stop offset="0.46" stop-color="#C4CFDA"/>
<stop offset="0.68" stop-color="#B0BFCF"/>
<stop offset="0.83" stop-color="#AABACB"/>
</linearGradient>
<linearGradient id="paint2_linear_947_13779" x1="16.9365" y1="130.7" x2="25.6948" y2="130.247" gradientUnits="userSpaceOnUse">
<stop stop-color="white"/>
<stop offset="0.13" stop-color="#EEF2F6"/>
<stop offset="0.42" stop-color="#CFDAE6"/>
<stop offset="0.66" stop-color="#BBCCDC"/>
<stop offset="0.83" stop-color="#B5C7D9"/>
</linearGradient>
<linearGradient id="paint3_linear_947_13779" x1="26.0808" y1="103.313" x2="63.6229" y2="101.37" gradientUnits="userSpaceOnUse">
<stop stop-color="white"/>
<stop offset="0.13" stop-color="#EEF2F6"/>
<stop offset="0.42" stop-color="#CFDAE6"/>
<stop offset="0.66" stop-color="#BBCCDC"/>
<stop offset="0.83" stop-color="#B5C7D9"/>
</linearGradient>
<linearGradient id="paint4_linear_947_13779" x1="35.2465" y1="99.2671" x2="72.4098" y2="97.3438" gradientUnits="userSpaceOnUse">
<stop stop-color="#B5C7D9"/>
<stop offset="0.05" stop-color="#A8BACC"/>
<stop offset="0.2" stop-color="#8497A8"/>
<stop offset="0.35" stop-color="#687C8C"/>
<stop offset="0.5" stop-color="#546878"/>
<stop offset="0.65" stop-color="#485C6C"/>
<stop offset="0.81" stop-color="#445969"/>
</linearGradient>
<linearGradient id="paint5_linear_947_13779" x1="19.83" y1="127.909" x2="33.204" y2="127.217" gradientUnits="userSpaceOnUse">
<stop stop-color="#B5C7D9"/>
<stop offset="0.14" stop-color="#96ACBC"/>
<stop offset="0.31" stop-color="#7A94A1"/>
<stop offset="0.48" stop-color="#66838F"/>
<stop offset="0.64" stop-color="#5A7983"/>
<stop offset="0.81" stop-color="#567680"/>
</linearGradient>
<linearGradient id="paint6_linear_947_13779" x1="16.1638" y1="129.913" x2="19.6468" y2="129.32" gradientUnits="userSpaceOnUse">
<stop stop-color="white"/>
<stop offset="0.19" stop-color="#E3E8EE"/>
<stop offset="0.46" stop-color="#C4CFDA"/>
<stop offset="0.68" stop-color="#B0BFCF"/>
<stop offset="0.83" stop-color="#AABACB"/>
</linearGradient>
<linearGradient id="paint7_linear_947_13779" x1="13.9309" y1="84.5054" x2="33.6502" y2="81.1433" gradientUnits="userSpaceOnUse">
<stop stop-color="white"/>
<stop offset="0.19" stop-color="#E3E8EE"/>
<stop offset="0.46" stop-color="#C4CFDA"/>
<stop offset="0.68" stop-color="#B0BFCF"/>
<stop offset="0.83" stop-color="#AABACB"/>
</linearGradient>
<linearGradient id="paint8_linear_947_13779" x1="14.2193" y1="72.1283" x2="33.6676" y2="68.8124" gradientUnits="userSpaceOnUse">
<stop stop-color="#AABACB"/>
<stop offset="0.11" stop-color="#95A8B9"/>
<stop offset="0.28" stop-color="#7990A1"/>
<stop offset="0.46" stop-color="#657E90"/>
<stop offset="0.63" stop-color="#597486"/>
<stop offset="0.81" stop-color="#557183"/>
</linearGradient>
<linearGradient id="paint9_linear_947_13779" x1="14.955" y1="125.989" x2="17.701" y2="125.353" gradientUnits="userSpaceOnUse">
<stop stop-color="white"/>
<stop offset="0.18" stop-color="#E5EAEE"/>
<stop offset="0.45" stop-color="#C6D1D9"/>
<stop offset="0.67" stop-color="#B2C1CD"/>
<stop offset="0.83" stop-color="#ACBCC9"/>
</linearGradient>
<linearGradient id="paint10_linear_947_13779" x1="4.94483" y1="58.5718" x2="18.032" y2="55.5437" gradientUnits="userSpaceOnUse">
<stop offset="0.17" stop-color="#ACBCC9"/>
<stop offset="0.33" stop-color="#B2C1CD"/>
<stop offset="0.55" stop-color="#C6D1D9"/>
<stop offset="0.82" stop-color="#E5EAEE"/>
<stop offset="1" stop-color="white"/>
</linearGradient>
<linearGradient id="paint11_linear_947_13779" x1="4.92338" y1="42.7441" x2="9.91982" y2="41.588" gradientUnits="userSpaceOnUse">
<stop stop-color="#ACBCC9"/>
<stop offset="0.1" stop-color="#99ABB8"/>
<stop offset="0.27" stop-color="#7D92A0"/>
<stop offset="0.45" stop-color="#69808E"/>
<stop offset="0.63" stop-color="#5D7584"/>
<stop offset="0.81" stop-color="#597281"/>
</linearGradient>
<linearGradient id="paint12_linear_947_13779" x1="30.5465" y1="-50.6865" x2="30.7585" y2="-54.9795" gradientUnits="userSpaceOnUse">
<stop stop-color="white"/>
<stop offset="0.13" stop-color="#EEF2F6"/>
<stop offset="0.42" stop-color="#CFDAE6"/>
<stop offset="0.66" stop-color="#BBCCDC"/>
<stop offset="0.83" stop-color="#B5C7D9"/>
</linearGradient>
<linearGradient id="paint13_linear_947_13779" x1="98.2504" y1="-57.8103" x2="98.6322" y2="-65.5409" gradientUnits="userSpaceOnUse">
<stop stop-color="white"/>
<stop offset="0.13" stop-color="#EEF2F6"/>
<stop offset="0.42" stop-color="#CFDAE6"/>
<stop offset="0.66" stop-color="#BBCCDC"/>
<stop offset="0.83" stop-color="#B5C7D9"/>
</linearGradient>
<linearGradient id="paint14_linear_947_13779" x1="108.804" y1="-58.3892" x2="109.101" y2="-64.409" gradientUnits="userSpaceOnUse">
<stop stop-color="#B5C7D9"/>
<stop offset="0.05" stop-color="#A8BACC"/>
<stop offset="0.2" stop-color="#8497A8"/>
<stop offset="0.35" stop-color="#687C8C"/>
<stop offset="0.5" stop-color="#546878"/>
<stop offset="0.65" stop-color="#485C6C"/>
<stop offset="0.81" stop-color="#445969"/>
</linearGradient>
<linearGradient id="paint15_linear_947_13779" x1="19.639" y1="117.948" x2="19.7964" y2="114.396" gradientUnits="userSpaceOnUse">
<stop stop-color="white"/>
<stop offset="0.02" stop-color="#FAFBFC"/>
<stop offset="0.28" stop-color="#CFD5DD"/>
<stop offset="0.5" stop-color="#B0BAC6"/>
<stop offset="0.7" stop-color="#9CA9B8"/>
<stop offset="0.83" stop-color="#96A4B4"/>
</linearGradient>
<linearGradient id="paint16_linear_947_13779" x1="66.9534" y1="114.581" x2="67.4547" y2="103.263" gradientUnits="userSpaceOnUse">
<stop stop-color="#B5C7D9"/>
<stop offset="0.18" stop-color="#ABBCCD"/>
<stop offset="0.56" stop-color="#9BAABA"/>
<stop offset="0.83" stop-color="#96A4B4"/>
</linearGradient>
<linearGradient id="paint17_linear_947_13779" x1="73.1965" y1="111.298" x2="73.7589" y2="98.6029" gradientUnits="userSpaceOnUse">
<stop stop-color="#96A4B4"/>
<stop offset="0.06" stop-color="#8C9BAB"/>
<stop offset="0.24" stop-color="#708294"/>
<stop offset="0.43" stop-color="#5C7184"/>
<stop offset="0.62" stop-color="#50667A"/>
<stop offset="0.81" stop-color="#4C6377"/>
</linearGradient>
<linearGradient id="paint18_linear_947_13779" x1="125.499" y1="97.2616" x2="55.4717" y2="-11.663" gradientUnits="userSpaceOnUse">
<stop stop-color="white"/>
<stop offset="0.2" stop-color="#F1F4F7"/>
<stop offset="0.57" stop-color="#DEE4EC"/>
<stop offset="0.83" stop-color="#D8DFE9"/>
</linearGradient>
<linearGradient id="paint19_linear_947_13779" x1="101.7" y1="22.1657" x2="85.0964" y2="50.1389" gradientUnits="userSpaceOnUse">
<stop offset="0.17" stop-color="#D8DFE9"/>
<stop offset="0.43" stop-color="#DEE4EC"/>
<stop offset="0.8" stop-color="#F1F4F7"/>
<stop offset="1" stop-color="white"/>
</linearGradient>
<linearGradient id="paint20_linear_947_13779" x1="55.8561" y1="67.7856" x2="81.539" y2="66.4565" gradientUnits="userSpaceOnUse">
<stop stop-color="white"/>
<stop offset="0.19" stop-color="#E3E9ED"/>
<stop offset="0.46" stop-color="#C4D1D9"/>
<stop offset="0.68" stop-color="#B0C2CD"/>
<stop offset="0.83" stop-color="#AABDC9"/>
</linearGradient>
<linearGradient id="paint21_linear_947_13779" x1="11.4059" y1="9.15893" x2="40.4501" y2="7.65588" gradientUnits="userSpaceOnUse">
<stop stop-color="white"/>
<stop offset="0.19" stop-color="#E3E9ED"/>
<stop offset="0.46" stop-color="#C4D1D9"/>
<stop offset="0.68" stop-color="#B0C2CD"/>
<stop offset="0.83" stop-color="#AABDC9"/>
</linearGradient>
<linearGradient id="paint22_linear_947_13779" x1="47.831" y1="27.823" x2="9.66746" y2="55.173" gradientUnits="userSpaceOnUse">
<stop stop-color="white"/>
<stop offset="0.19" stop-color="#FDFDFD"/>
<stop offset="0.26" stop-color="#F6F7F8"/>
<stop offset="0.31" stop-color="#EAEEF0"/>
<stop offset="0.36" stop-color="#D9E0E4"/>
<stop offset="0.39" stop-color="#C3CED5"/>
<stop offset="0.42" stop-color="#A8B7C2"/>
<stop offset="0.45" stop-color="#889CAB"/>
<stop offset="0.47" stop-color="#637E91"/>
<stop offset="0.48" stop-color="#5A778B"/>
<stop offset="0.83" stop-color="#B5C7D9"/>
</linearGradient>
<linearGradient id="paint23_linear_947_13779" x1="36.4776" y1="35.0049" x2="51.0588" y2="34.2503" gradientUnits="userSpaceOnUse">
<stop stop-color="#D5DFE9"/>
<stop offset="0.11" stop-color="#C8D4DF"/>
<stop offset="0.35" stop-color="#B4C4D1"/>
<stop offset="0.58" stop-color="#A8BAC8"/>
<stop offset="0.81" stop-color="#A4B7C6"/>
</linearGradient>
<linearGradient id="paint24_linear_947_13779" x1="20.2921" y1="80.8905" x2="77.4336" y2="77.9334" gradientUnits="userSpaceOnUse">
<stop stop-color="#D5DFE9"/>
<stop offset="0.11" stop-color="#C8D4DF"/>
<stop offset="0.35" stop-color="#B4C4D1"/>
<stop offset="0.58" stop-color="#A8BAC8"/>
<stop offset="0.81" stop-color="#A4B7C6"/>
</linearGradient>
<linearGradient id="paint25_linear_947_13779" x1="75.629" y1="115.061" x2="92.3169" y2="114.197" gradientUnits="userSpaceOnUse">
<stop stop-color="#D5DFE9"/>
<stop offset="0.11" stop-color="#C8D4DF"/>
<stop offset="0.35" stop-color="#B4C4D1"/>
<stop offset="0.58" stop-color="#A8BAC8"/>
<stop offset="0.81" stop-color="#A4B7C6"/>
</linearGradient>
<linearGradient id="paint26_linear_947_13779" x1="151.762" y1="109.887" x2="106.549" y2="164.729" gradientUnits="userSpaceOnUse">
<stop stop-color="white"/>
<stop offset="0.19" stop-color="#E3E8EE"/>
<stop offset="0.46" stop-color="#C4CFDA"/>
<stop offset="0.68" stop-color="#B0BFCF"/>
<stop offset="0.83" stop-color="#AABACB"/>
</linearGradient>
<linearGradient id="paint27_linear_947_13779" x1="107.19" y1="115.87" x2="144.258" y2="113.952" gradientUnits="userSpaceOnUse">
<stop stop-color="white"/>
<stop offset="0.19" stop-color="#E3E9ED"/>
<stop offset="0.46" stop-color="#C4D1D9"/>
<stop offset="0.68" stop-color="#B0C2CD"/>
<stop offset="0.83" stop-color="#AABDC9"/>
</linearGradient>
<linearGradient id="paint28_linear_947_13779" x1="36.9627" y1="44.3784" x2="51.5439" y2="43.6238" gradientUnits="userSpaceOnUse">
<stop stop-color="#D5DFE9"/>
<stop offset="0.81" stop-color="#D5DEE9"/>
</linearGradient>
<linearGradient id="paint29_linear_947_13779" x1="57.3813" y1="28.9206" x2="9.4145" y2="87.1108" gradientUnits="userSpaceOnUse">
<stop stop-color="white"/>
<stop offset="0.19" stop-color="#E3E8EE"/>
<stop offset="0.46" stop-color="#C4CFDA"/>
<stop offset="0.68" stop-color="#B0BFCF"/>
<stop offset="0.83" stop-color="#AABACB"/>
</linearGradient>
<linearGradient id="paint30_linear_947_13779" x1="145.12" y1="101.262" x2="97.1537" y2="159.452" gradientUnits="userSpaceOnUse">
<stop stop-color="white"/>
<stop offset="0.19" stop-color="#E3E8EE"/>
<stop offset="0.46" stop-color="#C4CFDA"/>
<stop offset="0.68" stop-color="#B0BFCF"/>
<stop offset="0.83" stop-color="#AABACB"/>
</linearGradient>
<linearGradient id="paint31_linear_947_13779" x1="101.063" y1="66.7191" x2="55.4897" y2="121.96" gradientUnits="userSpaceOnUse">
<stop stop-color="white"/>
<stop offset="0.23" stop-color="#E3E8EE"/>
<stop offset="0.55" stop-color="#C4CFDA"/>
<stop offset="0.82" stop-color="#B0BFCF"/>
<stop offset="1" stop-color="#AABACB"/>
</linearGradient>
<linearGradient id="paint32_linear_947_13779" x1="27.3409" y1="35.4801" x2="47.0824" y2="34.4585" gradientUnits="userSpaceOnUse">
<stop stop-color="white"/>
<stop offset="0.19" stop-color="#E3E9ED"/>
<stop offset="0.46" stop-color="#C4D1D9"/>
<stop offset="0.68" stop-color="#B0C2CD"/>
<stop offset="0.83" stop-color="#AABDC9"/>
</linearGradient>
<linearGradient id="paint33_linear_947_13779" x1="37.51" y1="22.3875" x2="6.40724" y2="44.7003" gradientUnits="userSpaceOnUse">
<stop stop-color="white"/>
<stop offset="0.19" stop-color="#FDFDFD"/>
<stop offset="0.26" stop-color="#F6F7F8"/>
<stop offset="0.31" stop-color="#EAEEF0"/>
<stop offset="0.36" stop-color="#D9E0E4"/>
<stop offset="0.39" stop-color="#C3CED5"/>
<stop offset="0.42" stop-color="#A8B7C2"/>
<stop offset="0.45" stop-color="#889CAB"/>
<stop offset="0.47" stop-color="#637E91"/>
<stop offset="0.48" stop-color="#5A778B"/>
<stop offset="0.83" stop-color="#B5C7D9"/>
</linearGradient>
<linearGradient id="paint34_linear_947_13779" x1="51.3166" y1="40.9871" x2="34.5095" y2="73.579" gradientUnits="userSpaceOnUse">
<stop offset="0.15" stop-color="#8D724E"/>
<stop offset="0.71" stop-color="white"/>
<stop offset="1" stop-color="white"/>
</linearGradient>
<linearGradient id="paint35_linear_947_13779" x1="53.5198" y1="52.2781" x2="53.3348" y2="52.6369" gradientUnits="userSpaceOnUse">
<stop offset="0.15" stop-color="#8D724E"/>
<stop offset="0.71" stop-color="white"/>
<stop offset="1" stop-color="white"/>
</linearGradient>
<linearGradient id="paint36_linear_947_13779" x1="37.4373" y1="9.64631" x2="31.0584" y2="22.016" gradientUnits="userSpaceOnUse">
<stop offset="0.15" stop-color="#8D724E"/>
<stop offset="0.71" stop-color="white"/>
<stop offset="1" stop-color="white"/>
</linearGradient>
<linearGradient id="paint37_linear_947_13779" x1="29.2736" y1="6.02449" x2="11.3343" y2="40.8117" gradientUnits="userSpaceOnUse">
<stop offset="0.15" stop-color="#8D724E"/>
<stop offset="0.71" stop-color="white"/>
<stop offset="1" stop-color="white"/>
</linearGradient>
<linearGradient id="paint38_linear_947_13779" x1="46.8472" y1="36.9189" x2="44.9204" y2="40.6551" gradientUnits="userSpaceOnUse">
<stop offset="0.15" stop-color="#8D724E"/>
<stop offset="0.71" stop-color="white"/>
<stop offset="1" stop-color="white"/>
</linearGradient>
<linearGradient id="paint39_linear_947_13779" x1="27.0943" y1="32.6111" x2="20.3997" y2="45.593" gradientUnits="userSpaceOnUse">
<stop offset="0.15" stop-color="#8D724E"/>
<stop offset="0.71" stop-color="white"/>
<stop offset="1" stop-color="white"/>
</linearGradient>
<linearGradient id="paint40_linear_947_13779" x1="16.3025" y1="27.0464" x2="3.30523" y2="52.2503" gradientUnits="userSpaceOnUse">
<stop offset="0.15" stop-color="#8D724E"/>
<stop offset="0.71" stop-color="white"/>
<stop offset="1" stop-color="white"/>
</linearGradient>
<linearGradient id="paint41_linear_947_13779" x1="37.688" y1="21.1061" x2="30.7757" y2="34.5102" gradientUnits="userSpaceOnUse">
<stop offset="0.15" stop-color="#8D724E"/>
<stop offset="0.71" stop-color="white"/>
<stop offset="1" stop-color="white"/>
</linearGradient>
<linearGradient id="paint42_linear_947_13779" x1="0.150816" y1="12.2663" x2="40.8174" y2="10.1618" gradientUnits="userSpaceOnUse">
<stop stop-color="#D5DFE9"/>
<stop offset="0.11" stop-color="#C8D4DF"/>
<stop offset="0.35" stop-color="#B4C4D1"/>
<stop offset="0.58" stop-color="#A8BAC8"/>
<stop offset="0.81" stop-color="#A4B7C6"/>
</linearGradient>
<radialGradient id="paint43_radial_947_13779" cx="0" cy="0" r="1" gradientUnits="userSpaceOnUse" gradientTransform="translate(53.4112 49.4237) rotate(-2.97757) scale(14.1978 14.2339)">
<stop offset="0.19" stop-color="white"/>
<stop offset="0.27" stop-color="#D9D9D9"/>
<stop offset="0.43" stop-color="#989898"/>
<stop offset="0.57" stop-color="#616161"/>
<stop offset="0.71" stop-color="#373737"/>
<stop offset="0.83" stop-color="#191919"/>
<stop offset="0.93" stop-color="#060606"/>
<stop offset="1"/>
</radialGradient>
<radialGradient id="paint44_radial_947_13779" cx="0" cy="0" r="1" gradientUnits="userSpaceOnUse" gradientTransform="translate(39.3854 14.2928) rotate(-2.97757) scale(18.5992 11.5294)">
<stop offset="0.05" stop-color="white"/>
<stop offset="0.55"/>
</radialGradient>
<radialGradient id="paint45_radial_947_13779" cx="0" cy="0" r="1" gradientUnits="userSpaceOnUse" gradientTransform="translate(29.1607 71.5534) rotate(-2.97757) scale(14.1978 14.2339)">
<stop offset="0.19" stop-color="white"/>
<stop offset="0.27" stop-color="#D9D9D9"/>
<stop offset="0.43" stop-color="#989898"/>
<stop offset="0.57" stop-color="#616161"/>
<stop offset="0.71" stop-color="#373737"/>
<stop offset="0.83" stop-color="#191919"/>
<stop offset="0.93" stop-color="#060606"/>
<stop offset="1"/>
</radialGradient>
<linearGradient id="paint46_linear_947_13779" x1="136.685" y1="109.791" x2="144.899" y2="109.366" gradientUnits="userSpaceOnUse">
<stop offset="0.19" stop-color="white"/>
<stop offset="0.27" stop-color="#FAFDFC"/>
<stop offset="0.35" stop-color="#EEF8F6"/>
<stop offset="0.43" stop-color="#DAF0EB"/>
<stop offset="0.51" stop-color="#BEE4DC"/>
<stop offset="0.58" stop-color="#9AD6C8"/>
<stop offset="0.66" stop-color="#6DC4B0"/>
<stop offset="0.74" stop-color="#39AF94"/>
<stop offset="0.78" stop-color="#20A586"/>
</linearGradient>
<linearGradient id="paint47_linear_947_13779" x1="20.0208" y1="35.7418" x2="21.5428" y2="65.0017" gradientUnits="userSpaceOnUse">
<stop offset="0.19" stop-color="white"/>
<stop offset="0.27" stop-color="#FAFDFC"/>
<stop offset="0.35" stop-color="#EEF8F6"/>
<stop offset="0.43" stop-color="#DAF0EB"/>
<stop offset="0.51" stop-color="#BEE4DC"/>
<stop offset="0.58" stop-color="#9AD6C8"/>
<stop offset="0.66" stop-color="#6DC4B0"/>
<stop offset="0.74" stop-color="#39AF94"/>
<stop offset="0.78" stop-color="#20A586"/>
</linearGradient>
<linearGradient id="paint48_linear_947_13779" x1="13.7864" y1="98.4694" x2="24.6124" y2="104.858" gradientUnits="userSpaceOnUse">
<stop offset="0.19" stop-color="white"/>
<stop offset="0.27" stop-color="#FAFDFC"/>
<stop offset="0.35" stop-color="#EEF8F6"/>
<stop offset="0.43" stop-color="#DAF0EB"/>
<stop offset="0.51" stop-color="#BEE4DC"/>
<stop offset="0.58" stop-color="#9AD6C8"/>
<stop offset="0.66" stop-color="#6DC4B0"/>
<stop offset="0.74" stop-color="#39AF94"/>
<stop offset="0.78" stop-color="#20A586"/>
</linearGradient>
<linearGradient id="paint49_linear_947_13779" x1="144.967" y1="89.5626" x2="151.767" y2="128.585" gradientUnits="userSpaceOnUse">
<stop stop-color="#B5C7D9"/>
<stop offset="0.05" stop-color="#A8BACC"/>
<stop offset="0.2" stop-color="#8497A8"/>
<stop offset="0.35" stop-color="#687C8C"/>
<stop offset="0.5" stop-color="#546878"/>
<stop offset="0.65" stop-color="#485C6C"/>
<stop offset="0.81" stop-color="#445969"/>
</linearGradient>
<linearGradient id="paint50_linear_947_13779" x1="75.2224" y1="112.25" x2="121.428" y2="109.859" gradientUnits="userSpaceOnUse">
<stop stop-color="#B5C7D9"/>
<stop offset="0.05" stop-color="#A8BACC"/>
<stop offset="0.2" stop-color="#8497A8"/>
<stop offset="0.35" stop-color="#687C8C"/>
<stop offset="0.5" stop-color="#546878"/>
<stop offset="0.65" stop-color="#485C6C"/>
<stop offset="0.81" stop-color="#445969"/>
</linearGradient>
<linearGradient id="paint51_linear_947_13779" x1="45.818" y1="60.9311" x2="145.378" y2="55.7788" gradientUnits="userSpaceOnUse">
<stop stop-color="#B5C7D9"/>
<stop offset="0.12" stop-color="#8FA1B1"/>
<stop offset="0.26" stop-color="#6E7E8D"/>
<stop offset="0.4" stop-color="#536371"/>
<stop offset="0.53" stop-color="#41505D"/>
<stop offset="0.67" stop-color="#354451"/>
<stop offset="0.81" stop-color="#32414D"/>
</linearGradient>
<radialGradient id="paint52_radial_947_13779" cx="0" cy="0" r="1" gradientUnits="userSpaceOnUse" gradientTransform="translate(102.821 60.3454) rotate(-2.97757) scale(17.6821 17.727)">
<stop offset="0.19" stop-color="white"/>
<stop offset="0.27" stop-color="#D9D9D9"/>
<stop offset="0.43" stop-color="#989898"/>
<stop offset="0.57" stop-color="#616161"/>
<stop offset="0.71" stop-color="#373737"/>
<stop offset="0.83" stop-color="#191919"/>
<stop offset="0.93" stop-color="#060606"/>
<stop offset="1"/>
</radialGradient>
<radialGradient id="paint53_radial_947_13779" cx="0" cy="0" r="1" gradientUnits="userSpaceOnUse" gradientTransform="translate(115.437 70.6825) rotate(-2.97757) scale(15.6674 15.7072)">
<stop offset="0.19" stop-color="white"/>
<stop offset="0.27" stop-color="#D9D9D9"/>
<stop offset="0.43" stop-color="#989898"/>
<stop offset="0.57" stop-color="#616161"/>
<stop offset="0.71" stop-color="#373737"/>
<stop offset="0.83" stop-color="#191919"/>
<stop offset="0.93" stop-color="#060606"/>
<stop offset="1"/>
</radialGradient>
<radialGradient id="paint54_radial_947_13779" cx="0" cy="0" r="1" gradientUnits="userSpaceOnUse" gradientTransform="translate(137.41 95.8621) rotate(-2.97757) scale(11.9726 13.0277)">
<stop offset="0.19" stop-color="white"/>
<stop offset="0.26" stop-color="#F7F7F7"/>
<stop offset="0.37" stop-color="#E3E3E3"/>
<stop offset="0.49" stop-color="#C2C2C2"/>
<stop offset="0.64" stop-color="#949494"/>
<stop offset="0.79" stop-color="#595959"/>
<stop offset="0.96" stop-color="#121212"/>
<stop offset="1"/>
</radialGradient>
<linearGradient id="paint55_linear_947_13779" x1="23.2437" y1="-6.09064" x2="32.8763" y2="9.64022" gradientUnits="userSpaceOnUse">
<stop offset="0.14" stop-color="#546A8B"/>
<stop offset="1" stop-color="white"/>
</linearGradient>
<linearGradient id="paint56_linear_947_13779" x1="50.9848" y1="3.4593" x2="83.9092" y2="1.25828" gradientUnits="userSpaceOnUse">
<stop stop-color="white"/>
<stop offset="0.86" stop-color="#546A8B"/>
</linearGradient>
<linearGradient id="paint57_linear_947_13779" x1="76.4981" y1="62.1432" x2="201.432" y2="53.8075" gradientUnits="userSpaceOnUse">
<stop stop-color="white"/>
<stop offset="0.86" stop-color="#546A8B"/>
</linearGradient>
<linearGradient id="paint58_linear_947_13779" x1="123.627" y1="45.0339" x2="104.903" y2="65.279" gradientUnits="userSpaceOnUse">
<stop stop-color="white"/>
<stop offset="0.37" stop-color="white"/>
<stop offset="0.85"/>
</linearGradient>
<linearGradient id="paint59_linear_947_13779" x1="102.547" y1="122.916" x2="107.063" y2="79.4974" gradientUnits="userSpaceOnUse">
<stop stop-color="#B5C7D9"/>
<stop offset="0.05" stop-color="#A8BACC"/>
<stop offset="0.2" stop-color="#8497A8"/>
<stop offset="0.35" stop-color="#687C8C"/>
<stop offset="0.5" stop-color="#546878"/>
<stop offset="0.65" stop-color="#485C6C"/>
<stop offset="0.81" stop-color="#445969"/>
</linearGradient>
<linearGradient id="paint60_linear_947_13779" x1="138.964" y1="115.288" x2="129.62" y2="75.4971" gradientUnits="userSpaceOnUse">
<stop stop-color="#D4DBE6"/>
<stop offset="0.14" stop-color="#A8B4C0"/>
<stop offset="0.27" stop-color="#8493A0"/>
<stop offset="0.41" stop-color="#687988"/>
<stop offset="0.54" stop-color="#546776"/>
<stop offset="0.67" stop-color="#485C6C"/>
<stop offset="0.81" stop-color="#445969"/>
</linearGradient>
<radialGradient id="paint61_radial_947_13779" cx="0" cy="0" r="1" gradientUnits="userSpaceOnUse" gradientTransform="translate(105.894 92.6654) rotate(-2.97757) scale(21.4271 21.4815)">
<stop offset="0.19" stop-color="white"/>
<stop offset="0.27" stop-color="#D9D9D9"/>
<stop offset="0.43" stop-color="#989898"/>
<stop offset="0.57" stop-color="#616161"/>
<stop offset="0.71" stop-color="#373737"/>
<stop offset="0.83" stop-color="#191919"/>
<stop offset="0.93" stop-color="#060606"/>
<stop offset="1"/>
</radialGradient>
<radialGradient id="paint62_radial_947_13779" cx="0" cy="0" r="1" gradientUnits="userSpaceOnUse" gradientTransform="translate(54.1419 49.7906) rotate(-2.97757) scale(18.1562 18.2023)">
<stop offset="0.19" stop-color="white"/>
<stop offset="0.27" stop-color="#D9D9D9"/>
<stop offset="0.43" stop-color="#989898"/>
<stop offset="0.57" stop-color="#616161"/>
<stop offset="0.71" stop-color="#373737"/>
<stop offset="0.83" stop-color="#191919"/>
<stop offset="0.93" stop-color="#060606"/>
<stop offset="1"/>
</radialGradient>
<radialGradient id="paint63_radial_947_13779" cx="0" cy="0" r="1" gradientUnits="userSpaceOnUse" gradientTransform="translate(61.5227 35.5579) rotate(-2.97757) scale(8.62773 8.64963)">
<stop offset="0.19" stop-color="white"/>
<stop offset="0.27" stop-color="#D9D9D9"/>
<stop offset="0.43" stop-color="#989898"/>
<stop offset="0.57" stop-color="#616161"/>
<stop offset="0.71" stop-color="#373737"/>
<stop offset="0.83" stop-color="#191919"/>
<stop offset="0.93" stop-color="#060606"/>
<stop offset="1"/>
</radialGradient>
<linearGradient id="paint64_linear_947_13779" x1="75.5798" y1="55.8611" x2="31.4485" y2="79.0009" gradientUnits="userSpaceOnUse">
<stop offset="0.19" stop-color="#A4B7C6"/>
<stop offset="0.36" stop-color="#A8BAC8"/>
<stop offset="0.53" stop-color="#B4C3D0"/>
<stop offset="0.7" stop-color="#C8D3DC"/>
<stop offset="0.87" stop-color="#E4E9EE"/>
<stop offset="1" stop-color="white"/>
</linearGradient>
<radialGradient id="paint65_radial_947_13779" cx="0" cy="0" r="1" gradientUnits="userSpaceOnUse" gradientTransform="translate(65.5231 83.7566) rotate(-19.3055) scale(9.79916 36.1442)">
<stop offset="0.19" stop-color="white"/>
<stop offset="0.27" stop-color="#D9D9D9"/>
<stop offset="0.43" stop-color="#989898"/>
<stop offset="0.57" stop-color="#616161"/>
<stop offset="0.71" stop-color="#373737"/>
<stop offset="0.83" stop-color="#191919"/>
<stop offset="0.93" stop-color="#060606"/>
<stop offset="1"/>
</radialGradient>
</defs>
</svg>
