<svg width="27" height="26" viewBox="0 0 27 26" fill="none" xmlns="http://www.w3.org/2000/svg">
<g opacity="0.7">
<path d="M23.288 0.378052H3.71201C1.66525 0.378052 0 2.04297 0 4.09006V16.0702C0 18.1126 1.658 19.7749 3.69882 19.7822V25.2186L11.5116 19.7822H23.288C25.3347 19.7822 27 18.1169 27 16.0702V4.09006C27 2.04297 25.3347 0.378052 23.288 0.378052ZM25.418 16.0702C25.418 17.2445 24.4625 18.2001 23.288 18.2001H11.0152L5.28085 22.1905V18.2001H3.71201C2.53751 18.2001 1.58203 17.2445 1.58203 16.0702V4.09006C1.58203 2.9154 2.53751 1.96008 3.71201 1.96008H23.288C24.4625 1.96008 25.418 2.9154 25.418 4.09006V16.0702Z" fill="white"/>
<path d="M7.22644 5.96802H19.7736V7.55005H7.22644V5.96802Z" fill="white"/>
<path d="M7.22644 9.34302H19.7736V10.925H7.22644V9.34302Z" fill="white"/>
<path d="M7.22644 12.718H19.7736V14.3H7.22644V12.718Z" fill="white"/>
</g>
</svg>
