<svg width="27" height="28" viewBox="0 0 27 28" fill="none" xmlns="http://www.w3.org/2000/svg">
<path d="M20.265 10.4492L19.5294 9.71353C18.6412 8.82533 17.4604 8.33614 16.2043 8.33614C16.196 8.33614 7.99321 8.33962 7.98762 8.33962L5.70454 10.4491H0V23.1061H7.81508L11.1617 26.4528C11.7785 27.0697 12.5888 27.3782 13.399 27.3782C14.2093 27.3782 15.0195 27.0697 15.6363 26.4528L18.9829 23.1061H27V10.4491L20.265 10.4492ZM18.6195 20.4864L14.1448 24.9613C13.7336 25.3725 13.0644 25.3725 12.6532 24.9613L8.68878 20.9966H2.10938V12.5587H6.52983L8.81292 10.4492H12.1437L5.90024 16.693L6.64601 17.4388C8.70476 19.4977 12.0426 19.5 14.1038 17.4388L15.5837 15.9587L18.6195 18.9947C19.0316 19.4069 19.0317 20.0741 18.6195 20.4864ZM24.8906 20.9966H20.7796C21.271 19.8604 21.0699 18.462 20.111 17.5031L15.5836 12.9755L12.6122 15.9471C11.6208 16.9386 10.1625 17.118 9.00998 16.5662L14.3707 11.2052C14.8605 10.7154 15.5117 10.4456 16.2043 10.4456C16.8969 10.4456 17.548 10.7154 18.0378 11.2052L19.3912 12.5586H24.8906V20.9966Z" fill="white"/>
<path d="M12.4453 0.378174H14.5547V4.59716H12.4453V0.378174Z" fill="white"/>
<path d="M3.05834 4.92918L4.54966 3.43776L7.53228 6.42055L6.04095 7.91196L3.05834 4.92918Z" fill="white"/>
<path d="M19.4635 6.42244L22.4461 3.43965L23.9375 4.93106L20.9548 7.91385L19.4635 6.42244Z" fill="white"/>
</svg>
