<svg width="36" height="35" viewBox="0 0 36 35" fill="none" xmlns="http://www.w3.org/2000/svg">
<g id="cusion" clip-path="url(#clip0_833_44674)">
<path id="Vector" d="M8.12745 35.125H8.25245V35.1152H27.8725C28.0024 35.1152 28.1326 35.0638 28.2256 34.9708L35.4805 27.718C35.5235 27.675 35.5735 27.6157 35.5919 27.5423L35.5919 27.5423L35.5928 27.5381L35.6222 27.4009L35.625 27.388V27.3747V7.61555V7.60317L35.6226 7.59103L35.5932 7.44401L35.5909 7.43275L35.5866 7.4221C35.5715 7.38436 35.5453 7.34303 35.528 7.3171C35.5185 7.30277 35.5097 7.29025 35.5032 7.28129L35.4954 7.27054L35.4932 7.26746L35.4925 7.26656L35.4923 7.26628L35.4922 7.26618L35.4922 7.26614L35.3922 7.34112L35.4922 7.26611L35.4868 7.25893L35.4804 7.2526L28.2158 0.00964727C28.2158 0.00961658 28.2158 0.00958589 28.2157 0.00955521C28.1227 -0.0833868 27.9925 -0.134766 27.8627 -0.134766L27.8626 -0.134766L8.0587 -0.115163L8.04504 -0.11515L8.03171 -0.112188C7.933 -0.0902586 7.8377 -0.0536691 7.76456 0.0194476L7.76451 0.0195076L0.519467 7.27232C0.476545 7.31523 0.426523 7.37452 0.408146 7.44801L0.408076 7.44799L0.407188 7.45214L0.377776 7.58935L0.375 7.6023V7.61555V27.3747V27.388L0.377776 27.4009L0.407188 27.5381L0.409413 27.5485L0.413356 27.5584C0.428455 27.5961 0.454692 27.6374 0.471983 27.6634C0.481536 27.6777 0.490345 27.6902 0.496768 27.6992L0.504569 27.7099L0.506845 27.713L0.507516 27.7139L0.507728 27.7142L0.507801 27.7143L0.50783 27.7143L0.507842 27.7144L0.607843 27.6394L0.507853 27.7144L0.513185 27.7215L0.519467 27.7278L7.77437 34.9806C7.8674 35.0736 7.99764 35.125 8.12745 35.125ZM23.0083 30.3169L26.6857 34.1203H19.2038L23.0083 30.3169ZM12.9819 30.3169L16.7864 34.1203H9.30453L12.9819 30.3169ZM23.7047 29.6109L30.0995 23.2179L34.4001 27.3762L27.8642 33.9103L23.7047 29.6109ZM1.3701 26.1882V18.7084L5.17462 22.5118L1.3701 26.1882ZM27.8838 1.08978L34.4198 7.62386L30.1191 11.7822L23.7244 5.38922L27.8838 1.08978ZM9.29473 0.869925H16.7864L12.9769 4.67834L9.29473 0.869925ZM19.2038 0.869925H26.6949L23.0082 4.67331L19.2038 0.869925ZM14.1662 30.097H21.7962L17.9804 33.9118L14.2077 30.1402L14.206 30.1385L14.1662 30.097ZM8.11616 33.9103L1.58025 27.3762L5.88089 23.2179L12.2756 29.6109L8.11616 33.9103ZM6.38971 22.3047V12.6855L13.189 5.88813H22.811L29.6103 12.6855V22.3047L22.811 29.1021H13.189L6.38971 22.3047ZM34.6201 18.6986V26.1882L30.8106 22.507L34.6201 18.6986ZM5.39461 13.682V21.3099L1.57876 17.4951L5.35133 13.7236L5.35221 13.7227L5.39461 13.682ZM30.6152 13.6804L34.431 17.4951L30.6152 21.3099V13.6804ZM34.6201 8.80207V16.2917L30.8106 12.4833L34.6201 8.80207ZM1.3701 8.80258L5.17474 12.4881L1.3701 16.2917V8.80258ZM12.2755 5.37951L5.87109 11.7822L1.57051 7.62393L8.11619 1.08962L12.2755 5.37951ZM21.8044 4.89324H14.1744L17.9902 1.07849L21.7628 4.85006L21.7646 4.85181L21.8044 4.89324Z" fill="#D200FF" stroke="#D200FF" stroke-width="0.25"/>
</g>
<defs>
<clipPath id="clip0_833_44674">
<rect width="35" height="35" fill="white" transform="translate(0.5)"/>
</clipPath>
</defs>
</svg>
