<svg width="27" height="25" viewBox="0 0 27 25" fill="none" xmlns="http://www.w3.org/2000/svg">
<path d="M9.28125 24.3H3.16406C1.4194 24.3 0 22.8135 0 20.9864V3.31364C0 1.4865 1.4194 0 3.16406 0H9.28125C11.0259 0 12.4453 1.4865 12.4453 3.31364V20.9864C12.4453 22.8135 11.0259 24.3 9.28125 24.3ZM3.16406 2.20909C2.58251 2.20909 2.10938 2.70459 2.10938 3.31364V20.9864C2.10938 21.5954 2.58251 22.0909 3.16406 22.0909H9.28125C9.8628 22.0909 10.3359 21.5954 10.3359 20.9864V3.31364C10.3359 2.70459 9.8628 2.20909 9.28125 2.20909H3.16406Z" fill="white"/>
<path d="M23.8359 11.0455H17.7188C15.9741 11.0455 14.5547 9.55896 14.5547 7.73182V3.31364C14.5547 1.4865 15.9741 0 17.7188 0H23.8359C25.5806 0 27 1.4865 27 3.31364V7.73182C27 9.55896 25.5806 11.0455 23.8359 11.0455ZM17.7188 2.20909C17.1372 2.20909 16.6641 2.70459 16.6641 3.31364V7.73182C16.6641 8.34086 17.1372 8.83636 17.7188 8.83636H23.8359C24.4175 8.83636 24.8906 8.34086 24.8906 7.73182V3.31364C24.8906 2.70459 24.4175 2.20909 23.8359 2.20909H17.7188Z" fill="white"/>
<path d="M23.8359 24.3H17.7188C15.9741 24.3 14.5547 22.8135 14.5547 20.9864V16.5682C14.5547 14.741 15.9741 13.2545 17.7188 13.2545H23.8359C25.5806 13.2545 27 14.741 27 16.5682V20.9864C27 22.8135 25.5806 24.3 23.8359 24.3ZM17.7188 15.4636C17.1372 15.4636 16.6641 15.9591 16.6641 16.5682V20.9864C16.6641 21.5954 17.1372 22.0909 17.7188 22.0909H23.8359C24.4175 22.0909 24.8906 21.5954 24.8906 20.9864V16.5682C24.8906 15.9591 24.4175 15.4636 23.8359 15.4636H17.7188Z" fill="white"/>
</svg>
