<svg width="24" height="24" viewBox="0 0 24 24" fill="none" xmlns="http://www.w3.org/2000/svg">
<path d="M11.9993 23.9977C5.55068 24.1306 -0.131117 18.4486 0.00230352 11.9987C-0.0270331 1.69513 12.3165 -3.82674 19.9846 3.04468C20.3708 3.38942 20.4044 3.98201 20.0597 4.36827C19.7151 4.75453 19.1227 4.78819 18.7364 4.44345C12.3332 -1.36259 1.81541 3.34653 1.87685 11.9989C1.81536 20.6505 12.3347 25.3608 18.7364 19.5541C19.1225 19.2094 19.7151 19.243 20.0597 19.6293C20.4044 20.0155 20.3708 20.6082 19.9845 20.9528C17.7849 22.9164 14.949 23.9977 11.9993 23.9977ZM20.0176 17.1668L23.171 14.0655C23.1725 14.064 23.174 14.0625 23.1756 14.061C23.7072 13.5309 24 12.8259 24 12.0759C24 11.3259 23.7072 10.621 23.1756 10.0909C23.1729 10.0882 23.1702 10.0855 23.1674 10.0829L20.014 7.01474C19.6429 6.65365 19.0496 6.6619 18.6886 7.03298C18.3277 7.40405 18.3359 7.99758 18.7069 8.35858L21.8555 11.4222C22.0297 11.5975 22.1255 11.8295 22.1255 12.0761C22.1255 12.3233 22.0291 12.556 21.854 12.7315L18.7033 15.83C18.3342 16.193 18.3292 16.7865 18.6921 17.1556C18.8756 17.3422 19.118 17.4358 19.3605 17.4358C19.5977 17.4358 19.835 17.3463 20.0176 17.1668ZM20.2977 11.9988C20.2977 11.481 19.8781 11.0613 19.3604 11.0613H6.6568C5.41454 11.1074 5.41552 12.8905 6.6568 12.9362H19.3604C19.8781 12.9362 20.2977 12.5165 20.2977 11.9988Z" fill="white"/>
</svg>
