<svg width="36" height="35" viewBox="0 0 36 35" fill="none" xmlns="http://www.w3.org/2000/svg">
<g id="princes" clip-path="url(#clip0_833_44678)">
<path id="Vector" d="M6.48 35.125H6.605V35.115H29.51C29.6535 35.115 29.7752 35.0616 29.8684 34.9684L35.4684 29.3684L35.4747 29.3621L35.48 29.355L35.482 29.3523C35.5119 29.3125 35.5521 29.2589 35.5786 29.1795L35.5789 29.1796L35.5813 29.1703L35.6113 29.0503L35.615 29.0354V29.02V5.97V5.95576L35.6118 5.94189L35.5818 5.81189L35.5796 5.80251L35.5761 5.79358C35.5608 5.75534 35.5341 5.71337 35.5165 5.68691C35.5068 5.67233 35.4978 5.65957 35.4913 5.65045L35.4833 5.6395L35.481 5.63637L35.4803 5.63546L35.4801 5.63517L35.48 5.63507L35.48 5.63503L35.38 5.71L35.48 5.635L35.4747 5.62789L35.4684 5.62161L29.8684 0.0216116L29.8621 0.0153306L29.855 0.0100009L29.8523 0.00797987C29.8125 -0.0218724 29.7589 -0.0621361 29.6795 -0.0885853L29.6796 -0.0889356L29.6703 -0.0912677L29.5503 -0.121268L29.5354 -0.125H29.52H6.47H6.45576L6.44189 -0.121799L6.31189 -0.0917989L6.30251 -0.0896345L6.29358 -0.0860597C6.25534 -0.0707669 6.21336 -0.0441409 6.18691 -0.0265063C6.17233 -0.0167821 6.15957 -0.00781427 6.15044 -0.0012745L6.1395 0.00666438L6.13637 0.00897834L6.13545 0.00965961L6.13517 0.00987354L6.13507 0.00994786L6.13503 0.00997673L6.13501 0.00998908L6.21 0.11L6.135 0.01L6.12789 0.0153301L6.12161 0.0216117L0.521612 5.62161L0.61 5.71L0.521611 5.62161C0.474618 5.66861 0.435898 5.73702 0.411415 5.81047L0.411064 5.81035L0.408732 5.81968L0.378732 5.93968L0.375 5.95461V5.97V29.02V29.0332L0.377775 29.0462L0.407775 29.1862L0.409999 29.1966L0.413941 29.2064C0.429233 29.2447 0.455859 29.2866 0.473493 29.3131C0.483217 29.3277 0.492185 29.3404 0.498725 29.3496L0.506664 29.3605L0.508977 29.3636L0.509659 29.3645L0.509873 29.3648L0.509947 29.3649L0.509976 29.365L0.509988 29.365L0.61 29.29L0.509999 29.365L0.515363 29.3722L0.521691 29.3785L6.12859 34.9754C6.21662 35.0752 6.35213 35.125 6.48 35.125ZM1.66164 5.90514L6.40097 1.16581L9.69888 6.07434L6.56444 9.20878L1.66164 5.90514ZM28.5853 34.125H7.42473L10.6266 29.365H25.3834L28.5853 34.125ZM34.3443 29.0989L29.6089 33.8343L26.3012 28.9256L29.4356 25.7912L34.3443 29.0989ZM9.70878 28.9256L6.40111 33.8343L1.66566 29.0989L6.57444 25.7912L9.70878 28.9256ZM10.5618 28.375L7.135 24.9482V10.0618L10.5618 6.635H25.4382L28.865 10.0618V24.9482L25.4382 28.375H10.5618ZM34.625 28.0853L29.865 24.8834V10.1166L34.625 6.91473V28.0853ZM6.135 24.8834L1.375 28.0853V6.91473L6.135 10.1166V24.8834ZM34.3343 5.90111L29.4256 9.20878L26.2912 6.07444L29.5989 1.16566L34.3343 5.90111ZM28.5753 0.875L25.3734 5.635H10.6166L7.41473 0.875H28.5753Z" fill="#D200FF" stroke="#D200FF" stroke-width="0.25"/>
</g>
<defs>
<clipPath id="clip0_833_44678">
<rect width="35" height="35" fill="white" transform="translate(0.5)"/>
</clipPath>
</defs>
</svg>
