<svg width="27" height="28" viewBox="0 0 27 28" fill="none" xmlns="http://www.w3.org/2000/svg">
<path d="M26.6602 23.5663L20.1771 16.8688C19.7122 16.3883 19.1311 16.1959 18.8794 16.4416C18.6268 16.6855 18.0454 16.4936 17.5805 16.0131L17.4878 15.9169C20.3894 12.1006 20.1078 6.63662 16.6234 3.15221C12.8205 -0.650672 6.65457 -0.650672 2.85216 3.15221C-0.950721 6.9551 -0.950721 13.1201 2.85216 16.923C6.39591 20.4673 11.9891 20.7046 15.8132 17.6435L15.8539 17.686C16.3179 18.1665 16.4907 18.7536 16.2373 18.9979C15.9851 19.2423 16.1567 19.8298 16.6221 20.3094L23.1017 27.0096C23.5666 27.4889 24.3326 27.5031 24.8136 27.0378L26.6321 25.2783C27.1112 24.8141 27.1242 24.0486 26.6602 23.5663ZM14.4835 14.783C11.8665 17.4003 7.60786 17.4003 4.99127 14.7838C2.37428 12.1668 2.37468 7.90775 4.99127 5.29124C7.60786 2.67425 11.8665 2.67465 14.4826 5.29164C17.1 7.90823 17.1 12.1664 14.4835 14.783Z" fill="white"/>
</svg>
