<svg width="23" height="24" viewBox="0 0 23 24" fill="none" xmlns="http://www.w3.org/2000/svg">
<path d="M22.3228 13.9076L21.3356 13.0857C20.6593 12.5227 20.6606 11.4762 21.3356 10.9143L22.3228 10.0924C23.0252 9.50747 23.2049 8.50444 22.75 7.70733L20.8007 4.29267C20.3457 3.49561 19.3968 3.15155 18.5448 3.47433L17.3474 3.92803C16.5273 4.23872 15.6318 3.7147 15.4881 2.84236L15.2779 1.5667C15.1283 0.658922 14.3593 0 13.4493 0H9.55078C8.64075 0 7.87167 0.658922 7.7221 1.56675L7.51187 2.84236C7.36787 3.71625 6.47124 4.2382 5.65261 3.92808L4.45522 3.47433C3.60322 3.15155 2.6544 3.49566 2.19932 4.29267L0.250089 7.70728C-0.204902 8.5043 -0.0252602 9.50737 0.677318 10.0924L1.66447 10.9143C2.34077 11.4773 2.33942 12.5237 1.66447 13.0856L0.677272 13.9075C-0.0252601 14.4925 -0.204949 15.4956 0.250043 16.2926L2.19932 19.7073C2.65435 20.5043 3.60299 20.8484 4.45522 20.5256L5.65256 20.0719C6.47286 19.7611 7.3681 20.2855 7.51183 21.1576L7.72206 22.4332C7.87167 23.3411 8.64075 24 9.55074 24H13.4492C14.3592 24 15.1283 23.3411 15.2779 22.4333L15.4881 21.1577C15.632 20.284 16.5286 19.7617 17.3474 20.072L18.5448 20.5257C19.397 20.8485 20.3457 20.5044 20.8007 19.7073L22.75 16.2926C23.2049 15.4956 23.0252 14.4925 22.3228 13.9076ZM19.1952 18.7698L17.9978 18.3161C16.0837 17.5909 13.9948 18.8144 13.6595 20.8494L13.4493 22.125H9.55078L9.34055 20.8494C9.00458 18.8105 6.9126 17.5923 5.00221 18.3161L3.80483 18.7698L1.85561 15.3552L2.84276 14.5333C4.42083 13.2194 4.41754 10.7779 2.84276 9.46673L1.85561 8.64483L3.80488 5.23017L5.00221 5.68388C6.91636 6.40903 9.00523 5.18559 9.34055 3.15061L9.55074 1.875H13.4492L13.6594 3.15061C13.9954 5.18977 16.0875 6.40753 17.9978 5.68388L19.1951 5.23017L21.1448 8.64436C21.1448 8.64436 21.1447 8.6445 21.1443 8.64478L20.1572 9.46669C18.5792 10.7805 18.5823 13.222 20.1572 14.5332L21.1444 15.3551L19.1952 18.7698ZM11.5 7.37498C8.97849 7.37498 6.92706 9.44977 6.92706 12C6.92706 14.5502 8.97849 16.625 11.5 16.625C14.0215 16.625 16.073 14.5502 16.073 12C16.073 9.44977 14.0215 7.37498 11.5 7.37498ZM11.5 14.75C10.0007 14.75 8.78095 13.5164 8.78095 12C8.78095 10.4836 10.0007 9.24998 11.5 9.24998C12.9993 9.24998 14.2191 10.4836 14.2191 12C14.2191 13.5164 12.9993 14.75 11.5 14.75Z" fill="white"/>
</svg>
