<svg width="36" height="35" viewBox="0 0 36 35" fill="none" xmlns="http://www.w3.org/2000/svg">
<g clip-path="url(#clip0_1072_203)">
<path d="M34.2691 26.5741L27.0836 33.7596L26.0705 31.3263L31.8294 25.5674L34.2691 26.5741ZM25.6636 30.3396L24.6505 27.9063L28.3994 24.1574L30.8391 25.1641L25.6636 30.3396ZM10.3364 30.3396L5.16378 25.167L7.61058 24.1574L11.3524 27.8992L10.3364 30.3396ZM31.215 10.7474V24.2526L28.775 23.2366V11.7634L31.215 10.7474ZM5.15378 9.83299L10.3264 4.66041L11.3424 7.10079L7.60058 10.8426L5.15378 9.83299ZM24.6405 7.09373L25.6536 4.66041L30.8291 9.83591L28.3894 10.8426L24.6405 7.09373ZM34.2591 8.41591L31.8194 9.42264L26.0605 3.66373L27.0736 1.23041L34.2591 8.41591ZM24.7526 4.285L23.7366 6.725H12.2634L11.2474 4.285H24.7526ZM8.74161 34.9784C8.83348 35.0703 8.95468 35.125 9.09 35.125H26.91C27.0453 35.125 27.1665 35.0703 27.2584 34.9784L35.4784 26.7584C35.5703 26.6665 35.625 26.5453 35.625 26.41V8.59C35.625 8.45468 35.5703 8.33348 35.4784 8.24161L27.2584 0.0216118C27.1665 -0.0702523 27.0453 -0.125 26.91 -0.125H9.09C8.95468 -0.125 8.83348 -0.0702523 8.74161 0.0216117L0.521612 8.24161C0.429748 8.33348 0.375 8.45468 0.375 8.59V26.41C0.375 26.5453 0.429748 26.6665 0.521612 26.7584L8.74161 34.9784ZM26.1726 34.145H9.8268L10.8336 31.705H25.1566L26.1726 34.145ZM9.92264 31.3294L8.91591 33.7691L1.73086 26.5841L4.17058 25.5774L9.92264 31.3294ZM23.7366 28.275L24.7526 30.715H11.2374L12.2534 28.275H23.7366ZM8.215 23.3682V11.6318L12.1318 7.715H23.8682L27.785 11.6318V23.3682L23.8682 27.285H12.1318L8.215 23.3682ZM3.795 24.6566L1.355 25.6726V9.31745L3.795 10.3334V24.6566ZM34.635 25.6826L32.195 24.6666V10.3434L34.635 9.32745V25.6826ZM7.225 23.2366L4.785 24.2526V10.7374L7.225 11.7534V23.2366ZM9.92264 3.67058L4.17058 9.42264L1.73086 8.41591L8.91591 1.23086L9.92264 3.67058ZM25.1566 3.295H10.8336L9.8268 0.855H26.1726L25.1566 3.295Z" fill="#D200FF" stroke="#D200FF" stroke-width="0.25"/>
</g>
<defs>
<clipPath id="clip0_1072_203">
<rect width="35" height="35" fill="white" transform="translate(0.5)"/>
</clipPath>
</defs>
</svg>
