<svg width="36" height="37" viewBox="0 0 36 37" fill="none" xmlns="http://www.w3.org/2000/svg">
<path d="M17.9917 36.125H17.9922C18.276 36.1239 18.5535 36.0437 18.7562 35.8956L18.7562 35.8956L35.1216 23.9375L35.1219 23.9373C35.2749 23.825 35.3783 23.6794 35.412 23.5171C35.4462 23.3529 35.4059 23.1855 35.2966 23.0403L18.9284 1.27455C18.7381 1.0197 18.3693 0.875 17.9872 0.875H17.9826C17.6039 0.875 17.2359 1.01631 17.0425 1.26803C17.0425 1.26804 17.0425 1.26806 17.0424 1.26808L0.300559 23.0392L0.300546 23.0392L0.299318 23.0409C0.191011 23.1866 0.151266 23.3545 0.186081 23.519C0.220517 23.6817 0.324848 23.8275 0.479557 23.9398L0.480314 23.9403L17.2222 35.9015L17.2224 35.9016C17.4263 36.047 17.7019 36.125 17.9841 36.125H17.9857H17.9917ZM18.645 28.8582C18.6782 28.8398 18.71 28.8198 18.7399 28.7984C18.74 28.7983 18.7402 28.7982 18.7403 28.7981L22.6899 26.0128L25.8788 29.3257L18.645 34.6108V28.8582ZM22.8821 24.5377L18.9016 20.4021V20.4011L18.8667 20.3648C18.8047 20.3003 18.7291 20.2443 18.645 20.198V12.1859L26.2063 22.1929L22.8821 24.5377ZM33.496 23.7607L26.8258 28.6338L23.6511 25.3359L27.2226 22.8165L33.496 23.7607ZM18.6466 2.89614L33.6091 22.7931L27.4671 21.8687L18.9264 10.5651L18.9262 10.5649C18.8552 10.4713 18.7592 10.3918 18.6466 10.3297V2.89614ZM17.1095 20.3537L12.8935 24.5515L9.40584 22.1914L17.3339 12.1208V20.1907C17.2491 20.2361 17.1738 20.2907 17.1102 20.353L17.1095 20.3537ZM17.0481 10.5547L17.0479 10.555L8.14133 21.8684L2.00561 22.7914L17.3339 2.85791V10.3222C17.2189 10.3834 17.1216 10.4618 17.0481 10.5547ZM8.85447 28.5723L2.11818 23.7588L8.38572 22.8152L12.1076 25.3341L8.85447 28.5723ZM17.9796 27.9952L13.8668 25.2113L17.9777 21.117L21.9224 25.2147L17.9796 27.9952ZM9.80614 29.2539L13.0803 25.9935L17.2402 28.8094C17.2404 28.8096 17.2407 28.8098 17.2409 28.8099C17.2703 28.8303 17.3012 28.8487 17.3323 28.8655V34.6314L9.80614 29.2539Z" fill="#D200FF" stroke="#D200FF" stroke-width="0.25"/>
</svg>
