<svg width="36" height="35" viewBox="0 0 36 35" fill="none" xmlns="http://www.w3.org/2000/svg">
<g clip-path="url(#clip0_1072_206)">
<path d="M9.9 35.125H10.025V35.115H26.1C26.2353 35.115 26.3565 35.0603 26.4484 34.9684L26.4489 34.9678L31.9789 29.3678L31.9849 29.3618L31.99 29.355L31.992 29.3523C32.0219 29.3125 32.0621 29.2589 32.0886 29.1795L32.0889 29.1796L32.0913 29.1703L32.1213 29.0503L32.125 29.0354V29.02V5.97V5.95576L32.1218 5.94189L32.0918 5.81189L32.0896 5.80251L32.0861 5.79358C32.0708 5.75534 32.0441 5.71336 32.0265 5.68691C32.0168 5.67233 32.0078 5.65957 32.0013 5.65045L31.9933 5.6395L31.991 5.63637L31.9903 5.63546L31.9901 5.63517L31.9901 5.63507L31.99 5.63503L31.99 5.63502L31.89 5.71L31.99 5.635L31.9849 5.62821L31.9789 5.62217L26.4489 0.0221693L26.4424 0.0155667L26.435 0.00999918L26.4323 0.00797047C26.3925 -0.0218783 26.3389 -0.0621383 26.2595 -0.0885853L26.2596 -0.0889356L26.2503 -0.0912677L26.1303 -0.121268L26.1154 -0.125H26.1H9.9H9.88576L9.87189 -0.121799L9.74189 -0.0917989L9.73251 -0.0896345L9.72358 -0.0860597C9.68534 -0.0707669 9.64336 -0.0441409 9.61691 -0.0265063C9.60233 -0.0167821 9.58957 -0.00781427 9.58045 -0.0012745L9.5695 0.00666438L9.56637 0.00897834L9.56545 0.00965961L9.56517 0.00987354L9.56507 0.00994786L9.56503 0.00997673L9.56501 0.00998908L9.64 0.11L9.565 0.01L9.55758 0.0155672L9.55106 0.0221693L4.02161 5.62161C4.02151 5.62171 4.02141 5.62181 4.02131 5.62192C3.97445 5.6689 3.93585 5.73718 3.91141 5.81047L3.91106 5.81035L3.90873 5.81968L3.87873 5.93968L3.875 5.95461V5.97V29.02V29.0332L3.87777 29.0462L3.90777 29.1862L3.91 29.1966L3.91394 29.2064C3.92923 29.2447 3.95586 29.2866 3.97349 29.3131C3.98322 29.3277 3.99219 29.3404 3.99872 29.3496L4.00666 29.3605L4.00898 29.3636L4.00966 29.3645L4.00987 29.3648L4.00995 29.3649L4.00998 29.365L4.00999 29.365L4.11 29.29L4.01 29.365L4.01509 29.3718L4.02106 29.3778L9.55106 34.9778L9.55161 34.9784C9.64348 35.0703 9.76468 35.125 9.9 35.125ZM30.8556 5.90127L26.0057 9.20801L22.9045 6.06853L26.169 1.16691L30.8556 5.90127ZM9.83096 1.16691L13.0995 6.07457L10.0043 9.20801L5.14845 5.8972L9.83096 1.16691ZM25.1668 34.125H10.8332L13.997 29.365H22.003L25.1668 34.125ZM30.8557 29.0988L26.1789 33.833L22.9105 28.9254L26.0057 25.792L30.8557 29.0988ZM13.0895 28.9254L9.82105 33.833L5.1443 29.0988L9.99431 25.792L13.0895 28.9254ZM13.9323 28.375L10.555 24.9487V10.0613L13.9323 6.635H22.0577L25.435 10.0613V24.9487L22.0577 28.375H13.9323ZM31.135 28.0837L26.435 24.8839V10.1161L31.135 6.91632V28.0837ZM9.565 24.8839L4.865 28.0837V6.91632L9.565 10.1161V24.8839ZM25.1668 0.875L22.003 5.635H13.997L10.8332 0.875H25.1668Z" fill="#D200FF" stroke="#D200FF" stroke-width="0.25"/>
</g>
<defs>
<clipPath id="clip0_1072_206">
<rect width="35" height="35" fill="white" transform="translate(0.5)"/>
</clipPath>
</defs>
</svg>
