<svg width="36" height="37" viewBox="0 0 36 37" fill="none" xmlns="http://www.w3.org/2000/svg">
<mask id="path-1-outside-1_1573_26886" maskUnits="userSpaceOnUse" x="-0.635742" y="0" width="37" height="37" fill="black">
<rect fill="white" x="-0.635742" width="37" height="37"/>
<path d="M30.225 6.12305C26.9519 2.83161 22.4985 0.986799 17.8562 1.00007C8.19598 1.00007 0.364258 8.83155 0.364258 18.4915C0.364258 23.1305 2.20708 27.5797 5.48739 30.8599C12.3094 37.7001 23.3836 37.7154 30.224 30.8936C37.0644 24.0718 37.0797 12.9979 30.2577 6.15776C30.2465 6.14653 30.2352 6.1353 30.224 6.12407L30.225 6.12305ZM29.8963 6.80808L29.5257 12.5783L25.5562 10.9357L23.8318 6.59778L29.8912 6.80298L29.8963 6.80808ZM17.6745 28.3097L10.6207 25.1897L8.06836 17.9933L10.7392 11.3165L17.7705 8.48546L25.0039 11.4788L27.6849 18.224L24.7384 25.3347L17.6745 28.3086V28.3097ZM24.3495 26.2739L22.6026 30.4903L18.5709 28.7068L24.3495 26.2739ZM16.7699 28.6905L12.5003 30.4883L10.9485 26.1157L16.7689 28.6905H16.7699ZM9.7223 24.7926L6.00603 23.1489L7.66712 18.9979L9.72332 24.7926H9.7223ZM6.32866 13.0929L9.82133 11.6871L7.70592 16.9754L6.32866 13.0929ZM11.1047 10.4007L12.7076 6.39257L16.8271 8.09648L11.1047 10.3997V10.4007ZM18.7158 8.10669L22.9793 6.39053L24.6353 10.5559L18.7158 8.10669ZM28.0627 19.1775L29.6829 23.2541L25.6736 24.9416L28.0616 19.1775H28.0627ZM25.9227 11.8616L29.6778 13.4155L28.077 17.2797L25.9238 11.8616H25.9227ZM29.1255 6.06384L23.596 5.877L24.7823 3.20322C26.3709 3.92399 27.836 4.88978 29.1265 6.06384H29.1255ZM24.1249 2.92247L22.9344 5.60748L18.7894 1.74228C20.621 1.84029 22.4229 2.23948 24.1249 2.92349V2.92247ZM17.7163 1.71676L22.2279 5.92396L17.7735 7.7167L13.4141 5.91273L17.1936 1.72901C17.3672 1.72186 17.5418 1.71778 17.7163 1.71676ZM16.1686 1.79844L12.7504 5.58093L11.5927 2.9194C13.0577 2.33135 14.5984 1.95362 16.1686 1.79844ZM10.9362 3.19913L12.0929 5.85863L7.00657 5.69425C8.19393 4.68355 9.51607 3.84334 10.9362 3.20016V3.19913ZM6.2429 6.38338L11.8704 6.5651L10.1889 10.7693L6.47976 12.2618L6.02952 6.59062C6.09997 6.52018 6.17143 6.45077 6.2429 6.38237V6.38338ZM5.36794 7.2869L5.78041 12.4854L2.76554 11.1398C3.44957 9.74119 4.32555 8.44462 5.36794 7.2869ZM2.4664 11.7871L5.48637 13.1357L1.14938 16.9305C1.31069 15.1572 1.7548 13.4206 2.4664 11.7871ZM1.09731 19.3256L5.12495 23.0427L2.00289 24.0116C1.47914 22.5006 1.17388 20.9223 1.09731 19.3256ZM5.30668 29.6277C4.00701 28.1708 2.97382 26.4965 2.25201 24.6823L5.46391 23.6859L5.30668 29.6287V29.6277ZM1.07892 18.3373C1.07994 18.2026 1.08302 18.0678 1.0871 17.9341L5.81818 13.7932L7.30367 17.98L5.52108 22.4373L1.07892 18.3373ZM6.00094 30.3648L6.16939 24.0034L10.049 25.7196L11.6764 30.3066L6.1357 30.4975C6.09077 30.4536 6.04586 30.4097 6.00094 30.3658V30.3648ZM6.88304 31.1856L11.8428 31.0151L10.5411 33.6001C9.22101 32.9589 7.99077 32.1473 6.88304 31.1856ZM11.1904 33.8982L12.5197 31.2591L16.4534 35.2121C14.6392 35.0651 12.8617 34.621 11.1904 33.8992V33.8982ZM17.7051 35.2682C17.6418 35.2682 17.5785 35.2672 17.5152 35.2662L13.2272 30.9579L17.6663 29.0886L21.8808 30.9528L17.7051 35.2682ZM18.7179 35.2478L22.5618 31.2754L23.9207 34.1442C22.2565 34.7874 20.5005 35.16 18.7179 35.2478ZM24.5812 33.8716L23.2325 31.0233L28.956 31.0723C27.6522 32.2279 26.177 33.1723 24.5812 33.8726V33.8716ZM29.7186 30.3556L29.7105 30.3637L23.45 30.3107L25.2857 25.8809L29.5206 24.0973L29.7738 30.2994C29.7554 30.3178 29.738 30.3372 29.7197 30.3556H29.7186ZM30.4578 29.5664L30.225 23.8727L33.2297 25.2285C32.5354 26.8089 31.6002 28.2729 30.4568 29.5674L30.4578 29.5664ZM33.5033 24.568L30.4925 23.2102L34.6121 19.3378C34.5253 21.1295 34.1506 22.8957 33.5033 24.569V24.568ZM30.1658 22.5374L28.4547 18.2311L30.1525 14.1342L34.5998 18.369L30.1668 22.5374H30.1658ZM34.5957 17.3797L30.4956 13.4747L33.4768 12.3496C34.1077 13.9586 34.4844 15.6543 34.5957 17.3787V17.3797ZM33.2021 11.6911L30.224 12.8142L30.563 7.53702C31.6431 8.78356 32.5324 10.1832 33.2021 11.6911Z"/>
</mask>
<path d="M30.225 6.12305C26.9519 2.83161 22.4985 0.986799 17.8562 1.00007C8.19598 1.00007 0.364258 8.83155 0.364258 18.4915C0.364258 23.1305 2.20708 27.5797 5.48739 30.8599C12.3094 37.7001 23.3836 37.7154 30.224 30.8936C37.0644 24.0718 37.0797 12.9979 30.2577 6.15776C30.2465 6.14653 30.2352 6.1353 30.224 6.12407L30.225 6.12305ZM29.8963 6.80808L29.5257 12.5783L25.5562 10.9357L23.8318 6.59778L29.8912 6.80298L29.8963 6.80808ZM17.6745 28.3097L10.6207 25.1897L8.06836 17.9933L10.7392 11.3165L17.7705 8.48546L25.0039 11.4788L27.6849 18.224L24.7384 25.3347L17.6745 28.3086V28.3097ZM24.3495 26.2739L22.6026 30.4903L18.5709 28.7068L24.3495 26.2739ZM16.7699 28.6905L12.5003 30.4883L10.9485 26.1157L16.7689 28.6905H16.7699ZM9.7223 24.7926L6.00603 23.1489L7.66712 18.9979L9.72332 24.7926H9.7223ZM6.32866 13.0929L9.82133 11.6871L7.70592 16.9754L6.32866 13.0929ZM11.1047 10.4007L12.7076 6.39257L16.8271 8.09648L11.1047 10.3997V10.4007ZM18.7158 8.10669L22.9793 6.39053L24.6353 10.5559L18.7158 8.10669ZM28.0627 19.1775L29.6829 23.2541L25.6736 24.9416L28.0616 19.1775H28.0627ZM25.9227 11.8616L29.6778 13.4155L28.077 17.2797L25.9238 11.8616H25.9227ZM29.1255 6.06384L23.596 5.877L24.7823 3.20322C26.3709 3.92399 27.836 4.88978 29.1265 6.06384H29.1255ZM24.1249 2.92247L22.9344 5.60748L18.7894 1.74228C20.621 1.84029 22.4229 2.23948 24.1249 2.92349V2.92247ZM17.7163 1.71676L22.2279 5.92396L17.7735 7.7167L13.4141 5.91273L17.1936 1.72901C17.3672 1.72186 17.5418 1.71778 17.7163 1.71676ZM16.1686 1.79844L12.7504 5.58093L11.5927 2.9194C13.0577 2.33135 14.5984 1.95362 16.1686 1.79844ZM10.9362 3.19913L12.0929 5.85863L7.00657 5.69425C8.19393 4.68355 9.51607 3.84334 10.9362 3.20016V3.19913ZM6.2429 6.38338L11.8704 6.5651L10.1889 10.7693L6.47976 12.2618L6.02952 6.59062C6.09997 6.52018 6.17143 6.45077 6.2429 6.38237V6.38338ZM5.36794 7.2869L5.78041 12.4854L2.76554 11.1398C3.44957 9.74119 4.32555 8.44462 5.36794 7.2869ZM2.4664 11.7871L5.48637 13.1357L1.14938 16.9305C1.31069 15.1572 1.7548 13.4206 2.4664 11.7871ZM1.09731 19.3256L5.12495 23.0427L2.00289 24.0116C1.47914 22.5006 1.17388 20.9223 1.09731 19.3256ZM5.30668 29.6277C4.00701 28.1708 2.97382 26.4965 2.25201 24.6823L5.46391 23.6859L5.30668 29.6287V29.6277ZM1.07892 18.3373C1.07994 18.2026 1.08302 18.0678 1.0871 17.9341L5.81818 13.7932L7.30367 17.98L5.52108 22.4373L1.07892 18.3373ZM6.00094 30.3648L6.16939 24.0034L10.049 25.7196L11.6764 30.3066L6.1357 30.4975C6.09077 30.4536 6.04586 30.4097 6.00094 30.3658V30.3648ZM6.88304 31.1856L11.8428 31.0151L10.5411 33.6001C9.22101 32.9589 7.99077 32.1473 6.88304 31.1856ZM11.1904 33.8982L12.5197 31.2591L16.4534 35.2121C14.6392 35.0651 12.8617 34.621 11.1904 33.8992V33.8982ZM17.7051 35.2682C17.6418 35.2682 17.5785 35.2672 17.5152 35.2662L13.2272 30.9579L17.6663 29.0886L21.8808 30.9528L17.7051 35.2682ZM18.7179 35.2478L22.5618 31.2754L23.9207 34.1442C22.2565 34.7874 20.5005 35.16 18.7179 35.2478ZM24.5812 33.8716L23.2325 31.0233L28.956 31.0723C27.6522 32.2279 26.177 33.1723 24.5812 33.8726V33.8716ZM29.7186 30.3556L29.7105 30.3637L23.45 30.3107L25.2857 25.8809L29.5206 24.0973L29.7738 30.2994C29.7554 30.3178 29.738 30.3372 29.7197 30.3556H29.7186ZM30.4578 29.5664L30.225 23.8727L33.2297 25.2285C32.5354 26.8089 31.6002 28.2729 30.4568 29.5674L30.4578 29.5664ZM33.5033 24.568L30.4925 23.2102L34.6121 19.3378C34.5253 21.1295 34.1506 22.8957 33.5033 24.569V24.568ZM30.1658 22.5374L28.4547 18.2311L30.1525 14.1342L34.5998 18.369L30.1668 22.5374H30.1658ZM34.5957 17.3797L30.4956 13.4747L33.4768 12.3496C34.1077 13.9586 34.4844 15.6543 34.5957 17.3787V17.3797ZM33.2021 11.6911L30.224 12.8142L30.563 7.53702C31.6431 8.78356 32.5324 10.1832 33.2021 11.6911Z" fill="#D200FF"/>
<path d="M30.225 6.12305C26.9519 2.83161 22.4985 0.986799 17.8562 1.00007C8.19598 1.00007 0.364258 8.83155 0.364258 18.4915C0.364258 23.1305 2.20708 27.5797 5.48739 30.8599C12.3094 37.7001 23.3836 37.7154 30.224 30.8936C37.0644 24.0718 37.0797 12.9979 30.2577 6.15776C30.2465 6.14653 30.2352 6.1353 30.224 6.12407L30.225 6.12305ZM29.8963 6.80808L29.5257 12.5783L25.5562 10.9357L23.8318 6.59778L29.8912 6.80298L29.8963 6.80808ZM17.6745 28.3097L10.6207 25.1897L8.06836 17.9933L10.7392 11.3165L17.7705 8.48546L25.0039 11.4788L27.6849 18.224L24.7384 25.3347L17.6745 28.3086V28.3097ZM24.3495 26.2739L22.6026 30.4903L18.5709 28.7068L24.3495 26.2739ZM16.7699 28.6905L12.5003 30.4883L10.9485 26.1157L16.7689 28.6905H16.7699ZM9.7223 24.7926L6.00603 23.1489L7.66712 18.9979L9.72332 24.7926H9.7223ZM6.32866 13.0929L9.82133 11.6871L7.70592 16.9754L6.32866 13.0929ZM11.1047 10.4007L12.7076 6.39257L16.8271 8.09648L11.1047 10.3997V10.4007ZM18.7158 8.10669L22.9793 6.39053L24.6353 10.5559L18.7158 8.10669ZM28.0627 19.1775L29.6829 23.2541L25.6736 24.9416L28.0616 19.1775H28.0627ZM25.9227 11.8616L29.6778 13.4155L28.077 17.2797L25.9238 11.8616H25.9227ZM29.1255 6.06384L23.596 5.877L24.7823 3.20322C26.3709 3.92399 27.836 4.88978 29.1265 6.06384H29.1255ZM24.1249 2.92247L22.9344 5.60748L18.7894 1.74228C20.621 1.84029 22.4229 2.23948 24.1249 2.92349V2.92247ZM17.7163 1.71676L22.2279 5.92396L17.7735 7.7167L13.4141 5.91273L17.1936 1.72901C17.3672 1.72186 17.5418 1.71778 17.7163 1.71676ZM16.1686 1.79844L12.7504 5.58093L11.5927 2.9194C13.0577 2.33135 14.5984 1.95362 16.1686 1.79844ZM10.9362 3.19913L12.0929 5.85863L7.00657 5.69425C8.19393 4.68355 9.51607 3.84334 10.9362 3.20016V3.19913ZM6.2429 6.38338L11.8704 6.5651L10.1889 10.7693L6.47976 12.2618L6.02952 6.59062C6.09997 6.52018 6.17143 6.45077 6.2429 6.38237V6.38338ZM5.36794 7.2869L5.78041 12.4854L2.76554 11.1398C3.44957 9.74119 4.32555 8.44462 5.36794 7.2869ZM2.4664 11.7871L5.48637 13.1357L1.14938 16.9305C1.31069 15.1572 1.7548 13.4206 2.4664 11.7871ZM1.09731 19.3256L5.12495 23.0427L2.00289 24.0116C1.47914 22.5006 1.17388 20.9223 1.09731 19.3256ZM5.30668 29.6277C4.00701 28.1708 2.97382 26.4965 2.25201 24.6823L5.46391 23.6859L5.30668 29.6287V29.6277ZM1.07892 18.3373C1.07994 18.2026 1.08302 18.0678 1.0871 17.9341L5.81818 13.7932L7.30367 17.98L5.52108 22.4373L1.07892 18.3373ZM6.00094 30.3648L6.16939 24.0034L10.049 25.7196L11.6764 30.3066L6.1357 30.4975C6.09077 30.4536 6.04586 30.4097 6.00094 30.3658V30.3648ZM6.88304 31.1856L11.8428 31.0151L10.5411 33.6001C9.22101 32.9589 7.99077 32.1473 6.88304 31.1856ZM11.1904 33.8982L12.5197 31.2591L16.4534 35.2121C14.6392 35.0651 12.8617 34.621 11.1904 33.8992V33.8982ZM17.7051 35.2682C17.6418 35.2682 17.5785 35.2672 17.5152 35.2662L13.2272 30.9579L17.6663 29.0886L21.8808 30.9528L17.7051 35.2682ZM18.7179 35.2478L22.5618 31.2754L23.9207 34.1442C22.2565 34.7874 20.5005 35.16 18.7179 35.2478ZM24.5812 33.8716L23.2325 31.0233L28.956 31.0723C27.6522 32.2279 26.177 33.1723 24.5812 33.8726V33.8716ZM29.7186 30.3556L29.7105 30.3637L23.45 30.3107L25.2857 25.8809L29.5206 24.0973L29.7738 30.2994C29.7554 30.3178 29.738 30.3372 29.7197 30.3556H29.7186ZM30.4578 29.5664L30.225 23.8727L33.2297 25.2285C32.5354 26.8089 31.6002 28.2729 30.4568 29.5674L30.4578 29.5664ZM33.5033 24.568L30.4925 23.2102L34.6121 19.3378C34.5253 21.1295 34.1506 22.8957 33.5033 24.569V24.568ZM30.1658 22.5374L28.4547 18.2311L30.1525 14.1342L34.5998 18.369L30.1668 22.5374H30.1658ZM34.5957 17.3797L30.4956 13.4747L33.4768 12.3496C34.1077 13.9586 34.4844 15.6543 34.5957 17.3787V17.3797ZM33.2021 11.6911L30.224 12.8142L30.563 7.53702C31.6431 8.78356 32.5324 10.1832 33.2021 11.6911Z" stroke="#D200FF" stroke-width="0.5" mask="url(#path-1-outside-1_1573_26886)"/>
</svg>
