<svg width="36" height="35" viewBox="0 0 36 35" fill="none" xmlns="http://www.w3.org/2000/svg">
<g clip-path="url(#clip0_1072_210)">
<mask id="path-1-outside-1_1072_210" maskUnits="userSpaceOnUse" x="-0.5" y="-0.555176" width="37" height="36" fill="black">
<rect fill="white" x="-0.5" y="-0.555176" width="37" height="36"/>
<path d="M17.8899 34.526L17.8507 34.5064L17.7723 34.477C17.7723 34.477 8.93824 29.0942 6.92828 26.4371C3.33975 21.6818 1.23174 17.2501 0.663067 13.289V13.24L0.614044 13.2007C0.58463 13.1713 0.56502 13.1517 0.545411 13.1125C0.496387 13.0145 0.506192 12.887 0.56502 12.7791C0.437559 11.2594 0.496387 9.88676 0.75131 8.60234C1.75139 3.62155 5.34972 1.51354 5.49679 1.42529C6.85964 0.778184 8.2323 0.444824 9.54613 0.444824C10.3697 0.444824 11.1835 0.572285 12.0169 0.827208C15.1054 1.79787 17.1546 4.3569 17.8899 5.41581L18.0076 5.5923L18.1253 5.41581C18.8606 4.3569 20.9098 1.79787 23.9983 0.827208C24.8121 0.572285 25.6357 0.444824 26.4691 0.444824C27.7829 0.444824 29.1457 0.76838 30.489 1.40569C30.6361 1.48412 34.2638 3.63135 35.2541 8.61215C35.509 9.90637 35.5678 11.2888 35.4208 12.7007C35.509 12.8968 35.5188 13.0243 35.46 13.1321L35.4208 13.1713L35.3423 13.2988C34.7835 17.2599 32.6754 21.6916 29.0771 26.4567C27.0671 29.1138 18.2527 34.4574 18.1645 34.5162L18.0664 34.5554L17.8801 34.5358L17.8899 34.526ZM15.4486 29.4668L18.0076 33.5847L20.5666 29.4668L18.0076 26.4665L15.4486 29.4668ZM13.7033 31.0551L13.8602 31.163C14.8113 31.8003 15.7231 32.3886 16.4486 32.8494L16.6545 32.6435L14.7917 29.6432V30.0943L13.7033 31.0453V31.0551ZM19.3704 32.6435L19.5763 32.8494C20.3117 32.3788 21.2137 31.8003 22.1648 31.163L22.3217 31.0551L21.0471 29.9472L19.3606 32.6533L19.3704 32.6435ZM21.6157 29.5746L22.8903 30.6923L22.9884 30.5943C24.1944 29.7609 25.2435 29.0059 26.0867 28.349L25.9494 28.0941L21.6157 29.5746ZM9.92852 28.349C10.7815 29.0157 11.8306 29.7805 13.0464 30.6139L13.1445 30.6825L14.3995 29.5746L10.0658 28.0941L9.92852 28.349ZM8.14406 26.741L14.5367 28.9275L12.3601 21.7308L12.2424 21.8485L7.34007 20.8582L8.14406 26.7312V26.741ZM23.5571 21.9662L21.4589 28.9275L27.8515 26.741L28.6555 20.868L23.7532 21.8583L23.6355 21.7406L23.5571 21.9662ZM15.1642 28.7804L17.5272 26.0155L13.2817 22.5348L15.174 28.7804H15.1642ZM18.4586 26.0155L20.8215 28.7706L22.7139 22.525L18.4684 26.0057L18.4586 26.0155ZM29.3516 20.6425L28.6751 25.5645H28.9202L28.9693 25.5057C30.8518 22.9368 32.3029 20.4758 33.2735 18.1717L33.4794 17.6913L29.3516 20.6425ZM9.30102 8.65137V15.6813L12.9091 21.3583L18.0174 25.5449L23.0962 21.3877L26.7142 15.75L26.7338 8.64156L21.4196 7.29831L18.2037 9.64164H18.1743L18.1253 9.69066C18.1253 9.69066 18.0468 9.69066 18.0174 9.69066C17.9782 9.69066 17.939 9.68086 17.8899 9.66125L14.625 7.29831L9.31082 8.64156L9.30102 8.65137ZM2.75147 18.1619C3.72214 20.466 5.17323 22.9368 7.05574 25.4959L7.32046 25.388L6.66355 20.6327L2.54557 17.6815L2.75147 18.1619ZM7.42832 20.2013L11.9777 21.123L9.01668 16.5049L7.41851 20.2013H7.42832ZM24.0375 21.123L28.5869 20.2013L26.9887 16.5049L24.0277 21.123H24.0375ZM2.28084 16.6814L6.83023 19.9464L8.58527 15.8872L4.41827 11.6124L2.29065 16.6814H2.28084ZM27.4495 15.8872L29.2046 19.9464L33.7638 16.6814L31.6361 11.6124L27.4593 15.8872H27.4495ZM1.29057 13.0733V13.1713C1.40823 13.9165 1.57491 14.6911 1.79061 15.4656L1.90827 15.8774L3.63389 11.7791L1.30037 13.0831L1.29057 13.0733ZM33.9501 15.4951H34.2246C34.4403 14.6911 34.607 13.9263 34.705 13.1811V13.0831L32.3813 11.7791L33.9403 15.4951H33.9501ZM27.3809 15.0048L31.1949 11.0927L27.3809 8.9357V14.995V15.0048ZM4.83007 11.0927L8.6441 14.995V8.9357L4.83007 11.0927ZM32.1362 10.877L34.8031 12.3575L34.8227 12.132C34.9109 10.9555 34.8423 9.80832 34.6364 8.7298C34.5089 8.07289 34.3128 7.43558 34.0481 6.77867L33.9108 6.4355L32.1362 10.877ZM1.9867 6.77867C1.72198 7.42578 1.52588 8.07289 1.39842 8.74941C1.19252 9.79852 1.12389 10.9359 1.21213 12.132L1.23174 12.3673L3.90843 10.877L2.13377 6.4355L1.99651 6.77867H1.9867ZM2.57499 5.808L4.46729 10.5535L8.6441 8.19054V3.41565L2.56518 5.808H2.57499ZM27.3809 8.19054L31.4204 10.475L31.342 10.3476L31.6263 10.4064L33.4598 5.8178L27.3809 3.42546V8.20035V8.19054ZM15.4584 7.10222L17.684 8.7298V6.60218L15.4584 7.10222ZM18.341 8.7298L20.5666 7.10222L18.341 6.60218V8.7298ZM26.5083 3.7196L22.1354 6.78847L26.7436 7.95523V3.57253L26.5083 3.7294V3.7196ZM9.29121 7.96503L9.4775 7.92582L13.8994 6.79827L9.29121 3.56272V7.96503ZM23.9885 1.52334C21.2333 2.4842 19.3508 4.82753 18.6743 5.79819L18.5469 5.97468L21.2824 6.58257L26.4593 2.95483L24.0473 1.50373L23.9787 1.52334H23.9885ZM9.57555 2.95483L14.7524 6.58257L17.3899 5.99429V5.87663C16.5075 4.59222 14.6936 2.44498 12.0463 1.52334L11.9777 1.50373L9.56574 2.95483H9.57555ZM5.79093 2.00377C5.7321 2.03319 4.40847 2.84698 3.18288 4.58241L2.89854 4.9844L8.27152 2.86659L6.50667 1.69983L6.43804 1.72924C6.23214 1.80768 6.01644 1.89592 5.81054 1.99397L5.86937 2.2783L5.80073 2.00377H5.79093ZM27.7731 2.86659L32.7735 4.83733L32.9304 4.68046L32.8617 4.57261C31.6558 2.87639 30.3615 2.0626 30.2145 1.98416C30.0086 1.88612 29.8027 1.79787 29.6066 1.71944L29.5379 1.69002L27.7731 2.85678V2.86659ZM9.54613 1.10174C8.91863 1.10174 8.26172 1.18018 7.595 1.34686L7.27144 1.42529L8.96766 2.55284L11.1051 1.26842L10.7129 1.19979C10.3011 1.13115 9.92852 1.10174 9.54613 1.10174ZM26.4789 1.10174C26.0965 1.10174 25.7141 1.13115 25.3023 1.19979L24.9101 1.26842L27.0475 2.56264L28.5379 1.58217V1.38608L28.43 1.35666C27.7731 1.18998 27.1162 1.11154 26.4789 1.11154V1.10174Z"/>
</mask>
<path d="M17.8899 34.526L17.8507 34.5064L17.7723 34.477C17.7723 34.477 8.93824 29.0942 6.92828 26.4371C3.33975 21.6818 1.23174 17.2501 0.663067 13.289V13.24L0.614044 13.2007C0.58463 13.1713 0.56502 13.1517 0.545411 13.1125C0.496387 13.0145 0.506192 12.887 0.56502 12.7791C0.437559 11.2594 0.496387 9.88676 0.75131 8.60234C1.75139 3.62155 5.34972 1.51354 5.49679 1.42529C6.85964 0.778184 8.2323 0.444824 9.54613 0.444824C10.3697 0.444824 11.1835 0.572285 12.0169 0.827208C15.1054 1.79787 17.1546 4.3569 17.8899 5.41581L18.0076 5.5923L18.1253 5.41581C18.8606 4.3569 20.9098 1.79787 23.9983 0.827208C24.8121 0.572285 25.6357 0.444824 26.4691 0.444824C27.7829 0.444824 29.1457 0.76838 30.489 1.40569C30.6361 1.48412 34.2638 3.63135 35.2541 8.61215C35.509 9.90637 35.5678 11.2888 35.4208 12.7007C35.509 12.8968 35.5188 13.0243 35.46 13.1321L35.4208 13.1713L35.3423 13.2988C34.7835 17.2599 32.6754 21.6916 29.0771 26.4567C27.0671 29.1138 18.2527 34.4574 18.1645 34.5162L18.0664 34.5554L17.8801 34.5358L17.8899 34.526ZM15.4486 29.4668L18.0076 33.5847L20.5666 29.4668L18.0076 26.4665L15.4486 29.4668ZM13.7033 31.0551L13.8602 31.163C14.8113 31.8003 15.7231 32.3886 16.4486 32.8494L16.6545 32.6435L14.7917 29.6432V30.0943L13.7033 31.0453V31.0551ZM19.3704 32.6435L19.5763 32.8494C20.3117 32.3788 21.2137 31.8003 22.1648 31.163L22.3217 31.0551L21.0471 29.9472L19.3606 32.6533L19.3704 32.6435ZM21.6157 29.5746L22.8903 30.6923L22.9884 30.5943C24.1944 29.7609 25.2435 29.0059 26.0867 28.349L25.9494 28.0941L21.6157 29.5746ZM9.92852 28.349C10.7815 29.0157 11.8306 29.7805 13.0464 30.6139L13.1445 30.6825L14.3995 29.5746L10.0658 28.0941L9.92852 28.349ZM8.14406 26.741L14.5367 28.9275L12.3601 21.7308L12.2424 21.8485L7.34007 20.8582L8.14406 26.7312V26.741ZM23.5571 21.9662L21.4589 28.9275L27.8515 26.741L28.6555 20.868L23.7532 21.8583L23.6355 21.7406L23.5571 21.9662ZM15.1642 28.7804L17.5272 26.0155L13.2817 22.5348L15.174 28.7804H15.1642ZM18.4586 26.0155L20.8215 28.7706L22.7139 22.525L18.4684 26.0057L18.4586 26.0155ZM29.3516 20.6425L28.6751 25.5645H28.9202L28.9693 25.5057C30.8518 22.9368 32.3029 20.4758 33.2735 18.1717L33.4794 17.6913L29.3516 20.6425ZM9.30102 8.65137V15.6813L12.9091 21.3583L18.0174 25.5449L23.0962 21.3877L26.7142 15.75L26.7338 8.64156L21.4196 7.29831L18.2037 9.64164H18.1743L18.1253 9.69066C18.1253 9.69066 18.0468 9.69066 18.0174 9.69066C17.9782 9.69066 17.939 9.68086 17.8899 9.66125L14.625 7.29831L9.31082 8.64156L9.30102 8.65137ZM2.75147 18.1619C3.72214 20.466 5.17323 22.9368 7.05574 25.4959L7.32046 25.388L6.66355 20.6327L2.54557 17.6815L2.75147 18.1619ZM7.42832 20.2013L11.9777 21.123L9.01668 16.5049L7.41851 20.2013H7.42832ZM24.0375 21.123L28.5869 20.2013L26.9887 16.5049L24.0277 21.123H24.0375ZM2.28084 16.6814L6.83023 19.9464L8.58527 15.8872L4.41827 11.6124L2.29065 16.6814H2.28084ZM27.4495 15.8872L29.2046 19.9464L33.7638 16.6814L31.6361 11.6124L27.4593 15.8872H27.4495ZM1.29057 13.0733V13.1713C1.40823 13.9165 1.57491 14.6911 1.79061 15.4656L1.90827 15.8774L3.63389 11.7791L1.30037 13.0831L1.29057 13.0733ZM33.9501 15.4951H34.2246C34.4403 14.6911 34.607 13.9263 34.705 13.1811V13.0831L32.3813 11.7791L33.9403 15.4951H33.9501ZM27.3809 15.0048L31.1949 11.0927L27.3809 8.9357V14.995V15.0048ZM4.83007 11.0927L8.6441 14.995V8.9357L4.83007 11.0927ZM32.1362 10.877L34.8031 12.3575L34.8227 12.132C34.9109 10.9555 34.8423 9.80832 34.6364 8.7298C34.5089 8.07289 34.3128 7.43558 34.0481 6.77867L33.9108 6.4355L32.1362 10.877ZM1.9867 6.77867C1.72198 7.42578 1.52588 8.07289 1.39842 8.74941C1.19252 9.79852 1.12389 10.9359 1.21213 12.132L1.23174 12.3673L3.90843 10.877L2.13377 6.4355L1.99651 6.77867H1.9867ZM2.57499 5.808L4.46729 10.5535L8.6441 8.19054V3.41565L2.56518 5.808H2.57499ZM27.3809 8.19054L31.4204 10.475L31.342 10.3476L31.6263 10.4064L33.4598 5.8178L27.3809 3.42546V8.20035V8.19054ZM15.4584 7.10222L17.684 8.7298V6.60218L15.4584 7.10222ZM18.341 8.7298L20.5666 7.10222L18.341 6.60218V8.7298ZM26.5083 3.7196L22.1354 6.78847L26.7436 7.95523V3.57253L26.5083 3.7294V3.7196ZM9.29121 7.96503L9.4775 7.92582L13.8994 6.79827L9.29121 3.56272V7.96503ZM23.9885 1.52334C21.2333 2.4842 19.3508 4.82753 18.6743 5.79819L18.5469 5.97468L21.2824 6.58257L26.4593 2.95483L24.0473 1.50373L23.9787 1.52334H23.9885ZM9.57555 2.95483L14.7524 6.58257L17.3899 5.99429V5.87663C16.5075 4.59222 14.6936 2.44498 12.0463 1.52334L11.9777 1.50373L9.56574 2.95483H9.57555ZM5.79093 2.00377C5.7321 2.03319 4.40847 2.84698 3.18288 4.58241L2.89854 4.9844L8.27152 2.86659L6.50667 1.69983L6.43804 1.72924C6.23214 1.80768 6.01644 1.89592 5.81054 1.99397L5.86937 2.2783L5.80073 2.00377H5.79093ZM27.7731 2.86659L32.7735 4.83733L32.9304 4.68046L32.8617 4.57261C31.6558 2.87639 30.3615 2.0626 30.2145 1.98416C30.0086 1.88612 29.8027 1.79787 29.6066 1.71944L29.5379 1.69002L27.7731 2.85678V2.86659ZM9.54613 1.10174C8.91863 1.10174 8.26172 1.18018 7.595 1.34686L7.27144 1.42529L8.96766 2.55284L11.1051 1.26842L10.7129 1.19979C10.3011 1.13115 9.92852 1.10174 9.54613 1.10174ZM26.4789 1.10174C26.0965 1.10174 25.7141 1.13115 25.3023 1.19979L24.9101 1.26842L27.0475 2.56264L28.5379 1.58217V1.38608L28.43 1.35666C27.7731 1.18998 27.1162 1.11154 26.4789 1.11154V1.10174Z" fill="#D200FF"/>
<path d="M17.8899 34.526L17.8507 34.5064L17.7723 34.477C17.7723 34.477 8.93824 29.0942 6.92828 26.4371C3.33975 21.6818 1.23174 17.2501 0.663067 13.289V13.24L0.614044 13.2007C0.58463 13.1713 0.56502 13.1517 0.545411 13.1125C0.496387 13.0145 0.506192 12.887 0.56502 12.7791C0.437559 11.2594 0.496387 9.88676 0.75131 8.60234C1.75139 3.62155 5.34972 1.51354 5.49679 1.42529C6.85964 0.778184 8.2323 0.444824 9.54613 0.444824C10.3697 0.444824 11.1835 0.572285 12.0169 0.827208C15.1054 1.79787 17.1546 4.3569 17.8899 5.41581L18.0076 5.5923L18.1253 5.41581C18.8606 4.3569 20.9098 1.79787 23.9983 0.827208C24.8121 0.572285 25.6357 0.444824 26.4691 0.444824C27.7829 0.444824 29.1457 0.76838 30.489 1.40569C30.6361 1.48412 34.2638 3.63135 35.2541 8.61215C35.509 9.90637 35.5678 11.2888 35.4208 12.7007C35.509 12.8968 35.5188 13.0243 35.46 13.1321L35.4208 13.1713L35.3423 13.2988C34.7835 17.2599 32.6754 21.6916 29.0771 26.4567C27.0671 29.1138 18.2527 34.4574 18.1645 34.5162L18.0664 34.5554L17.8801 34.5358L17.8899 34.526ZM15.4486 29.4668L18.0076 33.5847L20.5666 29.4668L18.0076 26.4665L15.4486 29.4668ZM13.7033 31.0551L13.8602 31.163C14.8113 31.8003 15.7231 32.3886 16.4486 32.8494L16.6545 32.6435L14.7917 29.6432V30.0943L13.7033 31.0453V31.0551ZM19.3704 32.6435L19.5763 32.8494C20.3117 32.3788 21.2137 31.8003 22.1648 31.163L22.3217 31.0551L21.0471 29.9472L19.3606 32.6533L19.3704 32.6435ZM21.6157 29.5746L22.8903 30.6923L22.9884 30.5943C24.1944 29.7609 25.2435 29.0059 26.0867 28.349L25.9494 28.0941L21.6157 29.5746ZM9.92852 28.349C10.7815 29.0157 11.8306 29.7805 13.0464 30.6139L13.1445 30.6825L14.3995 29.5746L10.0658 28.0941L9.92852 28.349ZM8.14406 26.741L14.5367 28.9275L12.3601 21.7308L12.2424 21.8485L7.34007 20.8582L8.14406 26.7312V26.741ZM23.5571 21.9662L21.4589 28.9275L27.8515 26.741L28.6555 20.868L23.7532 21.8583L23.6355 21.7406L23.5571 21.9662ZM15.1642 28.7804L17.5272 26.0155L13.2817 22.5348L15.174 28.7804H15.1642ZM18.4586 26.0155L20.8215 28.7706L22.7139 22.525L18.4684 26.0057L18.4586 26.0155ZM29.3516 20.6425L28.6751 25.5645H28.9202L28.9693 25.5057C30.8518 22.9368 32.3029 20.4758 33.2735 18.1717L33.4794 17.6913L29.3516 20.6425ZM9.30102 8.65137V15.6813L12.9091 21.3583L18.0174 25.5449L23.0962 21.3877L26.7142 15.75L26.7338 8.64156L21.4196 7.29831L18.2037 9.64164H18.1743L18.1253 9.69066C18.1253 9.69066 18.0468 9.69066 18.0174 9.69066C17.9782 9.69066 17.939 9.68086 17.8899 9.66125L14.625 7.29831L9.31082 8.64156L9.30102 8.65137ZM2.75147 18.1619C3.72214 20.466 5.17323 22.9368 7.05574 25.4959L7.32046 25.388L6.66355 20.6327L2.54557 17.6815L2.75147 18.1619ZM7.42832 20.2013L11.9777 21.123L9.01668 16.5049L7.41851 20.2013H7.42832ZM24.0375 21.123L28.5869 20.2013L26.9887 16.5049L24.0277 21.123H24.0375ZM2.28084 16.6814L6.83023 19.9464L8.58527 15.8872L4.41827 11.6124L2.29065 16.6814H2.28084ZM27.4495 15.8872L29.2046 19.9464L33.7638 16.6814L31.6361 11.6124L27.4593 15.8872H27.4495ZM1.29057 13.0733V13.1713C1.40823 13.9165 1.57491 14.6911 1.79061 15.4656L1.90827 15.8774L3.63389 11.7791L1.30037 13.0831L1.29057 13.0733ZM33.9501 15.4951H34.2246C34.4403 14.6911 34.607 13.9263 34.705 13.1811V13.0831L32.3813 11.7791L33.9403 15.4951H33.9501ZM27.3809 15.0048L31.1949 11.0927L27.3809 8.9357V14.995V15.0048ZM4.83007 11.0927L8.6441 14.995V8.9357L4.83007 11.0927ZM32.1362 10.877L34.8031 12.3575L34.8227 12.132C34.9109 10.9555 34.8423 9.80832 34.6364 8.7298C34.5089 8.07289 34.3128 7.43558 34.0481 6.77867L33.9108 6.4355L32.1362 10.877ZM1.9867 6.77867C1.72198 7.42578 1.52588 8.07289 1.39842 8.74941C1.19252 9.79852 1.12389 10.9359 1.21213 12.132L1.23174 12.3673L3.90843 10.877L2.13377 6.4355L1.99651 6.77867H1.9867ZM2.57499 5.808L4.46729 10.5535L8.6441 8.19054V3.41565L2.56518 5.808H2.57499ZM27.3809 8.19054L31.4204 10.475L31.342 10.3476L31.6263 10.4064L33.4598 5.8178L27.3809 3.42546V8.20035V8.19054ZM15.4584 7.10222L17.684 8.7298V6.60218L15.4584 7.10222ZM18.341 8.7298L20.5666 7.10222L18.341 6.60218V8.7298ZM26.5083 3.7196L22.1354 6.78847L26.7436 7.95523V3.57253L26.5083 3.7294V3.7196ZM9.29121 7.96503L9.4775 7.92582L13.8994 6.79827L9.29121 3.56272V7.96503ZM23.9885 1.52334C21.2333 2.4842 19.3508 4.82753 18.6743 5.79819L18.5469 5.97468L21.2824 6.58257L26.4593 2.95483L24.0473 1.50373L23.9787 1.52334H23.9885ZM9.57555 2.95483L14.7524 6.58257L17.3899 5.99429V5.87663C16.5075 4.59222 14.6936 2.44498 12.0463 1.52334L11.9777 1.50373L9.56574 2.95483H9.57555ZM5.79093 2.00377C5.7321 2.03319 4.40847 2.84698 3.18288 4.58241L2.89854 4.9844L8.27152 2.86659L6.50667 1.69983L6.43804 1.72924C6.23214 1.80768 6.01644 1.89592 5.81054 1.99397L5.86937 2.2783L5.80073 2.00377H5.79093ZM27.7731 2.86659L32.7735 4.83733L32.9304 4.68046L32.8617 4.57261C31.6558 2.87639 30.3615 2.0626 30.2145 1.98416C30.0086 1.88612 29.8027 1.79787 29.6066 1.71944L29.5379 1.69002L27.7731 2.85678V2.86659ZM9.54613 1.10174C8.91863 1.10174 8.26172 1.18018 7.595 1.34686L7.27144 1.42529L8.96766 2.55284L11.1051 1.26842L10.7129 1.19979C10.3011 1.13115 9.92852 1.10174 9.54613 1.10174ZM26.4789 1.10174C26.0965 1.10174 25.7141 1.13115 25.3023 1.19979L24.9101 1.26842L27.0475 2.56264L28.5379 1.58217V1.38608L28.43 1.35666C27.7731 1.18998 27.1162 1.11154 26.4789 1.11154V1.10174Z" stroke="#D200FF" stroke-width="0.5" mask="url(#path-1-outside-1_1072_210)"/>
</g>
<defs>
<clipPath id="clip0_1072_210">
<rect width="35" height="35" fill="white" transform="translate(0.5)"/>
</clipPath>
</defs>
</svg>
