<svg width="36" height="35" viewBox="0 0 36 35" fill="none" xmlns="http://www.w3.org/2000/svg">
<g clip-path="url(#clip0_1573_30869)">
<path d="M0.466638 26.4736L0.468344 26.4745L17.6053 35.0716C17.6057 35.0718 17.606 35.072 17.6064 35.0722C17.6854 35.1131 17.7629 35.125 17.8438 35.125C17.8953 35.125 17.9542 35.1112 17.9917 35.1012C18.0123 35.0957 18.0304 35.0902 18.0433 35.0861L18.0589 35.0811L18.0634 35.0796L18.0647 35.0791L18.0652 35.079L18.0653 35.0789L18.0654 35.0789L18.0244 34.9608L18.0654 35.0789L18.0731 35.0762L18.0804 35.0725L35.2304 26.4745L35.2322 26.4736C35.3764 26.3984 35.48 26.2627 35.48 26.098V8.90196C35.48 8.73726 35.3764 8.60156 35.2322 8.52639L35.2304 8.52551L18.0822 -0.0716406C18.0818 -0.0718101 18.0815 -0.071979 18.0812 -0.0721475C18.0021 -0.113105 17.9246 -0.125 17.8438 -0.125C17.7922 -0.125 17.7333 -0.111174 17.6958 -0.101156C17.6752 -0.0956595 17.6571 -0.0901993 17.6442 -0.0861105L17.6286 -0.0810643L17.6241 -0.0795522L17.6228 -0.0790982L17.6223 -0.0789528L17.6222 -0.0789013L17.6221 -0.078881L17.6221 -0.0788721L17.6631 0.0392157L17.6221 -0.0788642L17.6144 -0.0761805L17.6071 -0.0725128L0.468344 8.52553L0.468337 8.52551L0.466638 8.5264C0.322377 8.60156 0.21875 8.73726 0.21875 8.90196V26.098C0.21875 26.2627 0.322377 26.3984 0.466638 26.4736ZM34.0035 26.0981L18.3188 33.9641V27.3125L27.3728 22.7771L34.0035 26.0981ZM17.3687 27.3125V33.9641L1.68402 26.0981L8.31471 22.7771L17.3687 27.3125ZM17.8438 26.5661L8.78972 22.0307V12.9792L17.8438 8.44373L26.8978 12.9792V22.0307L17.8438 26.5661ZM34.5187 25.3662L27.8591 22.0306V12.9694L34.5187 9.63378V25.3662ZM7.82843 22.0306L1.16875 25.3662V9.63404L7.82843 12.9791V22.0306ZM34.0035 8.90189L27.3728 12.2229L18.3188 7.68752V1.03586L34.0035 8.90189ZM17.3687 7.68752L8.31471 12.2229L1.68402 8.90189L17.3687 1.03586V7.68752Z" fill="#D200FF" stroke="#D200FF" stroke-width="0.25"/>
</g>
<defs>
<clipPath id="clip0_1573_30869">
<rect width="35" height="35" fill="white" transform="translate(0.5)"/>
</clipPath>
</defs>
</svg>
