<svg width="36" height="37" viewBox="0 0 36 37" fill="none" xmlns="http://www.w3.org/2000/svg">
<mask id="path-1-outside-1_1573_14927" maskUnits="userSpaceOnUse" x="-0.636719" y="0" width="37" height="37" fill="black">
<rect fill="white" x="-0.636719" width="37" height="37"/>
<path d="M0.598376 18.9285L10.421 25.6936L16.9794 35.7528C16.9918 35.7722 17.0062 35.7906 17.0226 35.8069C17.141 35.9285 17.3026 35.998 17.4735 36H17.4807C17.6485 36 17.8091 35.9346 17.9275 35.8182C17.944 35.8018 17.9594 35.7845 17.9718 35.7651L24.8287 25.7702L35.1217 18.9377C35.1403 18.9255 35.1588 18.9112 35.1742 18.8948C35.4244 18.6497 35.4264 18.2493 35.1794 18.0011C35.1773 17.999 35.1753 17.997 35.1732 17.9949C35.1567 17.9786 35.1382 17.9643 35.1176 17.951L24.7195 11.1972L17.9718 1.23606C17.9584 1.21563 17.9429 1.19724 17.9254 1.1809C17.805 1.06241 17.6423 0.997039 17.4725 1.0001C17.3037 1.00112 17.142 1.07058 17.0237 1.19111C17.0072 1.20848 16.9918 1.22687 16.9794 1.24628L10.5147 11.2023L0.599406 17.9592C0.579847 17.9725 0.561315 17.9878 0.544844 18.0041C0.302933 18.2483 0.302932 18.6385 0.543814 18.8836C0.560285 18.8999 0.577787 18.9153 0.597345 18.9285H0.598376ZM10.6434 24.9776L6.15205 21.8846L8.81616 19.14L10.876 24.7488L10.6423 24.9786L10.6434 24.9776ZM13.1922 18.8284L14.1732 21.4995L11.4391 24.1921L9.4647 18.8162L13.1912 18.8274L13.1922 18.8284ZM9.49352 18.1032L11.6234 12.7805L14.2803 15.378L13.1963 18.1145L9.49352 18.1032ZM11.1457 25.4893L11.3969 25.2421L17.0515 27.6742L14.5768 30.7508L11.1457 25.4893ZM17.1194 34.6507L14.9896 31.3841L17.2697 28.5496L17.1204 34.6507H17.1194ZM17.3067 27.0062L11.9466 24.7008L14.6643 22.0235L17.3994 23.2002L17.3057 27.0062H17.3067ZM17.8379 34.6895L17.9851 28.6854L19.8978 31.6864L17.8379 34.6895ZM23.8373 12.6548L26.1854 18.1104L22.5382 18.1083L21.3451 15.3361L23.8373 12.6558V12.6548ZM20.8253 14.8407L18.121 13.7856L18.0428 10.1451L23.2897 12.1901L20.8253 14.8407ZM26.1988 18.8244L23.9084 24.2789L21.375 21.571L22.53 18.8213L26.1988 18.8233V18.8244ZM23.3998 24.7855L18.0263 27L18.119 23.2115L20.8665 22.0787L23.3988 24.7855H23.3998ZM20.3394 31.0439L18.2075 27.6987L23.9217 25.3432L24.1101 25.5455L20.3384 31.0439H20.3394ZM24.6248 25.045L24.4468 24.854L26.8453 19.1431L29.3941 21.8795L24.6259 25.045H24.6248ZM29.9984 21.4781L27.5278 18.8254L33.9873 18.8295L29.9973 21.4781H29.9984ZM34.0573 18.1155L27.6112 18.1114L30.2218 15.6242L34.0573 18.1155ZM24.5198 11.9204L29.6041 15.2227L26.8535 17.8428L24.3726 12.0797L24.5209 11.9204H24.5198ZM24.0041 11.4209L23.8126 11.6272L18.2085 9.44237L20.3394 6.01132L24.0041 11.4209ZM19.8988 5.36066L18.0047 8.40968L17.875 2.37293L19.8988 5.36066ZM17.77 14.4158L20.6493 15.5394L21.9041 18.4536L20.6729 21.3851L17.769 22.5823L14.8784 21.3381L13.8263 18.473L14.9792 15.5608L17.769 14.4158H17.77ZM17.4004 13.7948L14.7826 14.8693L12.1144 12.2616L17.3201 10.1227L17.3994 13.7948H17.4004ZM17.1523 2.29836L17.2872 8.55779L14.9906 5.62828L17.1523 2.29836ZM14.5778 6.26464L17.0762 9.45156L11.5585 11.7182L11.2394 11.4066L14.5778 6.26566V6.26464ZM10.737 11.9184L11.0644 12.2391L8.82441 17.8366L5.93999 15.187L10.737 11.9184ZM5.33161 15.6017L8.05338 18.1022L1.69058 18.0838L5.33161 15.6027V15.6017ZM8.1316 18.8162L5.5519 21.473L1.66587 18.7968L8.1316 18.8152V18.8162Z"/>
</mask>
<path d="M0.598376 18.9285L10.421 25.6936L16.9794 35.7528C16.9918 35.7722 17.0062 35.7906 17.0226 35.8069C17.141 35.9285 17.3026 35.998 17.4735 36H17.4807C17.6485 36 17.8091 35.9346 17.9275 35.8182C17.944 35.8018 17.9594 35.7845 17.9718 35.7651L24.8287 25.7702L35.1217 18.9377C35.1403 18.9255 35.1588 18.9112 35.1742 18.8948C35.4244 18.6497 35.4264 18.2493 35.1794 18.0011C35.1773 17.999 35.1753 17.997 35.1732 17.9949C35.1567 17.9786 35.1382 17.9643 35.1176 17.951L24.7195 11.1972L17.9718 1.23606C17.9584 1.21563 17.9429 1.19724 17.9254 1.1809C17.805 1.06241 17.6423 0.997039 17.4725 1.0001C17.3037 1.00112 17.142 1.07058 17.0237 1.19111C17.0072 1.20848 16.9918 1.22687 16.9794 1.24628L10.5147 11.2023L0.599406 17.9592C0.579847 17.9725 0.561315 17.9878 0.544844 18.0041C0.302933 18.2483 0.302932 18.6385 0.543814 18.8836C0.560285 18.8999 0.577787 18.9153 0.597345 18.9285H0.598376ZM10.6434 24.9776L6.15205 21.8846L8.81616 19.14L10.876 24.7488L10.6423 24.9786L10.6434 24.9776ZM13.1922 18.8284L14.1732 21.4995L11.4391 24.1921L9.4647 18.8162L13.1912 18.8274L13.1922 18.8284ZM9.49352 18.1032L11.6234 12.7805L14.2803 15.378L13.1963 18.1145L9.49352 18.1032ZM11.1457 25.4893L11.3969 25.2421L17.0515 27.6742L14.5768 30.7508L11.1457 25.4893ZM17.1194 34.6507L14.9896 31.3841L17.2697 28.5496L17.1204 34.6507H17.1194ZM17.3067 27.0062L11.9466 24.7008L14.6643 22.0235L17.3994 23.2002L17.3057 27.0062H17.3067ZM17.8379 34.6895L17.9851 28.6854L19.8978 31.6864L17.8379 34.6895ZM23.8373 12.6548L26.1854 18.1104L22.5382 18.1083L21.3451 15.3361L23.8373 12.6558V12.6548ZM20.8253 14.8407L18.121 13.7856L18.0428 10.1451L23.2897 12.1901L20.8253 14.8407ZM26.1988 18.8244L23.9084 24.2789L21.375 21.571L22.53 18.8213L26.1988 18.8233V18.8244ZM23.3998 24.7855L18.0263 27L18.119 23.2115L20.8665 22.0787L23.3988 24.7855H23.3998ZM20.3394 31.0439L18.2075 27.6987L23.9217 25.3432L24.1101 25.5455L20.3384 31.0439H20.3394ZM24.6248 25.045L24.4468 24.854L26.8453 19.1431L29.3941 21.8795L24.6259 25.045H24.6248ZM29.9984 21.4781L27.5278 18.8254L33.9873 18.8295L29.9973 21.4781H29.9984ZM34.0573 18.1155L27.6112 18.1114L30.2218 15.6242L34.0573 18.1155ZM24.5198 11.9204L29.6041 15.2227L26.8535 17.8428L24.3726 12.0797L24.5209 11.9204H24.5198ZM24.0041 11.4209L23.8126 11.6272L18.2085 9.44237L20.3394 6.01132L24.0041 11.4209ZM19.8988 5.36066L18.0047 8.40968L17.875 2.37293L19.8988 5.36066ZM17.77 14.4158L20.6493 15.5394L21.9041 18.4536L20.6729 21.3851L17.769 22.5823L14.8784 21.3381L13.8263 18.473L14.9792 15.5608L17.769 14.4158H17.77ZM17.4004 13.7948L14.7826 14.8693L12.1144 12.2616L17.3201 10.1227L17.3994 13.7948H17.4004ZM17.1523 2.29836L17.2872 8.55779L14.9906 5.62828L17.1523 2.29836ZM14.5778 6.26464L17.0762 9.45156L11.5585 11.7182L11.2394 11.4066L14.5778 6.26566V6.26464ZM10.737 11.9184L11.0644 12.2391L8.82441 17.8366L5.93999 15.187L10.737 11.9184ZM5.33161 15.6017L8.05338 18.1022L1.69058 18.0838L5.33161 15.6027V15.6017ZM8.1316 18.8162L5.5519 21.473L1.66587 18.7968L8.1316 18.8152V18.8162Z" fill="#D200FF"/>
<path d="M0.598376 18.9285L10.421 25.6936L16.9794 35.7528C16.9918 35.7722 17.0062 35.7906 17.0226 35.8069C17.141 35.9285 17.3026 35.998 17.4735 36H17.4807C17.6485 36 17.8091 35.9346 17.9275 35.8182C17.944 35.8018 17.9594 35.7845 17.9718 35.7651L24.8287 25.7702L35.1217 18.9377C35.1403 18.9255 35.1588 18.9112 35.1742 18.8948C35.4244 18.6497 35.4264 18.2493 35.1794 18.0011C35.1773 17.999 35.1753 17.997 35.1732 17.9949C35.1567 17.9786 35.1382 17.9643 35.1176 17.951L24.7195 11.1972L17.9718 1.23606C17.9584 1.21563 17.9429 1.19724 17.9254 1.1809C17.805 1.06241 17.6423 0.997039 17.4725 1.0001C17.3037 1.00112 17.142 1.07058 17.0237 1.19111C17.0072 1.20848 16.9918 1.22687 16.9794 1.24628L10.5147 11.2023L0.599406 17.9592C0.579847 17.9725 0.561315 17.9878 0.544844 18.0041C0.302933 18.2483 0.302932 18.6385 0.543814 18.8836C0.560285 18.8999 0.577787 18.9153 0.597345 18.9285H0.598376ZM10.6434 24.9776L6.15205 21.8846L8.81616 19.14L10.876 24.7488L10.6423 24.9786L10.6434 24.9776ZM13.1922 18.8284L14.1732 21.4995L11.4391 24.1921L9.4647 18.8162L13.1912 18.8274L13.1922 18.8284ZM9.49352 18.1032L11.6234 12.7805L14.2803 15.378L13.1963 18.1145L9.49352 18.1032ZM11.1457 25.4893L11.3969 25.2421L17.0515 27.6742L14.5768 30.7508L11.1457 25.4893ZM17.1194 34.6507L14.9896 31.3841L17.2697 28.5496L17.1204 34.6507H17.1194ZM17.3067 27.0062L11.9466 24.7008L14.6643 22.0235L17.3994 23.2002L17.3057 27.0062H17.3067ZM17.8379 34.6895L17.9851 28.6854L19.8978 31.6864L17.8379 34.6895ZM23.8373 12.6548L26.1854 18.1104L22.5382 18.1083L21.3451 15.3361L23.8373 12.6558V12.6548ZM20.8253 14.8407L18.121 13.7856L18.0428 10.1451L23.2897 12.1901L20.8253 14.8407ZM26.1988 18.8244L23.9084 24.2789L21.375 21.571L22.53 18.8213L26.1988 18.8233V18.8244ZM23.3998 24.7855L18.0263 27L18.119 23.2115L20.8665 22.0787L23.3988 24.7855H23.3998ZM20.3394 31.0439L18.2075 27.6987L23.9217 25.3432L24.1101 25.5455L20.3384 31.0439H20.3394ZM24.6248 25.045L24.4468 24.854L26.8453 19.1431L29.3941 21.8795L24.6259 25.045H24.6248ZM29.9984 21.4781L27.5278 18.8254L33.9873 18.8295L29.9973 21.4781H29.9984ZM34.0573 18.1155L27.6112 18.1114L30.2218 15.6242L34.0573 18.1155ZM24.5198 11.9204L29.6041 15.2227L26.8535 17.8428L24.3726 12.0797L24.5209 11.9204H24.5198ZM24.0041 11.4209L23.8126 11.6272L18.2085 9.44237L20.3394 6.01132L24.0041 11.4209ZM19.8988 5.36066L18.0047 8.40968L17.875 2.37293L19.8988 5.36066ZM17.77 14.4158L20.6493 15.5394L21.9041 18.4536L20.6729 21.3851L17.769 22.5823L14.8784 21.3381L13.8263 18.473L14.9792 15.5608L17.769 14.4158H17.77ZM17.4004 13.7948L14.7826 14.8693L12.1144 12.2616L17.3201 10.1227L17.3994 13.7948H17.4004ZM17.1523 2.29836L17.2872 8.55779L14.9906 5.62828L17.1523 2.29836ZM14.5778 6.26464L17.0762 9.45156L11.5585 11.7182L11.2394 11.4066L14.5778 6.26566V6.26464ZM10.737 11.9184L11.0644 12.2391L8.82441 17.8366L5.93999 15.187L10.737 11.9184ZM5.33161 15.6017L8.05338 18.1022L1.69058 18.0838L5.33161 15.6027V15.6017ZM8.1316 18.8162L5.5519 21.473L1.66587 18.7968L8.1316 18.8152V18.8162Z" stroke="#D200FF" stroke-width="0.5" mask="url(#path-1-outside-1_1573_14927)"/>
</svg>
