<svg width="36" height="37" viewBox="0 0 36 37" fill="none" xmlns="http://www.w3.org/2000/svg">
<mask id="path-1-outside-1_1072_233" maskUnits="userSpaceOnUse" x="6.41211" y="0" width="23" height="37" fill="black">
<rect fill="white" x="6.41211" width="23" height="37"/>
<path d="M18.2867 1.09269C18.1111 0.969102 17.8875 0.969102 17.7119 1.09269C17.0257 1.57992 14.6049 3.39193 12.2539 6.26725C9.16142 10.0496 7.53462 13.9944 7.41875 17.9922C7.2395 24.1484 10.6923 30.1676 17.682 35.8836C17.8712 36.0388 18.1274 36.0388 18.3175 35.8836C25.3072 30.1687 28.76 24.1484 28.5808 17.9922C28.4649 13.9954 26.8372 10.0496 23.7456 6.26725C21.3955 3.39193 18.9739 1.57992 18.2876 1.09269H18.2867ZM22.0446 5.34694L20.5717 7.37346L18.791 2.33373C19.938 3.24893 21.0261 4.25504 22.0446 5.34694ZM15.3455 18.4978L13.2289 21.3057L12.2512 18.4999L13.2126 15.743L15.3446 18.4978H15.3455ZM13.4742 14.9943L15.6053 8.88722L17.5181 11.3866L15.5202 17.6388L13.4742 14.9954V14.9943ZM15.5156 19.3742L17.4131 25.753L15.6931 28.3781L13.4914 22.0595L15.5156 19.3742ZM15.9792 18.6878C16.0145 18.5642 16.0145 18.4304 15.9792 18.3068L17.9979 11.9883L20.0231 18.3068C19.9887 18.4274 19.9878 18.5581 20.0213 18.6786L17.8893 25.1116L15.9792 18.6868V18.6878ZM20.4739 19.3558L22.5479 22.1076L20.3164 28.4322L18.3564 25.7428L20.473 19.3558H20.4739ZM20.6586 18.4978L22.8295 15.693L23.8208 18.4999L22.8123 21.3568L20.6577 18.4978H20.6586ZM20.483 17.6388L18.4777 11.3805L20.3807 8.7626L22.566 14.9473L20.483 17.6388ZM17.9997 2.02526L20.1127 8.00368L17.9961 10.9158L15.8678 8.13544L17.9997 2.02424V2.02526ZM17.214 2.32862L15.4007 7.52565L13.8327 5.47769C14.8883 4.33369 16.019 3.28162 17.214 2.32862ZM13.3801 5.97921L15.1381 8.2764L13.0053 14.3886L10.1093 10.6471C11.0598 8.85861 12.2294 7.28868 13.3801 5.98023V5.97921ZM8.05064 18.0147C8.12215 15.5633 8.80112 13.3069 9.77612 11.3009L12.7446 15.1363L11.6962 18.1414H8.04882C8.04882 18.0995 8.04973 18.0576 8.05154 18.0147H8.05064ZM8.05064 18.8553H11.6962L12.7645 21.9217L9.87569 25.753C8.72597 23.4753 8.11763 21.176 8.05064 18.8553ZM10.2179 26.4016L13.027 22.6755L15.2495 29.0553L13.7829 31.2933C12.3136 29.6784 11.125 28.0482 10.2179 26.4016ZM14.2446 31.7897L15.5229 29.8387L17.1678 34.5608C16.153 33.6926 15.1771 32.7682 14.2446 31.7897ZM18.0007 34.998L15.9665 29.1615L17.8902 26.2249L20.0493 29.1891L18.0007 34.998ZM18.838 34.5547L20.5092 29.8193L21.8617 31.6763C20.8994 32.6947 19.89 33.6558 18.838 34.5547ZM22.3189 31.1778L20.7763 29.0604L23.0132 22.7214L25.7834 26.3965C24.898 28.0043 23.7429 29.5987 22.3189 31.1778ZM26.1247 25.7479L23.2776 21.9707L24.3766 18.8543H27.9471C27.8828 21.1699 27.2753 23.4681 26.1247 25.7479ZM27.9471 18.0137C27.948 18.0556 27.9489 18.0974 27.9498 18.1403H24.3766L23.2975 15.0863L26.2243 11.3049C27.1975 13.31 27.8765 15.5653 27.9471 18.0137ZM23.0341 14.3406L20.8396 8.12931L22.5008 5.84438C23.6895 7.17938 24.9089 8.79835 25.8921 10.6492L23.035 14.3406H23.0341Z"/>
</mask>
<path d="M18.2867 1.09269C18.1111 0.969102 17.8875 0.969102 17.7119 1.09269C17.0257 1.57992 14.6049 3.39193 12.2539 6.26725C9.16142 10.0496 7.53462 13.9944 7.41875 17.9922C7.2395 24.1484 10.6923 30.1676 17.682 35.8836C17.8712 36.0388 18.1274 36.0388 18.3175 35.8836C25.3072 30.1687 28.76 24.1484 28.5808 17.9922C28.4649 13.9954 26.8372 10.0496 23.7456 6.26725C21.3955 3.39193 18.9739 1.57992 18.2876 1.09269H18.2867ZM22.0446 5.34694L20.5717 7.37346L18.791 2.33373C19.938 3.24893 21.0261 4.25504 22.0446 5.34694ZM15.3455 18.4978L13.2289 21.3057L12.2512 18.4999L13.2126 15.743L15.3446 18.4978H15.3455ZM13.4742 14.9943L15.6053 8.88722L17.5181 11.3866L15.5202 17.6388L13.4742 14.9954V14.9943ZM15.5156 19.3742L17.4131 25.753L15.6931 28.3781L13.4914 22.0595L15.5156 19.3742ZM15.9792 18.6878C16.0145 18.5642 16.0145 18.4304 15.9792 18.3068L17.9979 11.9883L20.0231 18.3068C19.9887 18.4274 19.9878 18.5581 20.0213 18.6786L17.8893 25.1116L15.9792 18.6868V18.6878ZM20.4739 19.3558L22.5479 22.1076L20.3164 28.4322L18.3564 25.7428L20.473 19.3558H20.4739ZM20.6586 18.4978L22.8295 15.693L23.8208 18.4999L22.8123 21.3568L20.6577 18.4978H20.6586ZM20.483 17.6388L18.4777 11.3805L20.3807 8.7626L22.566 14.9473L20.483 17.6388ZM17.9997 2.02526L20.1127 8.00368L17.9961 10.9158L15.8678 8.13544L17.9997 2.02424V2.02526ZM17.214 2.32862L15.4007 7.52565L13.8327 5.47769C14.8883 4.33369 16.019 3.28162 17.214 2.32862ZM13.3801 5.97921L15.1381 8.2764L13.0053 14.3886L10.1093 10.6471C11.0598 8.85861 12.2294 7.28868 13.3801 5.98023V5.97921ZM8.05064 18.0147C8.12215 15.5633 8.80112 13.3069 9.77612 11.3009L12.7446 15.1363L11.6962 18.1414H8.04882C8.04882 18.0995 8.04973 18.0576 8.05154 18.0147H8.05064ZM8.05064 18.8553H11.6962L12.7645 21.9217L9.87569 25.753C8.72597 23.4753 8.11763 21.176 8.05064 18.8553ZM10.2179 26.4016L13.027 22.6755L15.2495 29.0553L13.7829 31.2933C12.3136 29.6784 11.125 28.0482 10.2179 26.4016ZM14.2446 31.7897L15.5229 29.8387L17.1678 34.5608C16.153 33.6926 15.1771 32.7682 14.2446 31.7897ZM18.0007 34.998L15.9665 29.1615L17.8902 26.2249L20.0493 29.1891L18.0007 34.998ZM18.838 34.5547L20.5092 29.8193L21.8617 31.6763C20.8994 32.6947 19.89 33.6558 18.838 34.5547ZM22.3189 31.1778L20.7763 29.0604L23.0132 22.7214L25.7834 26.3965C24.898 28.0043 23.7429 29.5987 22.3189 31.1778ZM26.1247 25.7479L23.2776 21.9707L24.3766 18.8543H27.9471C27.8828 21.1699 27.2753 23.4681 26.1247 25.7479ZM27.9471 18.0137C27.948 18.0556 27.9489 18.0974 27.9498 18.1403H24.3766L23.2975 15.0863L26.2243 11.3049C27.1975 13.31 27.8765 15.5653 27.9471 18.0137ZM23.0341 14.3406L20.8396 8.12931L22.5008 5.84438C23.6895 7.17938 24.9089 8.79835 25.8921 10.6492L23.035 14.3406H23.0341Z" fill="#D200FF"/>
<path d="M18.2867 1.09269C18.1111 0.969102 17.8875 0.969102 17.7119 1.09269C17.0257 1.57992 14.6049 3.39193 12.2539 6.26725C9.16142 10.0496 7.53462 13.9944 7.41875 17.9922C7.2395 24.1484 10.6923 30.1676 17.682 35.8836C17.8712 36.0388 18.1274 36.0388 18.3175 35.8836C25.3072 30.1687 28.76 24.1484 28.5808 17.9922C28.4649 13.9954 26.8372 10.0496 23.7456 6.26725C21.3955 3.39193 18.9739 1.57992 18.2876 1.09269H18.2867ZM22.0446 5.34694L20.5717 7.37346L18.791 2.33373C19.938 3.24893 21.0261 4.25504 22.0446 5.34694ZM15.3455 18.4978L13.2289 21.3057L12.2512 18.4999L13.2126 15.743L15.3446 18.4978H15.3455ZM13.4742 14.9943L15.6053 8.88722L17.5181 11.3866L15.5202 17.6388L13.4742 14.9954V14.9943ZM15.5156 19.3742L17.4131 25.753L15.6931 28.3781L13.4914 22.0595L15.5156 19.3742ZM15.9792 18.6878C16.0145 18.5642 16.0145 18.4304 15.9792 18.3068L17.9979 11.9883L20.0231 18.3068C19.9887 18.4274 19.9878 18.5581 20.0213 18.6786L17.8893 25.1116L15.9792 18.6868V18.6878ZM20.4739 19.3558L22.5479 22.1076L20.3164 28.4322L18.3564 25.7428L20.473 19.3558H20.4739ZM20.6586 18.4978L22.8295 15.693L23.8208 18.4999L22.8123 21.3568L20.6577 18.4978H20.6586ZM20.483 17.6388L18.4777 11.3805L20.3807 8.7626L22.566 14.9473L20.483 17.6388ZM17.9997 2.02526L20.1127 8.00368L17.9961 10.9158L15.8678 8.13544L17.9997 2.02424V2.02526ZM17.214 2.32862L15.4007 7.52565L13.8327 5.47769C14.8883 4.33369 16.019 3.28162 17.214 2.32862ZM13.3801 5.97921L15.1381 8.2764L13.0053 14.3886L10.1093 10.6471C11.0598 8.85861 12.2294 7.28868 13.3801 5.98023V5.97921ZM8.05064 18.0147C8.12215 15.5633 8.80112 13.3069 9.77612 11.3009L12.7446 15.1363L11.6962 18.1414H8.04882C8.04882 18.0995 8.04973 18.0576 8.05154 18.0147H8.05064ZM8.05064 18.8553H11.6962L12.7645 21.9217L9.87569 25.753C8.72597 23.4753 8.11763 21.176 8.05064 18.8553ZM10.2179 26.4016L13.027 22.6755L15.2495 29.0553L13.7829 31.2933C12.3136 29.6784 11.125 28.0482 10.2179 26.4016ZM14.2446 31.7897L15.5229 29.8387L17.1678 34.5608C16.153 33.6926 15.1771 32.7682 14.2446 31.7897ZM18.0007 34.998L15.9665 29.1615L17.8902 26.2249L20.0493 29.1891L18.0007 34.998ZM18.838 34.5547L20.5092 29.8193L21.8617 31.6763C20.8994 32.6947 19.89 33.6558 18.838 34.5547ZM22.3189 31.1778L20.7763 29.0604L23.0132 22.7214L25.7834 26.3965C24.898 28.0043 23.7429 29.5987 22.3189 31.1778ZM26.1247 25.7479L23.2776 21.9707L24.3766 18.8543H27.9471C27.8828 21.1699 27.2753 23.4681 26.1247 25.7479ZM27.9471 18.0137C27.948 18.0556 27.9489 18.0974 27.9498 18.1403H24.3766L23.2975 15.0863L26.2243 11.3049C27.1975 13.31 27.8765 15.5653 27.9471 18.0137ZM23.0341 14.3406L20.8396 8.12931L22.5008 5.84438C23.6895 7.17938 24.9089 8.79835 25.8921 10.6492L23.035 14.3406H23.0341Z" stroke="#D200FF" stroke-width="0.5" mask="url(#path-1-outside-1_1072_233)"/>
</svg>
