<svg width="36" height="37" viewBox="0 0 36 37" fill="none" xmlns="http://www.w3.org/2000/svg">
<path d="M30.446 20.8495L30.446 20.8511C30.4346 23.6312 29.7594 26.8872 28.2411 29.9542C28.2411 29.9542 28.2411 29.9542 28.2411 29.9542L28.1291 29.8988C26.8482 32.487 24.8635 34.2669 22.1385 35.2473C18.0709 36.7103 14.3303 35.9813 10.8562 33.5751L10.785 33.6779C9.46129 32.7607 8.54228 31.4683 7.82267 30.057C6.68918 27.835 5.95011 25.4824 5.70902 22.996L5.83342 22.9839L5.70902 22.996C5.24861 18.2458 5.79998 13.615 7.56643 9.15927C8.46015 6.90405 9.78314 4.9344 11.6543 3.34755C13.2691 1.97726 15.3245 1.02806 17.4554 0.888676L30.446 20.8495ZM30.446 20.8495C30.4233 18.2801 30.2185 16.3538 29.9 14.4413C29.4349 11.6505 28.5773 8.98161 27.0514 6.57288L26.9458 6.63977M30.446 20.8495L26.9458 6.63977M26.9458 6.63977L27.0514 6.57287C25.3898 3.95001 23.1583 1.99847 20.0656 1.19737M26.9458 6.63977L20.0656 1.19737M28.0689 27.7375C27.3788 27.2868 25.6901 26.2281 24.1402 25.2564C23.1754 24.6516 22.2645 24.0805 21.6814 23.7107C21.7358 23.5999 21.7887 23.4881 21.8401 23.3757C21.8401 23.3756 21.8402 23.3755 21.8402 23.3755L21.7265 23.3235M28.0689 27.7375L22.7147 17.1394L22.7147 17.1394C22.7517 17.5195 22.7651 17.9026 22.7613 18.2856M28.0689 27.7375C28.1878 27.4169 28.2989 27.0937 28.4011 26.7678C28.8633 25.2844 29.1919 23.8013 29.3308 22.2564C29.4134 21.3364 29.4197 20.4121 29.3808 19.4874L29.3808 19.4873C29.3463 18.6566 29.2754 17.8258 29.193 16.9976L28.0689 27.7375ZM21.7265 23.3235C22.1631 22.3722 22.3874 21.3427 22.4989 20.3062C22.5701 19.6428 22.63 18.9629 22.6363 18.2844M21.7265 23.3235C21.6597 23.4697 21.5904 23.6146 21.5186 23.7576L21.7265 23.3235ZM22.6363 18.2844L22.7613 18.2856M22.6363 18.2844C22.6401 17.9051 22.6268 17.5264 22.5903 17.1516L22.7613 18.2856M22.6363 18.2844L22.7613 18.2855C22.7613 18.2856 22.7613 18.2856 22.7613 18.2856M20.0656 1.19737C19.1961 0.971421 18.3669 0.828855 17.4554 0.888674L20.0656 1.19737ZM19.4974 2.11013L19.4975 2.11015C22.424 2.75738 24.5489 4.5284 26.1369 6.99716C26.4506 7.48538 26.7354 7.98479 26.994 8.49438C25.7406 9.44301 24.2975 10.5399 22.9425 11.5698C22.4262 11.9621 21.9228 12.3448 21.4475 12.7058C21.3639 12.5642 21.2748 12.4242 21.1799 12.2861C20.557 11.377 19.507 10.7448 18.375 10.6049C18.3929 9.40226 18.3724 5.11863 18.3614 2.83081C18.3597 2.4728 18.3582 2.16365 18.3572 1.92284C18.7374 1.95942 19.1173 2.02585 19.4974 2.11013ZM14.3725 15.265L14.3725 15.265C14.6582 14.2505 15.0059 13.2958 15.7208 12.5203L15.7208 12.5203C16.1777 12.0242 16.7018 11.6785 17.3592 11.5763C18.5375 11.3939 19.5069 11.7528 20.2549 12.6846C20.98 13.588 21.3345 14.6696 21.5463 15.7967L21.5463 15.7968C21.7024 16.6257 21.7761 17.4448 21.7817 18.267C21.7911 19.6561 21.6567 21.1443 21.2057 22.4537L21.2057 22.4537C20.8555 23.471 20.2847 24.3257 19.485 25.0445C18.3177 26.0936 16.9223 25.788 16.0972 24.9382C15.5591 24.3841 15.1269 23.7625 14.8177 23.0597C13.7023 20.5199 13.6246 17.9202 14.3725 15.265ZM16.5584 2.02221L16.5585 2.02219C16.8795 1.94653 17.2001 1.90691 17.5207 1.89475C17.4823 3.63256 17.4757 9.07311 17.5003 10.596C16.6312 10.6895 15.7675 11.0935 15.0559 11.8959C14.8281 12.1524 14.6097 12.4304 14.4155 12.7234C13.4755 11.9523 12.1749 10.8903 10.977 9.91203C10.2634 9.32928 9.58616 8.77628 9.04334 8.33227C9.13679 8.14379 9.23309 7.95668 9.33266 7.77053C10.0812 6.37701 11.0772 5.1975 12.2578 4.15137C13.4972 3.05351 14.9538 2.39916 16.5584 2.02221ZM6.65548 18.0603L6.65548 18.0602C6.82036 16.0522 7.06028 14.0612 7.60141 12.1227C7.88003 11.1249 8.22013 10.1531 8.63289 9.20928C9.25043 9.71343 9.98388 10.3154 10.7405 10.9363C11.8606 11.8557 13.0314 12.8166 13.9519 13.5634C13.9382 13.5946 13.9246 13.6259 13.9114 13.6573L13.911 13.6584C12.5257 17.0373 12.5159 20.4203 14.097 23.7595L14.097 23.7595C14.1395 23.8493 14.1837 23.9382 14.2292 24.0259C12.6913 25.2314 9.9114 27.431 8.32157 28.6906C8.1936 28.4083 8.07174 28.124 7.95676 27.8379L7.95673 27.8378C6.69294 24.6996 6.37882 21.4185 6.65548 18.0603ZM8.7639 29.6004C9.6791 28.8587 13.3001 25.9631 14.7166 24.8389C14.9661 25.1975 15.2519 25.5313 15.5832 25.8323L15.5833 25.8323C16.1646 26.3601 16.8351 26.6604 17.5261 26.7301C17.5226 28.5611 17.5238 30.4977 17.5251 32.3928C17.5257 33.2996 17.5263 34.197 17.5263 35.0687C16.2887 35.0311 15.0388 34.8056 13.9476 34.3415C12.1028 33.5568 10.4044 32.3475 9.34652 30.6321L9.24012 30.6977L9.34651 30.632C9.13986 30.297 8.94631 29.9522 8.7639 29.6004ZM19.4516 34.9789L19.4516 34.979C19.1202 35.0205 18.7802 35.0483 18.4355 35.0627C18.438 33.2517 18.4293 28.3878 18.4243 26.69C18.9302 26.5943 19.4275 26.3759 19.8896 26.0358L19.8897 26.0357C20.4573 25.6174 20.8826 25.0992 21.2319 24.5345C23.3849 25.9174 25.5396 27.2969 27.6955 28.6751C27.4989 29.1348 27.2865 29.5877 27.0571 30.0324L27.0571 30.0324C26.6126 30.8947 26.0049 31.6692 25.2965 32.3348C23.6985 33.8352 21.6243 34.7077 19.4516 34.9789ZM27.4023 9.35323C28.2096 11.1837 28.7029 13.1312 28.978 15.1472L28.978 15.1473C29.0622 15.7621 29.1313 16.3792 29.193 16.9976L27.4023 9.35323Z" fill="#D200FF" stroke="#D200FF" stroke-width="0.25"/>
</svg>
