<svg width="36" height="37" viewBox="0 0 36 37" fill="none" xmlns="http://www.w3.org/2000/svg">
<path d="M12.4121 17.5937L12.2947 17.5508C12.2947 17.5507 12.2947 17.5507 12.2947 17.5507C12.6706 16.5236 13.1334 15.5303 13.6774 14.5819L10.0155 11.6559C9.6117 12.4673 9.27041 13.241 8.98392 13.9545L8.98354 13.9544C7.84303 16.7969 7.3654 19.1598 7.19576 20.1772L11.6171 20.3022M12.4121 17.5937C12.0878 18.4782 11.8217 19.383 11.6171 20.3022M12.4121 17.5937C12.7978 16.5397 13.2756 15.5215 13.8394 14.5513L12.4121 17.5937ZM11.6171 20.3022V20.1772H11.5171C11.5097 20.2098 11.5024 20.2424 11.4951 20.275L11.6171 20.3022ZM14.5352 28.6361L14.5353 28.6362C15.5491 29.3782 16.7754 29.7763 18.0328 29.7723L18.0336 29.7723C19.2911 29.7763 20.5175 29.3792 21.5323 28.6382L21.5324 28.6381C23.1368 27.4691 23.7344 25.8244 23.9286 24.4574C24.0258 23.774 24.0216 23.1624 23.9926 22.719C23.9781 22.4974 23.9574 22.3182 23.9401 22.1935C23.9315 22.1312 23.9237 22.0825 23.918 22.0489C23.9152 22.0322 23.9128 22.0192 23.9112 22.0103C23.9096 22.0016 23.9087 21.9972 23.9086 21.9967L23.9086 21.9967L23.9075 21.9916L23.9076 21.9916C23.9074 21.9904 23.9072 21.9891 23.907 21.9877C23.9053 21.978 23.9028 21.9633 23.9014 21.9475M14.5352 28.6361L24.0258 21.9352M14.5352 28.6361C13.2014 27.6623 12.3966 26.2611 12.145 24.462L12.145 24.4618C12.0291 23.6421 12.0392 22.8092 12.1743 21.9924L12.1804 21.9558L12.1805 21.9559L12.1813 21.9491L12.1814 21.9483C12.1861 21.9049 12.3797 20.1137 13.2077 17.8657L13.2077 17.8657C13.9628 15.8149 15.4108 12.9672 18.0342 10.9353M14.5352 28.6361L18.0342 10.9353M23.9014 21.9475C23.9013 21.9469 23.9013 21.9463 23.9012 21.9456L24.0258 21.9352M23.9014 21.9475C23.9014 21.948 23.9015 21.9483 23.9015 21.9486L23.9017 21.9499L24.0258 21.9352M23.9014 21.9475C23.8931 21.8734 23.6915 20.0933 22.868 17.8658C22.1099 15.815 20.6578 12.9683 18.0342 10.9353M24.0258 21.9352L24.0256 21.9337C24.0185 21.8704 23.8173 20.0733 22.9853 17.8225C22.2159 15.7411 20.7323 12.8345 18.0343 10.7776L18.11 10.877C18.0847 10.8964 18.0594 10.9158 18.0342 10.9353M26.9988 13.9353L26.9987 13.9351C26.7315 13.2713 26.4144 12.5539 26.0448 11.8035L22.4006 14.591C22.944 15.5368 23.4064 16.5274 23.782 17.5517M26.9988 13.9353L23.6646 17.5947M26.9988 13.9353C28.1485 16.7826 28.634 19.1575 28.806 20.1792H24.5635M26.9988 13.9353L24.4637 20.3042M23.782 17.5517L23.6646 17.5947M23.782 17.5517C23.782 17.5517 23.782 17.5516 23.7819 17.5516L23.6646 17.5947M23.782 17.5517C24.0977 18.41 24.3588 19.2873 24.5635 20.1792M23.6646 17.5947C23.99 18.4792 24.257 19.3841 24.4637 20.3042M24.5635 20.1792H24.4637V20.3042M24.5635 20.1792C24.571 20.2118 24.5784 20.2443 24.5857 20.2768L24.4637 20.3042M27.9038 13.5977C26.4497 9.98795 23.6317 4.87414 18.466 1.03556L18.4648 1.03436L18.4573 1.02881C18.1789 0.823731 17.7996 0.823731 17.5212 1.02881L17.5212 1.02881L17.5208 1.02909C12.3504 4.86831 9.53655 9.98429 8.08788 13.5968L8.2039 13.6434L8.08788 13.5968C6.56953 17.3833 6.19598 20.2842 6.15991 20.586C6.11253 20.8275 5.75212 22.7823 6.07765 25.291C6.53063 28.7815 8.1161 31.6694 10.6681 33.6352L10.6682 33.6352C14.9816 36.9532 20.9937 36.9553 25.3093 33.6393L25.2331 33.5402L25.3093 33.6393C27.8664 31.6736 29.458 28.7848 29.9182 25.2943L29.9182 25.2943C30.2489 22.7809 29.8914 20.8247 29.8452 20.5871C29.8092 20.29 29.4306 17.3878 27.9038 13.5977ZM25.5979 10.9306L21.8933 13.7643C21.0423 12.4618 19.9361 11.1626 18.5077 10.0815L18.5063 10.0805C18.503 10.078 18.4995 10.0755 18.4959 10.0729V2.27476C21.8286 4.91469 24.0907 8.10062 25.5979 10.9306ZM17.5307 2.23545V10.1041C16.1213 11.1768 15.0285 12.4636 14.1851 13.7527L10.4678 10.7817C11.9786 7.97411 14.2316 4.83671 17.5307 2.23545ZM12.2949 27.6493L9.24318 30.8445C8.06791 29.2877 7.32669 27.3966 7.03664 25.1882C6.86168 23.8453 6.86484 22.4841 7.04611 21.1421H11.3227C11.2604 21.5035 11.2323 21.7415 11.2229 21.8211L11.2222 21.8266C11.0702 22.7338 11.0568 23.6585 11.1843 24.5689C11.3423 25.724 11.7192 26.7611 12.2949 27.6493ZM11.2566 32.8703L11.2564 32.8702C10.756 32.4858 10.2906 32.0575 9.86431 31.5918L12.8861 28.4287C13.2086 28.7954 13.5698 29.1259 13.964 29.4139C15.0026 30.174 16.2344 30.6246 17.5167 30.7163L17.5283 35.15C15.2526 35.0571 13.0606 34.2618 11.2566 32.8703ZM24.7192 32.8741L24.6068 32.9602C22.8358 34.2858 20.7057 35.0489 18.4945 35.1485L18.4829 30.7215C19.7886 30.6412 21.0446 30.1883 22.1023 29.4161C22.5396 29.0987 22.9367 28.7289 23.2846 28.3164L26.1311 31.5779C25.6998 32.0509 25.228 32.4847 24.7192 32.8741ZM28.9408 25.309H28.941C28.6377 27.4577 27.9044 29.3018 26.7553 30.8273L23.8633 27.5139C24.4076 26.6162 24.758 25.6145 24.8915 24.5726C25.0208 23.6616 25.0096 22.7373 24.8587 21.8295C24.8506 21.7543 24.8218 21.5136 24.7573 21.1441H28.9547C29.133 22.4789 29.1342 23.832 28.9592 25.1678L28.9408 25.309Z" fill="#D200FF" stroke="#D200FF" stroke-width="0.25"/>
</svg>
