<svg width="36" height="35" viewBox="0 0 36 35" fill="none" xmlns="http://www.w3.org/2000/svg">
<g clip-path="url(#clip0_1573_31676)">
<path d="M18.077 0.291712C18.2243 0.16009 18.3495 0.0554045 18.4628 -0.0149845C18.5776 -0.0862793 18.6916 -0.129641 18.8149 -0.123438C18.9372 -0.117281 19.0484 -0.0632488 19.1599 0.0175547C19.2707 0.0978886 19.3932 0.213229 19.5381 0.357567L19.5385 0.357984C20.8035 1.63012 22.0686 2.90478 23.3336 4.17939C24.5986 5.45401 25.8635 6.72858 27.1285 8.00061L27.1285 8.00063C29.7884 10.6765 32.4581 13.3521 35.1477 16.0073L35.3644 16.2213H35.3304C35.4591 16.3848 35.548 16.5533 35.5904 16.7372C35.6516 17.0027 35.612 17.2826 35.4864 17.6012C33.9562 21.5392 32.4361 25.4822 30.9154 29.4269C30.2794 31.0765 29.6434 32.7263 29.0064 34.3762L29.0061 34.377C28.9419 34.5397 28.8899 34.6703 28.8373 34.7703C28.7839 34.8718 28.7236 34.9544 28.6361 35.012C28.5491 35.0694 28.4488 35.093 28.3338 35.1041C28.2215 35.115 28.0808 35.115 27.9063 35.115H27.8998H27.8983L27.7775 35.1135C24.2788 35.0707 11.3313 34.9121 8.05969 34.892C8.05948 34.892 8.05928 34.892 8.05907 34.892L8.05983 34.767C7.57983 34.767 7.33983 34.6048 7.16983 34.1588L18.077 0.291712ZM18.077 0.291712C17.6678 0.652288 17.2569 1.01233 16.8456 1.37276C15.7205 2.35861 14.5922 3.3473 13.4858 4.35738C10.4872 7.07913 7.5037 9.81125 4.52123 12.5425C3.31613 13.646 2.11119 14.7495 0.90548 15.852L0.904969 15.8525C0.763002 15.9837 0.648419 16.0935 0.564008 16.195C0.478442 16.298 0.417813 16.3996 0.390594 16.5164C0.363399 16.6332 0.372539 16.7524 0.40416 16.8854C0.435414 17.0169 0.490841 17.1704 0.563245 17.3577L18.077 0.291712ZM27.5578 34.1227C26.625 32.4146 25.5416 30.3999 24.6245 28.6863C24.5228 28.7065 24.413 28.719 24.291 28.7191M27.5578 34.1227L24.2898 28.5941M27.5578 34.1227C24.3299 34.0872 21.1061 34.0542 17.8757 34.0211C14.8236 33.9898 11.7655 33.9585 8.69279 33.925L27.5578 34.1227ZM24.291 28.7191C24.2906 28.7191 24.2902 28.7191 24.2898 28.7191V28.5941M24.291 28.7191C24.2913 28.7191 24.2917 28.7191 24.292 28.7191L24.2898 28.5941M24.291 28.7191C22.8899 28.7437 19.4598 28.7608 16.6194 28.775C14.7845 28.7842 13.1956 28.7922 12.559 28.8001M24.2898 28.5941C22.8892 28.6187 19.463 28.6358 16.6235 28.65C14.7799 28.6592 13.1837 28.6672 12.5498 28.6752M12.559 28.8001C12.5619 28.7997 12.5648 28.7993 12.5677 28.7989L12.5498 28.6752M12.559 28.8001C12.5565 28.8001 12.5539 28.8002 12.5514 28.8002L12.5498 28.6752M12.559 28.8001L12.5498 28.6752M31.8247 16.707C30.9908 16.8281 30.1655 16.948 29.4714 17.0472C29.3954 16.9614 29.2951 16.8707 29.1818 16.7723L29.1807 16.7713C29.1121 16.7117 29.0404 16.6494 28.9583 16.5868C27.3702 15.2301 25.8318 13.8733 24.2925 12.5157L24.2921 12.5153C22.7525 11.1575 21.2121 9.7989 19.6216 8.44022C19.485 8.32019 19.3484 8.20854 19.2048 8.09796V8.09396V8.08796V8.08188V8.07572V8.06948V8.06316V8.05677V8.0503V8.04375V8.03712V8.03042V8.02364V8.01679V8.00985V8.00285V7.99576V7.98861V7.98138V7.97407V7.96669V7.95923V7.9517V7.9441V7.93643V7.92868V7.92086V7.91297V7.905V7.89697V7.88886V7.88068V7.87244V7.86412V7.85573V7.84727V7.83874V7.83014V7.82148V7.81274V7.80394V7.79506V7.78612V7.77712V7.76804V7.7589V7.74969V7.74042V7.73108V7.72167V7.7122V7.70266V7.69306V7.68339V7.67366V7.66386V7.654V7.64408V7.63409V7.62405V7.61393V7.60376V7.59352V7.58323V7.57287V7.56245V7.55196V7.54142V7.53082V7.52016V7.50943V7.49865V7.48781V7.47691V7.46595V7.45494V7.44386V7.43273V7.42154V7.41029V7.39899V7.38763V7.37621V7.36474V7.35321V7.34162V7.32998V7.31829V7.30654V7.29474V7.28288V7.27097V7.259V7.24699V7.23492V7.22279V7.21062V7.19839V7.18611V7.17378V7.1614V7.14897V7.13649V7.12395V7.11137V7.09874V7.08605V7.07332V7.06054V7.04772V7.03484V7.02191V7.00894V6.99592V6.98285V6.96974V6.95658V6.94337V6.93012V6.91682V6.90348V6.89009V6.87666V6.86318V6.84966V6.83609V6.82248V6.80883V6.79514V6.7814V6.76762V6.75379V6.73993V6.72602V6.71207V6.69808V6.68405V6.66998V6.65587V6.64172V6.62753V6.6133V6.59903V6.58473V6.57038V6.556V6.54158V6.52712V6.51262V6.49809V6.48352V6.46891V6.45427V6.43959V6.42488V6.41013V6.39534V6.38052V6.36567V6.35078V6.33586V6.32091V6.30592V6.2909V6.27584V6.26076V6.24564V6.23049V6.21531V6.20009V6.18485V6.16958V6.15427V6.13894V6.12357V6.10818V6.09275V6.0773V6.06182V6.04631V6.03077V6.01521V5.99961V5.98399V5.96835V5.95267V5.93697V5.92125V5.9055V5.88972V5.87392V5.85809V5.84224V5.82636V5.81046V5.79454V5.77859V5.76262V5.74663V5.73061V5.71457V5.69851V5.68243V5.66633V5.6502V5.63406V5.61789V5.6017V5.5855V5.56927V5.55303V5.53676V5.52048V5.50417V5.48785V5.47152V5.45516V5.43879V5.4224V5.40599V5.38956V5.37312V5.35667V5.3402V5.32371V5.30721V5.29069V5.27416V5.25761V5.24105V5.22448V5.20789V5.19129V5.17468V5.15805V5.14142V5.12477V5.10811V5.09143V5.07475V5.05806V5.04135V5.02464V5.00791V4.99118V4.97443V4.95768V4.94092V4.92415V4.90737V4.89059V4.87379V4.85699V4.84018V4.82337V4.80655V4.78972V4.77289V4.75605V4.7392V4.72235V4.7055V4.68864V4.67178V4.65491V4.63804V4.62117V4.60429V4.58741V4.57053V4.55365V4.53676V4.51988V4.50299V4.4861V4.46921V4.45232V4.43543V4.41854V4.40165V4.38476V4.36787V4.35099V4.3341V4.31722V4.30034V4.28346V4.26658V4.24971V4.23284V4.21597V4.19911V4.18226V4.1654V4.14855V4.13171V4.11487V4.09804V4.08121V4.06439V4.04758V4.03078V4.01398V3.99718V3.9804V3.96362V3.94685V3.93009V3.91334V3.8966V3.87987V3.86315V3.84643V3.82973V3.81304V3.79636V3.77969V3.76303V3.74638V3.72975V3.71312V3.69651V3.67992V3.66333V3.64676V3.63021V3.61366V3.59713V3.58062V3.56412V3.54764V3.53117V3.51472V3.49828V3.48186V3.46545V3.44907V3.4327V3.41634V3.40001V3.38369V3.3674V3.35112V3.33485V3.31861V3.30239V3.28619V3.27001V3.25384V3.2377V3.22158V3.20548V3.18941V3.17335V3.15732V3.14131V3.12532V3.10935V3.09341V3.07749V3.06159V3.04572V3.02988V3.01405V2.99826V2.98249V2.96674V2.95102V2.93532V2.91966V2.90401V2.8884V2.87281V2.85725V2.84172V2.82622V2.81074V2.7953V2.77988V2.76449V2.74913V2.7338V2.71851V2.70324V2.688V2.67279V2.65762V2.64247V2.62736V2.61228V2.59724V2.58222V2.56724V2.55229V2.53738V2.5225V2.50765V2.49284V2.47806V2.46332V2.44861V2.43394V2.41931V2.40471V2.39015V2.37562V2.36113V2.34668V2.33227V2.31789V2.30355V2.28925V2.27499V2.26077V2.24659V2.23245V2.21835V2.20428V2.19026V2.17628V2.16234V2.14844V2.13459V2.12077V2.107V2.09327V2.07958V2.06594V2.05234V2.03878V2.02527V2.0118V1.99838V1.985V1.97167V1.95838V1.94513V1.93194V1.91879V1.90568V1.89263V1.87962V1.86665V1.85374V1.84087V1.82805V1.81528V1.80256V1.78989V1.77727V1.7647V1.75217V1.7397V1.72728V1.71491V1.70259V1.69032V1.6781V1.66594V1.65383V1.64177V1.62976V1.61781V1.60591V1.59406V1.58227V1.57053V1.55885V1.54722V1.53565V1.52413V1.51267V1.50126V1.4971C21.7758 4.05872 32.0863 14.3666 34.0443 16.3859C33.3619 16.4838 32.5928 16.5955 31.8306 16.7062L31.8247 16.707ZM12.3498 28.6752C12.3546 28.6752 12.3594 28.6753 12.3642 28.6754L12.4514 28.7379C12.4361 28.7593 12.4207 28.7808 12.4053 28.8023C12.4033 28.8022 12.4013 28.802 12.3994 28.8019C12.3812 28.801 12.3664 28.8002 12.3498 28.8002V28.6752ZM23.6873 13.3317C25.3334 14.7801 26.9801 16.229 28.6726 17.6853C28.6492 17.7503 28.628 17.812 28.6075 17.8718C28.5679 17.9873 28.5308 18.0957 28.4844 18.2073L28.4843 18.2076C28.3695 18.4858 28.2522 18.7641 28.1346 19.043L28.1343 19.0437C28.017 19.3221 27.8994 19.6011 27.7843 19.8801C27.5711 20.3893 27.0341 21.6577 26.4503 23.0365C26.2669 23.4698 26.0788 23.9141 25.8947 24.349C25.5097 25.2588 25.1422 26.128 24.8709 26.7724C24.7352 27.0946 24.6236 27.3607 24.5458 27.5476C24.5086 27.6371 24.479 27.7087 24.4583 27.7597C24.0138 27.7606 21.6608 27.7667 19.1528 27.7731L18.5108 27.7748C15.7811 27.7818 13.0444 27.7888 12.5227 27.7899C11.1506 24.5378 9.7875 21.2852 8.3973 17.9678L8.32024 17.784C10.0227 16.3194 11.7661 14.8572 13.5139 13.392L13.6005 13.3193C15.3153 11.8818 17.0336 10.4412 18.7198 8.99352C20.4055 10.4442 22.0461 11.8877 23.6873 13.3317ZM7.4226 18.1973L7.42253 18.1973L7.42419 18.2014C7.87765 19.3065 8.33217 20.4104 8.78664 21.5142C9.69522 23.7208 10.6037 25.9272 11.5033 28.1427C11.5233 28.1963 11.5503 28.2483 11.5729 28.2903C10.39 29.9345 9.11003 31.7311 7.9226 33.4004C5.86372 28.0795 3.79519 22.7388 1.70774 17.3503C3.47916 17.5797 6.43164 17.9458 7.36847 18.0562C7.37557 18.0749 7.38305 18.0942 7.39057 18.1135C7.40154 18.1418 7.41258 18.1702 7.4226 18.1973ZM28.2209 33.3034C28.1405 33.1398 28.0581 32.9719 27.9696 32.8117C27.2734 31.5118 26.3426 29.8042 25.5842 28.413C25.5264 28.307 25.4697 28.2029 25.4141 28.1009C25.4634 28.0142 25.5055 27.9177 25.5455 27.8206L25.546 27.8193C26.0941 26.4404 26.6636 25.0713 27.2324 23.7041C27.5246 23.0016 27.8167 22.2996 28.1054 21.597L28.1055 21.597C28.3405 21.0242 28.5756 20.4489 28.8105 19.8736C29.045 19.2997 29.2795 18.7258 29.5139 18.1545C29.532 18.1174 29.5475 18.0786 29.5605 18.0445C30.0602 17.9749 30.6751 17.8905 31.3222 17.8017C32.3954 17.6545 33.557 17.4951 34.4278 17.3709C34.4105 17.4276 34.3895 17.4824 34.3658 17.5351L34.3656 17.5351L34.3634 17.5408C32.9833 21.0684 31.612 24.6053 30.2408 28.142C29.571 29.8694 28.9013 31.5968 28.2305 33.3231C28.2273 33.3165 28.2241 33.31 28.2209 33.3034ZM7.50815 17.1089C6.15889 16.9345 3.17587 16.5543 1.82559 16.39C5.13904 13.3682 8.45253 10.3533 11.7725 7.33262C13.9165 5.3818 16.0633 3.42853 18.2144 1.46938C18.2137 1.75296 18.2121 2.13281 18.2104 2.57065C18.2034 4.28752 18.1929 6.89607 18.2139 8.08855C18.0108 8.28027 17.7973 8.45705 17.5818 8.63549C17.4742 8.72456 17.3661 8.81405 17.2586 8.90601C15.8008 10.1526 14.2978 11.397 12.7927 12.6431C12.714 12.7083 12.6352 12.7736 12.5564 12.8388C10.973 14.1499 9.38984 15.463 7.85902 16.7814C7.71581 16.901 7.59541 17.0106 7.50815 17.1089Z" fill="#D200FF" stroke="#D200FF" stroke-width="0.25"/>
</g>
<defs>
<clipPath id="clip0_1573_31676">
<rect width="35" height="35" fill="white" transform="translate(0.5)"/>
</clipPath>
</defs>
</svg>
