<svg width="36" height="37" viewBox="0 0 36 37" fill="none" xmlns="http://www.w3.org/2000/svg">
<path d="M8.48017 35.9152L8.48025 35.9153C8.63248 36.0496 8.82828 36.125 9.0328 36.125H27.2789C27.4798 36.125 27.673 36.0521 27.825 35.9215L27.8254 35.9212L35.3336 29.4172C35.3336 29.4172 35.3336 29.4172 35.3336 29.4172C35.5186 29.257 35.625 29.0223 35.625 28.777V8.68826C35.625 8.45367 35.528 8.22983 35.3578 8.07L35.3577 8.06991L27.9191 1.10077C27.764 0.955048 27.5597 0.875 27.3483 0.875H8.72537C8.51517 0.875 8.31316 0.953915 8.15821 1.09822C8.15816 1.09826 8.15811 1.09831 8.15807 1.09835L0.645983 8.06432L0.645945 8.06435C0.468354 8.22917 0.370388 8.46263 0.375166 8.70516L0.375176 8.70557L0.836844 28.7953L0.836852 28.7956C0.842825 29.0309 0.945519 29.2548 1.12235 29.4104L1.3299 29.5929L8.48017 35.9152ZM1.7918 28.3869L1.69119 24.0039L7.04707 13.9621L7.0833 28.3869H1.7918ZM7.39885 29.359L14.6817 35.1529H9.07897L2.52475 29.359H7.39885ZM20.1545 35.1529H18.6479L18.6195 29.359H27.124L20.1545 35.1529ZM34.659 9.05351V22.0491L28.9472 11.9296V9.04857L34.659 9.05351ZM28.6479 8.07743L21.608 1.84606H27.299L33.9548 8.08129L28.6479 8.07743ZM8.04929 28.3879L8.01161 13.3367L17.6307 24.0922L17.6513 28.3879H8.04929ZM7.34186 8.05983L2.07891 8.05596L8.77654 1.84503H14.7403L7.34186 8.05983ZM1.64781 22.037L1.34915 9.0269L7.03594 9.03185L7.04369 11.92L1.64781 22.037ZM27.9832 11.8752L18.5856 22.5935L18.5194 9.04031L27.9832 9.04835V11.8752ZM18.5936 24.0528L27.9832 13.3417V28.3879H18.6142L18.5936 24.0528ZM33.9208 29.359L27.2322 35.1539H21.67L28.6396 29.359H33.9208ZM34.66 28.3879H28.9472V13.8958L34.66 24.0172V28.3879ZM18.5151 8.06924L18.4847 1.84503H20.1471L27.1857 8.0761L18.5151 8.06924ZM17.6566 29.359L17.685 35.1539H16.2395L8.95657 29.359H17.6566ZM17.6227 22.6319L8.00761 11.8805L8.00087 9.03103L17.5565 9.03907L17.6227 22.6319ZM16.2464 1.84503H17.5208L17.5512 8.06801L8.84655 8.06116L16.2464 1.84503Z" fill="#D200FF" stroke="#D200FF" stroke-width="0.25"/>
</svg>
