<svg width="36" height="35" viewBox="0 0 36 35" fill="none" xmlns="http://www.w3.org/2000/svg">
<path d="M27.4452 35H8.55462L0.53418 26.9638V8.03618L8.55462 0H27.4452L35.4656 8.03618V26.9638L27.4452 35ZM9.29841 33.2042H26.7104L33.6823 26.2186V8.77245L26.7104 1.78682H9.29841L2.32646 8.77245V26.2186L9.29841 33.2042Z" fill="#D200FF"/>
<path d="M24.9717 24.4854H11.0278V10.5142H24.9717V24.4854ZM12.8201 22.6896H23.1795V12.31H12.8201V22.6896Z" fill="#D200FF"/>
<path d="M9.78586 0.65184L8.0625 1.14502L11.0601 11.6609L12.7834 11.1677L9.78586 0.65184Z" fill="#D200FF"/>
<path d="M1.66653 7.53742L1.17432 9.26416L11.6696 12.2676L12.1618 10.5409L1.66653 7.53742Z" fill="#D200FF"/>
<path d="M17.2198 0.427465L11.1401 10.9487L12.6912 11.8485L18.7709 1.32726L17.2198 0.427465Z" fill="#D200FF"/>
<path d="M18.7781 0.444443L17.2271 1.34424L23.3067 11.8655L24.8578 10.9657L18.7781 0.444443Z" fill="#D200FF"/>
<path d="M11.6696 22.7215L1.17383 25.7231L1.66574 27.45L12.1615 24.4483L11.6696 22.7215Z" fill="#D200FF"/>
<path d="M11.0379 23.3263L8.04395 33.8433L9.76748 34.3358L12.7614 23.8189L11.0379 23.3263Z" fill="#D200FF"/>
<path d="M1.88046 16.7237L0.982422 18.2778L11.4831 24.3694L12.3811 22.8153L1.88046 16.7237Z" fill="#D200FF"/>
<path d="M11.4806 10.6437L0.97998 16.7354L1.87801 18.2895L12.3787 12.1978L11.4806 10.6437Z" fill="#D200FF"/>
<path d="M24.9328 23.3452L23.2095 23.8384L26.2071 34.3543L27.9304 33.8611L24.9328 23.3452Z" fill="#D200FF"/>
<path d="M24.3321 22.7264L23.8398 24.4531L34.3351 27.4566L34.8273 25.7298L24.3321 22.7264Z" fill="#D200FF"/>
<path d="M23.3087 23.1345L17.229 33.6558L18.7801 34.5556L24.8597 24.0343L23.3087 23.1345Z" fill="#D200FF"/>
<path d="M12.6927 23.1207L11.1416 24.0205L17.2213 34.5418L18.7723 33.642L12.6927 23.1207Z" fill="#D200FF"/>
<path d="M34.323 7.55012L23.8271 10.5518L24.3191 12.2786L34.8149 9.27695L34.323 7.55012Z" fill="#D200FF"/>
<path d="M26.2073 0.640802L23.2134 11.1577L24.9369 11.6503L27.9308 1.13338L26.2073 0.640802Z" fill="#D200FF"/>
<path d="M24.5255 10.6314L23.6274 12.1855L34.1281 18.2772L35.0262 16.7231L24.5255 10.6314Z" fill="#D200FF"/>
<path d="M34.1305 16.7145L23.6299 22.8062L24.5279 24.3603L35.0286 18.2686L34.1305 16.7145Z" fill="#D200FF"/>
</svg>
