<svg width="36" height="35" viewBox="0 0 36 35" fill="none" xmlns="http://www.w3.org/2000/svg">
<path d="M30.3608 5.12304C27.0876 1.8316 22.6342 -0.0132008 17.992 7.11185e-05C8.33171 7.11185e-05 0.5 7.83154 0.5 17.4915C0.5 22.1305 2.34281 26.5797 5.62313 29.8599C12.4451 36.7001 23.5194 36.7154 30.3598 29.8936C37.2001 23.0718 37.2154 11.9979 30.3934 5.15775C30.3822 5.14652 30.371 5.13529 30.3598 5.12406L30.3608 5.12304ZM30.0085 5.7846L29.592 11.7988L25.5868 10.1837L23.89 5.91731L29.9687 5.74274C29.982 5.75703 29.9963 5.7703 30.0096 5.7846H30.0085ZM11.1495 9.58344L12.6738 5.7458L16.7821 7.40275L11.1495 9.58344ZM17.4029 7.9275L17.6213 12.4951L14.5534 13.5783L11.1679 10.341L17.4018 7.92648L17.4029 7.9275ZM14.0378 14.0724L12.6279 17.0198L8.17041 17.0831L10.6523 10.8351L14.0378 14.0724ZM7.6538 16.4501L6.12135 12.295L9.88254 10.8381L7.6538 16.4491V16.4501ZM9.61504 23.8304L6.12135 22.2408L7.62828 18.446L9.61403 23.8304H9.61504ZM8.151 17.7978L12.6218 17.7345L13.6958 20.7778L10.394 23.8804L8.14998 17.7978H8.151ZM10.879 24.4051L14.1818 21.3016L17.1395 22.7155L17.2416 27.3005L10.879 24.4051ZM16.7076 27.8416L12.486 29.5485L10.878 25.1892L16.7076 27.8416ZM14.3962 20.6124L13.2517 17.372L14.7341 14.2715L17.9746 13.1281L21.0752 14.6104L22.2187 17.8508L20.7363 20.9514L17.4958 22.0958L14.3951 20.6134L14.3962 20.6124ZM24.6731 10.585L21.2907 13.9213L18.337 12.5094L18.1185 7.9418L24.6731 10.585ZM18.724 7.41602L23.0508 5.7407L24.671 9.81417L18.724 7.41602ZM25.1784 11.0893L27.6399 17.2781L22.8547 17.5058L21.7746 14.4461L25.1774 11.0893H25.1784ZM20.9415 21.6354L24.6363 24.6348L17.9562 27.3362L17.8531 22.7257L20.9405 21.6354H20.9415ZM24.6925 25.3822L22.9109 29.8793L18.5157 27.8793L24.6925 25.3822ZM21.4448 21.1239L22.8333 18.2204L27.6195 17.9927L25.1784 24.155L21.4448 21.1239ZM28.1565 18.5767L29.7441 22.5695L25.9697 24.0958L28.1555 18.5777L28.1565 18.5767ZM28.1555 16.6421L25.9503 11.0995L29.7451 12.6299L28.1555 16.6421ZM29.2469 5.04749L23.5469 5.21084C23.4234 5.08935 23.259 5.01993 23.0855 5.01584L18.8669 0.735128C22.722 0.925019 26.3923 2.44925 29.2469 5.04749ZM17.8439 0.714715L22.3208 5.25678L17.7561 7.02399L13.3905 5.26393L17.6755 0.716752C17.7316 0.716752 17.7878 0.714715 17.8439 0.714715ZM16.6474 0.766776L12.6391 5.01993C12.4686 5.02299 12.3053 5.09139 12.1827 5.20982L6.9279 4.87802C9.63547 2.48907 13.0465 1.04549 16.6463 0.766776H16.6474ZM6.12748 5.62738C6.15403 5.60083 6.18159 5.57429 6.20915 5.54774L11.8428 5.90302L10.2419 9.93361L6.29288 11.463L6.04376 5.71313C6.07234 5.68455 6.09992 5.65494 6.12748 5.62738ZM5.36075 6.44819L5.5925 11.7999C5.47203 11.9234 5.4026 12.0878 5.3975 12.2603L1.23815 16.5808C1.43111 12.8351 2.8829 9.26491 5.36075 6.44922V6.44819ZM5.33318 28.5031C3.00949 25.8487 1.59037 22.5246 1.28204 19.0106L5.39852 22.298C5.40669 22.4552 5.46999 22.6042 5.57719 22.7196L5.3342 28.5031H5.33318ZM1.22283 18.0499C1.21875 17.9111 1.21569 17.7722 1.21467 17.6324L5.63538 13.0413L7.25869 17.4435L5.6221 21.5629L1.22283 18.0499ZM6.12646 29.3535C6.08868 29.3158 6.05294 29.278 6.01619 29.2402L6.27449 23.0943L9.96115 24.7717L11.6559 29.3658L6.30921 29.5312C6.24796 29.472 6.1867 29.4128 6.12544 29.3525L6.12646 29.3535ZM7.06369 30.2234L11.9796 30.0712C12.1072 30.2009 12.2807 30.2744 12.4625 30.2744H12.4645L16.5973 34.21C13.0771 33.9273 9.73858 32.5306 7.06471 30.2234H7.06369ZM17.8531 34.2662C17.798 34.2662 17.7439 34.2652 17.6887 34.2642L13.2292 30.0171L17.602 28.2489L22.1585 30.3224L17.8531 34.2652V34.2662ZM18.9374 34.2407L22.9058 30.6062C22.914 30.6062 22.9211 30.6072 22.9293 30.6072C23.112 30.6072 23.2866 30.5337 23.4132 30.402L28.8324 30.2938C26.0564 32.6593 22.5791 34.0457 18.9374 34.2407ZM29.8534 29.3535C29.7829 29.424 29.7104 29.4934 29.639 29.5628L23.7562 29.6802L25.6052 25.0126L29.5869 23.4026L29.9606 29.2433C29.9248 29.28 29.8901 29.3168 29.8534 29.3535ZM30.6303 28.5225L30.2801 23.0575C30.3955 22.936 30.4619 22.7768 30.467 22.6093L34.7264 18.6666C34.4813 22.3133 33.0418 25.7773 30.6293 28.5235L30.6303 28.5225ZM34.7662 17.6558L30.228 21.8569L28.5384 17.6089L30.227 13.3476L34.7662 17.6415C34.7662 17.6415 34.7662 17.6507 34.7662 17.6558ZM34.7468 16.6411L30.468 12.5941C30.4639 12.4257 30.3965 12.2654 30.2811 12.1439L30.6722 6.50639C33.1327 9.33025 34.5681 12.9014 34.7468 16.6421V16.6411Z" fill="#D200FF"/>
</svg>
