<svg width="36" height="37" viewBox="0 0 36 37" fill="none" xmlns="http://www.w3.org/2000/svg">
<path d="M11.9689 34.0249C13.8895 34.767 15.9305 35.1461 17.9899 35.1432L11.9689 34.0249ZM11.9689 34.0249L14.3263 28.5541H21.6165M11.9689 34.0249L21.6165 28.5541M21.6165 28.5541L23.5901 34.1819C21.7928 34.8209 19.8991 35.1461 17.9909 35.1432L21.6165 28.5541ZM30.5363 6.12426L30.5373 6.1233L17.992 1.00007V0.875071C17.9919 0.875071 17.9918 0.875071 17.9918 0.875071C8.26258 0.875167 0.375 8.76257 0.375 18.4915C0.375 23.1637 2.23098 27.6446 5.53474 30.9483C12.4055 37.8372 23.5588 37.8526 30.448 30.9821C37.319 24.1298 37.3526 13.0175 30.5363 6.12426ZM17.9921 1.83869C20.0699 1.83571 22.1292 2.22174 24.0633 2.97674L21.6664 8.42783H14.3229L11.7543 3.04136C13.7368 2.24324 15.854 1.83472 17.9917 1.83869L17.9921 1.83869ZM6.21575 6.71691L6.21597 6.71669C7.56803 5.3617 9.14242 4.24948 10.8707 3.42944L13.4388 8.81277L8.29616 13.9552L2.74724 11.7694C3.58049 9.88567 4.75666 8.17198 6.21575 6.71691ZM2.26709 12.6167L2.38341 12.6625C2.39795 12.6235 2.41264 12.5845 2.42747 12.5455L2.31117 12.4997C2.29633 12.5387 2.28164 12.5776 2.26709 12.6167ZM8.05299 14.7621H7.92799V14.8472L8.00717 14.8784L8.05299 14.7621ZM2.50023 24.6248L2.38623 24.6764C2.40156 24.7152 2.41703 24.7539 2.43265 24.7926L2.54662 24.741C2.53101 24.7023 2.51555 24.6636 2.50023 24.6248ZM8.00143 22.1336L7.92799 22.1668V22.2474H8.05299L8.00143 22.1336ZM13.4402 28.1727L11.079 33.6511C9.33172 32.8521 7.73699 31.7565 6.36407 30.4139L6.21574 30.266C4.83378 28.8881 3.7053 27.278 2.88071 25.5099L8.31572 23.0483L13.4402 28.1727ZM27.6631 23.0504L33.0218 25.6784C32.2352 27.3162 31.1871 28.8151 29.9174 30.1143L29.7659 30.2663C28.2527 31.7844 26.4613 32.9951 24.4898 33.8326L22.5138 28.1995L27.6631 23.0504ZM34.6432 18.4917C34.6472 20.6534 34.2289 22.7946 33.413 24.7962L28.0539 22.1685V14.8484L33.5318 12.4881C34.2691 14.4028 34.6462 16.4388 34.6432 18.4913V18.4917ZM14.2223 9.39247H21.7606L27.0912 14.723V22.261L21.7606 27.5905H14.2223L8.89266 22.261V14.723L14.2223 9.39247ZM33.1582 11.5982L27.6867 13.9562L22.5472 8.81687L24.9488 3.35343C28.581 5.03505 31.4932 7.95908 33.1582 11.5982Z" fill="#D200FF" stroke="#D200FF" stroke-width="0.25"/>
</svg>
