<svg width="36" height="37" viewBox="0 0 36 37" fill="none" xmlns="http://www.w3.org/2000/svg">
<path d="M33.1341 3.87568L33.1344 3.8756L33.131 3.8687C33.0308 3.66257 32.8661 3.5056 32.6637 3.43642L25.2812 0.912649L25.2812 0.912646L25.2804 0.912372C25.21 0.888867 25.1353 0.875 25.0589 0.875H10.5164C10.4338 0.875 10.3514 0.890147 10.2728 0.920292C10.2727 0.920343 10.2725 0.920394 10.2724 0.920445L3.58214 3.44019C3.58213 3.44019 3.58213 3.44019 3.58212 3.44019C3.39828 3.50941 3.24802 3.6528 3.15024 3.83608L3.14987 3.83678C3.14041 3.85479 3.13266 3.8721 3.12557 3.88928L3.12538 3.88975L0.479496 10.3748C0.318551 10.7075 0.344449 11.1247 0.550877 11.4256L0.550918 11.4257L17.2861 35.7881C17.2891 35.7928 17.2918 35.7966 17.2929 35.7982C17.293 35.7983 17.2932 35.7985 17.2933 35.7986L17.2929 35.7989L17.2994 35.8076C17.4463 36.0041 17.6622 36.125 17.896 36.125H17.898C18.1304 36.125 18.3449 36.0057 18.4927 35.8124L18.4932 35.8128L18.4991 35.8032C18.4993 35.8029 18.4996 35.8025 18.5 35.8019C18.501 35.8004 18.5036 35.7968 18.5066 35.7922L35.4436 11.4291C35.4436 11.4291 35.4436 11.429 35.4437 11.4289C35.6487 11.1365 35.6819 10.7284 35.5329 10.3968L35.5235 10.3759L33.1552 3.92723C33.155 3.92676 33.1548 3.92627 33.1547 3.92578C33.1494 3.91084 33.1409 3.89131 33.1366 3.88134C33.1354 3.87869 33.1346 3.87672 33.1341 3.87568ZM11.3501 6.80586L5.07365 4.04977L10.5398 1.991H25.032L31.0717 4.05537L24.234 6.80586H11.3501ZM27.9899 6.47816L25.2499 13.7531L24.8294 7.74899L27.9899 6.47816ZM6.9432 6.35245L10.2419 14.9745L1.52334 10.812L6.9432 6.35245ZM33.4534 12.5079L19.8045 32.1409L25.2936 16.4431L33.4534 12.5079ZM18.0008 8.0834L23.8366 15.4646H12.2463L18.0008 8.0834ZM11.6644 14.5434L11.73 7.92186H16.827L11.6644 14.5434ZM23.873 7.92186L24.3289 14.4338L19.1796 7.92186H23.873ZM10.7675 7.74453L10.7115 13.4419L8.07941 6.56433L10.7675 7.74453ZM2.13019 8.94227L3.85687 4.71043L6.08511 5.6881L2.13019 8.94227ZM2.51448 12.4915L10.7947 16.4454L16.0715 32.2281L2.51448 12.4915ZM17.9022 34.6082L11.8738 16.5794H24.2056L17.9022 34.6082ZM25.8427 14.9702L29.1138 6.2866L34.0312 11.0222L25.8427 14.9702ZM34.2613 9.79067L29.9852 5.67329L32.3931 4.70476L34.2613 9.79067Z" fill="#D200FF" stroke="#D200FF" stroke-width="0.25"/>
</svg>
