<svg width="36" height="37" viewBox="0 0 36 37" fill="none" xmlns="http://www.w3.org/2000/svg">
<mask id="path-1-outside-1_1573_32491" maskUnits="userSpaceOnUse" x="-0.5" y="0" width="37" height="37" fill="black">
<rect fill="white" x="-0.5" width="37" height="37"/>
<path d="M5.42102 23.7442V30.3846C5.42102 30.7278 5.70162 31.0056 6.04823 31.0056H12.7515L17.6123 35.8177C17.8568 36.0608 18.254 36.0608 18.4995 35.8177C18.5026 35.8146 18.5057 35.8115 18.5088 35.8085L22.9043 31.1303L30.0532 31.2447H30.0646C30.4112 31.2447 30.6918 30.9668 30.6918 30.6236V23.7452L35.3267 18.927C35.5578 18.687 35.5578 18.3101 35.3267 18.0711L30.8094 13.3693L30.5773 6.71258C30.567 6.37754 30.2884 6.11197 29.9501 6.11299H23.3624L18.4417 1.18451C18.1982 0.940383 17.8011 0.93834 17.5545 1.1794C17.5525 1.18144 17.5514 1.18247 17.5494 1.18451L13.1146 5.63189L5.91102 5.86171C5.56957 5.87397 5.29931 6.15487 5.30446 6.49297L5.41999 13.3693L0.688115 17.9393C0.443629 18.1773 0.436393 18.5654 0.672626 18.8126L5.42309 23.7452L5.42102 23.7442ZM17.1532 18.5736L11.006 21.0894L8.67568 18.3734L11.0101 16.0496L17.1532 18.5726V18.5736ZM11.3413 15.4133V11.8944L15.1128 11.8167L17.4534 17.924L11.3403 15.4133H11.3413ZM17.3668 19.26L14.8301 25.2089L11.331 25.07L11.2474 21.7636L17.3668 19.259V19.26ZM10.613 25.1783C10.614 25.2079 10.6171 25.2375 10.6223 25.2661L6.14313 29.7554V23.8545L10.5336 22.0578L10.613 25.1793V25.1783ZM12.6628 30.2916H6.62178L11.1329 25.7717C11.1639 25.7769 11.1938 25.7799 11.2247 25.7809L14.5299 25.9117L12.6617 30.2916H12.6628ZM13.3281 30.5664L15.2108 26.1507L17.5948 28.0884C17.6082 28.0986 17.6216 28.1088 17.636 28.119L17.6897 34.8841L13.3281 30.5664ZM17.9857 27.4827L15.5027 25.4643L18.0518 19.4858L20.3316 25.4326L17.9857 27.4816V27.4827ZM19.038 18.5757L24.9685 16.1477L27.2122 18.3816L24.8757 20.973L19.038 18.5757ZM24.6034 21.6349L24.5569 24.9474L21 25.165L18.7213 19.2192L24.6044 21.6359L24.6034 21.6349ZM18.713 17.9352L21.2249 12.0435L24.6116 11.9056L24.688 15.4888L18.713 17.9342V17.9352ZM18.4097 34.8636L18.3561 28.1068C18.3715 28.0955 18.386 28.0843 18.4004 28.072L20.6039 26.1466L22.3411 30.6788L18.4087 34.8636H18.4097ZM23.0127 30.4173L21.2672 25.8637L24.6622 25.6563C24.688 25.6563 24.7148 25.6533 24.7406 25.6492L29.4776 30.5205L23.0127 30.4163V30.4173ZM29.9676 29.9954L25.2636 25.1568C25.2708 25.1201 25.276 25.0833 25.277 25.0465L25.3213 21.9291L29.9686 23.8381V29.9954H29.9676ZM30.2389 23.1763L25.5803 21.2631L27.8002 18.8004C27.8198 18.7799 27.8374 18.7575 27.8529 18.735L34.4055 18.8453L30.2379 23.1773L30.2389 23.1763ZM34.3859 18.1293L27.8518 18.02C27.8322 17.9924 27.8116 17.9669 27.7879 17.9424L25.6886 15.8525L30.3606 13.9403L34.3859 18.1293ZM30.0821 13.2815L25.4028 15.1967L25.3306 11.8045C25.3306 11.7687 25.3265 11.734 25.3203 11.6993L29.8727 7.29276L30.0811 13.2815H30.0821ZM23.449 6.82596H29.3229L24.8076 11.1957C24.7663 11.1886 24.7251 11.1865 24.6828 11.1875L21.5344 11.3152L23.449 6.82596ZM22.7837 6.55017L20.8587 11.065L18.4365 8.7044C18.4107 8.67886 18.3839 8.65639 18.354 8.63494V2.11402L22.7837 6.55119V6.55017ZM20.5565 11.7738L18.0868 17.5665L15.7843 11.5583L17.9909 9.27436L20.5565 11.7749V11.7738ZM17.6319 2.11402V8.62983C17.603 8.64924 17.5762 8.67069 17.5515 8.69418C17.5484 8.69725 17.5453 8.70031 17.5422 8.70338L15.5006 10.8167L13.683 6.07417L17.633 2.113L17.6319 2.11402ZM13.0156 6.34792L14.8394 11.1068L11.2402 11.1814C11.2103 11.1814 11.1814 11.1845 11.1515 11.1886L6.50832 6.55527L13.0145 6.34792H13.0156ZM10.6305 11.6819C10.6223 11.7218 10.6182 11.7616 10.6182 11.8024V15.117L6.13694 13.2764L6.03274 7.09562L10.6295 11.6829L10.6305 11.6819ZM5.86254 13.9362L10.2891 15.7544L8.10211 17.9311C8.07632 17.9567 8.0526 17.9853 8.03197 18.0159L1.63304 18.022L5.86358 13.9362H5.86254ZM8.03507 18.7299C8.04642 18.7452 8.05878 18.7605 8.07116 18.7748L10.3035 21.3765L5.88007 23.1865L1.59383 18.736L8.03507 18.7299Z"/>
</mask>
<path d="M5.42102 23.7442V30.3846C5.42102 30.7278 5.70162 31.0056 6.04823 31.0056H12.7515L17.6123 35.8177C17.8568 36.0608 18.254 36.0608 18.4995 35.8177C18.5026 35.8146 18.5057 35.8115 18.5088 35.8085L22.9043 31.1303L30.0532 31.2447H30.0646C30.4112 31.2447 30.6918 30.9668 30.6918 30.6236V23.7452L35.3267 18.927C35.5578 18.687 35.5578 18.3101 35.3267 18.0711L30.8094 13.3693L30.5773 6.71258C30.567 6.37754 30.2884 6.11197 29.9501 6.11299H23.3624L18.4417 1.18451C18.1982 0.940383 17.8011 0.93834 17.5545 1.1794C17.5525 1.18144 17.5514 1.18247 17.5494 1.18451L13.1146 5.63189L5.91102 5.86171C5.56957 5.87397 5.29931 6.15487 5.30446 6.49297L5.41999 13.3693L0.688115 17.9393C0.443629 18.1773 0.436393 18.5654 0.672626 18.8126L5.42309 23.7452L5.42102 23.7442ZM17.1532 18.5736L11.006 21.0894L8.67568 18.3734L11.0101 16.0496L17.1532 18.5726V18.5736ZM11.3413 15.4133V11.8944L15.1128 11.8167L17.4534 17.924L11.3403 15.4133H11.3413ZM17.3668 19.26L14.8301 25.2089L11.331 25.07L11.2474 21.7636L17.3668 19.259V19.26ZM10.613 25.1783C10.614 25.2079 10.6171 25.2375 10.6223 25.2661L6.14313 29.7554V23.8545L10.5336 22.0578L10.613 25.1793V25.1783ZM12.6628 30.2916H6.62178L11.1329 25.7717C11.1639 25.7769 11.1938 25.7799 11.2247 25.7809L14.5299 25.9117L12.6617 30.2916H12.6628ZM13.3281 30.5664L15.2108 26.1507L17.5948 28.0884C17.6082 28.0986 17.6216 28.1088 17.636 28.119L17.6897 34.8841L13.3281 30.5664ZM17.9857 27.4827L15.5027 25.4643L18.0518 19.4858L20.3316 25.4326L17.9857 27.4816V27.4827ZM19.038 18.5757L24.9685 16.1477L27.2122 18.3816L24.8757 20.973L19.038 18.5757ZM24.6034 21.6349L24.5569 24.9474L21 25.165L18.7213 19.2192L24.6044 21.6359L24.6034 21.6349ZM18.713 17.9352L21.2249 12.0435L24.6116 11.9056L24.688 15.4888L18.713 17.9342V17.9352ZM18.4097 34.8636L18.3561 28.1068C18.3715 28.0955 18.386 28.0843 18.4004 28.072L20.6039 26.1466L22.3411 30.6788L18.4087 34.8636H18.4097ZM23.0127 30.4173L21.2672 25.8637L24.6622 25.6563C24.688 25.6563 24.7148 25.6533 24.7406 25.6492L29.4776 30.5205L23.0127 30.4163V30.4173ZM29.9676 29.9954L25.2636 25.1568C25.2708 25.1201 25.276 25.0833 25.277 25.0465L25.3213 21.9291L29.9686 23.8381V29.9954H29.9676ZM30.2389 23.1763L25.5803 21.2631L27.8002 18.8004C27.8198 18.7799 27.8374 18.7575 27.8529 18.735L34.4055 18.8453L30.2379 23.1773L30.2389 23.1763ZM34.3859 18.1293L27.8518 18.02C27.8322 17.9924 27.8116 17.9669 27.7879 17.9424L25.6886 15.8525L30.3606 13.9403L34.3859 18.1293ZM30.0821 13.2815L25.4028 15.1967L25.3306 11.8045C25.3306 11.7687 25.3265 11.734 25.3203 11.6993L29.8727 7.29276L30.0811 13.2815H30.0821ZM23.449 6.82596H29.3229L24.8076 11.1957C24.7663 11.1886 24.7251 11.1865 24.6828 11.1875L21.5344 11.3152L23.449 6.82596ZM22.7837 6.55017L20.8587 11.065L18.4365 8.7044C18.4107 8.67886 18.3839 8.65639 18.354 8.63494V2.11402L22.7837 6.55119V6.55017ZM20.5565 11.7738L18.0868 17.5665L15.7843 11.5583L17.9909 9.27436L20.5565 11.7749V11.7738ZM17.6319 2.11402V8.62983C17.603 8.64924 17.5762 8.67069 17.5515 8.69418C17.5484 8.69725 17.5453 8.70031 17.5422 8.70338L15.5006 10.8167L13.683 6.07417L17.633 2.113L17.6319 2.11402ZM13.0156 6.34792L14.8394 11.1068L11.2402 11.1814C11.2103 11.1814 11.1814 11.1845 11.1515 11.1886L6.50832 6.55527L13.0145 6.34792H13.0156ZM10.6305 11.6819C10.6223 11.7218 10.6182 11.7616 10.6182 11.8024V15.117L6.13694 13.2764L6.03274 7.09562L10.6295 11.6829L10.6305 11.6819ZM5.86254 13.9362L10.2891 15.7544L8.10211 17.9311C8.07632 17.9567 8.0526 17.9853 8.03197 18.0159L1.63304 18.022L5.86358 13.9362H5.86254ZM8.03507 18.7299C8.04642 18.7452 8.05878 18.7605 8.07116 18.7748L10.3035 21.3765L5.88007 23.1865L1.59383 18.736L8.03507 18.7299Z" fill="#D200FF"/>
<path d="M5.42102 23.7442V30.3846C5.42102 30.7278 5.70162 31.0056 6.04823 31.0056H12.7515L17.6123 35.8177C17.8568 36.0608 18.254 36.0608 18.4995 35.8177C18.5026 35.8146 18.5057 35.8115 18.5088 35.8085L22.9043 31.1303L30.0532 31.2447H30.0646C30.4112 31.2447 30.6918 30.9668 30.6918 30.6236V23.7452L35.3267 18.927C35.5578 18.687 35.5578 18.3101 35.3267 18.0711L30.8094 13.3693L30.5773 6.71258C30.567 6.37754 30.2884 6.11197 29.9501 6.11299H23.3624L18.4417 1.18451C18.1982 0.940383 17.8011 0.93834 17.5545 1.1794C17.5525 1.18144 17.5514 1.18247 17.5494 1.18451L13.1146 5.63189L5.91102 5.86171C5.56957 5.87397 5.29931 6.15487 5.30446 6.49297L5.41999 13.3693L0.688115 17.9393C0.443629 18.1773 0.436393 18.5654 0.672626 18.8126L5.42309 23.7452L5.42102 23.7442ZM17.1532 18.5736L11.006 21.0894L8.67568 18.3734L11.0101 16.0496L17.1532 18.5726V18.5736ZM11.3413 15.4133V11.8944L15.1128 11.8167L17.4534 17.924L11.3403 15.4133H11.3413ZM17.3668 19.26L14.8301 25.2089L11.331 25.07L11.2474 21.7636L17.3668 19.259V19.26ZM10.613 25.1783C10.614 25.2079 10.6171 25.2375 10.6223 25.2661L6.14313 29.7554V23.8545L10.5336 22.0578L10.613 25.1793V25.1783ZM12.6628 30.2916H6.62178L11.1329 25.7717C11.1639 25.7769 11.1938 25.7799 11.2247 25.7809L14.5299 25.9117L12.6617 30.2916H12.6628ZM13.3281 30.5664L15.2108 26.1507L17.5948 28.0884C17.6082 28.0986 17.6216 28.1088 17.636 28.119L17.6897 34.8841L13.3281 30.5664ZM17.9857 27.4827L15.5027 25.4643L18.0518 19.4858L20.3316 25.4326L17.9857 27.4816V27.4827ZM19.038 18.5757L24.9685 16.1477L27.2122 18.3816L24.8757 20.973L19.038 18.5757ZM24.6034 21.6349L24.5569 24.9474L21 25.165L18.7213 19.2192L24.6044 21.6359L24.6034 21.6349ZM18.713 17.9352L21.2249 12.0435L24.6116 11.9056L24.688 15.4888L18.713 17.9342V17.9352ZM18.4097 34.8636L18.3561 28.1068C18.3715 28.0955 18.386 28.0843 18.4004 28.072L20.6039 26.1466L22.3411 30.6788L18.4087 34.8636H18.4097ZM23.0127 30.4173L21.2672 25.8637L24.6622 25.6563C24.688 25.6563 24.7148 25.6533 24.7406 25.6492L29.4776 30.5205L23.0127 30.4163V30.4173ZM29.9676 29.9954L25.2636 25.1568C25.2708 25.1201 25.276 25.0833 25.277 25.0465L25.3213 21.9291L29.9686 23.8381V29.9954H29.9676ZM30.2389 23.1763L25.5803 21.2631L27.8002 18.8004C27.8198 18.7799 27.8374 18.7575 27.8529 18.735L34.4055 18.8453L30.2379 23.1773L30.2389 23.1763ZM34.3859 18.1293L27.8518 18.02C27.8322 17.9924 27.8116 17.9669 27.7879 17.9424L25.6886 15.8525L30.3606 13.9403L34.3859 18.1293ZM30.0821 13.2815L25.4028 15.1967L25.3306 11.8045C25.3306 11.7687 25.3265 11.734 25.3203 11.6993L29.8727 7.29276L30.0811 13.2815H30.0821ZM23.449 6.82596H29.3229L24.8076 11.1957C24.7663 11.1886 24.7251 11.1865 24.6828 11.1875L21.5344 11.3152L23.449 6.82596ZM22.7837 6.55017L20.8587 11.065L18.4365 8.7044C18.4107 8.67886 18.3839 8.65639 18.354 8.63494V2.11402L22.7837 6.55119V6.55017ZM20.5565 11.7738L18.0868 17.5665L15.7843 11.5583L17.9909 9.27436L20.5565 11.7749V11.7738ZM17.6319 2.11402V8.62983C17.603 8.64924 17.5762 8.67069 17.5515 8.69418C17.5484 8.69725 17.5453 8.70031 17.5422 8.70338L15.5006 10.8167L13.683 6.07417L17.633 2.113L17.6319 2.11402ZM13.0156 6.34792L14.8394 11.1068L11.2402 11.1814C11.2103 11.1814 11.1814 11.1845 11.1515 11.1886L6.50832 6.55527L13.0145 6.34792H13.0156ZM10.6305 11.6819C10.6223 11.7218 10.6182 11.7616 10.6182 11.8024V15.117L6.13694 13.2764L6.03274 7.09562L10.6295 11.6829L10.6305 11.6819ZM5.86254 13.9362L10.2891 15.7544L8.10211 17.9311C8.07632 17.9567 8.0526 17.9853 8.03197 18.0159L1.63304 18.022L5.86358 13.9362H5.86254ZM8.03507 18.7299C8.04642 18.7452 8.05878 18.7605 8.07116 18.7748L10.3035 21.3765L5.88007 23.1865L1.59383 18.736L8.03507 18.7299Z" stroke="#D200FF" stroke-width="0.5" mask="url(#path-1-outside-1_1573_32491)"/>
</svg>
