<svg width="36" height="37" viewBox="0 0 36 37" fill="none" xmlns="http://www.w3.org/2000/svg">
<path d="M17.455 11.747L17.4535 11.7488L17.4463 11.7634L8.95108 29.0229L17.455 11.747ZM17.455 11.747C17.4742 11.7111 17.4963 11.6767 17.5213 11.6444L17.5184 3.12035L1.96672 34.0451L8.9051 29.1395C8.91719 29.0994 8.93248 29.0606 8.95099 29.0231L17.455 11.747ZM0.850314 36.0651L0.857076 36.0574C0.951511 36.1014 1.05373 36.125 1.15823 36.125H34.8432C35.2906 36.125 35.625 35.7143 35.625 35.2457C35.625 35.0941 35.59 34.9447 35.5241 34.8122L35.5238 34.8117L18.6803 1.32117L18.6803 1.32115C18.4693 0.901761 17.9869 0.742036 17.602 0.9973C17.4818 1.07625 17.3851 1.18992 17.3191 1.32118C17.3191 1.32119 17.3191 1.32119 17.3191 1.3212L0.476613 34.8129C0.269371 35.2247 0.387521 35.7569 0.759024 36.0043L0.850314 36.0651ZM9.50748 30.0773L9.50895 30.0773L26.2713 29.8802V29.7553L26.2728 29.8802L26.2722 29.8802C26.2984 29.8802 26.3245 29.8782 26.3504 29.8743L33.6748 35.055H2.33502L9.3921 30.0657C9.43057 30.0736 9.46918 30.0773 9.50748 30.0773ZM18.5514 11.7617L18.5504 11.7596C18.5319 11.7232 18.5102 11.6882 18.4863 11.6557L18.4834 3.12224L34.0295 34.0363L26.8786 28.9797C26.8658 28.9291 26.8478 28.8797 26.8248 28.8333C26.8248 28.8331 26.8247 28.833 26.8246 28.8328L18.5514 11.7617L18.5514 11.7617ZM10.5752 27.9604L17.5236 13.8439L17.5274 23.0461L10.5752 27.9604ZM18.4914 23.0468L18.4875 13.8887L25.2392 27.8195L18.4914 23.0468ZM10.9136 28.9908L18.0089 23.9756L24.8692 28.8276L10.9136 28.9908Z" fill="#D200FF" stroke="#D200FF" stroke-width="0.25"/>
</svg>
