<svg width="23" height="22" viewBox="0 0 23 22" fill="none" xmlns="http://www.w3.org/2000/svg">
<path d="M20.9961 0.902344H12.1446V0.644531C12.1446 0.288578 11.856 0 11.5 0C11.1441 0 10.8555 0.288578 10.8555 0.644531V0.902344H9.7383C9.38235 0.902344 9.09377 1.19092 9.09377 1.54688C9.09377 1.90283 9.38235 2.19141 9.7383 2.19141H10.8555V12.9336H7.8998L8.08856 12.7448C8.34027 12.4931 8.34027 12.085 8.08856 11.8333C7.83685 11.5816 7.42878 11.5816 7.17707 11.8333L5.888 13.1224C5.63629 13.3741 5.63629 13.7822 5.888 14.0339L7.17707 15.323C7.42878 15.5747 7.83685 15.5747 8.08856 15.323C8.34027 15.0712 8.34027 14.6632 8.08856 14.4115L7.8998 14.2227H10.8555V19.8086H9.7383C9.38235 19.8086 9.09377 20.0972 9.09377 20.4531C9.09377 20.8091 9.38235 21.0977 9.7383 21.0977H10.8555V21.3555C10.8555 21.7114 11.1441 22 11.5 22C11.856 22 12.1446 21.7114 12.1446 21.3555V21.0977H20.9961C21.8254 21.0977 22.5 20.423 22.5 19.5938V2.40625C22.5 1.577 21.8254 0.902344 20.9961 0.902344ZM21.211 19.5938C21.211 19.7122 21.1146 19.8086 20.9961 19.8086H12.1446V9.06641H15.1002L14.9115 9.25517C14.6598 9.50688 14.6598 9.91495 14.9115 10.1667C15.1632 10.4184 15.5713 10.4184 15.823 10.1667L17.112 8.8776C17.3638 8.62589 17.3638 8.21782 17.112 7.96611L15.823 6.67704C15.5713 6.42533 15.1632 6.42533 14.9115 6.67704C14.6598 6.92875 14.6598 7.33683 14.9115 7.58854L15.1002 7.7773H12.1446V2.19141H20.9961C21.1146 2.19141 21.211 2.28779 21.211 2.40625V19.5938Z" fill="#030406"/>
<path d="M1.14453 12.5039C1.50048 12.5039 1.78906 12.2153 1.78906 11.8594V10.1406C1.78906 9.78467 1.50048 9.49609 1.14453 9.49609C0.788578 9.49609 0.5 9.78467 0.5 10.1406V11.8594C0.5 12.2153 0.788578 12.5039 1.14453 12.5039Z" fill="#030406"/>
<path d="M1.14453 8.20703C1.50048 8.20703 1.78906 7.91845 1.78906 7.5625V5.84375C1.78906 5.4878 1.50048 5.19922 1.14453 5.19922C0.788578 5.19922 0.5 5.4878 0.5 5.84375V7.5625C0.5 7.91845 0.788578 8.20703 1.14453 8.20703Z" fill="#030406"/>
<path d="M2.86328 0.902344H2.00391C1.17465 0.902344 0.5 1.577 0.5 2.40625V3.26562C0.5 3.62158 0.788578 3.91016 1.14453 3.91016C1.50048 3.91016 1.78906 3.62158 1.78906 3.26562V2.40625C1.78906 2.28779 1.88544 2.19141 2.00391 2.19141H2.86328C3.21923 2.19141 3.50781 1.90283 3.50781 1.54688C3.50781 1.19092 3.21923 0.902344 2.86328 0.902344Z" fill="#030406"/>
<path d="M5.44141 2.19141H7.16016C7.51611 2.19141 7.80469 1.90283 7.80469 1.54688C7.80469 1.19092 7.51611 0.902344 7.16016 0.902344H5.44141C5.08545 0.902344 4.79688 1.19092 4.79688 1.54688C4.79688 1.90283 5.08545 2.19141 5.44141 2.19141Z" fill="#030406"/>
<path d="M7.16016 19.8086H5.44141C5.08545 19.8086 4.79688 20.0972 4.79688 20.4531C4.79688 20.8091 5.08545 21.0977 5.44141 21.0977H7.16016C7.51611 21.0977 7.80469 20.8091 7.80469 20.4531C7.80469 20.0972 7.51611 19.8086 7.16016 19.8086Z" fill="#030406"/>
<path d="M1.14453 16.8008C1.50048 16.8008 1.78906 16.5122 1.78906 16.1562V14.4375C1.78906 14.0815 1.50048 13.793 1.14453 13.793C0.788578 13.793 0.5 14.0815 0.5 14.4375V16.1562C0.5 16.5122 0.788578 16.8008 1.14453 16.8008Z" fill="#030406"/>
<path d="M2.86328 19.8086H2.00391C1.88544 19.8086 1.78906 19.7122 1.78906 19.5938V18.7344C1.78906 18.3784 1.50048 18.0898 1.14453 18.0898C0.788578 18.0898 0.5 18.3784 0.5 18.7344V19.5938C0.5 20.423 1.17465 21.0977 2.00391 21.0977H2.86328C3.21923 21.0977 3.50781 20.8091 3.50781 20.4531C3.50781 20.0972 3.21923 19.8086 2.86328 19.8086Z" fill="#030406"/>
</svg>
