<svg width="18" height="22" viewBox="0 0 18 22" fill="none" xmlns="http://www.w3.org/2000/svg">
<g id="Vector">
<path d="M8.69283 10.353H10.0225V17.4706H8.69283V10.353Z" fill="#030406"/>
<path d="M6.03353 10.353H7.3632V17.4706H6.03353V10.353Z" fill="#030406"/>
<path d="M11.3522 10.353H12.6819V17.4706H11.3522V10.353Z" fill="#030406"/>
<path d="M18.0006 2.58824H12.6819V1.94118C12.6819 0.870812 11.7872 0 10.6874 0H8.02803C6.92822 0 6.03353 0.870812 6.03353 1.94118V2.58824H0.714844V6.47059H2.09983L3.32242 20.1556C3.3752 21.1912 4.24711 22 5.31444 22H13.4009C14.4682 22 15.3402 21.1912 15.3929 20.1556L16.6156 6.47059H18.0006V2.58824ZM7.3632 1.94118C7.3632 1.58439 7.66144 1.29412 8.02803 1.29412H10.6874C11.054 1.29412 11.3522 1.58439 11.3522 1.94118V2.58824H7.3632V1.94118ZM2.04451 3.88235H16.6709V5.17647H2.04451V3.88235ZM14.0652 20.0857C14.0503 20.4335 13.7586 20.7059 13.401 20.7059H5.31444C4.95685 20.7059 4.66507 20.4335 4.65018 20.0857C3.34941 5.51799 3.43836 6.51407 3.43446 6.47059H15.2809C15.2774 6.50963 15.3602 5.5833 14.0652 20.0857Z" fill="#030406"/>
</g>
</svg>
