<svg width="15" height="14" viewBox="0 0 15 14" fill="none" xmlns="http://www.w3.org/2000/svg">
<path id="Vector" d="M8.66667 14H6.33333C6.02391 14 5.72717 13.8771 5.50838 13.6583C5.28958 13.4395 5.16667 13.1428 5.16667 12.8333V8.40583L0.844167 4.08333C0.625074 3.86555 0.501302 3.56975 0.5 3.26083V1.16667C0.5 0.857247 0.622916 0.560501 0.841709 0.341709C1.0605 0.122916 1.35725 0 1.66667 0H13.3333C13.6428 0 13.9395 0.122916 14.1583 0.341709C14.3771 0.560501 14.5 0.857247 14.5 1.16667V3.26083C14.4987 3.56975 14.3749 3.86555 14.1558 4.08333L9.83333 8.40583V12.8333C9.83333 13.1428 9.71042 13.4395 9.49162 13.6583C9.27283 13.8771 8.97609 14 8.66667 14ZM1.66667 1.16667V3.26083L6.33333 7.9275V12.8333H8.66667V7.9275L13.3333 3.26083V1.16667H1.66667Z" fill="#030406"/>
</svg>
