<svg width="20" height="20" viewBox="0 0 20 20" fill="none" xmlns="http://www.w3.org/2000/svg">
<rect width="20" height="20" fill="#F5F5F5"/>
<g id="List &#38; Compare">
<rect width="1920" height="1080" transform="translate(-1312 -321)" fill="white"/>
<g id="Frame 2362">
<rect width="1812" height="192" transform="translate(-1204 -154)" fill="white"/>
<g id="compare product item">
<rect width="294" height="192" transform="translate(-92 -154)" fill="#E6E6E6" fill-opacity="0.6"/>
<g id="Frame 2195">
<g id="General button" opacity="0.8">
<rect x="-48" y="-6" width="206" height="32" rx="8" fill="#0000FF"/>
<path id="Vector" d="M0.229019 17.6354L6.27614 11.5883C6.4227 11.4417 6.62142 11.3594 6.8287 11.3594C7.01835 11.3594 7.2003 11.429 7.34225 11.553L8.19546 10.6998C6.15697 8.12112 6.30537 4.34387 8.71562 1.93358C11.2937 -0.644487 15.4886 -0.644565 18.0668 1.93358C20.6507 4.51758 20.6511 8.70028 18.0668 11.2847C15.6907 13.6607 11.9112 13.8623 9.30099 11.8044L8.44724 12.6581C8.71574 12.965 8.70457 13.4316 8.41196 13.7241L2.36483 19.7712C2.05988 20.0762 1.56488 20.0763 1.25977 19.7712L0.744493 19.256L0.229059 18.7405C-0.0760899 18.4353 -0.0760918 17.9406 0.229019 17.6354ZM9.82069 10.1796C11.794 12.1529 14.9881 12.1531 16.9617 10.1796C18.9349 8.20638 18.9353 5.01215 16.9617 3.03856C14.993 1.06986 11.7895 1.06974 9.82069 3.03856C7.84741 5.0118 7.84702 8.20603 9.82069 10.1796Z" fill="white"/>
</g>
</g>
</g>
</g>
</g>
</svg>
