<svg width="21" height="20" viewBox="0 0 21 20" fill="none" xmlns="http://www.w3.org/2000/svg">
<g id="Vector">
<path d="M19.9141 7.40233H17.6922C17.3684 7.40233 17.1062 7.66483 17.1062 7.98827C17.1062 8.31171 17.3684 8.57421 17.6922 8.57421H18.2125V12.0117C18.2125 12.3351 18.475 12.5976 18.7984 12.5976C19.1223 12.5976 19.3844 12.3351 19.3844 12.0117V8.57421H19.9141C20.2375 8.57421 20.5 8.31171 20.5 7.98827C20.5 7.66483 20.2375 7.40233 19.9141 7.40233Z" fill="#030406"/>
<path d="M7.11719 8.57421C7.44078 8.57421 7.70313 8.31186 7.70313 7.98827C7.70313 7.66467 7.44078 7.40233 7.11719 7.40233H5.42187C5.09828 7.40233 4.83594 7.66467 4.83594 7.98827V12.0117C4.83594 12.3353 5.09828 12.5976 5.42187 12.5976H7.11719C7.44078 12.5976 7.70313 12.3353 7.70313 12.0117C7.70313 11.6881 7.44078 11.4258 7.11719 11.4258H6.00781V10.5859H6.99219C7.31578 10.5859 7.57813 10.3236 7.57813 9.99999C7.57813 9.67639 7.31578 9.41405 6.99219 9.41405H6.00781V8.57421H7.11719Z" fill="#030406"/>
<path d="M15.5855 8.57421C15.909 8.57421 16.1715 8.31171 16.1715 7.98827C16.1715 7.66483 15.909 7.40233 15.5855 7.40233H13.8902C13.5664 7.40233 13.3043 7.66483 13.3043 7.98827V12.0117C13.3043 12.3351 13.5664 12.5976 13.8902 12.5976H15.5855C15.909 12.5976 16.1715 12.3351 16.1715 12.0117C16.1715 11.6883 15.909 11.4258 15.5855 11.4258H14.4762V10.5859H15.4602C15.784 10.5859 16.0461 10.3234 16.0461 9.99999C16.0461 9.67655 15.784 9.41405 15.4602 9.41405H14.4762V8.57421H15.5855Z" fill="#030406"/>
<path d="M3.26133 12.5976C3.39883 12.5976 3.53711 12.5496 3.64844 12.4516C3.89141 12.2379 3.91485 11.8676 3.70118 11.6246L2.76133 10.557C3.39571 10.3215 3.84727 9.72772 3.84727 9.03397C3.84727 8.13436 3.08868 7.40233 2.15625 7.40233H1.08672C1.08633 7.40233 1.08633 7.40233 1.08594 7.40233C0.7625 7.40233 0.5 7.66483 0.5 7.98827V12.0117C0.5 12.3351 0.7625 12.5976 1.08594 12.5976C1.40938 12.5976 1.67188 12.3351 1.67188 12.0117V11.0926L2.82149 12.3988C2.93711 12.5305 3.09883 12.5976 3.26133 12.5976ZM2.15625 9.49374C2.04141 9.49374 1.85899 9.49413 1.67735 9.4953C1.67656 9.31835 1.67539 8.75936 1.675 8.57421H2.15625C2.4375 8.57421 2.67539 8.78475 2.67539 9.03397C2.67539 9.28319 2.4375 9.49374 2.15625 9.49374Z" fill="#030406"/>
<path d="M2.8625 4.46367C3.1125 4.66953 3.48165 4.63438 3.68751 4.38477C5.37266 2.34297 7.85587 1.17188 10.5 1.17188C12.6973 1.17188 14.7828 1.98086 16.3918 3.42578H15.5203C15.1969 3.42578 14.9344 3.68828 14.9344 4.01172C14.9344 4.33555 15.1969 4.59766 15.5203 4.59766H17.7645C17.8992 4.59766 18.0332 4.54961 18.1375 4.46367C18.2707 4.35391 18.3508 4.18399 18.3504 4.01094V1.76797C18.3504 1.44414 18.0879 1.18203 17.7645 1.18203C17.4407 1.18203 17.1785 1.44414 17.1785 1.76797V2.55703C15.3551 0.917969 12.991 0 10.5 0C7.5047 0 4.69219 1.32617 2.7836 3.63867C2.57774 3.88828 2.61328 4.25781 2.8625 4.46367Z" fill="#030406"/>
<path d="M10.5309 11.4258C10.1571 11.4265 9.79137 11.2746 9.56289 11.0219C9.3457 10.782 8.975 10.7637 8.73555 10.9812C8.4957 11.1984 8.47734 11.5691 8.69453 11.8086C9.14808 12.3103 9.82129 12.5979 10.5309 12.5976C11.4191 12.5976 12.1656 12.0277 12.3059 11.2426C12.4117 10.6488 12.1461 9.87421 11.0832 9.48202C10.8754 9.40585 10.6742 9.32616 10.5 9.25546C10.2711 9.1621 10.0895 9.08397 10.0031 9.04608C9.93711 8.98749 9.93633 8.91053 9.94258 8.86718C9.95039 8.8121 9.9918 8.67655 10.2043 8.61249C10.3051 8.58202 10.4047 8.57186 10.5 8.57577C10.9047 8.59061 11.2313 8.85038 11.2355 8.85389C11.5512 9.01444 11.9203 8.90155 12.0688 8.63866C12.1852 8.4328 12.1535 8.15663 11.9855 7.9535C11.5469 7.56952 11.0195 7.391 10.5 7.39491C10.2855 7.39608 10.0719 7.42889 9.86641 7.49061C9.27969 7.66717 8.86445 8.13085 8.78242 8.70077C8.70547 9.2371 8.93828 9.7535 9.38984 10.048C9.41562 10.0648 9.44297 10.0797 9.47109 10.0922C9.49219 10.1015 9.94922 10.3051 10.5 10.5152C10.5582 10.5371 10.6176 10.5594 10.6773 10.5816C10.8 10.6266 11.1957 10.7926 11.152 11.0367C11.1188 11.2238 10.8715 11.4258 10.5309 11.4258Z" fill="#030406"/>
<path d="M18.0485 15.5363C17.7992 15.3304 17.4297 15.3656 17.2239 15.6152C15.5574 17.6343 13.111 18.8019 10.5 18.8277C8.27497 18.8505 6.14899 18.0387 4.51953 16.5742H5.39102C5.71446 16.5742 5.97696 16.3117 5.97696 15.9883C5.97696 15.6644 5.71446 15.4023 5.39102 15.4023H3.14688C2.83203 15.3965 2.55508 15.6742 2.56094 15.989V18.232C2.56094 18.5558 2.82344 18.8179 3.14688 18.8179C3.4707 18.8179 3.73281 18.5558 3.73281 18.232V17.4429C5.57676 19.1015 7.98122 20.0225 10.5 19.9996C13.4621 19.9738 16.2379 18.6511 18.1278 16.3613C18.3336 16.1117 18.2981 15.7422 18.0485 15.5363Z" fill="#030406"/>
</g>
</svg>
