<svg width="22" height="20" viewBox="0 0 22 20" fill="none" xmlns="http://www.w3.org/2000/svg">
<g id="Vector">
<path d="M11 11.3616H1.11523C0.775461 11.3616 0.5 11.637 0.5 11.9768C0.5 12.3166 0.775461 12.592 1.11523 12.592H11C11.3398 12.592 11.6152 12.3166 11.6152 11.9768C11.6152 11.637 11.3398 11.3616 11 11.3616Z" fill="#030406"/>
<path d="M11 15.3155H1.11523C0.775461 15.3155 0.5 15.591 0.5 15.9307C0.5 16.2705 0.775461 16.546 1.11523 16.546H11C11.3398 16.546 11.6152 16.2705 11.6152 15.9307C11.6152 15.591 11.3398 15.3155 11 15.3155Z" fill="#030406"/>
<path d="M11 3.4538H1.11523C0.775461 3.4538 0.5 3.72926 0.5 4.06903C0.5 4.4088 0.775461 4.68427 1.11523 4.68427H11C11.3398 4.68427 11.6152 4.4088 11.6152 4.06903C11.6152 3.72926 11.3398 3.4538 11 3.4538Z" fill="#030406"/>
<path d="M11 7.40771H1.11523C0.775461 7.40771 0.5 7.68318 0.5 8.02295C0.5 8.36272 0.775461 8.63818 1.11523 8.63818H11C11.3398 8.63818 11.6152 8.36272 11.6152 8.02295C11.6152 7.68318 11.3398 7.40771 11 7.40771Z" fill="#030406"/>
<path d="M20.4497 14.8367L18.205 17.0814V2.9184L20.4497 5.16307C20.6899 5.40334 21.0795 5.40334 21.3198 5.16307C21.56 4.92284 21.56 4.53327 21.3198 4.293L18.0249 0.998094C17.9095 0.882717 17.753 0.817871 17.5899 0.817871C17.4267 0.817871 17.2702 0.882717 17.1548 0.998094L13.8599 4.293C13.6196 4.53327 13.6196 4.9228 13.8599 5.16307C14.1001 5.40334 14.4897 5.40334 14.73 5.16307L16.9747 2.9184V17.0814L14.73 14.8367C14.4897 14.5965 14.1002 14.5965 13.8599 14.8367C13.6196 15.077 13.6196 15.4665 13.8599 15.7068L17.1548 19.0017C17.2702 19.1171 17.4267 19.1819 17.5899 19.1819C17.753 19.1819 17.9095 19.1171 18.0249 19.0017L21.3198 15.7068C21.56 15.4665 21.56 15.077 21.3198 14.8367C21.0795 14.5964 20.69 14.5964 20.4497 14.8367Z" fill="#030406"/>
</g>
</svg>
