<svg width="32" height="21" viewBox="0 0 32 21" fill="none" xmlns="http://www.w3.org/2000/svg">
<g id="Vector">
<path d="M2.596 8.97869L3.41478 5.70365C3.19093 5.6561 3.02296 5.4575 3.02296 5.21957V4.69152C3.02296 3.54502 3.95573 2.61231 5.10217 2.61231H8.83153V1.52312C8.83153 0.958945 9.29048 0.5 9.85465 0.5H28.8647C29.4289 0.5 29.8878 0.958945 29.8878 1.52312V10.5001C29.8878 10.7735 29.6662 10.9952 29.3927 10.9952C29.1194 10.9952 28.8977 10.7735 28.8977 10.5001V1.52312C28.8977 1.5049 28.8829 1.49014 28.8647 1.49014H9.85471C9.83649 1.49014 9.82174 1.5049 9.82174 1.52312V10.5002C9.82174 10.7736 9.60011 10.9953 9.32667 10.9953C9.05329 10.9953 8.8316 10.7737 8.8316 10.5002V9.93901H2.99171C2.99122 9.93901 2.99085 9.93913 2.99042 9.93913C2.98992 9.93913 2.98949 9.93907 2.98906 9.93907C2.27044 9.93956 1.66027 10.4112 1.45068 11.0612H2.99005C3.26342 11.0612 3.48512 11.2828 3.48512 11.5562V12.6123C3.48512 13.4677 2.78929 14.1635 1.93395 14.1635H1.37287V16.3417H2.66733C3.09256 15.1139 4.25974 14.2295 5.63034 14.2295C7.00094 14.2295 8.16819 15.1139 8.59335 16.3417H8.83172V12.6123C8.83172 12.3389 9.05335 12.1172 9.32679 12.1172C9.60017 12.1172 9.82186 12.3388 9.82186 12.6123V16.3416H20.093C20.5183 15.1138 21.6855 14.2293 23.0561 14.2293C24.4267 14.2293 25.5939 15.1138 26.0191 16.3416H28.8647C28.8829 16.3416 28.8977 16.3268 28.8977 16.3086V15.2195H26.7524C26.4791 15.2195 26.2574 14.9978 26.2574 14.7244C26.2574 14.451 26.479 14.2293 26.7524 14.2293H31.5049C31.7783 14.2293 32 14.451 32 14.7244C32 14.9978 31.7784 15.2195 31.5049 15.2195H29.8878V16.3086C29.8878 16.8728 29.4288 17.3317 28.8646 17.3317H26.1905C26.1906 17.3427 26.1914 17.3536 26.1914 17.3647C26.1914 19.0935 24.7848 20.5 23.0561 20.5C21.3273 20.5 19.9208 19.0935 19.9208 17.3647C19.9208 17.3536 19.9215 17.3427 19.9216 17.3317H8.76478C8.7649 17.3427 8.76564 17.3536 8.76564 17.3647C8.76564 19.0935 7.3591 20.5 5.63034 20.5C3.90158 20.5 2.49504 19.0935 2.49504 17.3647C2.49504 17.3536 2.49578 17.3427 2.4959 17.3317H0.877798C0.60442 17.3317 0.382729 17.1101 0.382729 16.8367V11.5561C0.382666 10.2524 1.34459 9.1692 2.596 8.97869ZM8.83153 3.60239H5.10217C4.50163 3.60239 4.01304 4.09098 4.01304 4.69152V4.7245H8.83153V3.60239ZM8.83153 8.94893V5.71458H4.43259L3.624 8.94893H8.83153ZM23.0561 19.51C24.2389 19.51 25.2013 18.5478 25.2013 17.3648C25.2013 16.1819 24.2389 15.2196 23.0561 15.2196C21.8732 15.2196 20.9108 16.1819 20.9108 17.3648C20.9108 18.5478 21.8732 19.51 23.0561 19.51ZM5.63022 19.51C6.81309 19.51 7.77544 18.5478 7.77544 17.3648C7.77544 16.1819 6.81309 15.2196 5.63022 15.2196C4.44735 15.2196 3.48499 16.1819 3.48499 17.3648C3.48499 18.5478 4.44735 19.51 5.63022 19.51ZM1.37274 13.1734H1.93383C2.24321 13.1734 2.49491 12.9217 2.49491 12.6123V12.0512H1.37281L1.37274 13.1734Z" fill="black"/>
<path d="M23.0561 16.3417C23.6202 16.3417 24.0792 16.8007 24.0792 17.3648C24.0792 17.929 23.6202 18.3879 23.0561 18.3879C22.4919 18.3879 22.0329 17.929 22.0329 17.3648C22.0329 16.8007 22.4919 16.3417 23.0561 16.3417Z" fill="black"/>
<path d="M5.63022 16.3417C6.19439 16.3417 6.65334 16.8007 6.65334 17.3648C6.65334 17.929 6.19439 18.3879 5.63022 18.3879C5.06604 18.3879 4.6071 17.929 4.6071 17.3648C4.6071 16.8007 5.06604 16.3417 5.63022 16.3417Z" fill="black"/>
<path d="M11.4389 14.2295H18.8316C19.105 14.2295 19.3267 14.4511 19.3267 14.7246C19.3267 14.998 19.1051 15.2197 18.8316 15.2197H11.4389C11.1655 15.2197 10.9438 14.998 10.9438 14.7246C10.9438 14.4511 11.1654 14.2295 11.4389 14.2295Z" fill="black"/>
<path d="M24.1122 12.1173H30.4488C30.7222 12.1173 30.9439 12.3389 30.9439 12.6123C30.9439 12.8858 30.7223 13.1074 30.4488 13.1074H24.1122C23.8388 13.1074 23.6171 12.8858 23.6171 12.6123C23.6171 12.3389 23.8388 12.1173 24.1122 12.1173Z" fill="black"/>
<path d="M14.7852 5.39748C14.9785 5.20419 15.292 5.20419 15.4853 5.39754L19.8877 9.79994L22.1779 7.50972C22.3713 7.31638 22.6847 7.31638 22.878 7.50972C23.0714 7.70307 23.0714 8.01647 22.878 8.20981L20.2377 10.8501C20.1411 10.9468 20.0144 10.9951 19.8877 10.9951C19.7611 10.9951 19.6343 10.9468 19.5377 10.8501L14.7852 6.09763C14.5919 5.90422 14.5919 5.59082 14.7852 5.39748Z" fill="black"/>
</g>
</svg>
