<svg width="27" height="27" viewBox="0 0 27 27" fill="none" xmlns="http://www.w3.org/2000/svg">
<path d="M20.265 10.071L19.5294 9.33536C18.6412 8.44715 17.4604 7.95796 16.2043 7.95796C16.196 7.95796 7.99321 7.96144 7.98762 7.96144L5.70454 10.0709H0V22.7279H7.81508L11.1617 26.0747C11.7785 26.6915 12.5888 27 13.399 27C14.2093 27 15.0195 26.6915 15.6363 26.0747L18.9829 22.7279H27V10.0709L20.265 10.071ZM18.6195 20.1082L14.1448 24.5831C13.7336 24.9943 13.0644 24.9943 12.6532 24.5831L8.68878 20.6185H2.10938V12.1805H6.52983L8.81292 10.071H12.1437L5.90024 16.3148L6.64601 17.0606C8.70476 19.1195 12.0426 19.1218 14.1038 17.0606L15.5837 15.5806L18.6195 18.6165C19.0316 19.0287 19.0317 19.6959 18.6195 20.1082ZM24.8906 20.6185H20.7796C21.271 19.4822 21.0699 18.0839 20.111 17.1249L15.5836 12.5973L12.6122 15.569C11.6208 16.5604 10.1625 16.7398 9.00998 16.188L14.3707 10.827C14.8605 10.3372 15.5117 10.0675 16.2043 10.0675C16.8969 10.0675 17.548 10.3372 18.0378 10.827L19.3912 12.1804H24.8906V20.6185Z" fill="#030406"/>
<path d="M12.4453 0H14.5547V4.21899H12.4453V0Z" fill="#030406"/>
<path d="M3.05834 4.551L4.54966 3.05959L7.53228 6.04238L6.04095 7.53379L3.05834 4.551Z" fill="#030406"/>
<path d="M19.4635 6.04426L22.4461 3.06148L23.9375 4.55289L20.9548 7.53568L19.4635 6.04426Z" fill="#030406"/>
</svg>
