<svg width="167" height="52" viewBox="0 0 167 52" fill="none" xmlns="http://www.w3.org/2000/svg">
<path d="M53.6504 9.55266C53.9176 9.55266 54.1484 9.787 54.1484 10.0275V20.7581C54.1484 21.0602 53.9844 21.3624 53.7475 21.5659C51.7555 23.2865 48.6947 24.2979 45.5063 24.2979C38.3278 24.2979 33.5421 19.4383 33.5421 12.149C33.5421 4.85958 38.3338 0 45.5123 0C47.972 0 50.5652 0.740038 52.4904 1.95493C52.7576 2.09061 52.8548 2.36195 52.788 2.5593L51.1239 7.51755C51.0268 7.7519 50.7899 7.85674 50.4923 7.7889C49.1319 7.04886 47.3707 6.60484 45.7067 6.60484C42.6519 6.60484 40.587 8.83112 40.587 12.1366C40.587 15.4421 42.6458 17.7362 45.7067 17.7362C46.9334 17.7362 47.7655 17.5019 48.1299 17.0949V15.1399H45.0751C44.7775 15.1399 44.5771 15.0043 44.5406 14.7699L44.1094 10.1139C44.0791 9.77467 44.2734 9.54032 44.6439 9.54032H53.6504V9.55266Z" fill="white"/>
<path d="M72.2646 17.7486C72.5318 17.7486 72.7626 17.9521 72.7626 18.1864V23.3482C72.7626 23.5825 72.5318 23.8231 72.2646 23.8231H56.8145C56.5837 23.8231 56.3469 23.5517 56.2801 23.3174V1.01139C56.2801 0.709203 56.444 0.536528 56.7477 0.536528H71.8699C72.1675 0.536528 72.4043 0.770873 72.4043 1.01139V6.10531C72.4043 6.4075 72.1735 6.61101 71.8699 6.61101H63.1974V9.27514H70.2423C70.5399 9.27514 70.7099 9.50949 70.6735 9.713L70.2058 14.4369C70.1755 14.6404 69.9386 14.8748 69.641 14.8748H63.1974V17.7424H72.2707L72.2646 17.7486Z" fill="white"/>
<path d="M100.414 0.542695C100.681 0.542695 100.881 0.77704 100.881 1.04839V23.3544C100.881 23.5887 100.681 23.8292 100.414 23.8292H94.2677C94.0005 23.8292 93.7697 23.5949 93.7697 23.3544V13.4317L90.4113 23.3174C90.3141 23.5887 89.8768 23.8231 89.5792 23.8231H85.9232C85.6256 23.8231 85.1944 23.5887 85.0912 23.3174L81.7327 13.4317V23.3544C81.7327 23.5887 81.5019 23.8292 81.2347 23.8292H75.0887C74.8214 23.8292 74.621 23.5949 74.621 23.3544V1.04839C74.621 0.77704 74.8214 0.542695 75.0887 0.542695H82.0364C82.4676 0.542695 82.9656 0.844877 83.166 1.2149L87.7512 14.1039L92.3364 1.2149C92.5369 0.844877 93.0349 0.542695 93.4661 0.542695H100.414Z" fill="white"/>
<path d="M109.621 0.542695C109.918 0.542695 110.119 0.77704 110.119 1.04839V23.3544C110.119 23.5887 109.918 23.8292 109.621 23.8292H103.742C103.511 23.8292 103.274 23.5949 103.274 23.3544V1.04839C103.274 0.77704 103.505 0.542695 103.742 0.542695H109.621Z" fill="white"/>
<path d="M129.662 0.542695C129.96 0.542695 130.16 0.77704 130.13 1.01755L129.632 6.14848C129.601 6.41983 129.334 6.62334 129.097 6.62334H124.148V23.3605C124.148 23.5949 123.947 23.8354 123.68 23.8354H117.801C117.534 23.8354 117.303 23.601 117.303 23.3605V6.61101H111.789C111.558 6.61101 111.321 6.4075 111.321 6.13615V1.04839C111.321 0.77704 111.552 0.542695 111.789 0.542695H129.668H129.662Z" fill="white"/>
<path d="M8.17448 28.2078C15.2194 28.2078 19.9018 32.833 19.9018 39.851C19.9018 46.8691 15.2194 51.4943 8.17448 51.4943H0.467634C0.236854 51.4943 0 51.26 0 50.9886V28.7196C0 28.4483 0.23078 28.2139 0.467634 28.2139H8.17448V28.2078ZM8.57531 45.4137C11.1321 45.4137 12.863 43.1874 12.863 39.8449C12.863 36.5024 11.1321 34.2761 8.57531 34.2761H6.84446V45.4137H8.57531Z" fill="white"/>
<path d="M28.1188 28.2078C28.4164 28.2078 28.6168 28.4421 28.6168 28.7135V51.0195C28.6168 51.2538 28.4164 51.4943 28.1188 51.4943H22.2399C22.0092 51.4943 21.7723 51.26 21.7723 51.0195V28.7135C21.7723 28.4421 22.0031 28.2078 22.2399 28.2078H28.1188Z" fill="white"/>
<path d="M52.6726 51.0503C52.7698 51.2538 52.6422 51.4881 52.375 51.4881H45.7978C45.5002 51.4881 45.233 51.3216 45.0994 51.0503L44.1034 47.5104H37.8541L36.8581 51.0503C36.7245 51.3216 36.4572 51.4881 36.1596 51.4881H29.5824C29.3152 51.4881 29.1816 51.2538 29.2848 51.0503L36.7973 28.6456C36.8945 28.4421 37.265 28.2078 37.5929 28.2078H44.3706C44.7046 28.2078 45.069 28.4421 45.1662 28.6456L52.6787 51.0503H52.6726ZM43.8301 36.7922L42.8584 36.5455H39.0869L38.1152 36.7922L35.9471 38.2415V38.519L40.9757 43.1134L46.0043 38.519V38.2415L43.8361 36.7922H43.8301Z" fill="white"/>
<path d="M79.1273 28.2078C79.3945 28.2078 79.5949 28.4421 79.5949 28.7135V51.0195C79.5949 51.2538 79.3945 51.4943 79.1273 51.4943H72.9813C72.714 51.4943 72.4833 51.26 72.4833 51.0195V41.0968L69.1248 50.9824C69.0276 51.2538 68.5904 51.4881 68.2928 51.4881H64.6367C64.3391 51.4881 63.9079 51.2538 63.8047 50.9824L60.4462 41.0968V51.0195C60.4462 51.2538 60.2155 51.4943 59.9482 51.4943H53.8022C53.535 51.4943 53.3346 51.26 53.3346 51.0195V28.7135C53.3346 28.4421 53.535 28.2078 53.8022 28.2078H60.7499C61.1811 28.2078 61.6791 28.51 61.8795 28.88L66.4648 41.769L71.05 28.88C71.2504 28.51 71.7484 28.2078 72.1796 28.2078H79.1273Z" fill="white"/>
<path d="M93.4539 51.963C86.3787 51.963 81.6598 47.1034 81.6598 39.851C81.6598 32.5987 86.3787 27.6713 93.4539 27.6713C100.529 27.6713 105.248 32.5308 105.248 39.851C105.248 47.1713 100.529 51.963 93.4539 51.963ZM93.4539 34.4858C90.7271 34.4858 88.899 36.6442 88.899 39.851C88.899 43.0579 90.7271 45.2163 93.4539 45.2163C96.1808 45.2163 98.0088 43.0579 98.0088 39.851C98.0088 36.6442 96.1808 34.4858 93.4539 34.4858Z" fill="white"/>
<path d="M126.425 28.2078C126.723 28.2078 126.923 28.4421 126.923 28.7135V51.0195C126.923 51.2538 126.723 51.4943 126.425 51.4943H120.674C120.443 51.4943 120.139 51.3278 119.975 51.0564L114.194 40.5602V51.0195C114.194 51.2538 113.993 51.4943 113.696 51.4943H107.817C107.55 51.4943 107.349 51.26 107.349 51.0195V28.7135C107.349 28.4421 107.55 28.2078 107.817 28.2078H113.568C113.866 28.2078 114.2 28.3743 114.333 28.6456L120.085 39.1418V28.7135C120.085 28.4421 120.316 28.2078 120.552 28.2078H126.431H126.425Z" fill="white"/>
<path d="M137.49 28.2078C144.535 28.2078 149.218 32.833 149.218 39.851C149.218 46.8691 144.535 51.4943 137.49 51.4943H129.784C129.553 51.4943 129.316 51.26 129.316 50.9886V28.7196C129.316 28.4483 129.547 28.2139 129.784 28.2139H137.49V28.2078ZM137.891 45.4137C140.448 45.4137 142.179 43.1874 142.179 39.8449C142.179 36.5024 140.448 34.2761 137.891 34.2761H136.16V45.4137H137.891Z" fill="white"/>
<path d="M152.916 44.4023C153.013 44.0631 153.25 43.9644 153.511 44.1309C155.042 45.0066 156.87 45.648 158.133 45.7528C159.196 45.7528 159.894 45.2472 159.894 44.4701C159.894 42.4782 150.554 42.583 150.554 35.2258C150.554 30.7054 153.912 27.7021 158.959 27.7021C161.322 27.7021 164.31 28.6826 166.405 30.1319C166.672 30.2984 166.769 30.5697 166.672 30.7424L164.577 35.4972C164.48 35.8363 164.243 35.935 163.976 35.7685C162.348 34.825 160.453 34.1158 159.293 34.0109C158.261 34.0109 157.599 34.4858 157.599 35.2258C157.599 37.2177 167 37.0821 167 44.5071C167 48.9967 163.575 52 158.461 52C155.667 52 152.746 51.1243 151.082 49.7737C150.815 49.5702 150.718 49.3359 150.815 49.1694L152.91 44.4146L152.916 44.4023Z" fill="white"/>
</svg>
