<svg width="44" height="30" viewBox="0 0 44 30" fill="none" xmlns="http://www.w3.org/2000/svg">
<g id="Vector">
<path d="M44 27.4284C44 28.8486 42.8355 29.9999 41.3991 29.9999H2.6009C1.16445 30 0 28.8486 0 27.4284V2.57147C0 1.15132 1.16445 0 2.6009 0H41.3991C42.8356 0 44 1.15132 44 2.57147V27.4284Z" fill="#306FC5"/>
<path d="M1.84912 27.4284V2.57147C1.84912 1.15132 3.01374 0 4.45019 0H2.6009C1.16445 0 0 1.15132 0 2.57147V27.4284C0 28.8486 1.16445 30 2.6009 29.9999L4.45027 30C3.01383 30 1.84912 28.8486 1.84912 27.4284Z" fill="#202121"/>
<path d="M6.41008 12.0049H7.72475L7.06759 10.3507L6.41008 12.0049Z" fill="white"/>
<path d="M13.4016 17.558V18.3261H15.6127V19.1534H13.4016V20.0398H15.8516L16.9869 18.7988L15.9114 17.558H13.4016Z" fill="white"/>
<path d="M30.6709 10.3507L29.9538 12.0049H31.3283L30.6709 10.3507Z" fill="white"/>
<path d="M19.7955 20.5119V17.1445L18.2418 18.7988L19.7955 20.5119Z" fill="white"/>
<path d="M22.7236 18.0899C22.6638 17.7354 22.4245 17.558 22.0658 17.558H20.8112V18.6213H22.126C22.4844 18.6214 22.7236 18.4443 22.7236 18.0899Z" fill="white"/>
<path d="M26.9062 18.5035C27.0257 18.4443 27.0857 18.2669 27.0857 18.09C27.1455 17.8539 27.0257 17.7355 26.9062 17.6764C26.787 17.6173 26.6075 17.6173 26.4284 17.6173H25.2331V18.5626H26.4284C26.6074 18.5626 26.7869 18.5626 26.9062 18.5035Z" fill="white"/>
<path d="M35.5108 8.81458V9.5235L35.1526 8.81458H32.3443V9.5235L31.9856 8.81458H28.1612C27.504 8.81458 26.9659 8.93285 26.4881 9.16913V8.81458H23.7992V9.16913C23.5005 8.93293 23.1419 8.81458 22.6639 8.81458H13.0432L12.3856 10.2916L11.7284 8.81458H8.68089V9.5235L8.38209 8.81458H5.75283L4.55752 11.5911L3.1833 14.6041L3.15803 14.6633H6.26905L6.29071 14.6041L6.64941 13.7181H7.4262L7.78473 14.6633H11.2502V13.9544L11.5492 14.6632H13.282L13.5806 13.9544V14.6633H21.8868V13.1272H22.0066C22.126 13.1272 22.126 13.1272 22.126 13.3045V14.6042H26.4284V14.2497C26.787 14.4272 27.3244 14.6042 28.0416 14.6042H29.8345L30.193 13.6591H31.0294L31.3879 14.6042H34.8536V13.7182L35.3916 14.6042H38.2001V8.81458H35.5108ZM15.254 13.7773H14.2979V10.5279L14.238 10.6634V10.6618L12.8479 13.7773H11.9672L10.5332 10.5279V13.7773H8.50163L8.08337 12.8912H6.05146L5.63312 13.7773H4.5827L6.35044 9.64177H7.8442L9.51732 13.5999V9.64177H11.1005L11.1286 9.70099H11.1307L11.8846 11.3233L12.426 12.5387L12.4452 12.4775L13.6403 9.64186H15.2539L15.254 13.7773ZM19.3773 10.5279H17.0467V11.2959H19.3175V12.1229H17.0467V12.9503H19.3773V13.8362H16.031V9.64186H19.3773V10.5279ZM23.6393 12.0513C23.6409 12.0527 23.6429 12.0536 23.6448 12.0549C23.6674 12.0785 23.6867 12.1022 23.7032 12.1249C23.8177 12.2732 23.9102 12.4939 23.9149 12.8174C23.9152 12.823 23.9155 12.8285 23.9158 12.8341C23.9158 12.8374 23.9164 12.8402 23.9164 12.8435C23.9164 12.8454 23.9162 12.8468 23.9162 12.8486C23.9176 12.8811 23.9185 12.9143 23.9185 12.9503V13.7774H23.0223V13.3046C23.0223 13.0683 23.0223 12.7138 22.8428 12.4775C22.7863 12.4216 22.7292 12.3849 22.667 12.3587C22.5774 12.3013 22.4077 12.3004 22.126 12.3004H21.05V13.7774H20.0344V9.64186H22.3053C22.8428 9.64186 23.2015 9.64186 23.5004 9.81909C23.7932 9.99292 23.97 10.2812 23.9767 10.7377C23.9629 11.3664 23.5547 11.7114 23.2612 11.8277C23.2612 11.8277 23.4606 11.8674 23.6393 12.0513ZM25.6516 13.7773H24.6356V9.64177H25.6516V13.7773ZM37.304 13.7773H35.9892L34.077 10.646V13.2454L34.0708 13.2393V13.7799H33.0613V13.7774H32.0453L31.6868 12.8912H29.5952L29.2366 13.8363H28.1013C27.6236 13.8363 27.0256 13.7183 26.6673 13.3638C26.3087 13.0093 26.1296 12.5367 26.1296 11.7688C26.1296 11.1781 26.249 10.5869 26.6673 10.1144C26.9658 9.7597 27.5039 9.64186 28.161 9.64186H29.1173V10.5279H28.161C27.8025 10.5279 27.6236 10.5868 27.3841 10.7644C27.2051 10.9415 27.0855 11.2959 27.0855 11.7094C27.0855 12.1821 27.1453 12.4775 27.3841 12.7138C27.5638 12.8912 27.8026 12.9504 28.1013 12.9504H28.5196L29.8938 9.70116H31.3878L33.0612 13.6593V9.70124H34.555L36.2875 12.5959V9.70124H37.3038L37.304 13.7773Z" fill="white"/>
<path d="M22.7873 11.3642C22.8047 11.3458 22.8205 11.3249 22.8339 11.3009C22.8881 11.2162 22.9501 11.0636 22.9167 10.8554C22.9153 10.8363 22.9118 10.8186 22.9077 10.8015C22.9066 10.7967 22.9067 10.7926 22.9054 10.7878L22.9048 10.7879C22.8751 10.6867 22.7992 10.6245 22.7235 10.5868C22.6037 10.5279 22.4244 10.5279 22.2453 10.5279H21.05V11.4733H22.2453C22.4244 11.4733 22.6038 11.4733 22.7235 11.4141C22.7415 11.4051 22.7575 11.3928 22.7728 11.379L22.773 11.3798C22.773 11.3798 22.7792 11.3734 22.7873 11.3642Z" fill="white"/>
<path d="M40.8293 19.6852C40.8293 19.2716 40.71 18.858 40.5308 18.5626V15.9043H40.528V15.7268C40.528 15.7268 38.0234 15.7268 37.6506 15.7268C37.278 15.7268 36.8258 16.0811 36.8258 16.0811V15.7268H34.0771C33.6586 15.7268 33.1212 15.845 32.8818 16.0811V15.7268H27.982V16.0811C27.6238 15.7859 26.9659 15.7267 26.6674 15.7267H23.4405V16.081C23.1418 15.7858 22.4244 15.7266 22.0657 15.7266H18.4809L17.6441 16.6128L16.8672 15.7266H11.4894V21.6938H16.7479L17.6119 20.8393L18.3609 21.6938H21.7075V20.335H22.0064C22.4244 20.335 22.9624 20.335 23.3807 20.1575V21.7528H26.0697V20.2167H26.1889C26.3685 20.2167 26.3685 20.2167 26.3685 20.3939V21.7528H34.495C35.0332 21.7528 35.5706 21.6344 35.8694 21.3981V21.7528H38.4391C38.9765 21.7528 39.5148 21.6938 39.8733 21.4573C40.4235 21.131 40.7702 20.5533 40.8218 19.8643C40.8242 19.844 40.8272 19.8236 40.8291 19.8031L40.8256 19.7998C40.8278 19.7615 40.8293 19.7237 40.8293 19.6852ZM22.0065 19.3308H20.8111V20.8666H18.847L17.7039 19.5668L17.6999 19.5711L17.6441 19.5076L16.3295 20.8666H12.5052V16.7313H16.3893L17.4505 17.8804L17.6736 18.121L17.7038 18.09L18.9588 16.7314H22.1258C22.7404 16.7314 23.4287 16.8813 23.6895 17.4996C23.7209 17.622 23.7391 17.7581 23.7391 17.9128C23.7391 19.0942 22.9025 19.3308 22.0065 19.3308ZM27.982 19.2716C28.1014 19.4484 28.1612 19.6851 28.1612 20.0397V20.8666H27.1455V20.335C27.1455 20.0983 27.1455 19.6851 26.966 19.5076C26.8468 19.3308 26.6075 19.3308 26.2492 19.3308H25.1737V20.8666H24.1579V16.6721H26.4284C26.9062 16.6721 27.3244 16.6721 27.6238 16.8492C27.9223 17.0266 28.1612 17.322 28.1612 17.7947C28.1612 18.4444 27.7431 18.7988 27.4442 18.9172C27.7431 19.0349 27.9223 19.1534 27.982 19.2716ZM32.1053 17.558H29.7745V18.326H32.0453V19.1533H29.7745V19.9805H32.1053V20.8666H28.759V16.6721H32.1053V17.558ZM34.6148 20.8666H32.7026V19.9806H34.6148C34.7938 19.9806 34.9136 19.9806 35.0334 19.8623C35.0932 19.8031 35.1526 19.6852 35.1526 19.5669C35.1526 19.4485 35.0932 19.3309 35.0334 19.2716C34.9734 19.2126 34.8537 19.1535 34.6745 19.1535C33.7183 19.0943 32.583 19.1535 32.583 17.8539C32.583 17.2631 32.9416 16.6131 34.0172 16.6131H35.9891V17.6173H34.1368C33.9576 17.6173 33.8379 17.6173 33.7183 17.6764C33.5991 17.7356 33.5991 17.8539 33.5991 17.9719C33.5991 18.1492 33.7183 18.2083 33.8378 18.267C33.9576 18.3262 34.077 18.3262 34.1963 18.3262H34.7342C35.2721 18.3262 35.6305 18.4444 35.8695 18.6807C36.0489 18.858 36.1684 19.1535 36.1684 19.5669C36.1684 20.4528 35.6306 20.8666 34.6148 20.8666ZM39.7538 20.4528C39.5151 20.6894 39.0966 20.8666 38.4988 20.8666H36.587V19.9806H38.4987C38.6781 19.9806 38.7979 19.9806 38.9172 19.8623C38.9768 19.8031 39.0368 19.6852 39.0368 19.5669C39.0368 19.4485 38.9768 19.3309 38.9172 19.2716C38.8574 19.2126 38.738 19.1535 38.5587 19.1535C37.6029 19.0943 36.4672 19.1535 36.4672 17.854C36.4672 17.2925 36.7922 16.7852 37.5935 16.6346C37.6894 16.6215 37.7906 16.6131 37.9014 16.6131H39.8735V17.6173H38.021C37.8416 17.6173 37.7223 17.6173 37.6029 17.6764C37.5427 17.7356 37.4829 17.8539 37.4829 17.9719C37.4829 18.1492 37.5427 18.2083 37.7223 18.267C37.8416 18.3262 37.9612 18.3262 38.0808 18.3262H38.6184C38.8796 18.3262 39.0771 18.358 39.2578 18.4208C39.4233 18.4801 39.9712 18.7224 40.0938 19.3549C40.1045 19.4212 40.1123 19.4903 40.1123 19.5669C40.1123 19.9214 39.9927 20.2168 39.7538 20.4528Z" fill="white"/>
</g>
</svg>
