<svg width="22" height="20" viewBox="0 0 22 20" fill="none" xmlns="http://www.w3.org/2000/svg">
<g id="Group 1651">
<path id="Expand_Less" d="M10.708 10.7134C11.0973 10.3247 11.0973 9.67538 10.708 9.28573L1.72401 0.295224C1.32966 -0.0984084 0.690123 -0.0984085 0.296767 0.295224C-0.0975876 0.688856 -0.0975876 1.32822 0.296767 1.72185L8.56706 10L0.295766 18.2772C-0.0985879 18.6718 -0.0985879 19.3101 0.295766 19.7048C0.690121 20.0984 1.32966 20.0984 1.72301 19.7048L10.708 10.7134Z" fill="#030406"/>
<path id="Expand_Less_2" d="M21.708 10.7134C22.0973 10.3247 22.0973 9.67538 21.708 9.28573L12.724 0.295224C12.3297 -0.0984084 11.6901 -0.0984085 11.2968 0.295224C10.9024 0.688856 10.9024 1.32822 11.2968 1.72185L19.5671 10L11.2958 18.2772C10.9014 18.6718 10.9014 19.3101 11.2958 19.7048C11.6901 20.0984 12.3297 20.0984 12.723 19.7048L21.708 10.7134Z" fill="#030406"/>
</g>
</svg>
