<svg width="38" height="32" viewBox="0 0 38 32" fill="none" xmlns="http://www.w3.org/2000/svg">
<g id="Vector">
<path d="M35.5463 22.051L9.41176 26.6268C7.79706 26.9095 6.25731 25.8389 5.97261 24.2357L3.09589 8.036C2.81119 6.43267 3.88936 4.90377 5.50399 4.62107L31.6385 0.0452739C33.2532 -0.237424 34.793 0.83316 35.0777 2.43642L37.9544 18.6361C38.2392 20.2393 37.161 21.7683 35.5463 22.051Z" fill="#3555A2"/>
<path d="M31.6385 0.0452739L18.5713 2.3331L22.479 24.3389L35.5463 22.051C37.161 21.7683 38.2392 20.2393 37.9544 18.6361L35.0777 2.43642C34.793 0.83316 33.2532 -0.237424 31.6385 0.0452739Z" fill="#1B3555"/>
<path d="M28.9453 32H2.96875C1.32918 32 0 30.6802 0 29.0522V13.0072C0 11.3792 1.32918 10.0593 2.96875 10.0593H28.9453C30.5849 10.0593 31.9141 11.3792 31.9141 13.0072V29.0522C31.9141 30.6802 30.5849 32 28.9453 32Z" fill="#53D8E3"/>
<path d="M28.9453 10.0593H15.957V32H28.9453C30.5849 32 31.9141 30.6802 31.9141 29.0522V13.0072C31.9141 11.3792 30.5849 10.0593 28.9453 10.0593Z" fill="#18A8C9"/>
<path d="M0 15.0744H31.9141V20.0894H0V15.0744Z" fill="#ECF6FD"/>
<path d="M8.8385 27.1333H3.7879C3.17308 27.1333 2.67462 27.6282 2.67462 28.2387C2.67462 28.8492 3.17308 29.3441 3.7879 29.3441H8.8385C9.45332 29.3441 9.95178 28.8492 9.95178 28.2387C9.95178 27.6282 9.45332 27.1333 8.8385 27.1333Z" fill="#EAF6FF"/>
<path d="M15.957 15.0744H31.9141V20.0894H15.957V15.0744Z" fill="#D6E8FE"/>
</g>
</svg>
