<svg width="19" height="17" viewBox="0 0 19 17" fill="none" xmlns="http://www.w3.org/2000/svg">
<path id="Vector" d="M8.84263 3.4319L9.06194 3.83269L9.28126 3.4319C9.57049 2.90336 10.0578 2.18478 10.7828 1.62406C11.5348 1.04248 12.3829 0.75 13.3097 0.75C15.8974 0.75 17.8739 2.86341 17.8739 5.72173C17.8739 7.25286 17.2627 8.55237 16.1518 9.89281C15.0346 11.2409 13.4312 12.6084 11.4712 14.2786L11.6334 14.4689L11.4712 14.2786C10.8072 14.8446 10.0536 15.4867 9.27018 16.1719L9.2701 16.172C9.21271 16.2222 9.13888 16.25 9.06195 16.25C8.98502 16.25 8.9112 16.2222 8.85383 16.172L8.8537 16.1718C8.0707 15.4871 7.31751 14.8452 6.65409 14.2798L6.6531 14.279L6.65309 14.279C4.69288 12.6085 3.08937 11.241 1.97213 9.89285C0.861216 8.55237 0.25 7.25286 0.25 5.72173C0.25 2.86341 2.22647 0.75 4.81416 0.75C5.74099 0.75 6.58912 1.04248 7.34111 1.62406L7.49405 1.4263L7.34111 1.62406C8.06614 2.18478 8.55341 2.90333 8.84263 3.4319Z" fill="#D3D3D3" stroke="black" stroke-width="0.5"/>
</svg>
