<svg width="18" height="31" viewBox="0 0 18 31" fill="none" xmlns="http://www.w3.org/2000/svg">
<g id="Vector">
<path d="M9 0.730469C4.03733 0.730469 0 4.77118 0 9.73791C0 12.7553 1.49076 15.4316 3.77366 17.0666V29.6918C3.77366 29.9255 3.91451 30.1355 4.13018 30.225C4.3454 30.3145 4.59352 30.2649 4.75849 30.0997L8.96597 25.8895L13.1735 30.0997C13.2837 30.2099 13.4313 30.2687 13.5814 30.2687C13.6557 30.2687 13.7308 30.2543 13.8022 30.225C14.0174 30.1355 14.1583 29.9255 14.1583 29.6918V17.1151C16.4797 15.4841 18 12.7852 18 9.73791C18 4.77118 13.9627 0.730469 9 0.730469ZM13.0044 28.2986L9.37387 24.6658C9.26593 24.5572 9.11876 24.4968 8.96597 24.4968C8.81318 24.4968 8.66602 24.5572 8.55807 24.6658L4.92751 28.2986V17.7686C6.15122 18.3929 7.53516 18.7449 9 18.7449C10.4378 18.7449 11.7981 18.4055 13.0044 17.8033V28.2986ZM14.1583 15.6507C13.8011 15.9635 13.4146 16.2445 13.0044 16.489C11.8314 17.1888 10.4619 17.591 9 17.591C7.50992 17.591 6.11539 17.1728 4.92751 16.448C4.51668 16.1976 4.13018 15.9099 3.77366 15.5903C2.16684 14.1514 1.15385 12.0607 1.15385 9.73791C1.15385 5.4076 4.67375 1.88431 9 1.88431C13.3262 1.88431 16.8462 5.4076 16.8462 9.73791C16.8462 12.0936 15.8048 14.2102 14.1583 15.6507Z" fill="#030406"/>
<path d="M9 15.8542C5.62793 15.8542 2.88462 13.1088 2.88462 9.73407C2.88462 6.3593 5.62793 3.61396 9 3.61396C12.3721 3.61396 15.1154 6.3593 15.1154 9.73407C15.1154 13.1086 12.3721 15.8542 9 15.8542ZM9 4.7678C6.26412 4.7678 4.03846 6.99572 4.03846 9.73407C4.03846 12.4724 6.26412 14.7003 9 14.7003C11.7359 14.7003 13.9615 12.4724 13.9615 9.73407C13.9615 6.99572 11.7359 4.7678 9 4.7678Z" fill="#030406"/>
<path d="M7.81032 12.0384C7.66271 12.0384 7.51533 11.9823 7.40265 11.8698L6.32114 10.7901C6.09578 10.565 6.09533 10.1999 6.32046 9.97431C6.5456 9.74872 6.91091 9.7485 7.13649 9.97363L7.81032 10.6463L10.8637 7.59856C11.0891 7.3732 11.4544 7.37365 11.6795 7.59923C11.9047 7.82459 11.9042 8.1899 11.6789 8.41504L8.218 11.8698C8.10532 11.982 7.95771 12.0384 7.81032 12.0384Z" fill="#030406"/>
<path d="M8.9671 23.3371C8.64844 23.3371 8.38995 23.0788 8.38995 22.7601C8.38995 22.4415 8.64799 22.1832 8.96665 22.1832H8.9671C9.28576 22.1832 9.54402 22.4415 9.54402 22.7601C9.54402 23.0788 9.28576 23.3371 8.9671 23.3371Z" fill="#030406"/>
</g>
</svg>
