<svg width="17" height="21" viewBox="0 0 17 21" fill="none" xmlns="http://www.w3.org/2000/svg">
<path id="Vector" d="M8.72119 20.5L8.41089 20.359C5.67163 19.1139 3.32239 17.2676 1.42883 14.8708C0.783203 14.054 0.427734 13.0266 0.427734 11.978V0.5L1.51514 0.966553C2.84082 1.5354 3.91418 1.80029 4.89258 1.80029C6.60547 1.80029 8.30444 0.758789 8.32141 0.748291L8.72119 0.500488L9.12805 0.737549C9.14478 0.747192 10.9071 1.76196 12.6135 1.76196C13.8467 1.76196 15.0287 1.33521 15.9207 0.963379L17.0006 0.513428V12.0883C17.0006 13.078 16.6949 14.0244 16.1168 14.8259C14.3511 17.2723 11.9685 19.1371 9.03552 20.368L8.72119 20.5ZM1.98743 2.82361V11.978C1.98743 12.6771 2.22363 13.3611 2.65271 13.9039C4.31885 16.0126 6.36768 17.6564 8.74622 18.7942C11.2667 17.677 13.3197 16.036 14.8519 13.913C15.2371 13.3792 15.4408 12.748 15.4408 12.0883V2.81335C14.6062 3.09387 13.642 3.32166 12.6135 3.32166C11.0122 3.32166 9.45911 2.65454 8.74475 2.29883C8.04138 2.66943 6.51331 3.36011 4.89258 3.36011C3.8335 3.36023 2.82605 3.11169 1.98743 2.82361ZM13.5549 7.69409L12.452 6.59119L7.86609 11.1774L5.32715 8.63843L4.22412 9.74133L7.86609 13.3832L13.5549 7.69409Z" fill="black"/>
</svg>
