<svg width="18" height="25" viewBox="0 0 18 25" fill="none" xmlns="http://www.w3.org/2000/svg">
<g id="Vector">
<path d="M16.7597 7.58666H14.3728V6.14141C14.3728 3.03069 11.8421 0.5 8.73141 0.5C5.62073 0.5 3.09005 3.03069 3.09005 6.14141V7.58666H0.703125C0.314813 7.58666 0 7.90147 0 8.28978V23.7969C0 24.1852 0.314813 24.5 0.703125 24.5H16.7597C17.148 24.5 17.4628 24.1852 17.4628 23.7969V8.28978C17.4628 7.90142 17.148 7.58666 16.7597 7.58666ZM4.4963 6.14141C4.4963 3.80609 6.39614 1.90625 8.73141 1.90625C11.0667 1.90625 12.9665 3.80609 12.9665 6.14141V7.58666H11.6382V6.05834C11.6382 4.45555 10.3343 3.15153 8.73141 3.15153C7.12861 3.15153 5.82459 4.4555 5.82459 6.05834V7.58666H4.4963V6.14141ZM10.232 7.58666H7.23084V6.05834C7.23084 5.23095 7.90402 4.55778 8.73141 4.55778C9.5588 4.55778 10.232 5.23091 10.232 6.05834V7.58666ZM2.74659 16.999H1.40625V15.0877H2.74659V16.999ZM1.40625 18.4053H2.74659V20.3166H1.40625V18.4053ZM2.74659 13.6814H1.40625V11.7701H2.74659V13.6814ZM16.0566 23.0938H1.40625V21.7229H3.44972C3.83803 21.7229 4.15284 21.4081 4.15284 21.0198V11.0669C4.15284 10.6786 3.83803 10.3638 3.44972 10.3638H1.40625V8.99291H16.0566V23.0938Z" fill="black"/>
<path d="M9.79092 14.9971C9.14386 14.7683 8.42817 14.492 8.02617 14.1767C7.89703 14.0754 7.84092 13.8448 7.88649 13.603C7.93317 13.3553 8.09963 13.0554 8.42677 12.9569C9.09778 12.7547 9.55809 13.0231 9.72492 13.1478C10.0359 13.3803 10.4765 13.3167 10.7091 13.0057C10.9417 12.6947 10.878 12.2541 10.567 12.0216C10.4169 11.9093 10.0396 11.6626 9.4987 11.5445V11.2447C9.4987 10.8564 9.18389 10.5416 8.79558 10.5416C8.40727 10.5416 8.09245 10.8564 8.09245 11.2447V11.5905C8.06874 11.597 8.04511 11.6032 8.02116 11.6105C7.24285 11.8449 6.66169 12.5086 6.50452 13.3426C6.35991 14.1099 6.61041 14.8535 7.15824 15.2832C7.61124 15.6385 8.23814 15.9397 9.32217 16.323C10.0526 16.5812 10.0368 17.1726 9.996 17.415C9.91359 17.9051 9.50133 18.4348 8.79084 18.4395C8.09785 18.4439 7.88166 18.4098 7.34864 18.0612C7.0237 17.8485 6.58791 17.9397 6.37533 18.2646C6.16275 18.5896 6.25388 19.0254 6.57881 19.238C7.15266 19.6134 7.57519 19.7644 8.09241 19.8187V20.1552C8.09241 20.5435 8.40722 20.8583 8.79553 20.8583C9.18385 20.8583 9.49866 20.5435 9.49866 20.1552V19.7515C9.89367 19.6441 10.2536 19.4464 10.5609 19.164C10.9934 18.7666 11.2853 18.2283 11.3828 17.6481C11.5811 16.469 10.9413 15.4037 9.79092 14.9971Z" fill="black"/>
</g>
</svg>
