<svg width="40" height="40" viewBox="0 0 40 40" fill="none" xmlns="http://www.w3.org/2000/svg">
<g id="Visa">
<path id="Vector" d="M40 31.4282C40 32.7342 38.9414 33.7929 37.6355 33.7929H2.36445C1.05859 33.7929 0 32.7342 0 31.4282V8.57169C0 7.26575 1.05859 6.20715 2.36445 6.20715H37.6355C38.9415 6.20715 40 7.26583 40 8.57169V31.4282Z" fill="white"/>
<path id="Vector_2" d="M8.87797 20.1589L7.93875 15.6534C7.7782 15.0321 7.31102 14.8472 6.72727 14.8228H2.42117L2.38281 15.0286C5.73664 15.8417 7.95578 17.8031 8.87797 20.1589Z" fill="#F79F1A"/>
<g id="Group">
<path id="Vector_3" d="M18.8559 14.9135H16.0736L14.3359 25.1109H17.1136L18.8559 14.9135Z" fill="#059BBF"/>
<path id="Vector_4" d="M10.573 25.1006L14.9487 14.9204H12.0041L9.28203 21.8757L8.99148 20.8256C8.45789 19.5622 6.93289 17.7438 5.14258 16.5992L7.63086 25.1041L10.573 25.1006Z" fill="#059BBF"/>
<path id="Vector_5" d="M26.791 21.7775C26.8013 20.6198 26.058 19.7367 24.4561 19.0073C23.4826 18.5362 22.8892 18.2221 22.8963 17.7441C22.8963 17.3217 23.3988 16.868 24.4876 16.868C25.3986 16.8541 26.0545 17.053 26.5676 17.2589L26.819 17.3741L27.196 15.165C26.6445 14.959 25.7824 14.7391 24.7042 14.7391C21.9576 14.7391 20.0242 16.1212 20.0067 18.1035C19.9892 19.5694 21.3889 20.386 22.4427 20.8745C23.5245 21.3725 23.8875 21.6912 23.8805 22.1379C23.8736 22.8209 23.0184 23.1324 22.2193 23.1324C21.106 23.1324 20.5162 22.9789 19.6014 22.5978L19.2459 22.4345L18.8555 24.7196C19.5041 25.0031 20.7045 25.2509 21.9506 25.2612C24.8715 25.2612 26.7701 23.8967 26.791 21.7775Z" fill="#059BBF"/>
<path id="Vector_6" d="M30.0955 23.5825C30.4131 23.5825 33.2504 23.586 33.6554 23.586C33.7391 23.9411 33.9939 25.1145 33.9939 25.1145H36.5729L34.3219 14.9241H32.1756C31.509 14.9241 31.0136 15.1056 30.7203 15.7685L26.5918 25.1145H29.513C29.5128 25.1145 29.9873 23.8584 30.0955 23.5825ZM32.0009 18.6442C31.9872 18.6721 32.2314 18.0545 32.371 17.6706L32.5594 18.5499C32.5594 18.5499 33.09 20.986 33.2016 21.4956H30.8947C31.1251 20.9093 32.0009 18.6442 32.0009 18.6442Z" fill="#059BBF"/>
<path id="Vector_7" d="M37.6355 6.20715H2.36445C1.05859 6.20715 0 7.26575 0 8.57169V11.0257H40V8.57169C40 7.26575 38.9415 6.20715 37.6355 6.20715Z" fill="#059BBF"/>
</g>
<path id="Vector_8" d="M37.6355 33.7928H2.36445C1.05859 33.7928 0 32.7342 0 31.4283V28.9742H40V31.4283C40 32.7342 38.9415 33.7928 37.6355 33.7928Z" fill="#F79F1A"/>
<path id="Vector_9" opacity="0.15" d="M1.68102 31.4282V8.57169C1.68102 7.26575 2.73969 6.20715 4.04563 6.20715H2.36438C1.05859 6.20715 0 7.26575 0 8.57169V31.4283C0 32.7343 1.05859 33.7929 2.36445 33.7929H4.0457C2.73977 33.7929 1.68102 32.7342 1.68102 31.4282Z" fill="#202121"/>
</g>
</svg>
