<svg width="17" height="16" viewBox="0 0 17 16" fill="none" xmlns="http://www.w3.org/2000/svg">
<g id="Like">
<path id="Vector" d="M8.06142 3.37626L8.49999 4.17733L8.93857 3.37627C9.19984 2.89907 9.6356 2.25936 10.2765 1.764C10.9364 1.25389 11.6751 1 12.4844 1C14.7453 1 16.5 2.84191 16.5 5.39538C16.5 6.74902 15.9632 7.90925 14.9459 9.13617C13.9159 10.3784 12.4324 11.6441 10.5878 13.2152L10.5878 13.2152L10.5875 13.2154C9.96485 13.7458 9.2569 14.3488 8.52064 14.9924L8.52047 14.9925C8.51518 14.9971 8.50807 15 8.5 15C8.49194 15 8.48487 14.9971 8.47961 14.9925L8.47935 14.9923C7.74353 14.3492 7.03588 13.7464 6.41377 13.2165L6.41264 13.2156L6.41263 13.2156C4.56785 11.6443 3.08421 10.3784 2.05418 9.13621C1.03682 7.90925 0.5 6.74901 0.5 5.39538C0.5 2.84191 2.25471 1 4.51562 1C5.32491 1 6.06362 1.25389 6.72355 1.764L7.02933 1.36841L6.72355 1.764C7.3644 2.25937 7.80016 2.89904 8.06142 3.37626Z" fill="#E9E9E9" stroke="#030406"/>
</g>
</svg>
